<svg xmlns="http://www.w3.org/2000/svg" viewBox="0 0 1117.34 681.04"><defs><style>.cls-1{fill:#fff;}.cls-2{fill:#31024f;}</style></defs><g id="Camada_1" data-name="Camada 1"><path class="cls-1" d="M1100.33,547.33,1100,546l-23.61-80.19a48.73,48.73,0,0,0-5-12.16,50.48,50.48,0,0,0-1-15l-.18-.79-11.69-40.44a49.09,49.09,0,0,0-5.07-12.74,49,49,0,0,0-1-14.62l-.16-.73-12.47-43.94c-5.31-22-24.68-47.66-47.42-47.66H962.54l9.24-81.26c-1.86-23.07-7.16-46.11-10.77-61.79-.77-3.37-1.44-6.27-1.91-8.47h0a49.3,49.3,0,0,0-27.42-34.41c-36.2-16.71-360.21-148.08-731-1-14.3,5.67-24.22,19.31-27.41,34.4-2.41,11.41-7.33,43.77-8.27,74.62l9,77.88H134.66c-23,0-43,26.59-47.74,49.08L19.14,539.06l-.2.93A48.69,48.69,0,0,0,35,586.47c3.37,3.3,21.22,8.83,55.41,27.26,21.45,11.58,54.4,23.09,67.19,29.36a44.48,44.48,0,0,0,40.7-.88L251.7,618l2.34-1.52a36.11,36.11,0,0,0,10.59-10.59v8.56c0,11,4.11,23.07,11.27,33.06,9.27,12.94,22.38,20.35,36,20.35H814.78c14.12,0,27.21-7.85,35.92-21.55a61.11,61.11,0,0,0,9.58-31.86V608l57.1,36.68,5.49.84a49.09,49.09,0,0,0,7.36.56c.94,0,1.81,0,2.64.05,6.16.18,153.71-52.39,157.9-57.63A48.5,48.5,0,0,0,1100.33,547.33Z"/><path class="cls-2" d="M501.55,208.3h0a13.69,13.69,0,0,0,0,27.38h0a13.69,13.69,0,0,0,0-27.38Z"/><path class="cls-2" d="M517.22,272.39l1.44-.53,1.39.63a26,26,0,0,0,10.67,2.35,27.83,27.83,0,0,0,13.81-3.64l1.88-1.07,1.86,1.11a27.95,27.95,0,0,0,42.3-24V229.7l9.38-.57L598.9,249A28,28,0,0,0,647,268.11l2.53-2.63,2.66,2.49a28.35,28.35,0,0,0,19.44,7.49,28,28,0,0,0,21.19-10.18l2.26-2.72,2.82,2.13a53.87,53.87,0,0,0,72.65-5.85c10.42-11.5,10.79-21.73,9.27-28.3h0a28.28,28.28,0,0,0-4.51-10.08L774,218.6l1.06-2a28.47,28.47,0,0,0-4.08-32c-.54-.6-1.06-1.15-1.59-1.68a54.8,54.8,0,0,0-38.6-16,52.57,52.57,0,0,0-26,6.67l-5.19,2.91-.31-5.94a27.74,27.74,0,0,0-27.71-26.25,27.37,27.37,0,0,0-23.54,13.17L646,160.85l-3.22-2.25a27.71,27.71,0,0,0-17.23-5,28,28,0,0,0-23.78,15.51l-1.34,2.68-2.89-.75a28.18,28.18,0,0,0-8.12-1A45.57,45.57,0,0,0,576.68,172l-1.38.42-1.29-.63a27.52,27.52,0,0,0-26.36,1.65l-1.8,1.13-1.89-1a30,30,0,0,0-24.56-1.14L518,173l-1.4-.58c-12.89-5.37-30.57-3.31-44,5.11l-4.27,2.68L467,175.31a27.76,27.76,0,0,0-6.67-12c-14.05-14.82-32.95-16.72-47.84-16.72a64.19,64.19,0,1,0,0,128.37c17,0,32.57-6.06,43.91-17.07l2.73-2.65,2.57,2.8a53.32,53.32,0,0,0,39,17.2A47.92,47.92,0,0,0,517.22,272.39ZM700.53,199.5a37.85,37.85,0,0,1,52.76-9.34,38.34,38.34,0,0,1,5.08,4.26c.38.38.76.77,1.13,1.16a11.27,11.27,0,1,1-16.61,15.23c0-.05-4.94-5.23-11.34-5a15.61,15.61,0,0,0-15.31,15.34,15.36,15.36,0,0,0,15.34,15.35h0A15.35,15.35,0,0,0,744.17,230a11.27,11.27,0,1,1,18.46,12.92l-.16.24a37.88,37.88,0,0,1-61.94-43.64Zm-39.38-26.86a11.27,11.27,0,0,1,11.27-11.27h0a11.29,11.29,0,0,1,11.26,11.27V173a11.25,11.25,0,0,1-11.26,11.26h0A11.27,11.27,0,0,1,661.15,173Zm-.38,31.15a11.24,11.24,0,0,1,10.93-11.26h1a11.29,11.29,0,0,1,10.64,11.25v43.63a11.27,11.27,0,0,1-22.54,0ZM614.23,188h2.12v-6a11.27,11.27,0,1,1,22.53-.35V188H641a11.27,11.27,0,0,1,.38,22.52h-2.5V249.4a11.25,11.25,0,0,1-11.09,11.44h-.18a11.28,11.28,0,0,1-11.26-11.09,2.28,2.28,0,0,1,0-.37V210.49h-1.77a11.27,11.27,0,0,1-.35-22.54Zm-62.09,8.69a11.29,11.29,0,0,1,11.27-11.27c3.15,0,8.16,2,9,7.56l.29,1.88,1.37-1.33c4.88-4.73,11-6.88,14.57-6.88a32.73,32.73,0,0,1,6.63.61,9.9,9.9,0,0,1,2.75,1,19.8,19.8,0,0,0-.43,21.23,11.18,11.18,0,0,1-4.59,1h-1.28a41.51,41.51,0,0,0-8.32.62c-8.35,1.94-8.9,11-8.75,14.75a1.2,1.2,0,0,1,0,.27v20.83a11.27,11.27,0,0,1-22.53,0Zm-99.77,40.54h0c-8.43,13.38-22.3,20.75-39.06,20.75a47.52,47.52,0,0,1,0-95c11.56,0,26.06,1.3,35.73,11.51a11.29,11.29,0,0,1-.44,15.93,8.67,8.67,0,0,1-6.09,2.48c-3.33,0-6.84-1.48-9.88-2.95-8.12-3.93-13.09-4.46-16.88-4.46h-2.43a25,25,0,0,0,0,50c6.13,0,14.57-1.76,19.91-10.11l1-1.52H432.4l-9.74,0h-2.61a11.32,11.32,0,1,1-2.9-22.46,11.8,11.8,0,0,1,1.46-.09h2.09c3.88,0,12.69.05,17.89.05,5.94,0,11.41,3.5,14.64,9.34A27,27,0,0,1,452.37,237.18Zm13.29-15.5a36.4,36.4,0,0,1,35.89-35.9c7.13,0,12.31,2.16,17.88,7.46l1,1,.55-1.33c1.62-3.92,5.62-6.35,10.46-6.35a11.29,11.29,0,0,1,11.27,11.27v48.74a11.31,11.31,0,0,1-11.27,11.27c-3.86,0-7.23-2.5-9.25-6.86l-.66-1.42-1,1.21c-3.84,4.67-11,7.46-19,7.46a36.23,36.23,0,0,1-35.9-36.54Z"/><path class="cls-2" d="M324.53,224.38a18.55,18.55,0,0,1-12.27,7.72L209,255.37a18.73,18.73,0,0,1-13.53-3.05l5,24.54A15.46,15.46,0,0,0,217.05,286l98.7-22c8.84-1.4,13.33-13.87,11.3-22.55l-1.74-17.2Z"/><path class="cls-2" d="M929.47,250.78,829.2,229.47a18.55,18.55,0,0,1-12.27-7.72l-.78-5-5.65,33.76c-2,8.68,3.77,15.94,12.61,17.35l95.7,20a15.44,15.44,0,0,0,16.62-9.12L943,247.73A18.71,18.71,0,0,1,929.47,250.78Z"/><path class="cls-2" d="M933.58,131.59a23,23,0,0,0-12.83-16.12c-32.56-15-158-60-318.06-70L587.46,57.93,627,68.77l-67.21,39.74L582,79.92l-48.65-5,16.24-30.46c-169.16,7.15-304.08,54.42-338,70.07a23,23,0,0,0-12.83,16.12c-3.5,16.53-10.19,66-7.07,97.66a12.13,12.13,0,0,0,14,10.79L309,215.8a12.14,12.14,0,0,0,9.37-16.37c-3.87-9.88-8.84-41.41-9.45-41,21.2-14.44,174.76-30.49,257.17-27.95,96.36-.25,220.5,17.63,266.2,30.88-3.76,5.31-9.2,31-10.1,35.48-1.54,7.56,1.75,15.13,9.36,16.37l100.28,21.31a12.14,12.14,0,0,0,14-10.79C949,192.06,937.08,148.12,933.58,131.59Z"/><path class="cls-2" d="M833.7,559.45c-2,8.54-10.11,13.33-19.8,13.33H311c-10.12,0-18.48-5.23-20-14.49l-.28.17v56c0,11.21,10,27.33,21.17,27.33H814.78c11.21,0,19.41-16.12,19.41-27.33V559.76C834,559.67,833.87,559.55,833.7,559.45Z"/><path class="cls-2" d="M526.55,373.69a12.79,12.79,0,1,0-18.06,1A12.79,12.79,0,0,0,526.55,373.69Z"/><path class="cls-2" d="M512.47,403.52a12.8,12.8,0,1,0-12.8,12.79A12.8,12.8,0,0,0,512.47,403.52Z"/><path class="cls-2" d="M559.45,444.37a12.8,12.8,0,1,0,12.79,12.79A12.8,12.8,0,0,0,559.45,444.37Z"/><path class="cls-2" d="M559.45,362.67a12.8,12.8,0,1,0-12.8-12.79A12.79,12.79,0,0,0,559.45,362.67Z"/><path class="cls-2" d="M222.05,379.83H186.57a3.53,3.53,0,0,0-3.43,2.8s-13,59.84-12.35,60.66,43.61-2.89,43.61-2.89a7.88,7.88,0,0,0,7.79-6.57l7.65-44.76h0a7.91,7.91,0,0,0-7.79-9.24Z"/><path class="cls-2" d="M608.91,373.69a12.79,12.79,0,1,0-18.06,1A12.79,12.79,0,0,0,608.91,373.69Z"/><path class="cls-2" d="M507.45,432.28a12.79,12.79,0,1,0,18.07-1A12.79,12.79,0,0,0,507.45,432.28Z"/><ellipse class="cls-2" cx="559.29" cy="402.48" rx="31.24" ry="27.75"/><path class="cls-2" d="M607.45,403.52a12.8,12.8,0,1,0,12.79-12.8A12.79,12.79,0,0,0,607.45,403.52Z"/><path class="cls-2" d="M589.81,432.28a12.79,12.79,0,1,0,18.07-1A12.79,12.79,0,0,0,589.81,432.28Z"/><path class="cls-2" d="M1074.87,553l-23.52-79.95a22.64,22.64,0,0,0-8.24-13.05,23.48,23.48,0,0,0,1.85-15.69L1033.31,404a22.63,22.63,0,0,0-8.23-13,22.62,22.62,0,0,0,1.94-15.26l-12.43-43.82a22.7,22.7,0,0,0-22.16-17.77H844.53a35.84,35.84,0,0,0-20.14,6.15,22.86,22.86,0,0,0-15.51-6.15H750.71l-3.93-10.23c-1.31-8-8.13-16.43-16.21-16.43H382.31c-8.08,0-14.89,5.36-16.19,13.23l-4.31,13.45c-2.95-1.36-43.6,0-43.6,0A22.59,22.59,0,0,0,303,319.93a35.54,35.54,0,0,0-19.48-5.81H134.66a22.75,22.75,0,0,0-22.26,18.29L44.52,545a22.72,22.72,0,0,0,8.23,22.24c5.89,6.3,88.85,38.89,116.38,52.4a18.2,18.2,0,0,0,17.93-1.09l52.77-24a10.11,10.11,0,0,0,4.49-7l1.78-16.12c.73-.32,22.81-10.52,23.3-10.74,7-3.12,8-8.08,8-13.57V535c0-6.34,3.5-15.3,15-18h0c.27,8.56,3.17,22.8,8.15,28.31a21.28,21.28,0,0,0,15.79,7.41h492A21.22,21.22,0,0,0,824,545.49c4.46-4.8,5.21-21.26,6.08-28.57.32.55,15.38.28,15.38,15.82l2.19,17.84c.47,7.07-1.1,13.42,10.6,22.36l61.51,41.21c4.21,3.36,14.2,9.73,21,5.66,1.79-1.07,128.94-46.72,129.71-47.69A22.53,22.53,0,0,0,1074.87,553ZM262.78,476.33A17.52,17.52,0,0,1,248,490.81c-56,8.12-93.37,8.19-93.76,9.89l-6.68,29.15a14.77,14.77,0,0,1-12.22,11.37l-70.14,6.52,67.75-212.53H281.81a12.79,12.79,0,0,1,12.61,14.9ZM438,472.21l-57,5.7,5.9-36.22a3.42,3.42,0,0,0,0-.79,3.49,3.49,0,0,0-3.49-3.28h-21a3.51,3.51,0,0,0-3.44,2.84l-7.84,41-69.66,5.07,35-151.31,60.18-.15-7.33,43.34a3.54,3.54,0,0,0,.78,2.85,3.5,3.5,0,0,0,2.68,1.24h21a3.51,3.51,0,0,0,3.44-2.88l7.93-44.4h56.46Zm121.34,17.62c-51.49,0-93.22-37.07-93.22-82.8s41.73-82.8,93.22-82.8S652.5,361.3,652.5,407,610.77,489.83,559.29,489.83ZM769.63,487l-29.12-47.35a4.65,4.65,0,0,0-.71-.7l-.48-.31-1.21-.35-11.11,0h-.15l-1.35.31a4.14,4.14,0,0,0-.72.45l-.88,1a3.76,3.76,0,0,0-.34.88,4,4,0,0,0-.1.81,3.45,3.45,0,0,0,.08.77L730.6,483l-48.7-4.18L660.77,339.46l60.33,0,30.35,44.5c1.35,1.76,12.26,1.74,13.6.07a3.45,3.45,0,0,0,.68-2.93l-8.26-41.6H808.2l39.07,155Zm114,39.22a13.28,13.28,0,0,1-11-10.57L829.8,351a13.24,13.24,0,0,1,13-15.77l147.77-.1,12.56,43.67H925a3.49,3.49,0,0,0-3.44,4.17l4.21,21.58a3.51,3.51,0,0,0,3.43,2.83l80.07-.13,11.87,40.59h-79a3.5,3.5,0,0,0-3.44,4.17l4.21,21.58a3.5,3.5,0,0,0,3.44,2.83l81,0L1051,554.12Z"/><polygon class="cls-2" points="245.49 473.4 245.49 473.4 245.49 473.4 245.49 473.4"/></g></svg>