<svg id="Capa_1" enable-background="new 0 0 512 512" height="512" viewBox="0 0 512 512" width="512" xmlns="http://www.w3.org/2000/svg"><g><g><path d="m380.188 501.991v-33.545c0-68.529-55.553-124.082-124.082-124.082-68.529 0-124.082 55.553-124.082 124.082v33.545z" fill="#fff"/><path d="m264.797 388.185c23.957 10.775 40.809 36.349 40.809 66.193v7.18c0 11.178-9.061 20.239-20.239 20.239h-112.088v20.455h165.654v-31.695c0-42.809-32.477-78.027-74.136-82.372z" fill="#e1bdfc"/><path d="m447.827 255.527c.568-5.442.865-10.965.865-16.557 0-87.023-70.546-157.57-157.57-157.57h-70.032c-87.023 0-157.57 70.547-157.57 157.57 0 5.592.296 11.114.865 16.557-17.121 4.958-29.643 20.743-29.643 39.463 0 22.695 18.397 41.092 41.091 41.092 6.467 0 12.582-1.498 18.025-4.16 28.666 39.172 74.974 64.618 127.232 64.618h70.032c52.258 0 98.566-25.446 127.232-64.618 5.443 2.662 11.558 4.16 18.025 4.16 22.694 0 41.092-18.397 41.092-41.092-.001-18.72-12.523-34.504-29.644-39.463z" fill="#c49a8b"/><path d="m291.121 81.34h-20.206c70.551 0 127.744 57.193 127.744 127.743v10.848c0 70.551-57.193 127.744-127.744 127.744h-79.651c-67.515 0-122.789-52.379-127.422-118.716-.205 3.291-.322 6.607-.322 9.95 0 87.023 70.546 157.57 157.57 157.57h70.031c87.023 0 157.57-70.547 157.57-157.57 0-87.022-70.546-157.569-157.57-157.569z" fill="#b2748a"/><path d="m490.685 22.954c-23.414-23.638-89.664.897-136.696 22.991-20.219-7.567-42.107-11.715-64.966-11.715h-60.873c-18.168 0-35.719 2.625-52.311 7.496-21.606-19.879-44.68-34.796-60.971-28.439-15.518 6.054-22.494 30.476-25.226 58.068-28.717-10.158-57.007-15.111-69.867-2.373-21.49 21.285 5.986 86.115 24.906 123.957-1.256 8.714-1.919 17.619-1.919 26.68v18.488c1.307 32.461 20.72 49.784 34.459 61.133l37.604-119.64 44.583 31.266 48.61-36.874 50.569 37.176 52.517-40.252 53.846 40.529 36.477-33.582 35.989 120.481c18.816-11.648 34.944-29.568 36.996-60.238v-18.488c0-20.173-3.235-39.59-9.193-57.771 22.824-46.935 49.286-114.844 25.466-138.893z" fill="#fff"/><path d="m350.113 236.77c-19.274 0-36.499 8.762-47.918 22.515-.656-.436-1.352-.842-2.113-1.191-29.981-13.794-59.675-13.747-88.259.145-.645.314-1.237.671-1.804 1.048-11.42-13.755-28.645-22.517-47.92-22.517-34.383 0-62.256 27.873-62.256 62.256s27.873 62.255 62.256 62.255 62.256-27.872 62.256-62.255c0-6.194-.917-12.172-2.602-17.819 1.811-.235 3.602-.738 5.278-1.552 19.292-9.375 37.867-9.328 58.455.145 1.591.732 3.274 1.182 4.973 1.402-1.685 5.649-2.603 11.628-2.603 17.824 0 34.383 27.873 62.255 62.256 62.255s62.256-27.872 62.256-62.255c.001-34.382-27.872-62.256-62.255-62.256z" fill="#96b4eb"/><path d="m162.099 236.77c-2.109 0-4.193.107-6.248.313 25.237 2.772 44.875 24.153 44.875 50.128 0 27.858-22.583 50.441-50.441 50.441-25.976 0-47.357-19.637-50.129-44.874-.205 2.055-.313 4.138-.313 6.248 0 34.383 27.873 62.255 62.256 62.255s62.256-27.872 62.256-62.255c0-34.382-27.873-62.256-62.256-62.256z" fill="#8286ea"/><path d="m352.83 236.77c-2.109 0-4.193.107-6.248.313 25.237 2.772 44.874 24.153 44.874 50.128 0 27.858-22.583 50.441-50.441 50.441-25.976 0-47.357-19.637-50.129-44.874-.205 2.055-.312 4.138-.312 6.248 0 34.383 27.873 62.255 62.256 62.255s62.256-27.872 62.256-62.255c0-34.382-27.873-62.256-62.256-62.256z" fill="#8286ea"/><circle cx="162.099" cy="299.026" fill="#ccf3e2" r="39.751"/><circle cx="350.113" cy="299.026" fill="#ccf3e2" r="39.751"/><path d="m130.674 476.613-39.327-61.383v-47.505h-36.193v47.505l-39.352 61.383c-6.895 10.973.992 25.244 13.951 25.244h86.969c12.96 0 20.847-14.27 13.952-25.244z" fill="#c1e5ef"/><path d="m111.93 447.357h-77.372l-18.756 29.256c-6.895 10.974.992 25.244 13.951 25.244h86.97c12.96 0 20.846-14.271 13.951-25.244z" fill="#a1e8c3"/><path d="m114.505 451.376-23.158-36.145v-26.246h-27.344v16.847l23.639 45.544z" fill="#a6aaed"/><path d="m112.187 447.758h-26.423l3.796 7.315c4.481 8.803-.644 20.249-9.066 20.249h-56.52c-2.257 0-4.273-.827-5.935-2.199l-2.238 3.49c-6.895 10.974.991 25.244 13.951 25.244h86.969c12.96 0 20.847-14.27 13.951-25.244z" fill="#85adc2"/><path d="m95.207 387.719h-44.057c-3.743 0-6.778-3.035-6.778-6.778v-10.651c0-3.743 3.035-6.778 6.778-6.778h44.057c3.743 0 6.778 3.035 6.778 6.778v10.651c0 3.743-3.034 6.778-6.778 6.778z" fill="#c1e5ef"/><path d="m477.01 356.804 8.222 23.118c.352.99 1.049 1.774 1.928 2.17l20.54 9.254c2.902 1.307 2.902 5.931 0 7.238l-20.54 9.254c-.879.396-1.576 1.18-1.928 2.17l-8.222 23.118c-1.161 3.266-5.269 3.266-6.431 0l-8.222-23.118c-.352-.99-1.049-1.774-1.928-2.17l-20.539-9.254c-2.902-1.307-2.902-5.931 0-7.238l20.539-9.254c.88-.396 1.576-1.181 1.928-2.17l8.222-23.118c1.162-3.266 5.27-3.266 6.431 0z" fill="#ccf3e2"/><ellipse cx="438.002" cy="477.759" fill="#a1e8c3" rx="17.953" ry="17.953" transform="matrix(.23 -.973 .973 .23 -127.609 794.278)"/></g><g fill="#3c122c"><path d="m256.106 327.626c-13.011 0-23.596-10.585-23.596-23.595 0-3.316 2.689-6.005 6.005-6.005s6.005 2.689 6.005 6.005c0 6.388 5.197 11.585 11.585 11.585s11.585-5.197 11.585-11.585c0-3.316 2.689-6.005 6.005-6.005s6.005 2.689 6.005 6.005c.001 13.011-10.583 23.595-23.594 23.595z"/><path d="m284.323 443.484h-10.513c-3.316 0-6.005-2.689-6.005-6.005s2.689-6.005 6.005-6.005h10.513c3.316 0 6.005 2.689 6.005 6.005s-2.689 6.005-6.005 6.005z"/><path d="m284.323 470.508h-10.513c-3.316 0-6.005-2.689-6.005-6.005s2.689-6.005 6.005-6.005h10.513c3.316 0 6.005 2.689 6.005 6.005s-2.689 6.005-6.005 6.005z"/><path d="m284.323 497.532h-10.513c-3.316 0-6.005-2.689-6.005-6.005s2.689-6.005 6.005-6.005h10.513c3.316 0 6.005 2.689 6.005 6.005s-2.689 6.005-6.005 6.005z"/><path d="m162.099 344.847c-25.265 0-45.82-20.554-45.82-45.82s20.555-45.82 45.82-45.82 45.82 20.554 45.82 45.82c0 25.265-20.555 45.82-45.82 45.82zm0-79.63c-18.643 0-33.809 15.167-33.809 33.809s15.167 33.809 33.809 33.809 33.809-15.167 33.809-33.809-15.167-33.809-33.809-33.809z"/><path d="m350.112 344.847c-25.266 0-45.82-20.554-45.82-45.82s20.554-45.82 45.82-45.82 45.82 20.554 45.82 45.82c0 25.265-20.554 45.82-45.82 45.82zm0-79.63c-18.643 0-33.809 15.167-33.809 33.809s15.167 33.809 33.809 33.809c18.643 0 33.809-15.167 33.809-33.809.001-18.642-15.166-33.809-33.809-33.809z"/><path d="m164.002 328.127c-4.423 0-8.752-1.29-12.529-3.784-5.088-3.359-8.565-8.499-9.787-14.473-1.043-5.093-.04-10.288 2.824-14.627 2.864-4.338 7.247-7.301 12.34-8.344 9.061-1.855 17.941 4.006 19.795 13.067.665 3.249-1.43 6.423-4.679 7.087-3.248.664-6.423-1.429-7.087-4.679-.526-2.573-3.044-4.239-5.62-3.709-1.951.4-3.628 1.534-4.725 3.195-1.097 1.662-1.481 3.651-1.081 5.602.58 2.831 2.227 5.266 4.638 6.858 2.412 1.592 5.3 2.151 8.129 1.57 3.932-.805 7.315-3.093 9.525-6.441 2.211-3.349 2.985-7.358 2.18-11.289-2.243-10.955-12.978-18.044-23.936-15.802-14.506 2.97-23.891 17.187-20.921 31.692.665 3.249-1.43 6.423-4.679 7.087-3.254.663-6.423-1.429-7.088-4.679-4.298-20.992 9.285-41.569 30.279-45.867 17.441-3.573 34.54 7.717 38.111 25.16 1.449 7.074.055 14.289-3.923 20.315s-10.065 10.143-17.14 11.59c-1.541.315-3.089.471-4.626.471z"/><path d="m351.986 328.127c-4.424 0-8.753-1.29-12.53-3.784-5.089-3.359-8.564-8.499-9.787-14.473-2.152-10.514 4.651-20.819 15.165-22.971 9.061-1.855 17.94 4.007 19.794 13.067.666 3.249-1.43 6.423-4.679 7.087-3.248.669-6.423-1.429-7.087-4.679-.255-1.246-.98-2.318-2.041-3.018-1.061-.701-2.331-.943-3.578-.691-4.026.824-6.631 4.771-5.807 8.797.58 2.831 2.227 5.266 4.638 6.858 2.411 1.593 5.299 2.15 8.128 1.57 3.932-.805 7.315-3.093 9.526-6.441 2.211-3.349 2.985-7.358 2.181-11.289-2.244-10.955-12.984-18.044-23.936-15.802-7.027 1.439-13.073 5.527-17.024 11.513-3.952 5.986-5.336 13.152-3.897 20.179.666 3.249-1.429 6.422-4.679 7.087-3.248.671-6.423-1.429-7.087-4.679-2.082-10.169-.079-20.541 5.64-29.204 5.719-8.664 14.469-14.581 24.639-16.663 17.44-3.576 34.539 7.717 38.111 25.16 1.449 7.074.055 14.289-3.923 20.315s-10.066 10.143-17.14 11.59c-1.542.315-3.09.471-4.627.471z"/><path d="m499.051 14.667c-13.715-13.848-36.79-16.737-70.543-8.833-21.185 4.961-46.428 14.17-75.095 27.389-20.68-7.149-42.316-10.769-64.391-10.769h-60.872c-16.664 0-33.194 2.088-49.229 6.212-28.15-24.671-50.541-33.289-68.333-26.35-15.764 6.15-25.896 23.696-30.795 53.466-32.909-9.632-55.326-8.023-68.306 4.832-12.894 12.774-14.779 34.783-5.76 67.286 6.534 23.548 17.871 48.904 26.803 67.042-1.025 8.192-1.544 16.476-1.544 24.676v18.488c0 .158.003.316.01.474.375 9.316 2.099 17.577 4.655 24.91-6.827 8.686-10.918 19.619-10.918 31.5 0 28.177 22.924 51.101 51.101 51.101 5.113 0 10.051-.761 14.712-2.167 2.815 3.495 5.771 6.873 8.853 10.13-1.342-.347-2.742-.551-4.191-.551h-44.058c-9.256 0-16.787 7.531-16.787 16.787v10.651c0 7.138 4.487 13.234 10.782 15.656v15.699l-37.818 58.992c-5.205 8.284-5.487 18.341-.755 26.904 4.732 8.562 13.398 13.674 23.181 13.674h86.969c3.335 0 6.535-.607 9.499-1.73 1.638 1.169 3.637 1.864 5.803 1.864 5.528 0 10.009-4.481 10.009-10.009v-8.738c1.64-5.166 1.629-10.62 0-15.749v-9.058c0-26.783 9.285-51.433 24.796-70.918 9.357 3.212 19.086 5.614 29.102 7.129-17.606 16.242-28.657 39.487-28.657 65.273v35.86c0 3.316 2.688 6.005 6.005 6.005 3.316 0 6.005-2.689 6.005-6.005v-35.86c0-26.413 13.407-49.747 33.765-63.579 2.665.127 5.345.198 8.041.198h26.019v99.373c0 3.316 2.688 6.005 6.005 6.005s6.005-2.689 6.005-6.005v-99.373h32.002c2.696 0 5.375-.071 8.04-.198 20.359 13.832 33.766 37.166 33.766 63.579v35.86c0 3.316 2.689 6.005 6.005 6.005s6.005-2.689 6.005-6.005v-35.86c0-25.787-11.052-49.032-28.658-65.274 10.018-1.515 19.746-3.919 29.104-7.131 15.512 19.485 24.795 44.138 24.795 70.921v33.545c0 5.527 4.482 10.009 10.009 10.009s10.009-4.481 10.009-10.009v-33.545c0-29.445-9.551-56.695-25.702-78.839 22.26-10.889 41.764-26.569 57.164-45.69 4.663 1.409 9.603 2.174 14.72 2.174 28.177 0 51.101-22.924 51.101-51.101 0-10.01-2.905-19.347-7.9-27.238 3.682-8.812 5.884-18.44 6.582-28.86.018-.261.026-.524.026-.786v-18.488c0-19.355-2.803-38.458-8.337-56.853 13.854-28.976 23.611-54.554 29.015-76.079 8.644-34.426 6.088-57.983-7.814-72.019zm-423.218 311.406c-17.139 0-31.083-13.944-31.083-31.083 0-3.66.657-7.164 1.826-10.426 7.165 10.096 15.351 17.271 21.286 22.214 2.951 6.643 6.32 13.06 10.076 19.216-.697.047-1.397.079-2.105.079zm30.015-27.046c0-31.017 25.234-56.251 56.251-56.251s56.251 25.234 56.251 56.251-25.234 56.25-56.251 56.25-56.251-25.233-56.251-56.25zm-40.685 116.203v-17.503h16.175v17.503c0 1.914.549 3.788 1.582 5.399l12.61 19.682h-44.566l12.616-19.679c1.033-1.612 1.583-3.487 1.583-5.402zm-10.782-41.709h37.596v4.189h-37.596zm62.341 118.327h-86.969c-3.444 0-5.106-2.335-5.661-3.339-.555-1.005-1.648-3.655.136-6.494l19.036-29.693h59.96l18.993 29.645c1.807 2.905.72 5.542.167 6.543-.556 1.003-2.218 3.338-5.662 3.338zm6.984-44.663-22.35-34.885v-15.753c6.22-2.46 10.639-8.52 10.639-15.605v-10.652c0-1.694-.257-3.328-.727-4.872 10.992 9.557 23.226 17.72 36.441 24.185-12.183 16.703-20.599 36.316-24.003 57.582zm167.416-60.654h-70.032c-28.117 0-54.417-7.911-76.803-21.616 5.682 1.538 11.65 2.372 17.812 2.372 37.639 0 68.261-30.622 68.261-68.261 0-4.679-.475-9.248-1.376-13.665.225-.1.45-.197.672-.304 17.788-8.642 34.234-8.583 53.318.198.083.038.17.065.253.103-.902 4.418-1.376 8.988-1.376 13.668 0 37.639 30.622 68.261 68.261 68.261 6.169 0 12.143-.837 17.83-2.378-22.39 13.711-48.698 21.622-76.82 21.622zm-72.028-125.008c24.023-10.291 48.863-10.265 73.977.073-2.509 3.811-4.641 7.887-6.356 12.176-10.74-4.769-20.996-7.161-31.098-7.161-10.084 0-20.018 2.384-30.13 7.135-1.724-4.307-3.869-8.4-6.393-12.223zm131.018 93.754c-31.017 0-56.25-25.233-56.25-56.25s25.233-56.251 56.25-56.251 56.251 25.234 56.251 56.251-25.234 56.25-56.251 56.25zm65.554-37.261c1.751-6.033 2.708-12.4 2.708-18.99 0-37.64-30.622-68.262-68.262-68.262-19.354 0-36.838 8.11-49.272 21.093-30.351-13.451-60.439-13.462-89.497-.028-12.432-12.967-29.905-21.064-49.245-21.064-37.639 0-68.261 30.622-68.261 68.262 0 6.586.956 12.948 2.704 18.978-3.024-4.749-5.786-9.682-8.262-14.779.055-.152.125-.298.174-.454l32.78-104.292 31.411 22.028c4.191 2.939 9.801 2.834 13.878-.259l41.603-31.559 43.483 31.967c4.219 3.101 9.98 3.045 14.139-.142l45.418-34.811 46.701 35.15c4.541 3.418 10.876 3.105 15.057-.745l22.612-20.817 30.017 100.49c-2.872 6.328-6.182 12.419-9.886 18.234zm20.712 8.057c-.71 0-1.413-.031-2.112-.078 3.461-5.673 6.592-11.566 9.372-17.653 9.195-5.695 16.919-12.271 23.166-19.691.427 2.048.657 4.167.657 6.34.001 17.138-13.943 31.082-31.083 31.082zm47.644-245.123c-5.272 20.996-15.162 46.481-29.394 75.747-1.337 2.749-1.552 5.911-.6 8.817 5.711 17.427 8.607 35.63 8.607 54.104v18.082c-1.207 16.896-7.255 30.242-18.778 41.063l-31.147-104.27c-1.162-3.891-4.247-6.908-8.163-7.985-1.03-.283-2.079-.421-3.12-.421-2.919 0-5.776 1.086-7.977 3.112l-29.258 26.936-46.008-34.628c-4.224-3.179-10.049-3.155-14.245.063l-45.501 34.875-43.446-31.939c-4.201-3.09-9.936-3.046-14.092.105l-41.765 31.682-37.549-26.333c-3.074-2.156-6.993-2.717-10.547-1.509-3.555 1.207-6.322 4.038-7.448 7.619l-32.032 101.91c-8.987-9.784-16.245-22.234-17.021-40.119v-18.243c0-8.311.605-16.722 1.799-24.999.343-2.376-.049-4.8-1.123-6.948-33.867-67.735-35.793-101.764-27.153-110.322 2.668-2.641 14.709-10.082 57.653 5.108 3.411 1.206 7.188.778 10.243-1.162 3.054-1.941 5.047-5.177 5.403-8.778 3.95-39.88 14.614-47.02 17.789-48.259 3.347-1.306 16.748-3.279 48.717 26.134 3.041 2.797 7.325 3.797 11.29 2.633 15.866-4.658 32.35-7.019 48.994-7.019h60.872c20.925 0 41.394 3.69 60.839 10.967 2.97 1.114 6.264.978 9.135-.369 29.016-13.631 54.21-22.997 74.883-27.838 24.071-5.636 41.275-4.757 48.438 2.475 7.299 7.368 7.904 25.021 1.705 49.709z"/><path d="m336.56 139.028c-3.316 0-6.005-2.689-6.005-6.005v-11.341c0-3.316 2.689-6.005 6.005-6.005s6.005 2.689 6.005 6.005v11.341c.001 3.316-2.688 6.005-6.005 6.005z"/><path d="m302.112 113.701c-3.316 0-6.005-2.689-6.005-6.005v-11.34c0-3.316 2.689-6.005 6.005-6.005s6.005 2.689 6.005 6.005v11.34c0 3.316-2.689 6.005-6.005 6.005z"/><path d="m371.48 128.971c-3.316 0-6.005-2.689-6.005-6.005v-11.341c0-3.316 2.689-6.005 6.005-6.005s6.005 2.689 6.005 6.005v11.341c0 3.316-2.689 6.005-6.005 6.005z"/><path d="m160.783 150.236c-3.316 0-6.005-2.689-6.005-6.005v-11.34c0-3.316 2.689-6.005 6.005-6.005s6.005 2.689 6.005 6.005v11.34c0 3.316-2.689 6.005-6.005 6.005z"/></g></g></svg>