<svg id="Capa_1" enable-background="new 0 0 512 512" height="512" viewBox="0 0 512 512" width="512" xmlns="http://www.w3.org/2000/svg"><g><g><path d="m459.554 215.269-13.666-66.582c19.781-13.466 21.671-62.844 14.085-131.237.012-9.392-10.969-14.503-18.147-8.446l-81.011 68.35c-20.914-9.861-44.096-15.349-68.498-15.349h-2.12c-13.823-10.827-19.806-23.265-22.248-33.461-2.558-10.684-18.539-14.094-26.407-5.557-12.461 13.52-15.065 28.192-14.756 39.017h-8.983c-9.087 0-18.004.763-26.698 2.228-4.511-5.203-7.692-11.582-12.121-18.709-5.425-8.732-20.22-8.007-24.277 1.262-4.487 10.253-6.906 19.786-7.663 28.636l-78.718-66.418c-7.178-6.057-18.159-.946-18.147 8.446-8.033 67.601-6.184 117.245 15.303 131.199l-14 66.274c-8 37.872-10.815 76.655-8.369 115.285l8.001 126.35c1.408 6.08 6.529 9.538 10.366 9.538 13.768 0 13.768-40.108 27.536-40.108s13.768 40.108 27.537 40.108c11.2 0 13.289-26.537 21.089-36.439-3.99 12.184-6.155 25.193-6.155 38.71v33.606h248.613v-33.606c0-7.761-.718-15.354-2.079-22.721 3.488 10.157 6.93 20.45 13.906 20.45 13.771 0 13.771-40.108 27.541-40.108 13.772 0 13.772 40.108 27.545 40.108 4.878 0 10.636-3.684 11.907-11.258l8.399-125.052c2.574-38.347-.037-76.867-7.765-114.516z" fill="#a07575"/><path d="m332.381 463.384c-6.138-7.47-11.305-15.629-14.261-24.516-1.013-1.639-1.98-3.304-2.865-5.011h-7.833c-1.174 1.424-2.333 2.86-3.516 4.277.963 4.863 1.478 9.907 1.478 15.082v7.194c0 11.198-9.078 20.276-20.276 20.276h-112.292v20.492h165.953v-29.553c-2.155-2.491-4.181-5.097-6.075-7.783-.106-.152-.208-.307-.313-.458z" fill="#925873"/><path d="m442.558 12.662-53.236 44.916c16.246 30.893 26.138 58.565 11.228 73.669-7.034 7.125-10.038 17.303-8.734 27.23 13.626 103.773 19.32 188.846-2.114 221.202-3.783 5.238-6.964 10.102-10.993 10.102-11.376 0-11.376-33.13-22.753-33.13-11.375 0-11.375 33.13-22.75 33.13-11.374 0-11.374-33.13-22.749-33.13-11.374 0-11.374 33.13-22.749 33.13s-11.375-33.13-22.749-33.13c-11.373 0-11.373 33.13-22.746 33.13-11.372 0-11.372-33.13-22.745-33.13-11.372 0-11.372 33.13-22.743 33.13-11.374 0-11.374-33.13-22.748-33.13-11.373 0-11.373 33.13-22.746 33.13s-11.373-33.13-22.746-33.13-11.373 33.13-22.746 33.13-11.373-33.13-22.747-33.13c-11.373 0-11.373 33.13-22.745 33.13-3.17 0-7.4-2.856-8.562-7.879l-.77-360.904c0 .037-.004.073-.004.11l.935 439.108c1.408 6.08 6.529 9.538 10.366 9.538 13.768 0 13.768-40.108 27.536-40.108s13.768 40.108 27.537 40.108c13.768 0 13.768-40.108 27.536-40.108s13.768 40.108 27.537 40.108 13.769-40.108 27.537-40.108c13.769 0 13.769 40.108 27.539 40.108 13.767 0 13.767-40.108 27.533-40.108 13.768 0 13.768 40.108 27.536 40.108s13.768-40.108 27.537-40.108c13.77 0 13.77 40.108 27.54 40.108s13.77-40.108 27.54-40.108 13.77 40.108 27.54 40.108c13.771 0 13.771-40.108 27.541-40.108 13.772 0 13.772 40.108 27.545 40.108 4.878 0 10.636-3.684 11.907-11.258l1.054-437.388c.01-9.392-10.971-14.503-18.149-8.446z" fill="#925873"/><path d="m315.782 336.956c0 33.231-26.939 51.915-60.17 51.915s-60.17-18.684-60.17-51.915 42.344-68.425 60.17-68.425 60.17 35.194 60.17 68.425z" fill="#c49a8b"/><path d="m255.612 268.531c-2.03 0-4.382.462-6.95 1.32 15.668 5.759 40.74 29.509 40.74 52.105 0 25.947-21.034 40.535-46.98 40.535-23.27 0-42.577-11.741-46.314-32.879-.431 2.449-.665 4.902-.665 7.344 0 33.23 26.939 51.915 60.17 51.915s60.17-18.685 60.17-51.915c-.001-33.231-42.345-68.425-60.171-68.425z" fill="#b2748a"/></g><g><path d="m175.887 257.515c-.92 0-1.855-.212-2.731-.66-.027-.014-5.296-2.605-11.54-2.605s-11.513 2.591-11.566 2.617c-2.963 1.478-6.577.289-8.068-2.667-1.492-2.957-.326-6.557 2.623-8.062.786-.401 7.942-3.92 17.012-3.92 9.069 0 16.225 3.519 17.011 3.921 2.959 1.51 4.133 5.134 2.622 8.094-1.063 2.083-3.174 3.282-5.363 3.282z" fill="#3c122c"/><path d="m364.241 257.515c-.92 0-1.855-.212-2.73-.659-.028-.014-5.297-2.605-11.542-2.605-6.244 0-11.513 2.591-11.566 2.617-2.962 1.478-6.577.289-8.069-2.667-1.492-2.957-.326-6.557 2.623-8.062.786-.401 7.942-3.92 17.012-3.92 9.069 0 16.225 3.519 17.012 3.92 2.959 1.511 4.134 5.134 2.623 8.094-1.063 2.083-3.174 3.281-5.363 3.282z" fill="#3c122c"/><path d="m85.122 268.701c-.399 0-.802-.023-1.207-.072-5.498-.66-9.421-5.652-8.761-11.151 1.301-10.84 3.288-22.175 5.906-33.69 1.227-5.4 6.595-8.782 12-7.555 5.399 1.227 8.782 6.6 7.555 12-2.464 10.84-4.331 21.484-5.549 31.636-.612 5.091-4.94 8.832-9.944 8.832z" fill="#fff"/><path d="m97.802 203.484c-.632 0-1.272-.06-1.914-.185-5.437-1.051-8.993-6.311-7.941-11.748.29-1.496.57-2.994.837-4.495.971-5.452 6.185-9.083 11.632-8.111 5.451.972 9.083 6.18 8.111 11.631-.285 1.597-.583 3.191-.89 4.783-.929 4.794-5.128 8.125-9.835 8.125z" fill="#fff"/><g fill="#3c122c"><path d="m286.553 348.104c-12.891 0-24.245-6.703-30.76-16.808-6.515 10.104-17.869 16.808-30.759 16.808-3.322 0-6.016-2.694-6.016-6.016s2.694-6.016 6.016-6.016c13.531 0 24.539-11.009 24.539-24.54 0-3.322 2.694-6.016 6.016-6.016h.407c3.322 0 6.016 2.694 6.016 6.016 0 13.531 11.009 24.54 24.541 24.54 3.322 0 6.016 2.694 6.016 6.016s-2.694 6.016-6.016 6.016z"/><ellipse cx="161.616" cy="303.655" rx="17.622" ry="17.622" transform="matrix(.707 -.707 .707 .707 -167.38 203.219)"/><ellipse cx="349.969" cy="303.655" rx="17.622" ry="17.622" transform="matrix(.23 -.973 .973 .23 -25.969 574.497)"/><path d="m255.612 394.887c-18.073 0-34.528-5.27-46.335-14.838-12.987-10.526-19.851-25.427-19.851-43.093 0-37.072 45.381-74.441 66.186-74.441s66.186 37.369 66.186 74.441c0 17.666-6.864 32.567-19.851 43.093-11.806 9.568-28.262 14.838-46.335 14.838zm0-120.34c-13.94 0-54.153 31.734-54.153 62.409 0 31.706 27.198 45.899 54.153 45.899s54.153-14.192 54.153-45.899c.001-30.675-40.213-62.409-54.153-62.409z"/><path d="m470.109 216.911-12.488-60.836c17.35-18.163 21.372-60.71 13.102-135.598-.224-8.027-4.839-15.067-12.163-18.476-7.521-3.501-16.13-2.351-22.468 2.997l-76.192 64.284c-19.54-8.34-40.129-12.881-61.356-13.55-9.932-7.156-16.626-15.942-19.904-26.161-2.895-9.029-10.609-15.995-20.635-18.636-11.13-2.932-22.97-.203-30.902 7.12-9.886 9.127-16.672 23.008-19.107 39.086-.003.016-.003.032-.005.049-8.318-4.02-15.743-9.624-20.557-17.064-4.77-7.371-13.85-11.535-23.157-10.606-8.831.882-15.905 5.982-18.922 13.643-2.208 5.609-3.978 11.035-5.309 16.275l-64.522-54.44c-6.339-5.348-14.948-6.496-22.467-2.997-7.311 3.402-11.923 10.422-12.164 18.432-8.85 74.833-4.477 117.424 14.247 135.776l-12.737 60.3c-8.187 38.76-11.07 78.458-8.567 117.991l8.001 126.35c.035.549.115 1.093.239 1.629 2.285 9.864 10.941 17.303 20.135 17.303 14.044 0 19.149-14.874 23.251-26.826 1.115-3.247 2.761-8.045 4.285-11.123 1.523 3.078 3.17 7.876 4.285 11.124 4.103 11.951 9.208 26.825 23.252 26.825 1.491 0 2.876-.177 4.175-.491v22.683c0 5.538 4.49 10.027 10.027 10.027s10.027-4.489 10.027-10.027v-33.606c0-8.836 1.01-17.439 2.918-25.704.13-.283.26-.57.389-.83 1.523 3.078 3.17 7.876 4.285 11.123 3.509 10.221 7.756 22.57 17.695 25.935v26.887c0 3.322 2.694 6.016 6.016 6.016s6.016-2.694 6.016-6.016v-27.229c9.286-3.795 13.378-15.692 16.776-25.592 1.115-3.248 2.762-8.046 4.285-11.124 1.524 3.078 3.171 7.876 4.286 11.124 4.103 11.951 9.209 26.825 23.253 26.825 14.043 0 19.148-14.874 23.25-26.826 1.114-3.247 2.761-8.043 4.283-11.121 1.523 3.078 3.17 7.874 4.284 11.121 4.102 11.952 9.207 26.826 23.251 26.826s19.15-14.874 23.253-26.827c1.115-3.247 2.762-8.045 4.285-11.122 1.524 3.078 3.171 7.877 4.286 11.124 3.594 10.47 7.96 23.181 18.428 26.172v26.649c0 3.322 2.694 6.016 6.016 6.016s6.016-2.694 6.016-6.016v-27.546c8.773-4.107 12.738-15.638 16.046-25.275 1.115-3.248 2.763-8.047 4.287-11.125 1.247 2.521 2.574 6.186 3.628 9.219.864 5.65 1.326 11.43 1.326 17.317v33.606c0 5.538 4.49 10.027 10.027 10.027s10.027-4.489 10.027-10.027v-22.362c.81.112 1.654.17 2.532.17 14.045 0 19.151-14.874 23.254-26.825 1.115-3.249 2.764-8.049 4.288-11.127 1.524 3.078 3.173 7.879 4.288 11.128 4.104 11.951 9.211 26.825 23.256 26.825 9.195 0 19.634-6.741 21.796-19.626.055-.327.093-.656.116-.987l8.399-125.052c2.636-39.245-.037-78.679-7.945-117.208zm-12.064 115.861-8.358 124.449c-.235 1.043-.639 1.654-1.019 2.01-1.743-2.684-3.866-8.866-5.212-12.787-4.104-11.951-9.211-26.825-23.256-26.825-14.044 0-19.151 14.874-23.254 26.825-1.115 3.248-2.763 8.049-4.287 11.126-1.524-3.078-3.172-7.878-4.287-11.126-4.103-11.951-9.209-26.825-23.253-26.825s-19.151 14.874-23.254 26.825c-1.115 3.248-2.763 8.048-4.287 11.126-1.523-3.078-3.171-7.877-4.286-11.125-4.103-11.952-9.209-26.826-23.254-26.826-14.043 0-19.148 14.874-23.251 26.824-1.115 3.248-2.762 8.047-4.285 11.124-1.523-3.078-3.17-7.876-4.285-11.123-4.102-11.952-9.207-26.826-23.251-26.826-14.043 0-19.148 14.874-23.25 26.826-1.114 3.247-2.761 8.044-4.284 11.122-1.523-3.078-3.17-7.876-4.285-11.123-4.103-11.951-9.209-26.825-23.253-26.825s-19.149 14.874-23.252 26.825c-1.115 3.247-2.762 8.046-4.285 11.123-1.523-3.078-3.17-7.876-4.285-11.123-4.103-11.951-9.208-26.825-23.252-26.825s-19.149 14.875-23.252 26.826c-1.115 3.247-2.761 8.044-4.284 11.122-1.523-3.078-3.17-7.875-4.285-11.122-4.103-11.952-9.209-26.826-23.253-26.826s-19.149 14.874-23.251 26.826c-1.222 3.558-3.083 8.979-4.719 11.957l-7.926-125.17c-2.389-37.72.361-75.597 8.173-112.579l14-66.274c.857-4.057-.872-8.223-4.35-10.482-10.697-6.946-21.255-33.683-10.807-121.606.048-.397.07-.796.07-1.196 0-.224-.001-.642.582-.913.577-.271.9-.002 1.072.143l74.442 62.807c.197 12.729 3.695 23.999 10.511 33.707 13.055 18.594 35.737 27.244 54.998 31.25-4.799 4.136-8.826 9.098-10.856 14.93-2.077 5.965-2.964 15.32 4.603 26.012 7.728 10.918 17.999 14.709 28.231 14.709 12.869-.001 25.676-5.998 33.278-11.357 4.516-3.183 5.592-9.411 2.423-13.937-3.169-4.525-9.416-5.625-13.952-2.472-.948.659-23.341 15.983-33.612 1.471-3.187-4.503-2.38-6.83-2.036-7.824 2.635-7.602 18.787-15.559 28.86-18.539 4.838-1.417 7.873-6.207 7.087-11.188-.788-4.98-5.15-8.589-10.191-8.458-14.748.426-56.505-3.452-72.42-26.121-9.15-13.032-9.13-31.472.058-54.806.218-.554 1.299-.94 2.255-1.035 1.827-.179 3.631.469 4.327 1.544 16.244 25.108 52.078 36.217 79.073 34.22 5.523-.409 9.669-5.218 9.259-10.74-.409-5.523-5.198-9.663-10.741-9.259-6.064.448-13.652-.077-21.511-1.752.56-1.012.963-2.132 1.146-3.343 1.731-11.424 6.426-21.395 12.883-27.355 2.859-2.641 7.758-3.629 12.192-2.463 1.618.426 5.503 1.802 6.646 5.367 4.992 15.567 15.283 28.552 30.587 38.594 1.696 1.113 3.604 1.645 5.491 1.645.565 0 1.125-.065 1.68-.159 20.846.576 41.002 5.364 59.968 14.306 3.549 1.673 7.745 1.123 10.742-1.406l81.011-68.35c.171-.144.491-.415 1.073-.143.582.271.581.688.581.912-.001.374.02.748.061 1.119 10.337 93.195-1.678 116.341-9.761 121.843-3.345 2.277-4.994 6.341-4.18 10.305l13.667 66.582c7.547 36.765 10.098 74.389 7.582 111.832z"/><path d="m383.495 364.718c-3.322 0-6.016-2.694-6.016-6.016v-11.361c0-3.322 2.694-6.016 6.016-6.016s6.016 2.694 6.016 6.016v11.361c0 3.322-2.693 6.016-6.016 6.016z"/><path d="m418.146 336.8c-3.322 0-6.016-2.694-6.016-6.016v-11.361c0-3.322 2.694-6.016 6.016-6.016s6.016 2.694 6.016 6.016v11.361c0 3.322-2.694 6.016-6.016 6.016z"/><path d="m409.897 387.417c-3.322 0-6.016-2.694-6.016-6.016v-11.361c0-3.322 2.694-6.016 6.016-6.016s6.016 2.694 6.016 6.016v11.361c0 3.322-2.694 6.016-6.016 6.016z"/><path d="m106.536 366.868c-3.323 0-6.016-2.694-6.016-6.016v-11.361c0-3.322 2.694-6.016 6.016-6.016s6.016 2.694 6.016 6.016v11.361c0 3.323-2.694 6.016-6.016 6.016z"/><path d="m131.669 386.316c-3.322 0-6.016-2.694-6.016-6.016v-11.361c0-3.322 2.694-6.016 6.016-6.016s6.016 2.694 6.016 6.016v11.361c0 3.322-2.694 6.016-6.016 6.016z"/><path d="m94.714 139.539c-2.298 0-4.493-1.323-5.493-3.556-1.36-3.032-.004-6.592 3.028-7.951l9.14-4.098c1.543-.692 2.107-1.967 2.306-2.665.199-.699.39-2.08-.559-3.481l-17.153-25.318c-1.863-2.751-1.144-6.492 1.607-8.355 2.752-1.865 6.492-1.143 8.355 1.606l17.152 25.318c2.692 3.975 3.483 8.902 2.17 13.519-1.312 4.617-4.577 8.391-8.957 10.355l-9.139 4.098c-.798.358-1.634.528-2.457.528z"/><path d="m416.872 139.539c-.822 0-1.659-.169-2.458-.528l-9.14-4.098c-4.379-1.963-7.645-5.737-8.957-10.354-1.313-4.617-.521-9.545 2.172-13.519l17.151-25.317c1.863-2.751 5.604-3.47 8.355-1.606 2.751 1.863 3.47 5.604 1.607 8.355l-17.153 25.317c-.95 1.401-.758 2.782-.56 3.48.199.699.763 1.973 2.306 2.665l9.141 4.099c3.032 1.359 4.388 4.919 3.028 7.951-1 2.231-3.194 3.555-5.492 3.555z"/></g></g></g></svg>