<svg id="Capa_1" enable-background="new 0 0 507.967 507.967" height="512" viewBox="0 0 507.967 507.967" width="512" xmlns="http://www.w3.org/2000/svg"><g><g><path d="m375.587 497.967v-33.516c0-68.468-55.504-123.972-123.972-123.972-68.468 0-123.972 55.504-123.972 123.972v33.516z" fill="#a1e8c3"/><path d="m260.298 384.001c23.936 10.766 40.773 36.316 40.773 66.134v7.174c0 11.168-9.053 20.221-20.221 20.221h-111.989v20.436h165.507v-31.666c0-42.771-32.448-77.957-74.07-82.299z" fill="#85adc2"/><path d="m266.618 107.963h-30.008c-14.087 0-25.507-11.42-25.507-25.507v-33.008c0-14.087 11.42-25.507 25.507-25.507h30.008c14.087 0 25.507 11.42 25.507 25.507v33.009c0 14.086-11.42 25.506-25.507 25.506z" fill="#efc5b4"/><path d="m366.571 96.345c-11.855-6.062-24.518-4.3-37.783-1.138-18.932-16.5-44.276-24.915-77.173-24.915-34.242 0-60.302 8.377-79.464 25.605-14.187-2.772-27.666-3.962-40.179 2.938-52.425 28.912-87.938 90.275-87.938 154.378v.001c0 63.353 34.687 127.741 86.105 156.934 13.351 7.58 27.833 4.405 43.126-.114 19.347 17.562 45.237 26.102 78.35 26.102 31.302 0 56.151-8.301 75.119-24.583 13.23 5.082 25.877 9.025 37.74 3.165 56.122-27.721 94.722-94.673 94.722-161.503v-.001c0-65.995-37.641-128.754-92.625-156.869z" fill="#e8a284"/><path d="m366.571 96.345c-9.979-5.102-20.532-4.654-31.533-2.501 1.757 4.518 3.456 9.078 4.999 13.682 33.608 27.424 55.22 71.534 55.22 117.516v.001c0 56.538-32.655 113.179-80.134 136.63-10.036 4.958-68.997 18.12-95.478 18.12-28.013 0-49.916-7.224-66.283-22.082-12.938 3.824-25.189 6.51-36.484.097-39.827-22.612-67.771-70.184-72.209-119.19-.404 4.842-.636 9.71-.636 14.597 0 63.352 34.687 127.741 86.105 156.934 13.351 7.581 27.833 4.405 43.126-.114 19.347 17.562 45.237 26.102 78.35 26.102 31.302 0 56.151-8.301 75.119-24.583 13.23 5.082 25.877 9.025 37.74 3.165 56.122-27.721 94.722-94.673 94.722-161.503.001-65.997-37.64-128.756-92.624-156.871z" fill="#d57b84"/><ellipse cx="157.691" cy="299.886" fill="#f3d4d2" rx="48.114" ry="48.114" transform="matrix(.707 -.707 .707 .707 -165.865 199.339)"/><ellipse cx="345.538" cy="299.886" fill="#f3d4d2" rx="48.114" ry="48.114" transform="matrix(.23 -.973 .973 .23 -25.714 567.281)"/><path d="m345.538 348c26.573 0 48.114-21.542 48.114-48.114 0-9.02-2.487-17.457-6.806-24.671-9.606 28.525-26.939 54.229-49.322 72.108 2.608.437 5.282.677 8.014.677z" fill="#da9fd0"/><path d="m41.764 28.583 8.214 23.098c.352.989 1.048 1.773 1.927 2.168l20.521 9.246c2.899 1.306 2.899 5.926 0 7.232l-20.521 9.246c-.879.396-1.575 1.18-1.927 2.168l-8.214 23.098c-1.16 3.263-5.265 3.263-6.425 0l-8.214-23.098c-.352-.989-1.048-1.773-1.927-2.168l-20.521-9.246c-2.899-1.306-2.899-5.925 0-7.232l20.521-9.246c.879-.396 1.575-1.18 1.927-2.168l8.214-23.098c1.161-3.263 5.265-3.263 6.425 0z" fill="#efc5b4"/><path d="m415.606 1.815 6.093 17.133c.261.734.777 1.315 1.429 1.609l15.222 6.858c2.151.969 2.151 4.395 0 5.364l-15.222 6.858c-.652.294-1.168.875-1.429 1.609l-6.093 17.133c-.861 2.421-3.905 2.421-4.766 0l-6.093-17.133c-.261-.734-.777-1.315-1.429-1.609l-15.222-6.858c-2.151-.969-2.151-4.395 0-5.364l15.222-6.858c.652-.294 1.168-.875 1.429-1.609l6.093-17.133c.86-2.42 3.905-2.42 4.766 0z" fill="#efc5b4"/><g fill="#e8a284"><ellipse cx="487.528" cy="115.492" rx="17.937" ry="17.937" transform="matrix(.23 -.973 .973 .23 263.114 563.443)"/><circle cx="130.008" cy="42.666" r="7.737"/></g></g><g><g fill="#3c122c"><path d="m482.783 291.15c0-13.37-5.174-25.545-13.616-34.653.019-1.094.03-2.189.03-3.283 0-69.16-39.412-135.778-98.072-165.771-13.89-7.103-28.256-5.431-39.22-3.179-.157.032-.306.08-.459.119-8.698-6.875-18.445-12.259-29.319-16.174v-18.76c0-19.579-15.929-35.507-35.507-35.507h-30.008c-19.578 0-35.507 15.928-35.507 35.507v18.337c-11.997 4.098-22.584 9.89-31.845 17.416-13.637-2.303-28.041-2.885-42.116 4.878-27.426 15.125-50.76 38.564-67.479 67.783-16.768 29.302-25.63 62.274-25.63 95.352 0 1.086.035 2.173.054 3.26-8.453 9.112-13.64 21.295-13.64 34.675 0 21.931 13.906 40.66 33.358 47.872 1.647 3.456 3.378 6.882 5.222 10.26 16.551 30.326 39.434 54.38 66.175 69.563.122.069.245.132.367.2-5.127 14.186-7.926 29.475-7.926 45.407v33.516c0 5.523 4.478 10 10 10s10-4.477 10-10v-33.516c0-14.016 2.553-27.445 7.204-39.857 1.096.067 2.192.103 3.288.103 7.617 0 15.212-1.551 22.598-3.551.977.796 1.968 1.574 2.974 2.332-6.906 12.619-10.845 27.083-10.845 42.455v35.828c0 3.314 2.686 6 6 6 3.313 0 6-2.686 6-6v-35.828c0-12.924 3.234-25.097 8.903-35.791 18.467 10.704 40.982 15.993 67.851 15.993 26.301 0 48.808-5.643 67.425-16.819 5.94 10.891 9.329 23.363 9.329 36.617v35.828c0 3.314 2.687 6 6 6s6-2.686 6-6v-35.828c0-15.487-3.989-30.06-10.991-42.747 6.999 2.445 14.502 4.471 22.21 4.471 2.527 0 5.078-.234 7.638-.727 4.113 11.756 6.361 24.379 6.361 37.521v33.516c0 5.523 4.478 10 10 10s10-4.477 10-10v-33.516c0-15.952-2.808-31.259-7.948-45.46 30.406-17.629 55.448-46.256 71.61-79.904 19.542-7.164 33.531-25.942 33.531-47.938zm-261.679-241.702c0-8.55 6.956-15.507 15.507-15.507h30.008c8.551 0 15.507 6.957 15.507 15.507v13.441c-9.46-1.73-19.614-2.597-30.511-2.597-10.908 0-21.063.817-30.511 2.449zm138.941 356.304c-4.355 2.151-9.107 2.341-14.77 1.201 7.871-9.266 14.579-20.148 20.082-32.667 2.223-5.056-.074-10.956-5.131-13.178-5.052-2.22-10.956.076-13.179 5.131-17.714 40.304-48.931 59.896-95.433 59.896-44.426 0-73.494-15.748-91.479-49.56-2.594-4.876-8.649-6.728-13.525-4.132-4.876 2.594-6.726 8.649-4.133 13.525 3.543 6.661 7.478 12.747 11.797 18.286-7.29 1.006-13.509.428-19.197-2.802-47.717-27.092-81.043-88.05-81.043-148.239 0-59.799 33.262-118.319 82.768-145.622 4.6-2.537 9.484-3.665 14.806-3.859-17.514 23.609-27.95 57.461-31.825 103.134-.468 5.503 3.615 10.343 9.118 10.81.288.024.573.036.857.036 5.14 0 9.51-3.939 9.952-9.155 3.868-45.582 14.371-77.668 32.107-98.091 17.634-20.305 43.736-30.175 79.798-30.175 67.392 0 101.622 37.19 110.99 120.585.616 5.489 5.57 9.435 11.054 8.821 5.488-.617 9.438-5.565 8.821-11.054-4.739-42.187-15.652-73.803-33.281-96.337 4.963.036 9.031 1.004 12.819 2.942 52.143 26.661 87.178 86.124 87.178 147.964 0 63.886-36.66 126.612-89.151 152.54z"/><path d="m157.691 245.772c-29.838 0-54.113 24.275-54.113 54.114 0 29.838 24.275 54.114 54.113 54.114 29.839 0 54.114-24.275 54.114-54.114 0-29.838-24.275-54.114-54.114-54.114zm0 96.228c-23.222 0-42.113-18.892-42.113-42.114s18.892-42.114 42.113-42.114c23.222 0 42.114 18.893 42.114 42.114 0 23.222-18.893 42.114-42.114 42.114z"/><path d="m345.537 245.772c-29.838 0-54.113 24.275-54.113 54.114 0 29.838 24.275 54.114 54.113 54.114 29.839 0 54.114-24.275 54.114-54.114.001-29.838-24.275-54.114-54.114-54.114zm0 96.228c-23.222 0-42.113-18.892-42.113-42.114s18.892-42.114 42.113-42.114 42.114 18.893 42.114 42.114c.001 23.222-18.892 42.114-42.114 42.114z"/><path d="m287.29 345.574-14.267 14.266-15.505-14.417c-2.233-2.076-5.668-2.147-7.984-.167l-17.442 14.91-16.347-14.95c-2.445-2.236-6.239-2.066-8.476.378-2.236 2.445-2.066 6.241.379 8.477l20.262 18.53c2.236 2.045 5.645 2.101 7.947.133l17.408-14.881 15.824 14.714c1.153 1.073 2.62 1.606 4.085 1.606 1.538 0 3.074-.588 4.243-1.757l18.357-18.357c2.344-2.343 2.344-6.142 0-8.485-2.341-2.343-6.142-2.343-8.484 0z"/><path d="m336.128 230.352c3.314 0 6-2.687 6-6v-11.019c0-3.313-2.686-6-6-6-3.313 0-6 2.687-6 6v11.019c0 3.314 2.687 6 6 6z"/><path d="m299.63 210.029c3.314 0 6-2.686 6-6v-11.019c0-3.314-2.686-6-6-6s-6 2.686-6 6v11.019c0 3.314 2.687 6 6 6z"/><path d="m322.027 170.214c-3.313 0-6-2.687-6-6v-11.019c0-3.313 2.687-6 6-6s6 2.687 6 6v11.019c0 3.313-2.687 6-6 6z"/></g><path d="m214.484 119.713c-3.873 0-7.559-2.262-9.189-6.044-2.186-5.072.153-10.956 5.226-13.142 2.21-.952 4.48-1.843 6.748-2.647 5.2-1.846 10.921.876 12.767 6.082 1.846 5.205-.877 10.921-6.082 12.768-1.854.658-3.711 1.386-5.518 2.165-1.289.554-2.632.818-3.952.818z" fill="#fff"/><path d="m169.778 175.403c-.781 0-1.575-.092-2.368-.285-5.367-1.303-8.661-6.711-7.357-12.078 4.031-16.598 11.411-31.201 21.34-42.232 3.695-4.105 10.018-4.436 14.123-.743 4.104 3.695 4.436 10.018.742 14.123-7.72 8.576-13.518 20.185-16.77 33.573-1.112 4.574-5.203 7.642-9.71 7.642z" fill="#fff"/><ellipse cx="157.691" cy="299.886" fill="#3c122c" rx="17.575" ry="17.575" transform="matrix(.707 -.707 .707 .707 -165.865 199.339)"/><ellipse cx="345.538" cy="299.886" fill="#3c122c" rx="17.575" ry="17.575" transform="matrix(.924 -.383 .383 .924 -88.459 155.059)"/></g></g></svg>