<svg id="Capa_1" enable-background="new 0 0 512 512" height="512" viewBox="0 0 512 512" width="512" xmlns="http://www.w3.org/2000/svg"><g><g><path d="m379.798 501.759v-33.71c0-68.865-55.826-124.69-124.69-124.69-68.865 0-124.69 55.826-124.69 124.69v33.71z" fill="#ccf3e2"/><path d="m447.767 254.087c.571-5.468.869-11.018.869-16.637v-.001c0-87.45-70.892-158.342-158.342-158.342h-70.374c-87.45 0-158.342 70.892-158.342 158.342v.001c0 5.619.298 11.169.869 16.637-17.205 4.983-29.789 20.846-29.789 39.657 0 22.806 18.488 41.293 41.293 41.293 6.498 0 12.644-1.505 18.113-4.18 28.807 39.363 75.341 64.935 127.856 64.935h70.375c52.514 0 99.049-25.572 127.856-64.935 5.469 2.675 11.615 4.18 18.113 4.18 22.805 0 41.293-18.487 41.293-41.293-.001-18.811-12.584-34.673-29.79-39.657z" fill="#c49a8b"/><path d="m107.923 341.851s7.804-24.664 22.761-16.443 10.405 18.498 17.558 21.239 19.509-21.924 35.117-10.277c13.298 9.924.65 24.664 2.601 28.775s16.258 0 19.509 8.221c0 0 3.252 10.277-11.705 16.443-14.958 6.167-85.841-47.958-85.841-47.958z" fill="#d789b9"/><path d="m290.294 78.483h-20.305c70.897 0 128.37 57.473 128.37 128.369v10.902c0 70.896-57.473 128.37-128.37 128.37h-80.042c-.184 0-.366-.006-.55-.007 1.007 8.018-4.807 16.143-3.438 19.028 1.951 4.111 16.258 0 19.509 8.222 0 0 3.252 10.277-11.705 16.443s-85.841-47.958-85.841-47.958 3.963-12.505 11.645-16.735c-32.549-21.383-54.795-57.164-57.667-98.29-.206 3.308-.323 6.639-.323 9.999v.001c0 87.45 70.892 158.342 158.342 158.342h70.374c87.45 0 158.342-70.892 158.342-158.342v-.001c.001-87.451-70.891-158.343-158.341-158.343z" fill="#b2748a"/><path d="m185.96 365.145c-1.369-2.885 4.445-11.009 3.438-19.028-10.925-.046-21.526-1.46-31.645-4.073-3.768 3.087-6.969 5.577-9.511 4.603-3.959-1.517-4.336-5.343-6.415-9.85-7.835-3.17-15.282-7.098-22.258-11.681-7.683 4.23-11.645 16.735-11.645 16.735s70.883 54.124 85.841 47.958c14.957-6.166 11.705-16.443 11.705-16.443-3.253-8.221-17.559-4.11-19.51-8.221z" fill="#c668b9"/><path d="m434.812 301.502c18.908-11.705 35.115-29.713 37.177-60.532v-18.579c0-102.889-83.408-186.297-186.297-186.297h-61.17c-102.889 0-186.297 83.408-186.297 186.297v18.579c1.313 32.62 20.822 50.028 34.628 61.433l37.788-120.225 44.801 31.419 48.848-37.054 50.817 37.358 52.774-40.45 54.11 40.728 36.655-33.746z" fill="#a07575"/><path d="m304.236 149.506h-98.583c-22.236 0-40.743-17.079-42.524-39.244l-2.915-36.281c-1.995-24.828 17.615-46.078 42.523-46.078h104.738c25.059 0 44.72 21.495 42.492 46.455l-3.239 36.281c-1.965 22.003-20.401 38.867-42.492 38.867z" fill="#ccf3e2"/><path d="m307.476 27.904h-23.122c21.128 0 37.705 17.036 35.826 36.818l-2.731 28.755c-1.656 17.438-17.201 30.804-35.826 30.804h-83.118c-18.748 0-34.352-13.536-35.853-31.103l-2.325-27.178c-.277 2.604-.331 5.269-.113 7.982l2.915 36.281c1.781 22.164 20.288 39.243 42.524 39.243h98.583c22.091 0 40.527-16.864 42.492-38.867l3.239-36.281c2.229-24.959-17.433-46.454-42.491-46.454z" fill="#b1b6e1"/><path d="m279.259 72.469h-7.546v-7.546c0-7.227-5.859-13.085-13.086-13.085h-7.04c-7.227 0-13.086 5.859-13.086 13.085v7.546h-7.546c-7.227 0-13.086 5.858-13.086 13.086v7.04c0 7.227 5.859 13.086 13.086 13.086h7.546v7.546c0 7.227 5.859 13.086 13.086 13.086h7.04c7.227 0 13.086-5.859 13.086-13.086v-7.546h7.546c7.227 0 13.086-5.858 13.086-13.086v-7.04c-.001-7.228-5.859-13.086-13.086-13.086z" fill="#d789b9"/><path d="m313.16 473.799h-31.85c-3.703 0-6.704-3.002-6.704-6.704v-13.86c0-3.703 3.002-6.704 6.704-6.704h31.851c3.703 0 6.704 3.002 6.704 6.704v13.86c0 3.702-3.002 6.704-6.705 6.704z" fill="#fff"/><path d="m263.841 387.134c22.107 9.943 38.182 32.429 40.664 59.259 6.263-.5 12.469-.772 15.416 4.386 11.179 18.918-5.741 26.736-22.782 26.014-3.47 2.755-7.852 4.412-12.627 4.412h-112.638v20.555h166.466v-31.851c0-43.019-32.636-78.409-74.499-82.775z" fill="#b1b6e1"/><path d="m319.921 450.778c-2.948-5.158-9.154-4.886-15.416-4.386.221 2.388.345 4.807.345 7.258v7.216c0 6.457-3.019 12.2-7.711 15.926 17.041.722 33.961-7.096 22.782-26.014z" fill="#e1bdfc"/><path d="m96.969 406.648c-2.562-2.539-6.694-2.53-9.245.021l-1.947 1.947-16.315-16.316-29.345 29.345 16.315 16.315-1.875 1.875c-2.578 2.578-2.555 6.766.051 9.316l55.76 53.113 84.472.059z" fill="#fff"/><path d="m81.434 479.168c-1.545 0-3.089-.589-4.267-1.768-2.357-2.357-2.357-6.178 0-8.534l21.79-21.791c2.356-2.356 6.177-2.356 8.535 0 2.357 2.357 2.357 6.178 0 8.535l-21.79 21.791c-1.179 1.178-2.723 1.767-4.268 1.767z" fill="#d789b9"/><path d="m102.498 500.232c-1.545 0-3.089-.589-4.267-1.768-2.357-2.357-2.357-6.178 0-8.534l21.79-21.79c2.356-2.356 6.178-2.356 8.535 0 2.357 2.357 2.357 6.178 0 8.534l-21.79 21.79c-1.179 1.178-2.724 1.768-4.268 1.768z" fill="#d789b9"/><path d="m478.973 370.944 8.262 23.231c.354.995 1.054 1.783 1.938 2.181l20.64 9.299c2.916 1.314 2.916 5.96 0 7.274l-20.64 9.299c-.884.398-1.584 1.186-1.938 2.181l-8.262 23.231c-1.167 3.282-5.295 3.282-6.462 0l-8.262-23.231c-.354-.995-1.054-1.783-1.938-2.181l-20.64-9.299c-2.916-1.314-2.916-5.96 0-7.274l20.64-9.299c.884-.398 1.584-1.186 1.938-2.181l8.262-23.231c1.167-3.282 5.295-3.282 6.462 0z" fill="#ccf3e2"/><path d="m31.339 2.008 6.129 17.233c.262.738.782 1.323 1.437 1.618l15.31 6.898c2.163.975 2.163 4.421 0 5.395l-15.31 6.898c-.656.295-1.175.88-1.437 1.618l-6.129 17.233c-.866 2.435-3.928 2.435-4.794 0l-6.129-17.233c-.262-.738-.782-1.322-1.437-1.618l-15.31-6.898c-2.163-.975-2.163-4.421 0-5.395l15.31-6.898c.656-.295 1.175-.88 1.437-1.618l6.129-17.233c.867-2.434 3.929-2.434 4.794 0z" fill="#ccf3e2"/><g fill="#a1e8c3"><ellipse cx="488.99" cy="68.845" rx="18.041" ry="18.041" transform="matrix(.23 -.973 .973 .23 309.639 528.937)"/><circle cx="428.426" cy="460.773" r="7.782"/></g></g><g><g fill="#3c122c"><path d="m479.154 265.567c2.526-7.408 4.076-15.349 4.642-23.808.018-.263.026-.526.026-.79v-18.579c0-92.171-63.271-169.827-148.658-191.858-8.075-5.576-17.736-8.664-27.69-8.664h-104.736c-9.953 0-19.625 3.091-27.705 8.673-85.378 22.038-148.642 99.685-148.642 191.85v18.579c0 .159.003.318.01.476.367 9.104 2.016 17.205 4.469 24.422-5.221 8.033-8.27 17.601-8.27 27.876 0 28.315 23.036 51.351 51.351 51.351 5.142 0 10.104-.771 14.791-2.184 15.478 19.216 35.08 34.974 57.452 45.916-7.66 10.503-13.842 22.146-18.233 34.63l-23.561-23.561c-5.737-5.737-14.572-6.513-21.163-2.355l-9.508-9.508c-2.356-2.356-6.178-2.356-8.535 0l-7.56 7.56-40.464-40.464c-3.928-3.928-10.297-3.928-14.225 0-3.928 3.928-3.928 10.297 0 14.224l40.464 40.465-7.56 7.56c-2.357 2.357-2.357 6.178 0 8.535l9.508 9.508c-4.158 6.591-3.382 15.426 2.355 21.163l51.316 51.316c1.964 1.964 4.538 2.946 7.112 2.946s5.148-.982 7.112-2.946c3.928-3.928 3.928-10.297 0-14.225l-49.157-49.156 28.239-28.239 87.43 87.431c3.929 3.928 10.297 3.928 14.224 0s3.928-10.297 0-14.224l-16.081-16.081v-3.865c0-26.55 13.481-49.996 33.952-63.889 2.672.127 5.357.198 8.059.198h31.214v99.573c0 3.333 2.702 6.035 6.035 6.035s6.035-2.702 6.035-6.035v-99.573h27.091c2.702 0 5.388-.072 8.059-.198 20.47 13.893 33.952 37.339 33.952 63.889v36.036c0 3.333 2.702 6.035 6.035 6.035s6.035-2.702 6.035-6.035v-36.037c0-25.91-11.102-49.271-28.792-65.592 10.064-1.522 19.839-3.935 29.24-7.161 15.587 19.58 24.917 44.35 24.917 71.263v33.71c0 5.555 4.504 10.058 10.058 10.058s10.058-4.503 10.058-10.058v-33.71c0-29.588-9.589-56.977-25.818-79.229 22.368-10.943 41.966-26.7 57.441-45.913 4.684 1.416 9.645 2.187 14.785 2.187 28.315 0 51.351-23.036 51.351-51.351 0-10.402-3.119-20.083-8.46-28.177zm-425.566 161.014-4.936-4.936 20.81-20.81 4.935 4.936zm253.888-392.642c10.405 0 20.003 4.228 27.026 11.906s10.38 17.614 9.455 27.977l-3.239 36.281c-1.698 19.024-17.381 33.369-36.481 33.369h-98.583c-18.953 0-34.99-14.8-36.508-33.692l-2.916-36.281c-.828-10.309 2.579-20.173 9.593-27.774 7.014-7.6 16.573-11.786 26.915-11.786zm-257.417 188.452c0-71.4 43.116-132.914 104.676-159.888-.662 3.923-.859 7.939-.535 11.962l2.915 36.281c2.019 25.119 23.34 44.795 48.539 44.795h98.583c25.393 0 46.245-19.073 48.503-44.365l3.239-36.281c.372-4.162.193-8.32-.49-12.378 61.554 26.976 104.667 88.479 104.667 159.874v18.17c-1.211 16.979-7.289 30.388-18.87 41.263l-31.299-104.78c-1.168-3.91-4.268-6.942-8.203-8.023-1.035-.284-2.089-.423-3.135-.423-2.932 0-5.804 1.091-8.016 3.128l-29.402 27.068-46.233-34.799c-4.244-3.194-10.098-3.169-14.315.063l-45.724 35.046-43.659-32.097c-4.223-3.104-9.986-3.062-14.161.107l-41.97 31.837-37.733-26.462c-3.089-2.166-7.026-2.73-10.599-1.517s-6.353 4.057-7.484 7.657l-32.19 102.409c-9.031-9.833-16.324-22.344-17.105-40.316v-18.331zm23.892 102.588c-17.223 0-31.235-14.012-31.235-31.235 0-1.592.137-3.15.368-4.678 7.739 10.478 16.467 17.697 22.232 22.46 1.357 1.121 2.923 1.905 4.577 2.332 1.925 3.764 3.986 7.446 6.179 11.04-.701.048-1.407.081-2.121.081zm40.955 17.053c.28-.781.598-1.548.956-2.301-.031-.023 4.442-8.066 7.433-9.256.862-.344 2.13-.587 4.277.594 6.627 3.643 8.033 7.312 9.521 11.197 1.331 3.476 3.155 8.236 8.838 10.413 6.171 2.366 11.405-1.934 16.466-6.09 8.38-6.882 12.224-8.679 17.097-5.042 4.854 3.622 4.157 7.552 1.55 15.051-1.368 3.935-2.66 7.652-.921 11.318 2.368 4.989 7.865 5.545 12.281 5.992 2.143.217 6.003.607 6.905 1.6.119 1.305-.298 4.692-6.641 7.714-30.082-5.612-56.996-20.336-77.762-41.19zm51.289 119.659-22.112-22.112c4.063-15.837 11.427-30.357 21.321-42.787 9.397 3.225 19.169 5.634 29.228 7.156-15.883 14.655-26.445 34.987-28.437 57.743zm124.1-75.957h-70.375c-3.511 0-6.992-.13-10.443-.371 3.251-5.307 3.161-10.748 2.15-13.945-.046-.144-.096-.286-.152-.427-3.353-8.48-12.378-9.392-17.77-9.938-.162-.016-.334-.034-.514-.052.019-.055.038-.108.057-.161 2.253-6.482 6.942-19.969-6.026-29.646-13.848-10.335-26.322-.091-33.023 5.412-1.239 1.018-2.935 2.41-4.151 3.225-.298-.638-.635-1.521-.89-2.186-1.827-4.768-4.587-11.974-15.362-17.896-6.432-3.536-11.876-2.638-15.313-1.262-6.079 2.434-10.356 8.135-13.07 13.067-7.739-9.402-14.344-19.77-19.607-30.893l31.278-99.512 31.565 22.136c4.211 2.954 9.848 2.849 13.946-.261l41.808-31.713 43.696 32.123c4.24 3.118 10.031 3.06 14.208-.142l45.64-34.982 46.929 35.322c4.562 3.435 10.93 3.12 15.131-.749l22.723-20.918 30.318 101.496c-24.327 48.725-74.692 82.273-132.753 82.273zm145.968-60.755c-.712 0-1.413-.041-2.113-.089 2.712-4.446 5.224-9.026 7.523-13.728 10.324-6.485 18.787-14.082 25.357-22.755.301 1.736.469 3.516.469 5.337 0 17.223-14.013 31.235-31.236 31.235z"/><path d="m177.704 245.135c-.789-.402-7.967-3.932-17.064-3.932s-16.275 3.53-17.064 3.932c-2.958 1.511-4.127 5.121-2.631 8.087 1.496 2.965 5.12 4.159 8.094 2.675.053-.026 5.337-2.625 11.601-2.625s11.548 2.599 11.576 2.613c.879.448 1.816.661 2.739.661 2.196 0 4.313-1.203 5.38-3.292 1.515-2.969.337-6.604-2.631-8.119z"/><path d="m366.639 245.135c-.789-.402-7.967-3.932-17.064-3.932s-16.275 3.53-17.064 3.933c-2.958 1.51-4.127 5.121-2.63 8.087s5.124 4.156 8.094 2.675c.053-.026 5.337-2.625 11.601-2.625s11.549 2.599 11.577 2.613c.878.448 1.815.661 2.738.661 2.195 0 4.313-1.203 5.38-3.293 1.514-2.969.336-6.604-2.632-8.119z"/><path d="m272.784 296.794c-3.333 0-6.035 2.702-6.035 6.035 0 6.419-5.222 11.642-11.642 11.642-6.419 0-11.642-5.223-11.642-11.642 0-3.333-2.702-6.035-6.035-6.035s-6.035 2.702-6.035 6.035c0 13.074 10.637 23.711 23.711 23.711 13.075 0 23.711-10.637 23.711-23.711.001-3.333-2.701-6.035-6.033-6.035z"/><path d="m230.956 111.335h1.89v1.891c0 10.334 8.407 18.741 18.741 18.741h7.04c10.334 0 18.742-8.407 18.742-18.741v-1.891h1.89c10.334 0 18.742-8.407 18.742-18.741v-7.04c0-10.334-8.408-18.741-18.742-18.741h-1.89v-1.891c0-10.334-8.408-18.741-18.742-18.741h-7.04c-10.334 0-18.741 8.407-18.741 18.741v1.891h-1.89c-10.334 0-18.741 8.407-18.741 18.741v7.04c0 10.334 8.407 18.741 18.741 18.741zm-7.431-25.781c0-4.097 3.333-7.43 7.43-7.43h7.546c3.123 0 5.655-2.532 5.655-5.655v-7.546c0-4.097 3.334-7.431 7.431-7.431h7.04c4.098 0 7.43 3.333 7.43 7.431v7.546c0 3.123 2.532 5.655 5.656 5.655h7.545c4.098 0 7.43 3.333 7.43 7.43v7.04c0 4.097-3.333 7.43-7.43 7.43h-7.545c-3.123 0-5.656 2.532-5.656 5.655v7.546c0 4.097-3.333 7.43-7.43 7.43h-7.04c-4.097 0-7.431-3.333-7.431-7.43v-7.546c0-3.123-2.532-5.655-5.655-5.655h-7.546c-4.097 0-7.43-3.333-7.43-7.43z"/><path d="m313.161 441.524h-31.851c-6.457 0-11.71 5.254-11.71 11.712v13.86c0 6.458 5.253 11.711 11.71 11.711h31.851c6.457 0 11.71-5.253 11.71-11.711v-13.86c0-6.459-5.253-11.712-11.71-11.712zm1.697 25.571c0 .936-.761 1.697-1.697 1.697h-31.851c-.936 0-1.697-.761-1.697-1.697v-13.86c0-.936.761-1.698 1.697-1.698h31.851c.936 0 1.697.762 1.697 1.698z"/></g><path d="m87.628 171.269c-1.354 0-2.731-.275-4.05-.857-5.083-2.24-7.388-8.176-5.148-13.259 3.094-7.022 6.713-13.86 10.758-20.323 2.946-4.709 9.152-6.137 13.862-3.191 4.709 2.947 6.137 9.153 3.191 13.862-3.533 5.646-6.696 11.622-9.402 17.763-1.66 3.764-5.346 6.005-9.211 6.005z" fill="#fff"/><path d="m117.512 127.213c-2.564 0-5.128-.974-7.091-2.924-3.94-3.916-3.959-10.284-.043-14.224 1.299-1.307 2.642-2.608 3.991-3.866 4.062-3.788 10.428-3.567 14.215.496 3.789 4.062 3.567 10.426-.496 14.215-1.163 1.085-2.322 2.208-3.444 3.336-1.964 1.977-4.548 2.967-7.132 2.967z" fill="#fff"/><circle cx="160.64" cy="302.829" fill="#3c122c" r="17.677"/><circle cx="349.575" cy="302.829" fill="#3c122c" r="17.677"/></g></g></svg>