<svg id="Capa_1" enable-background="new 0 0 512 512" height="512" viewBox="0 0 512 512" width="512" xmlns="http://www.w3.org/2000/svg"><g><g><path d="m370.612 501.978v-33.592c0-68.624-55.63-124.254-124.254-124.254-68.624 0-124.254 55.63-124.254 124.254v33.592h89.223l34.9-12.7 34.9 12.7z" fill="#9781dd"/><path d="m208.85 430.792h74.557v71.185h-74.557z" fill="#c1e5ef"/><path d="m255.061 386.809c23.99 10.79 40.866 36.399 40.866 66.284v7.19c0 8.016-4.665 14.924-11.417 18.212v22.538h44.79v-31.739c0-42.867-32.523-78.134-74.239-82.485z" fill="#8962de"/><path d="m163.416 480.551h45.11v20.482h-45.11z" fill="#8962de"/><path d="m282.098 479.49c-2.025.679-4.185 1.061-6.438 1.061h-64.722v20.482h71.159v-21.543z" fill="#a6aaed"/><path d="m438.344 255.172c.569-5.45.866-10.98.866-16.58v-.001c0-87.143-70.644-157.788-157.788-157.788h-70.128c-87.144 0-157.788 70.645-157.788 157.788v.001c0 5.6.297 11.13.866 16.58-17.145 4.965-29.685 20.772-29.685 39.517 0 22.725 18.423 41.148 41.149 41.148 6.476 0 12.599-1.5 18.05-4.165 28.706 39.226 75.077 64.707 127.408 64.707h70.128c52.331 0 98.703-25.482 127.408-64.707 5.45 2.665 11.574 4.165 18.05 4.165 22.726 0 41.148-18.423 41.148-41.148.001-18.745-12.539-34.551-29.684-39.517z" fill="#efc5b4"/><path d="m281.422 80.228h-20.234c70.648 0 127.92 57.272 127.92 127.92v10.864c0 70.648-57.272 127.921-127.92 127.921h-79.762c-67.608 0-122.959-52.451-127.598-118.88-.205 3.296-.322 6.616-.322 9.964v.001c0 87.144 70.644 157.788 157.788 157.788h70.128c87.144 0 157.788-70.644 157.788-157.788v-.001c0-87.145-70.644-157.789-157.788-157.789z" fill="#d994b3"/><path d="m50.278 191.812s-27.248 82.169 29.143 148.334l28.638-3.996c1.292-8.397-9.324-103.228-12.654-127.204-5.205-37.481-45.127-17.134-45.127-17.134z" fill="#a07575"/><path d="m441.485 191.812s27.248 82.169-29.143 148.334l-28.638-3.996c-1.292-8.397 9.324-103.228 12.654-127.204 5.206-37.481 45.127-17.134 45.127-17.134z" fill="#a07575"/><path d="m450.785 156.477h-12.478v-123.056c0-12.922-10.476-23.398-23.398-23.398h-337.102c-12.922 0-23.398 10.476-23.398 23.398v123.056h-12.478c-12.497 0-22.627 10.13-22.627 22.628v23.859c0 12.497 10.13 22.628 22.627 22.628h408.853c12.497 0 22.627-10.13 22.627-22.628v-23.859c.001-12.498-10.13-22.628-22.626-22.628z" fill="#9781dd"/><path d="m53.534 102.997h385.647v55.949h-385.647z" fill="#d789b9"/><path d="m450.785 156.477h-12.478v-123.056c0-12.922-10.476-23.398-23.398-23.398h-74.63c9.768 0 17.687 7.919 17.687 17.688v50.994c0 26.104-21.162 47.265-47.266 47.265h-256.291v32.979h328.577c4.382 2.794 7.296 7.686 7.296 13.268v9.456c0 8.693-7.047 15.739-15.739 15.739h-339.499c-8.693 0-15.739-7.046-15.739-15.739v21.29c0 12.497 10.131 22.628 22.627 22.628h408.853c12.496 0 22.627-10.13 22.627-22.628v-23.859c0-12.497-10.131-22.627-22.627-22.627z" fill="#8962de"/><path d="m442.521 156.477h-4.215v-48.053h-90.863c-8.665 10.699-21.903 17.545-36.744 17.545h-256.29v31.258h388.421c-.12-.243-.225-.493-.309-.75z" fill="#c668b9"/><path d="m280.457 384.113-17.941 14.925c-2.437-2.607-5.897-4.246-9.748-4.246h-12.823c-3.851 0-7.31 1.639-9.748 4.246l-17.941-14.925c-13.393-11.143-33.705-1.619-33.705 15.803v33.727c0 17.421 20.312 26.945 33.705 15.803l17.941-14.926c2.437 2.608 5.897 4.246 9.747 4.246h12.823c3.85 0 7.31-1.638 9.747-4.246l17.941 14.926c13.393 11.142 33.705 1.618 33.705-15.803v-33.727c.002-17.422-20.31-26.945-33.703-15.803z" fill="#d789b9"/><path d="m413.864 501.285 76.743-123.227c3.473-5.577 1.768-12.914-3.809-16.387l-12.03-7.492c-5.577-3.473-12.914-1.768-16.387 3.809l-89.305 143.399" fill="#9781dd"/><path d="m470.178 410.86 20.428-32.803c3.473-5.577 1.768-12.914-3.809-16.387l-12.03-7.492c-5.577-3.474-12.914-1.768-16.387 3.809l-19.499 31.309c10.37 7.281 20.82 14.442 31.297 21.564z" fill="#fff"/><path d="m50.136 413.537 8.233 23.15c.353.991 1.05 1.777 1.931 2.173l20.568 9.267c2.906 1.309 2.906 5.939 0 7.248l-20.568 9.267c-.881.397-1.578 1.182-1.931 2.173l-8.233 23.15c-1.163 3.271-5.277 3.271-6.44 0l-8.233-23.15c-.353-.991-1.05-1.777-1.931-2.173l-20.568-9.267c-2.906-1.309-2.906-5.939 0-7.248l20.568-9.267c.881-.397 1.578-1.182 1.931-2.173l8.233-23.15c1.164-3.27 5.277-3.27 6.44 0z" fill="#c2b2eb"/><circle cx="19.712" cy="384.775" fill="#9781dd" r="7.755"/></g><g><g fill="#3c122c"><path d="m166.486 257.621c-.919 0-1.853-.211-2.728-.658-.028-.014-5.295-2.603-11.537-2.603s-11.509 2.59-11.562 2.615c-2.964 1.476-6.575.289-8.065-2.667-1.491-2.956-.325-6.554 2.623-8.058.786-.4 7.939-3.917 17.004-3.917s16.218 3.517 17.003 3.917c2.958 1.51 4.133 5.132 2.623 8.091-1.062 2.082-3.173 3.28-5.361 3.28z"/><path d="m354.761 257.621c-.92 0-1.853-.211-2.728-.658-.028-.014-5.295-2.603-11.537-2.603s-11.509 2.59-11.561 2.615c-2.962 1.476-6.574.289-8.065-2.667-1.491-2.955-.326-6.553 2.623-8.058.786-.4 7.938-3.917 17.003-3.917s16.218 3.517 17.004 3.917c2.958 1.51 4.133 5.132 2.623 8.091-1.064 2.082-3.174 3.28-5.362 3.28z"/><path d="m246.358 327.371c-13.029 0-23.628-10.6-23.628-23.629 0-3.321 2.693-6.014 6.014-6.014s6.014 2.693 6.014 6.014c0 6.397 5.204 11.602 11.601 11.602s11.601-5.204 11.601-11.602c0-3.321 2.693-6.014 6.014-6.014s6.014 2.693 6.014 6.014c-.002 13.029-10.601 23.629-23.63 23.629z"/><path d="m493.418 353.192-8.468-6.018c-4.954-3.522-11.215-4.855-17.171-3.659-5.959 1.195-11.218 4.84-14.431 9.998l-72.713 116.757v-1.884c0-29.492-9.569-56.784-25.75-78.961 19.975-9.766 37.74-23.376 52.313-39.876l3.759.525c.463.065.926.096 1.386.096 2.912 0 5.709-1.27 7.627-3.522.322-.378.634-.762.952-1.143 1.955.231 3.941.357 5.957.357 28.216 0 51.171-22.955 51.171-51.172 0-16.719-8.067-31.578-20.506-40.92.317-4.131.503-8.304.537-12.52.018-2.204-.013-4.347-.067-6.454 14.534-3.301 25.419-16.314 25.419-31.833v-23.859c0-18.004-14.647-32.65-32.65-32.65h-2.455v-113.033c.002-18.429-14.991-33.421-33.419-33.421h-337.102c-18.428 0-33.421 14.992-33.421 33.421v113.034h-2.455c-18.003 0-32.65 14.646-32.65 32.65v23.859c0 15.18 10.413 27.973 24.471 31.612-.059 2.176-.09 4.396-.071 6.675.037 4.452.241 8.857.593 13.214-11.927 9.375-19.609 23.915-19.609 40.226 0 28.216 22.955 51.172 51.171 51.172 1.716 0 3.41-.097 5.083-.264.293.349.579.703.875 1.05 1.919 2.251 4.715 3.522 7.627 3.522.46 0 .923-.031 1.386-.096l4.609-.643c14.593 16.552 32.392 30.207 52.415 39.995-16.181 22.176-25.749 49.469-25.749 78.96v33.592c0 5.535 4.487 10.023 10.023 10.023 5.535 0 10.023-4.488 10.023-10.023v-33.592c0-26.826 9.305-51.512 24.844-71.025 5.084 1.743 10.279 3.246 15.569 4.501v18.467c-9.543 14.171-15.137 31.211-15.137 49.543v35.909c0 3.321 2.692 6.014 6.014 6.014 3.321 0 6.014-2.693 6.014-6.014v-35.909c0-9.409 1.713-18.42 4.824-26.757 2.386 6.33 7.149 11.573 13.576 14.587 3.654 1.713 7.517 2.554 11.346 2.554 1.52 0 3.035-.133 4.528-.396v45.738c0 3.321 2.693 6.014 6.014 6.014s6.014-2.693 6.014-6.014v-51.243c.122-.098.252-.183.373-.284l14.249-11.855c2.832 1.624 6.102 2.565 9.593 2.565h12.823c3.491 0 6.761-.942 9.593-2.565l14.249 11.855c.232.193.477.359.714.544v50.983c0 3.321 2.693 6.014 6.014 6.014s6.014-2.693 6.014-6.014v-45.693c1.383.225 2.782.35 4.187.35 3.828 0 7.693-.841 11.346-2.554 6.428-3.014 11.192-8.258 13.577-14.589 3.111 8.337 4.824 17.349 4.824 26.759v35.909c0 3.321 2.693 6.014 6.014 6.014s6.014-2.693 6.014-6.014v-35.909c0-18.333-5.594-35.374-15.137-49.545v-18.458c5.293-1.256 10.489-2.768 15.576-4.514 15.538 19.514 24.837 44.206 24.837 71.031v33.592c0 5.535 4.487 10.023 10.023 10.023 1.251 0 2.444-.24 3.548-.659 2.947-.326 5.722-1.944 7.411-4.656l65.134-104.586 12.329 7.697-53.677 86.191c-2.927 4.698-1.49 10.88 3.209 13.806 4.699 2.927 10.88 1.49 13.806-3.209l77.012-123.657c6.165-9.912 3.545-22.972-5.971-29.736zm-179.499 29.539c-2.42-2.846-5.471-5.202-9.034-6.873-9.431-4.422-20.266-3.031-28.274 3.632l-8.254 6.867h-43.998l-8.254-6.867c-8.008-6.664-18.843-8.054-28.274-3.632-3.566 1.672-6.619 4.032-9.04 6.881-26.278-5.924-49.927-18.864-68.865-36.748 4.154-.787 7.392-4.103 8.04-8.317 1.265-8.226-4.947-65.794-9.192-102.061h274.216c-4.245 36.265-10.457 93.831-9.191 102.061.673 4.376 4.137 7.792 8.521 8.404l.329.046c-18.916 17.815-42.515 30.701-68.73 36.607zm-260.135-147.118h34.863c3.621 30.728 8.172 73.998 9.271 91.832l-14.315 1.998c-19.412-24.604-29.456-54.067-29.87-87.668-.026-2.106.001-4.152.051-6.162zm384.164 0c.619 26.503-4.689 61.955-29.79 93.829l-14.313-1.997c1.099-17.838 5.651-61.105 9.272-91.832zm20.058 59.077c0 14.086-9.409 26.001-22.27 29.825 8.263-14.032 14.303-29.314 18.006-45.527 2.708 4.612 4.264 9.978 4.264 15.702zm-380.199-274.645h337.102c7.375 0 13.376 6 13.376 13.375v66.854h-363.853v-66.853c0-7.376 6-13.376 13.375-13.376zm-13.375 92.257h363.852v34.153h-363.852zm-35.105 90.661v-23.859c0-6.95 5.654-12.605 12.605-12.605h408.853c6.95 0 12.605 5.654 12.605 12.605v23.859c0 6.95-5.654 12.605-12.605 12.605h-408.854c-6.95 0-12.604-5.655-12.604-12.605zm5.383 91.727c0-5.229 1.305-10.153 3.594-14.482 3.69 15.618 9.56 30.364 17.507 43.943-12.258-4.184-21.101-15.805-21.101-29.461zm173.703 150.134c-4.449 3.702-10.237 4.446-15.476 1.987-5.241-2.457-8.369-7.38-8.369-13.168v-33.727c0-5.788 3.129-10.712 8.369-13.168 2.042-.957 4.166-1.429 6.263-1.429 3.283 0 6.497 1.158 9.213 3.417l13.859 11.53c-1.079 2.411-1.693 5.074-1.693 7.882v17.264c0 2.808.614 5.471 1.694 7.882zm44.356-12.071h-12.823c-4.048 0-7.341-3.293-7.341-7.341v-17.264c0-4.048 3.293-7.342 7.341-7.342h12.823c4.048 0 7.341 3.294 7.341 7.342v17.264c.001 4.048-3.292 7.341-7.341 7.341zm55.38.891c0 5.788-3.129 10.711-8.37 13.168-5.24 2.46-11.026 1.716-15.476-1.987l-13.859-11.53c1.08-2.411 1.694-5.074 1.694-7.882v-17.264c0-2.808-.614-5.471-1.693-7.882l13.859-11.53c4.45-3.703 10.235-4.446 15.476-1.988 5.241 2.457 8.37 7.38 8.37 13.168v33.727zm174.218-61.314-16.975 27.257-12.329-7.697 17.301-27.781c.393-.631.955-.859 1.358-.941.402-.078 1.011-.085 1.616.345l8.468 6.017c.895.638 1.142 1.867.561 2.8z"/><path d="m384.243 85.036c-3.321 0-6.014-2.693-6.014-6.014v-11.356c0-3.321 2.693-6.014 6.014-6.014s6.014 2.693 6.014 6.014v11.356c0 3.321-2.693 6.014-6.014 6.014z"/><path d="m355.841 59.788c-3.321 0-6.014-2.693-6.014-6.014v-11.357c0-3.321 2.693-6.014 6.014-6.014s6.014 2.693 6.014 6.014v11.357c-.001 3.321-2.693 6.014-6.014 6.014z"/><path d="m324.388 73.146c-3.321 0-6.014-2.693-6.014-6.014v-11.355c0-3.321 2.693-6.014 6.014-6.014s6.014 2.693 6.014 6.014v11.356c0 3.321-2.693 6.013-6.014 6.013z"/><ellipse cx="152.221" cy="303.743" rx="17.615" ry="17.615" transform="matrix(.299 -.954 .954 .299 -183.154 358.101)"/><ellipse cx="340.495" cy="303.743" rx="17.615" ry="17.615" transform="matrix(.409 -.912 .912 .409 -76.018 490.06)"/></g><path d="m140.906 61.755c-5.457 0-9.925-4.376-10.018-9.853-.094-5.535 4.318-10.097 9.852-10.191 13.399-.225 26.446-.225 39.885 0 5.535.093 9.946 4.655 9.853 10.19-.093 5.534-4.676 9.929-10.19 9.853-13.213-.223-26.038-.223-39.211 0-.056.001-.113.001-.171.001z" fill="#fff"/><path d="m105.692 61.755h-12.02c-5.535 0-10.023-4.488-10.023-10.023s4.487-10.023 10.023-10.023h12.02c5.535 0 10.023 4.488 10.023 10.023 0 5.536-4.487 10.023-10.023 10.023z" fill="#fff"/></g></g></svg>