<svg id="Capa_1" enable-background="new 0 0 512 512" height="512" viewBox="0 0 512 512" width="512" xmlns="http://www.w3.org/2000/svg"><g><g><path d="m389.454 501.96v-33.651c0-68.743-55.728-124.471-124.471-124.471-68.743 0-124.471 55.728-124.471 124.471v33.651z" fill="#fff"/><path d="m273.701 387.535c24.032 10.809 40.937 36.463 40.937 66.4v7.203c0 11.213-9.09 20.302-20.302 20.302h-112.44v20.519h166.174v-31.795c-.001-42.942-32.58-78.27-74.369-82.629z" fill="#e1bdfc"/><path d="m457.304 254.722c.57-5.459.867-10.999.867-16.608v-.001c0-87.296-70.768-158.064-158.064-158.064h-70.251c-87.296 0-158.063 70.768-158.063 158.064v.001c0 5.609.297 11.149.867 16.608-17.175 4.975-29.736 20.809-29.736 39.587 0 22.766 18.455 41.22 41.221 41.22 6.487 0 12.621-1.503 18.081-4.172 28.756 39.294 75.209 64.82 127.631 64.82h70.251c52.422 0 98.875-25.527 127.631-64.82 5.46 2.67 11.594 4.172 18.081 4.172 22.765 0 41.22-18.455 41.22-41.22.001-18.778-12.561-34.612-29.736-39.587z" fill="#a07575"/><path d="m446.915 145.225c10.88-12.435 24.648-31.603 25.347-49.628 1.065-27.438-5.787-41.569-14.844-44.882-9.198-3.365-22.665 4.169-39.762 26.205-6.143 7.917-9.027 17.28-10.162 26.203-29.248-22.351-65.792-35.638-105.445-35.638h-77.258c-38.385 0-73.856 12.451-102.617 33.522-1.309-8.273-4.207-16.793-9.865-24.086-17.097-22.037-30.564-29.571-39.762-26.206-9.057 3.313-15.909 17.444-14.844 44.882.662 17.068 13.044 35.161 23.594 47.594-19.133 27.926-30.335 61.714-30.335 98.123v.001c0 21.736 21.342 39.922 22.203 38.391 29.779-52.986 86.518-88.786 151.626-88.786h77.258c64.983 0 121.628 35.662 151.454 88.479 4.261 7.545 22.375-16.348 22.375-38.084v-.001c-.001-35.529-10.669-68.563-28.963-96.089z" fill="#fff"/><path d="m255.116 13.418-23.691 124.452c0 32.611 65.249 32.611 65.249 0l-23.691-124.452c-1.876-9.858-15.991-9.858-17.867 0z" fill="#faf1a9"/><path d="m407.331 233.39c-6.46 64.725-61.068 115.267-127.492 115.267h-79.901c-51.074 0-95.151-29.889-115.737-73.123-2.929 1.526-4.908 4.319-6.315 7.59 18.919 66.104 79.791 114.49 151.972 114.49h70.251c74.487 0 136.922-51.531 153.646-120.883-9.58-20.66-25.213-38.174-46.424-43.341z" fill="#925873"/><path d="m237.919 153.232c.871.849 1.809 1.627 2.794 2.345 12.341 8.948 34.026 8.995 46.469.144 5.833-3.981 9.626-10.736 9.492-17.85l-13.85-72.758-.031-.164-9.809-51.529c-.855-5.811-7.633-9.04-12.818-6.565 1.899.863 3.426 2.896 3.628 6.047l6.561 102.216c-1.735 19.554-25.571 22.558-36.9 12.093l-1.455 7.637c-1.736 6.584 1.115 13.778 5.919 18.384z" fill="#dfb5a7"/><path d="m446.915 145.225c.602-.688 1.214-1.4 1.831-2.128-11.012-16.669-24.811-31.334-40.745-43.319-.198 1.12-.367 2.236-.508 3.345-28.307-21.632-63.45-34.773-101.63-35.596 70.228 11.863 123.073 63.34 123.073 125.052-.186 11.105-10.74 7.617-15.734 2.415-27.27-28.406-73.473-38.039-126.024-39.271-12.443 8.849-34.124 8.802-46.465-.145h-34.202c-57.676 0-98.205 35.102-134.318 65.189-8.313 6.926-14.192-.529-17.248-10.983-1.584 9.43-2.42 19.113-2.42 28.993 0 21.114 20.132 38.873 22.075 38.471 1.933-3.31 3.971-6.551 6.111-9.717-.018-.046-.039-.091-.057-.138 31.014-47.565 84.681-79.01 145.699-79.01h77.258c39.887 0 76.62 13.453 105.95 36.045h-1.644c-.024.802-.063 1.599-.102 2.397 18.385 14.123 33.873 31.827 45.401 52.086.312-1.218.614-2.44.898-3.67.314.542.642 1.075.951 1.621 2.121 3.756 7.673-.28 12.716-7.96 4.424-7.594 8.096-17.805 8.096-27.588v-.001c0-35.529-10.668-68.562-28.962-96.088z" fill="#e1bdfc"/><path d="m324.645 192.748c-17.579-20.18-47.495-38.885-58.517-32.073-.344-.042-.688-.077-1.034-.077-.414 0-.824.032-1.233.091-11.003-6.854-40.95 11.864-58.541 32.059-17.844 20.485-16.204 34.714-5.602 42.417 10.001 7.266 24.406 6.122 40.986-11.227 1.308 22.538 11.727 31.455 24.39 31.455 12.621 0 23.011-8.861 24.374-31.235 16.493 17.143 30.819 18.243 40.779 11.006 10.602-7.702 12.243-21.931-5.602-42.416z" fill="#e8c2d8"/><circle cx="305.022" cy="456.841" fill="#d789b9" r="21.535"/><path d="m54.006 360.832 8.247 23.191c.353.993 1.052 1.78 1.934 2.177l20.604 9.283c2.911 1.311 2.911 5.949 0 7.261l-20.604 9.283c-.882.397-1.581 1.184-1.934 2.177l-8.247 23.19c-1.165 3.276-5.286 3.276-6.451 0l-8.248-23.19c-.353-.993-1.052-1.78-1.934-2.177l-20.604-9.283c-2.911-1.311-2.911-5.949 0-7.261l20.604-9.283c.882-.397 1.581-1.184 1.934-2.177l8.248-23.191c1.165-3.276 5.285-3.276 6.451 0z" fill="#e8c2d8"/><path d="m472.732 429.785 6.118 17.202c.262.737.781 1.32 1.435 1.615l15.284 6.886c2.159.973 2.159 4.413 0 5.386l-15.284 6.886c-.654.295-1.173.879-1.435 1.615l-6.118 17.202c-.864 2.43-3.921 2.43-4.785 0l-6.118-17.202c-.262-.737-.78-1.32-1.435-1.615l-15.284-6.886c-2.159-.973-2.159-4.413 0-5.386l15.284-6.886c.654-.295 1.173-.879 1.435-1.615l6.118-17.202c.864-2.43 3.92-2.43 4.785 0z" fill="#e8c2d8"/><g fill="#d789b9"><path d="m446.432 409.031c0 4.29-3.478 7.769-7.768 7.769s-7.768-3.478-7.768-7.769c0-4.29 3.478-7.768 7.768-7.768s7.768 3.478 7.768 7.768"/><path d="m497.414 374.75c0 4.29-3.478 7.768-7.768 7.768s-7.768-3.478-7.768-7.768 3.478-7.769 7.768-7.769c4.29.001 7.768 3.479 7.768 7.769"/><path d="m98.962 458.039c0 4.29-3.478 7.769-7.769 7.769-4.29 0-7.768-3.478-7.768-7.769 0-4.29 3.478-7.768 7.768-7.768 4.291 0 7.769 3.478 7.769 7.768"/></g></g><g fill="#3c122c"><path d="m482.997 259.071c1.84-5.904 2.921-12.019 2.921-17.758 0-34.837-9.739-67.442-26.637-95.237 10.788-13.453 22.308-31.918 23.013-50.091 1.562-40.202-12.754-51.527-21.427-54.7 0 0 0 0-.001 0-14.607-5.342-31.819 4.573-51.143 29.48-3.829 4.935-6.593 10.284-8.559 15.742-28.62-18.388-62.644-29.063-99.116-29.063h-14.552l-8.595-45.153c-1.377-7.237-7.485-12.291-14.852-12.291-7.366 0-13.474 5.054-14.852 12.292l-8.595 45.153h-15.811c-35.404 0-68.496 10.068-96.583 27.477-1.917-4.906-4.509-9.7-7.966-14.156-19.324-24.906-36.534-34.821-51.144-29.48 0 0 0 0-.001 0-8.672 3.172-22.989 14.497-21.428 54.7.668 17.194 11.018 34.656 21.269 47.882-17.74 28.271-28.017 61.679-28.017 97.447 0 7.246 1.817 13.913 4.316 19.676-7.693 8.968-12.354 20.606-12.354 33.319 0 28.265 22.995 51.26 51.26 51.26 5.129 0 10.076-.776 14.751-2.187 15.449 19.183 35.015 34.914 57.346 45.839-16.2 22.213-25.771 49.553-25.771 79.088v33.65c0 5.545 4.496 10.04 10.04 10.04 5.545 0 10.04-4.496 10.04-10.04v-33.65c0-26.866 9.316-51.591 24.875-71.136 9.384 3.22 19.141 5.627 29.186 7.146-17.659 16.293-28.741 39.612-28.741 65.477v35.972c0 3.327 2.697 6.024 6.024 6.024s6.024-2.697 6.024-6.024v-35.972c0-26.502 13.457-49.904 33.89-63.773 2.667.126 5.35.195 8.048.195h29.101v99.15c0 3.327 2.697 6.024 6.024 6.024s6.024-2.697 6.024-6.024v-99.15h29.101c2.697 0 5.379-.071 8.045-.197 20.434 13.869 33.892 37.272 33.892 63.775v35.972c0 3.327 2.697 6.024 6.024 6.024s6.024-2.697 6.024-6.024v-35.972c0-25.863-11.081-49.181-28.738-65.473 10.044-1.52 19.797-3.935 29.179-7.155 15.561 19.546 24.879 44.272 24.879 71.141v33.65c0 5.545 4.496 10.04 10.04 10.04 5.545 0 10.04-4.496 10.04-10.04v-33.65c0-29.537-9.574-56.876-25.776-79.089 22.327-10.923 41.888-26.651 57.335-45.83 4.679 1.412 9.634 2.18 14.767 2.18 28.266 0 51.261-22.996 51.261-51.26.004-13.642-5.359-26.048-14.08-35.24zm-57.408-175.997c15.924-20.527 25.527-23.972 28.38-22.93 2.639.966 9.266 9.147 8.26 35.062-.418 10.779-7.162 23.015-14.911 33.526-8.507-10.952-18.219-20.921-28.942-29.704 1.273-5.631 3.507-11.178 7.213-15.954zm-123.54-5.549c90.313 0 163.789 73.475 163.789 163.789 0 9.461-4.449 19.385-8.349 25.2-29.872-47.18-79.642-78.141-134.693-84.418-9.284-8.936-20.649-16.921-31.227-22.215 6.706-5.103 11.13-12.469 11.13-22.01 0-.378-.035-.755-.106-1.126l-11.273-59.219h10.729zm-92.187 119.181c12.116-13.909 30.067-25.473 42.423-29.694.419.098.838.194 1.261.28-8.963 20.153-16.971 39.078-18.436 53.749-7.546 7.536-20.659 17.382-31.853 9.25-3.212-2.334-4.963-5.135-5.352-8.564-.517-4.56 1.138-12.602 11.957-25.021zm76.824-79.092-48.588 17.418 5.289-27.783 38.736-13.604zm-6.842-35.939-33.852 11.889 5.672-29.794 23.082-8.877zm-39.407 65.318 48.53-17.397 1.675 8.801c-.247 8.044-6.144 13.225-13.729 15.848-2.088-.51-4.065-.842-5.887-.958-2.047-.128-10.105-.103-11.953.01-2.149.132-4.51.56-7.016 1.232-4.782-1.506-8.969-3.995-11.62-7.536zm6.479 78.585c.011-12.9 8.81-33.557 17.994-54.191.544 1.252 1.088 2.5 1.626 3.736 8.099 18.581 17.279 39.643 16.643 50.925-.016.277-.006.549.015.817-1.181 10.901-5.417 22.504-18.102 22.504-13.028 0-17.152-12.224-18.197-23.418.009-.124.021-.247.021-.373zm48.163-4.31c-1.268-13.72-9.18-31.874-17.498-50.959-.486-1.114-.976-2.239-1.466-3.366.273-.065.545-.133.816-.203 12.338 3.985 30.793 15.756 43.172 29.966 10.819 12.419 12.473 20.461 11.956 25.02-.389 3.429-2.14 6.231-5.354 8.566-11.113 8.07-24.121-1.59-31.626-9.024zm-31.03-209.22c.949 0 2.603.325 3.016 2.496l5.391 28.32-18.141 6.977 6.719-35.297c.413-2.171 2.067-2.496 3.015-2.496zm-196.315 83.159c-1.005-25.915 5.622-34.097 8.261-35.062 2.855-1.039 12.457 2.405 28.381 22.93 3.244 4.182 5.357 8.956 6.687 13.86-11.068 8.737-21.105 18.723-29.912 29.733-7.102-10.028-13.025-21.383-13.417-31.461zm157.057-17.682h11.989l-11.273 59.219c-.071.372-.106.748-.106 1.126 0 9.906 4.768 17.469 11.908 22.587-10.115 5.204-20.838 12.782-29.721 21.245-55.635 5.243-106.193 35.683-136.86 82.667-4.57-5.619-9.726-14.176-9.726-23.056 0-90.313 73.476-163.788 163.789-163.788zm-140.647 247.965c-17.193 0-31.18-13.987-31.18-31.18 0-5.504 1.455-10.665 3.969-15.157 3.45 3.931 8.385 8.765 12.806 10.176 4.089 12.753 9.657 24.85 16.51 36.083-.697.046-1.397.078-2.105.078zm215.964 60.648h-70.25c-68.384 0-126.077-46.615-142.994-109.735 23.62-36.804 60.859-62.39 102.908-71.625-3.192 6.507-4.481 12.628-3.837 18.307.77 6.783 4.311 12.645 10.242 16.955 5.828 4.234 20.431 11.296 40.216-4.044 3.981 16.123 14.223 25.423 28.701 25.423 14.427 0 24.657-9.246 28.664-25.277 19.696 15.153 34.231 8.113 40.031 3.898 5.932-4.309 9.474-10.173 10.242-16.955.617-5.44-.555-11.29-3.459-17.493 41.896 10.179 78.724 36.668 101.559 74.27-18.068 61.358-74.895 106.276-142.023 106.276zm145.712-60.648c-.712 0-1.417-.032-2.118-.079 6.699-10.98 12.172-22.786 16.234-35.224 4.524-1.455 9.104-5.493 13.136-11.006 2.501 4.482 3.929 9.642 3.929 15.13-.001 17.192-13.988 31.179-31.181 31.179z"/><path d="m187.715 245.786c-.787-.402-7.953-3.926-17.034-3.926s-16.247 3.524-17.034 3.926c-2.953 1.508-4.12 5.112-2.626 8.072 1.495 2.961 5.117 4.15 8.079 2.671.053-.027 5.328-2.621 11.581-2.621s11.529 2.594 11.557 2.608c.877.448 1.812.66 2.734.66 2.191 0 4.305-1.2 5.37-3.287 1.512-2.962.336-6.591-2.627-8.103z"/><path d="m376.318 245.786c-.787-.402-7.953-3.926-17.034-3.926-9.082 0-16.248 3.524-17.035 3.926-2.953 1.508-4.12 5.112-2.626 8.072 1.495 2.961 5.116 4.15 8.079 2.671.053-.027 5.328-2.621 11.582-2.621 6.253 0 11.528 2.594 11.555 2.608.878.448 1.813.66 2.735.66 2.191 0 4.305-1.2 5.37-3.286 1.513-2.963.337-6.591-2.626-8.104z"/><path d="m282.627 297.354c-3.327 0-6.024 2.697-6.024 6.024 0 6.409-5.213 11.622-11.621 11.622-6.409 0-11.622-5.213-11.622-11.622 0-3.327-2.697-6.024-6.024-6.024s-6.024 2.697-6.024 6.024c0 13.051 10.619 23.67 23.67 23.67s23.669-10.619 23.669-23.67c0-3.326-2.697-6.024-6.024-6.024z"/><path d="m305.022 429.282c-15.196 0-27.559 12.363-27.559 27.559s12.363 27.559 27.559 27.559 27.559-12.363 27.559-27.559c-.001-15.196-12.364-27.559-27.559-27.559zm0 43.069c-8.553 0-15.51-6.958-15.51-15.51 0-8.553 6.958-15.51 15.51-15.51 8.553 0 15.51 6.958 15.51 15.51s-6.957 15.51-15.51 15.51z"/><path d="m387.123 168.932c3.327 0 6.024-2.697 6.024-6.024v-11.377c0-3.327-2.697-6.024-6.024-6.024s-6.024 2.697-6.024 6.024v11.377c0 3.327 2.698 6.024 6.024 6.024z"/><path d="m416.282 193.573c3.327 0 6.024-2.697 6.024-6.024v-11.376c0-3.327-2.697-6.024-6.024-6.024s-6.024 2.697-6.024 6.024v11.376c0 3.327 2.697 6.024 6.024 6.024z"/><path d="m170.681 285.733c-9.745 0-17.645 7.9-17.645 17.645s7.9 17.646 17.645 17.646 17.646-7.9 17.646-17.646c-.001-9.745-7.901-17.645-17.646-17.645z"/><ellipse cx="359.284" cy="303.378" rx="17.645" ry="17.646" transform="matrix(.29 -.957 .957 .29 -35.192 559.332)"/></g></g></svg>