<svg id="Capa_1" enable-background="new 0 0 512 512" height="512" viewBox="0 0 512 512" width="512" xmlns="http://www.w3.org/2000/svg"><g><g><path d="m380.224 501.705v-33.584c0-68.607-55.617-124.224-124.224-124.224-68.607 0-124.224 55.617-124.224 124.224v33.584z" fill="#c1e5ef"/><path d="m174.107 476.692h162.705v25.013h-162.705z" fill="#9781dd"/><path d="m294.831 478.84c-2.843 1.52-6.087 2.387-9.536 2.387h-112.217v20.478h165.844v-22.865z" fill="#8962de"/><path d="m305.557 453.776v7.188c0 5.553-2.237 10.58-5.855 14.24h39.22v-5.232c0-42.857-32.515-78.115-74.22-82.466 23.984 10.79 40.855 36.392 40.855 66.27z" fill="#a6aaed"/><path d="m447.94 254.958c.569-5.448.865-10.976.865-16.575v-.001c0-3.414-.121-6.799-.335-10.159h-384.941c-.214 3.36-.335 6.745-.335 10.159v.001c0 5.598.297 11.127.866 16.575-17.141 4.965-29.678 20.768-29.678 39.509 0 22.72 18.418 41.138 41.139 41.138 6.474 0 12.596-1.499 18.045-4.164 28.699 39.216 75.06 64.692 127.378 64.692h70.112c52.318 0 98.679-25.475 127.378-64.692 5.449 2.664 11.571 4.164 18.046 4.164 22.72 0 41.139-18.418 41.139-41.138-.001-18.741-12.538-34.544-29.679-39.509z" fill="#efc5b4"/><path d="m39.928 207.362v18.509c1.309 32.499 18.44 49.547 32.194 60.909l1.006 33.59c-3.727 65.866 34.427 75.405 55.282 64.747 0 24.839 19.506 44.977 43.567 44.977 19.069 0 35.266-12.654 41.171-30.267 3.347 24.448 21.254 43.118 42.851 43.118s39.504-18.67 42.851-43.118c5.905 17.614 22.101 30.267 41.171 30.267 24.061 0 43.567-20.138 43.567-44.977 20.389 6.256 52.673-2.549 55.282-64.747l2.498-34.298c18.838-11.661 28.648-29.495 30.702-60.2v-18.509h-432.142zm358.043 96.495c0 26.43-21.426 47.857-47.857 47.857-26.43 0-47.856-21.426-47.856-47.857h.003c0-25.549-20.712-46.261-46.261-46.261s-46.261 20.712-46.261 46.261h.003c0 26.43-21.426 47.857-47.857 47.857s-47.857-21.426-47.857-47.857c0 0-4.705-47.687 23.565-75.914l243.126 1.869c20.508 28.102 17.252 74.045 17.252 74.045z" fill="#fff"/><path d="m399.262 224.936c-3.301 1.747-7.401 3.507-12.458 6.638l10.704 50.34c-2.17 49.224-17.864 58.891-35.358 66.292-2.845 12.327-17.416 23.549-38.084 23.549-5.003 0-9.776-1.014-14.138-2.853-12.153-5.127-26.254-2.929-36.299 5.619-6.119 5.207-13.625 8.274-21.737 8.274s-15.618-3.067-21.738-8.274c-10.045-8.548-24.146-10.745-36.299-5.619-4.361 1.84-11.971 11.274-16.974 11.274-13.205 0-21.976.882-28.637-9.783-5.339-8.546-14.326-14.285-24.306-15.682-9.945-1.392-38.981 1.287-50.946-36.782l.136 4.543c-4.46 57.795 29.291 84.209 55.282 64.747 0 24.84 19.506 44.977 43.567 44.977 19.069 0 35.266-12.654 41.171-30.268 3.347 24.448 21.254 43.118 42.851 43.118s39.504-18.67 42.851-43.118c5.905 17.614 22.101 30.268 41.171 30.268 24.061 0 43.567-20.138 43.567-44.977 26.993 12.859 51.94-12.087 55.282-64.747l2.498-34.298c18.838-11.661 28.648-29.496 30.702-60.2v-3.038z" fill="#e1bdfc"/><path d="m469.11 162.833h-23.342c-12.941-22.6-91.615-152.538-189.768-152.538s-176.827 129.938-189.768 152.538h-23.343c-18.153 0-32.869 14.716-32.869 32.869s14.716 32.869 32.869 32.869h426.221c18.153 0 32.87-14.716 32.87-32.869s-14.717-32.869-32.87-32.869z" fill="#d789b9"/><path d="m256 10.295c-10.112 0-20.018 1.38-29.666 3.879 4.022-.594 8.093-.924 12.215-.924 40.748 0 76.907 30.611 102.295 60.113 18.2 21.15 3.035 53.924-24.868 53.924h-217.63s21.95-40.654 56.377-73.415c-54.635 46.115-90.362 112.296-90.362 112.296h383.278s-84.138-155.873-191.639-155.873z" fill="#c668b9"/><path d="m274.143 505.505h-38.558c-6.109 0-11.062-4.952-11.062-11.062v-17.067c0-6.109 4.952-11.062 11.062-11.062h38.558c6.109 0 11.062 4.953 11.062 11.062v17.067c0 6.109-4.953 11.062-11.062 11.062z" fill="#f6e06e"/><path d="m41.118 26.719 8.231 23.145c.352.991 1.05 1.776 1.931 2.173l20.563 9.264c2.905 1.309 2.905 5.938 0 7.246l-20.563 9.265c-.88.397-1.578 1.182-1.931 2.173l-8.231 23.145c-1.163 3.27-5.275 3.27-6.438 0l-8.231-23.145c-.352-.991-1.05-1.776-1.931-2.173l-20.563-9.265c-2.905-1.309-2.905-5.938 0-7.246l20.563-9.264c.88-.397 1.578-1.182 1.931-2.173l8.231-23.145c1.163-3.27 5.275-3.27 6.438 0z" fill="#e8c2d8"/><path d="m479.962 391.014 6.106 17.168c.262.735.779 1.318 1.432 1.612l15.253 6.872c2.155.971 2.155 4.404 0 5.375l-15.253 6.872c-.653.294-1.171.877-1.432 1.612l-6.106 17.168c-.863 2.425-3.913 2.425-4.776 0l-6.106-17.168c-.261-.735-.779-1.318-1.432-1.612l-15.253-6.872c-2.155-.971-2.155-4.404 0-5.375l15.253-6.872c.653-.294 1.171-.877 1.432-1.612l6.106-17.168c.863-2.425 3.913-2.425 4.776 0z" fill="#e8c2d8"/><g fill="#d789b9"><path d="m114.045 16.552c4.282 0 7.753 3.471 7.753 7.753s-3.471 7.753-7.753 7.753-7.753-3.471-7.753-7.753c0-4.281 3.471-7.753 7.753-7.753"/><path d="m434.395 448.264c4.282 0 7.753 3.471 7.753 7.753s-3.471 7.753-7.753 7.753-7.753-3.471-7.753-7.753c0-4.281 3.471-7.753 7.753-7.753"/></g></g><g><path d="m192.756 63.065c-13.094 9.045-24.272 19.641-33.479 28.815-3.921 3.905-3.933 10.25-.026 14.17 1.957 1.965 4.528 2.948 7.098 2.948 2.558 0 5.117-.974 7.072-2.922 8.578-8.546 18.936-18.379 30.725-26.524 4.553-3.145 5.695-9.386 2.549-13.939-3.143-4.553-9.385-5.694-13.939-2.548z" fill="#fff"/><path d="m232.808 44.821c-3.792.842-7.604 1.935-11.332 3.249-5.219 1.841-7.958 7.563-6.117 12.783 1.452 4.117 5.319 6.69 9.45 6.69 1.106 0 2.231-.185 3.333-.573 2.969-1.047 5.999-1.916 9.007-2.583 5.403-1.199 8.811-6.55 7.612-11.953-1.198-5.403-6.553-8.816-11.953-7.613z" fill="#fff"/><g fill="#3c122c"><path d="m512 195.703c0-23.65-19.24-42.89-42.89-42.89h-17.582c-8.226-13.84-26.364-42.366-51.891-71.221-20.637-23.329-41.822-41.968-62.969-55.4-27.073-17.197-54.214-25.917-80.668-25.917s-53.595 8.72-80.669 25.917c-21.146 13.433-42.332 32.072-62.969 55.4-25.526 28.855-43.665 57.381-51.891 71.221h-17.581c-23.65 0-42.89 19.24-42.89 42.89 0 18.804 12.168 34.808 29.04 40.582 1.333 9.609 3.957 17.947 7.401 25.229-7.528 8.907-12.08 20.405-12.08 32.953 0 23.473 15.897 43.285 37.486 49.28 3.101 28.348 15.169 42.481 25.933 49.494 9.222 6.008 20.203 8.397 30.846 7.043 2.195 8.112 6.111 15.494 11.311 21.718-5.284 14.39-8.184 29.921-8.184 46.12v33.584c0 5.534 4.487 10.02 10.02 10.02 5.534 0 10.02-4.487 10.02-10.02v-33.584c0-11.326 1.664-22.268 4.749-32.604 7.487 3.99 15.966 6.277 24.953 6.356-2.874 8.731-4.431 18.053-4.431 27.734v35.901c0 3.32 2.692 6.012 6.012 6.012s6.012-2.692 6.012-6.012v-23.16h39.421v12.096c0 9.415 7.659 17.074 17.074 17.074h38.559c9.415 0 17.074-7.659 17.074-17.074v-12.096h41.693v23.16c0 3.32 2.692 6.012 6.012 6.012s6.012-2.692 6.012-6.012v-35.901c0-9.681-1.563-19.002-4.437-27.734 8.988-.078 17.469-2.364 24.957-6.353 3.085 10.335 4.75 21.276 4.75 32.601v33.584c0 5.534 4.487 10.02 10.02 10.02 5.534 0 10.02-4.487 10.02-10.02v-33.584c0-16.202-2.897-31.735-8.183-46.127 5.554-6.648 9.645-14.619 11.737-23.387 10.163.215 20.061-2.739 28.443-8.666 13.036-9.22 21.667-24.529 25.784-45.655 22.664-5.248 39.613-25.582 39.613-49.819 0-12.109-4.237-23.243-11.298-32.014 3.134-7.653 5.29-16.317 6.554-26.146 16.907-5.756 29.107-21.777 29.107-40.605zm-256-175.387c78.931 0 146.414 92.462 171.929 132.497h-343.873c25.487-40.036 92.91-132.497 171.944-132.497zm-235.959 175.387c0-12.599 10.25-22.849 22.849-22.849h426.22c12.599 0 22.849 10.25 22.849 22.849s-10.25 22.849-22.849 22.849h-426.22c-12.599 0-22.849-10.25-22.849-22.849zm371.932 107.729c-.01.141-.015.283-.015.425 0 23.073-18.771 41.845-41.844 41.845-23.014 0-41.749-18.675-41.845-41.666.002-.06.003-.118.003-.178 0-28.823-23.45-52.273-52.273-52.273-28.824 0-52.274 23.45-52.274 52.273 0 .068.001.136.003.204-.109 22.98-18.838 41.64-41.844 41.64-23.072 0-41.844-18.771-41.844-41.845 0-.193-.01-.392-.028-.584-.04-.414-3.434-38.496 16.279-64.68h242.975c15.185 26.182 12.736 64.433 12.707 64.839zm-347.57-8.965c0-5.328 1.355-10.342 3.727-14.729 3.966 4.781 8.194 8.938 12.366 12.619l.835 27.864c-.034.639-.052 1.255-.079 1.884-10-5.18-16.849-15.621-16.849-27.638zm234.79 199.976c0 2.784-2.265 5.049-5.049 5.049h-38.559c-2.784 0-5.049-2.265-5.049-5.049v-17.067c0-2.784 2.265-5.049 5.049-5.049h38.559c2.784 0 5.049 2.265 5.049 5.049zm10.481-24.12c-2.691-5.901-8.633-10.02-15.53-10.02h-38.559c-6.898 0-12.839 4.12-15.53 10.02h-40.965v-.716c0-10.369 2.067-20.261 5.805-29.293 9.428-2.32 18.033-7.127 24.997-13.836 9.91 17.233 26.92 28.256 46.108 28.256 19.19 0 36.198-11.02 46.109-28.256 6.961 6.705 15.562 11.512 24.985 13.833 3.741 9.034 5.816 18.925 5.816 29.296v.716zm139.938-185.108-2.499 34.298c-.009.121-.016.242-.021.363-1.349 32.158-10.786 45.383-18.466 50.814-8.7 6.156-17.99 4.258-21.579 3.156-3.577-1.099-7.46-.432-10.467 1.791-3.007 2.222-4.781 5.74-4.781 9.48 0 18.3-14.255 33.188-31.777 33.188-13.483 0-25.536-8.931-29.992-22.225-1.74-5.193-6.826-8.501-12.281-7.991-5.453.512-9.834 4.712-10.577 10.139-2.571 18.772-15.972 32.927-31.172 32.927-15.201 0-28.6-14.156-31.17-32.927-.743-5.426-5.125-9.626-10.578-10.139-.372-.035-.742-.052-1.11-.052-5.021 0-9.55 3.204-11.171 8.043-4.456 13.294-16.51 22.225-29.993 22.225-17.522 0-31.777-14.888-31.777-33.188 0-4.104-2.135-7.913-5.635-10.056-3.501-2.143-7.865-2.31-11.519-.442-5.338 2.727-14.409 4.069-22.392-1.134-11.644-7.586-17.239-26.212-15.754-52.448.019-.34.023-.679.013-1.02l-1.005-33.59c-.102-3.392-1.661-6.575-4.276-8.737-11.373-9.394-22.137-20.69-26.237-39.098h68.434c-16.554 27.89-14.155 61.647-13.81 65.549.153 29.574 24.258 53.584 53.867 53.584 29.704 0 53.869-24.165 53.869-53.869 0-.069-.001-.136-.003-.204.11-22.1 18.123-40.045 40.249-40.045 22.134 0 40.152 17.96 40.249 40.072-.002.059-.003.117-.003.177 0 29.704 24.165 53.869 53.869 53.869 29.634 0 53.756-24.053 53.868-53.662.221-3.438 2.03-37.642-11.152-65.472h65.889c-3.198 18.048-10.455 29.345-23.556 37.455-3.214 1.991-5.279 5.4-5.554 9.169zm37.985 9.252c0 12.084-6.925 22.578-17.014 27.73.019-.385.042-.763.059-1.151l2.07-28.397c4.555-3.315 8.567-6.997 12.076-11.09 1.801 3.935 2.809 8.305 2.809 12.908z"/><path d="m142.264 254.095c1.489 2.955 5.1 4.143 8.063 2.667.052-.026 5.318-2.615 11.558-2.615 6.241 0 11.507 2.589 11.534 2.603.876.446 1.808.658 2.728.658 2.188 0 4.298-1.198 5.36-3.28 1.509-2.958.335-6.579-2.622-8.089-.786-.4-7.937-3.916-17-3.916s-16.214 3.516-16.999 3.916c-2.948 1.504-4.113 5.102-2.622 8.056z"/><path d="m338.581 256.75c.051-.026 5.274-2.603 11.534-2.603 6.24 0 11.506 2.589 11.533 2.603.876.446 1.808.658 2.728.658 2.188 0 4.298-1.198 5.361-3.28 1.509-2.958.335-6.579-2.622-8.089-.786-.4-7.936-3.916-16.999-3.916-9.064 0-16.215 3.516-17 3.916-2.957 1.51-4.131 5.131-2.622 8.089 1.509 2.957 5.131 4.129 8.087 2.622z"/><path d="m273.61 297.505c-3.32 0-6.012 2.692-6.012 6.012 0 6.396-5.203 11.599-11.598 11.599-6.396 0-11.599-5.203-11.599-11.599 0-3.32-2.692-6.012-6.012-6.012s-6.012 2.692-6.012 6.012c0 13.025 10.598 23.623 23.623 23.623 13.026 0 23.622-10.598 23.622-23.623 0-3.32-2.692-6.012-6.012-6.012z"/><path d="m265.755 479.973h-19.51c-3.32 0-6.012 2.692-6.012 6.012s2.692 6.012 6.012 6.012h19.51c3.32 0 6.012-2.692 6.012-6.012s-2.692-6.012-6.012-6.012z"/><path d="m360.445 111.963c-3.32 0-6.012 2.692-6.012 6.012v11.354c0 3.32 2.692 6.012 6.012 6.012s6.012-2.692 6.012-6.012v-11.354c.001-3.32-2.691-6.012-6.012-6.012z"/><path d="m328.475 76.303c-3.32 0-6.012 2.692-6.012 6.012v11.355c0 3.32 2.692 6.012 6.012 6.012s6.012-2.692 6.012-6.012v-11.354c0-3.321-2.692-6.013-6.012-6.013z"/><path d="m298.041 99.052c-3.32 0-6.012 2.692-6.012 6.012v11.354c0 3.32 2.692 6.012 6.012 6.012s6.012-2.692 6.012-6.012v-11.354c.001-3.32-2.691-6.012-6.012-6.012z"/><path d="m161.885 285.907c-9.726 0-17.61 7.884-17.61 17.61 0 9.727 7.884 17.611 17.61 17.611s17.611-7.884 17.611-17.611c0-9.725-7.885-17.61-17.611-17.61z"/><path d="m350.114 285.907c-9.726 0-17.61 7.884-17.61 17.61 0 9.727 7.885 17.611 17.61 17.611 9.726 0 17.611-7.884 17.611-17.611 0-9.725-7.885-17.61-17.611-17.61z"/></g></g></g></svg>