<svg id="Capa_1" enable-background="new 0 0 512 512" height="512" viewBox="0 0 512 512" width="512" xmlns="http://www.w3.org/2000/svg"><g><g><path d="m386.172 500.757v-34.133c0-69.729-56.526-126.255-126.255-126.255-69.729 0-126.255 56.526-126.255 126.255v34.133z" fill="#c1e5ef"/><path d="m215.748 396.729c-24.063 14.84-40.108 41.43-40.108 71.776v32.251h40.108z" fill="#c49a8b"/><path d="m305.404 397.574v103.182h38.791v-32.251c0-29.785-15.466-55.941-38.791-70.931z" fill="#c49a8b"/><path d="m268.761 385.203c24.377 10.964 41.524 36.985 41.524 67.352v7.306c0 11.373-9.22 20.594-20.594 20.594h-114.052v20.813h168.555v-32.25c.001-43.56-33.045-79.394-75.433-83.815z" fill="#b2748a"/><path d="m302.72 478.328c-2.871 1.348-6.09 2.126-9.507 2.126h-76.611v20.813h86.118z" fill="#a6aaed"/><path d="m454.996 249.976c.578-5.537.88-11.156.88-16.847 0-88.548-71.782-160.329-160.329-160.329h-71.258c-88.547 0-160.329 71.782-160.329 160.329 0 5.69.301 11.31.88 16.847-17.421 5.045-30.163 21.107-30.163 40.154 0 23.091 18.72 41.811 41.811 41.811 6.58 0 12.802-1.525 18.34-4.233 29.168 39.857 76.287 65.75 129.461 65.75h71.258c53.174 0 100.293-25.892 129.461-65.75 5.538 2.708 11.76 4.233 18.34 4.233 23.092 0 41.811-18.72 41.811-41.811-.001-19.047-12.742-35.109-30.163-40.154z" fill="#f3d4d2"/><path d="m295.546 73.683h-20.56c71.786 0 129.981 58.194 129.981 129.981v11.038c0 71.786-58.194 129.981-129.981 129.981h-81.046c-68.698 0-124.94-53.296-129.654-120.795-.209 3.349-.327 6.722-.327 10.124v.001c0 88.547 71.782 160.329 160.329 160.329h71.258c88.547 0 160.329-71.782 160.329-160.329v-.001c0-88.547-71.782-160.329-160.329-160.329z" fill="#da9fd0"/><path d="m61.163 168.356s-27.687 83.492 29.612 150.723l29.099-4.06c1.313-8.533-9.474-104.891-12.858-129.253-5.289-38.085-45.853-17.41-45.853-17.41z" fill="#a07575"/><path d="m458.671 168.356s27.687 83.492-29.613 150.723l-29.099-4.06c-1.313-8.533 9.474-104.891 12.858-129.253 5.29-38.085 45.854-17.41 45.854-17.41z" fill="#a07575"/><path d="m416.637 100.843c-15.376-40.252-53.453-90.659-108.329-90.659-18.77.217-32.064 12.944-48.391 26.132-16.735-12.221-26.788-25.593-47.955-26.132-55.43 0-96.723 50.213-112.123 90.783-49.606 1.965-80.865 9.943-80.865 35.296 0 47.107 107.874 85.295 240.943 85.295s240.943-38.188 240.943-85.295c0-25.921-32.671-33.681-84.223-35.42z" fill="#c49a8b"/><path d="m103.967 89.371c-4.752 12.328-11.014 34.741-10.692 43.689 1.938 53.789 332.775 51.928 330.927 0-.313-8.786-8.186-32.149-12.993-44.601.149 50.456-307.093 51.368-307.242.912z" fill="#d789b9"/><path d="m405.526 100.228c-12.671 6.764-25.737 12.712-39.417 17.24-34.315 32.674-265.264 30.889-266.729-8.877-.086-2.322.065-4.858.435-7.559-4.568 12.053-6.856 23.255-6.54 32.028 1.938 53.79 332.775 51.929 330.927 0-.313-8.805-2.976-20.348-7.804-32.832z" fill="#c668b9"/><path d="m368.12 115.219h5.609c14.574-3.588 27.651-11.883 40.229-20.946-16.842-38.956-53.724-84.088-105.651-84.088-4.906.057-9.435.974-13.745 2.524 47.08 12.631 74.834 69.539 75.793 95.882.086 2.336-.696 4.545-2.235 6.628z" fill="#b2748a"/><path d="m375.231 371.147c-73.923 8.796-149.885 13.423-231.539-2.237-5.479 17.791-7.88 30.627-1.428 42.965 22.86 4.753 57.188 7.505 79.997 9.227 0 0 109.058 61.291 125.837 55.699 16.778-5.593 20.422-46.369 23.778-65.385 3.355-19.016 3.355-40.269 3.355-40.269z" fill="#d789b9"/><path d="m337.987 375.127c-.268 4.584-.944 11.686-2.655 18.321-2.83 10.978-5.904 34.518-20.056 37.747-14.152 3.228-106.142-32.155-106.142-32.155-19.239-.993-48.195-2.583-67.477-5.326-1.328-1.738-2.205-3.493-2.714-5.302-1.206 8.617-.513 16.133 3.32 23.463 22.86 4.753 57.188 7.505 79.997 9.227 0 0 109.058 61.291 125.837 55.699 16.778-5.593 20.422-46.37 23.778-65.385s3.356-40.268 3.356-40.268c-12.351 1.469-24.761 2.818-37.244 3.979z" fill="#c668b9"/><path d="m40.941 374.66 8.366 23.523c.358 1.007 1.067 1.805 1.962 2.208l20.899 9.416c2.953 1.33 2.953 6.035 0 7.365l-20.899 9.416c-.895.403-1.604 1.201-1.962 2.208l-8.366 23.523c-1.182 3.323-5.362 3.323-6.543 0l-8.366-23.523c-.358-1.007-1.067-1.805-1.962-2.208l-20.9-9.416c-2.953-1.33-2.953-6.035 0-7.365l20.899-9.416c.895-.403 1.604-1.201 1.962-2.208l8.366-23.523c1.182-3.323 5.362-3.323 6.544 0z" fill="#e8c2d8"/><path d="m455.848 426.132 6.206 17.449c.266.747.792 1.339 1.455 1.638l15.503 6.984c2.19.987 2.19 4.476 0 5.463l-15.503 6.984c-.664.299-1.19.891-1.455 1.638l-6.206 17.449c-.877 2.465-3.977 2.465-4.854 0l-6.206-17.449c-.266-.747-.792-1.339-1.455-1.638l-15.503-6.984c-2.19-.987-2.19-4.476 0-5.463l15.503-6.984c.664-.299 1.19-.891 1.455-1.638l6.206-17.449c.877-2.465 3.978-2.465 4.854 0z" fill="#e8c2d8"/><g fill="#d789b9"><ellipse cx="491.434" cy="376.152" rx="18.267" ry="18.267" transform="matrix(.217 -.976 .976 .217 17.784 774.465)"/><circle cx="85.234" cy="470.548" r="7.88"/></g></g><g><path d="m473.01 247.464c1.591-9.371 2.445-19.013 2.526-28.875.096-11.752-.897-22.218-2.175-30.707 24.561-14.961 37.683-32.669 37.683-51.618 0-9.822-3.471-18.209-10.318-24.928-13.761-13.505-40.417-18.718-77.093-20.406-5.46-12.819-13.054-26.431-22.931-39.4-25.309-33.23-58.121-51.53-92.394-51.53-.039 0-.079 0-.118.001-19.829.229-33.83 11.316-48.456 23.313-1.408-1.134-2.787-2.269-4.147-3.387-11.607-9.548-23.61-19.42-43.366-19.923-.086-.003-.173-.004-.259-.004-38.564 0-67.376 21.477-84.755 39.494-14.436 14.966-26.5 33.485-34.351 51.599-34.954 1.851-60.407 7.15-73.747 20.243-6.847 6.72-10.318 15.107-10.318 24.928 0 18.95 13.123 36.659 37.686 51.62-1.279 8.49-2.274 18.95-2.178 30.705.081 9.863.935 19.507 2.527 28.879-13.486 9.401-22.333 25.013-22.333 42.662 0 28.67 23.325 51.995 51.995 51.995 5.212 0 10.243-.78 14.993-2.214 12.222 15.161 26.983 28.187 43.629 38.444-1.87 10.626-1.234 20.006 1.954 28.973-8.697 17.941-13.587 38.055-13.587 59.294v34.133c0 5.625 4.56 10.184 10.184 10.184 5.625 0 10.184-4.56 10.184-10.184v-34.133c0-17.849 4.059-34.764 11.288-49.885 9.739-.875 19.855-.239 29.628 1.252-9.612 14.358-15.233 31.604-15.233 50.143v36.488c0 3.375 2.735 6.111 6.11 6.111s6.111-2.736 6.111-6.111v-36.488c0-17.909 6.076-34.411 16.247-47.603 3.647.836 7.189 1.753 10.583 2.714v82.646c0 3.375 2.736 6.111 6.11 6.111s6.111-2.736 6.111-6.111v-78.612c6.141 3.383 30.123 16.495 55.385 28.943 8.023 3.954 15.129 7.324 21.46 10.212v39.457c0 3.375 2.736 6.111 6.11 6.111 3.375 0 6.111-2.736 6.111-6.111v-34.065c13.544 5.743 22.355 8.605 28.217 9.913v22.883c0 3.375 2.736 6.111 6.111 6.111 3.374 0 6.11-2.736 6.11-6.111v-22.749c13-4.56 19.084-22.589 22.802-40.927 1.877 8.264 2.88 16.855 2.88 25.678v34.133c0 5.625 4.56 10.184 10.184 10.184 5.625 0 10.184-4.56 10.184-10.184v-34.133c0-23.74-6.117-46.069-16.825-65.532.895-7.738 1.348-15.063 1.576-20.536 18.139-10.569 34.158-24.388 47.26-40.655 4.747 1.435 9.77 2.225 14.979 2.225 28.67 0 51.995-23.325 51.995-51.995.003-17.648-8.843-33.263-22.329-42.665zm-17.849-28.34c-.421 34.141-10.627 64.08-30.351 89.08l-14.546-2.029c1.143-18.548 5.96-64.159 9.677-95.48 4.713-1.438 9.3-2.943 13.747-4.517 7.301-2.585 14.107-5.327 20.432-8.204.689 6.271 1.136 13.406 1.041 21.15zm-345.633-114.881c9.312 8.987 26.89 16.104 52.596 21.251 26.553 5.317 60.634 8.188 95.906 8.188 7.015 0 14.083-.114 21.142-.344 26.645-.871 102.855-5.376 128.256-28.231 4.054 10.72 6.322 20.613 6.597 28.315.077 2.172-5.985 9.973-33.895 17.106-23.799 6.082-57.561 10.171-95.066 11.513-46.1 1.653-92.512-.938-127.33-7.103-44.154-7.818-54.153-18.708-54.28-22.245-.269-7.441 1.848-17.459 6.074-28.45zm32.338-50.608c14.619-15.155 38.616-33.216 69.963-33.267 12.673.363 20.289 6.628 30.818 15.289 3.51 2.887 7.14 5.873 11.263 8.883 3.725 2.722 8.816 2.596 12.406-.302 1.762-1.424 3.49-2.842 5.194-4.24 13.237-10.867 23.695-19.454 36.859-19.63 43.849.033 77.089 37.774 93.764 72.424-8.13 12.753-50.651 25.956-123.36 28.331-41.654 1.362-83.296-1.413-114.25-7.612-27.099-5.426-44.896-13.361-49.449-21.782 6.493-12.972 15.545-26.434 26.792-38.094zm-112.708 82.629c0-4.324 1.301-7.529 4.217-10.392 8.289-8.135 27.027-12.13 52.312-13.939-1.901 7.67-2.826 14.954-2.59 21.493.707 19.627 23.959 33.224 71.084 41.568 29.071 5.147 65.758 7.9 103.692 7.9 9.261 0 18.603-.164 27.918-.498 38.918-1.393 74.212-5.703 99.38-12.134 12.388-3.166 50.089-12.8 49.208-37.564v-.001c-.21-5.907-1.362-13.063-3.493-20.984 26.934 1.696 46.931 5.679 55.572 14.159 2.916 2.862 4.217 6.067 4.217 10.392 0 35.527-94.769 75.111-230.759 75.111-135.989 0-230.758-39.584-230.758-75.111zm56.988 69.913c4.447 1.574 9.034 3.08 13.747 4.517 3.718 31.322 8.534 76.931 9.677 95.48l-14.546 2.029c-19.724-24.999-29.93-54.938-30.351-89.08-.096-7.743.356-14.871 1.045-21.15 6.324 2.878 13.128 5.62 20.428 8.204zm-41.286 83.953c0-7.694 2.769-14.747 7.353-20.234 5.934 18.851 15.15 36.257 27.441 51.684-1.043.106-2.096.178-3.167.178-17.439 0-31.627-14.188-31.627-31.628zm320.998 120.224c-.477 2.706-.96 5.825-1.471 9.128-2.555 16.519-7.311 47.266-18.186 50.892-1.509.388-11.754.976-65.214-25.412-28.651-14.142-55.488-29.051-55.756-29.199-.322-.179-.66-.329-1.009-.447-16.26-5.511-38.291-11.188-60.039-11.188-5.007 0-10.001.301-14.903.974-3.573-8.752-3.948-17.874-1.199-29.155 80.111 14.534 153.388 9.875 220.887 2.089-.271 7.653-1.024 20.496-3.11 32.318zm-.816-44.174c-65.691 7.482-136.857 11.779-214.21-2.167-16.778-9.454-31.564-22.034-43.564-36.952l14.014-1.955c4.455-.622 7.974-4.091 8.659-8.538 1.245-8.091-4.63-63.161-8.919-100.102 40.661 9.93 88.664 15.278 138.896 15.278s98.235-5.348 138.896-15.278c-4.29 36.941-10.164 92.011-8.919 100.102.684 4.446 4.203 7.916 8.659 8.538l14.031 1.958c-12.94 16.086-29.123 29.454-47.543 39.116zm78.305-44.422c-1.072 0-2.127-.065-3.171-.172 12.291-15.425 21.507-32.83 27.442-51.679 4.583 5.486 7.357 12.532 7.357 20.224-.001 17.439-14.189 31.627-31.628 31.627z" fill="#3c122c"/><path d="m142.756 91.586c1.773 1.233 3.8 1.824 5.807 1.824 3.221 0 6.391-1.525 8.37-4.37 4.961-7.132 10.658-13.511 16.932-18.959 4.247-3.688 4.7-10.121 1.013-14.367-3.689-4.247-10.121-4.699-14.367-1.012-7.546 6.553-14.376 14.193-20.299 22.708-3.212 4.618-2.073 10.964 2.544 14.176z" fill="#fff"/><path d="m188.429 58.45c1.489 0 3.001-.328 4.432-1.021 1.391-.674 2.812-1.31 4.221-1.891 5.2-2.143 7.679-8.096 5.536-13.296-2.142-5.2-8.093-7.679-13.296-5.536-1.786.736-3.582 1.541-5.339 2.391-5.062 2.452-7.178 8.543-4.727 13.605 1.759 3.633 5.392 5.748 9.173 5.748z" fill="#fff"/><g fill="#3c122c"><path d="m181.542 240.911c-.799-.407-8.066-3.981-17.278-3.981-9.211 0-16.48 3.573-17.278 3.981-2.996 1.529-4.18 5.185-2.665 8.188 1.515 3.004 5.184 4.21 8.196 2.71.053-.027 5.405-2.658 11.748-2.658s11.694 2.632 11.722 2.645c.89.454 1.838.669 2.773.669 2.223 0 4.368-1.218 5.448-3.334 1.533-3.006.34-6.686-2.666-8.22z"/><path d="m372.848 240.911c-.799-.407-8.066-3.981-17.278-3.981-9.211 0-16.479 3.574-17.278 3.981-3.006 1.534-4.199 5.214-2.665 8.22s5.213 4.2 8.22 2.665c.052-.026 5.361-2.645 11.722-2.645 6.343 0 11.694 2.632 11.723 2.645.89.454 1.838.669 2.773.669 2.223 0 4.367-1.218 5.448-3.334 1.534-3.006.341-6.686-2.665-8.22z"/><path d="m277.815 293.219c-3.375 0-6.111 2.736-6.111 6.111 0 6.5-5.288 11.788-11.788 11.788s-11.788-5.288-11.788-11.788c0-3.375-2.736-6.111-6.111-6.111-3.374 0-6.11 2.736-6.11 6.111 0 13.239 10.77 24.009 24.009 24.009 13.238 0 24.009-10.77 24.009-24.009.001-3.376-2.735-6.111-6.11-6.111z"/><path d="m339.246 451.04c3.375 0 6.111-2.736 6.111-6.111v-11.539c0-3.375-2.736-6.111-6.111-6.111-3.374 0-6.11 2.736-6.11 6.111v11.539c0 3.375 2.736 6.111 6.11 6.111z"/><path d="m292.463 429c3.375 0 6.111-2.736 6.111-6.11v-11.539c0-3.375-2.736-6.111-6.111-6.111-3.374 0-6.11 2.736-6.11 6.111v11.539c0 3.374 2.736 6.11 6.11 6.11z"/><path d="m324.4 420.205c3.375 0 6.111-2.736 6.111-6.111v-11.539c0-3.375-2.736-6.111-6.111-6.111-3.374 0-6.11 2.736-6.11 6.111v11.539c0 3.375 2.736 6.111 6.11 6.111z"/><path d="m164.264 281.431c-9.885 0-17.898 8.013-17.898 17.898s8.013 17.899 17.898 17.899 17.898-8.014 17.898-17.899-8.013-17.898-17.898-17.898z"/><path d="m355.57 281.431c-9.885 0-17.898 8.013-17.898 17.898s8.013 17.899 17.898 17.899 17.898-8.014 17.898-17.899c.001-9.885-8.013-17.898-17.898-17.898z"/></g></g></g></svg>