<svg id="Capa_1" enable-background="new 0 0 512 512" height="512" viewBox="0 0 512 512" width="512" xmlns="http://www.w3.org/2000/svg"><g><g><path d="m380.772 442.915c0-3.275-.133-6.518-.381-9.729h-41.356c-1.13-15.362-6.417-29.56-14.754-41.48h45.531c-19.545-43.371-63.151-73.562-113.81-73.562-50.659 0-94.265 30.192-113.811 73.562h45.531c-8.337 11.92-13.625 26.118-14.754 41.48h-41.358c-.248 3.211-.381 6.454-.381 9.729v10.366h41.484v23.847h166.575v-23.847h41.485v-10.366z" fill="#a1e8c3"/><path d="m379.2 423.122c-1.174-7.35-2.984-14.488-5.381-21.351h-235.638c-2.397 6.864-4.206 14.002-5.38 21.351h45.519l-3.858 10.757h160.834l-2.806-10.757z" fill="#96b4eb"/><path d="m335.632 463.346v-.552h-164.212v.552h-40.192v13.301h40.192 164.212 45.14v-13.301z" fill="#96b4eb"/><path d="m317.906 95.498c-4.929-27.863 13.662-54.446 41.524-59.375 20.053-3.548 39.442 5.089 50.574 20.596 2.337-.662 4.729-1.212 7.172-1.645 39.261-6.946 76.719 19.251 83.665 58.512 3.662 20.698-1.895 40.889-13.714 56.378 4.058 27.525-14.487 53.457-42.064 58.335-28.074 4.967-54.858-13.765-59.825-41.839-.231-1.304-.393-2.603-.523-3.899-13.251-10.573-22.865-25.817-26.051-43.822-.113-.64-.194-1.277-.289-1.916-20.109-3.999-36.682-19.919-40.469-41.325z" fill="#d789b9"/><path d="m194.094 95.498c4.929-27.863-13.662-54.446-41.525-59.375-20.053-3.548-39.442 5.089-50.574 20.596-2.337-.662-4.729-1.212-7.172-1.645-39.261-6.946-76.719 19.251-83.665 58.512-3.662 20.698 1.895 40.889 13.714 56.378-4.058 27.526 14.488 53.457 42.064 58.336 28.074 4.967 54.858-13.765 59.825-41.839.231-1.304.393-2.603.523-3.899 13.251-10.573 22.865-25.817 26.051-43.822.113-.64.194-1.277.289-1.916 20.111-4 36.683-19.92 40.47-41.326z" fill="#d789b9"/><path d="m448.787 228.813c.571-5.472.869-11.025.869-16.648v-.001c0-87.507-70.938-158.445-158.445-158.445h-70.421c-87.507 0-158.445 70.939-158.445 158.445v.001c0 5.623.298 11.176.869 16.648-17.216 4.986-29.808 20.859-29.808 39.683 0 22.82 18.499 41.32 41.32 41.32 6.503 0 12.652-1.506 18.125-4.183 28.825 39.389 75.39 64.977 127.939 64.977h70.421c52.549 0 99.114-25.588 127.94-64.977 5.473 2.676 11.622 4.183 18.125 4.183 22.82 0 41.32-18.499 41.32-41.32-.001-18.824-12.593-34.697-29.809-39.683z" fill="#efc5b4"/><path d="m295.01 342.601h-78.02c-61.571 0-111.485-49.913-111.485-111.485 0-61.571 49.913-111.485 111.485-111.485h78.021c61.571 0 111.484 49.913 111.484 111.485 0 61.572-49.913 111.485-111.485 111.485z" fill="#fff"/><path d="m291.21 59.088h-20.318c70.943 0 128.453 57.511 128.453 128.453v10.909c0 70.943-57.511 128.454-128.453 128.454h-80.094c-67.89 0-123.472-52.67-128.13-119.376-.206 3.31-.324 6.643-.324 10.005v.001c0 87.507 70.938 158.445 158.445 158.445h70.421c87.507 0 158.445-70.939 158.445-158.445v-.001c.001-87.506-70.938-158.445-158.445-158.445z" fill="#d994b3"/><path d="m399.346 198.451c0 70.943-57.511 128.454-128.454 128.454h-80.094c-14.223 0-27.902-2.32-40.689-6.587 18.631 13.992 41.787 22.284 66.881 22.284h78.021c61.571 0 111.485-49.913 111.485-111.484 0-13.85-2.533-27.108-7.149-39.343v6.676z" fill="#e1bdfc"/><ellipse cx="255.122" cy="282.589" fill="#d789b9" rx="31.659" ry="31.659" transform="matrix(.29 -.957 .957 .29 -89.272 444.875)"/><path d="m259.885 251.288c7.675 3.811 12.953 11.724 12.953 20.874 0 12.866-10.43 23.296-23.296 23.296s-23.296-10.43-23.296-23.296c0-1.011.072-2.005.197-2.982-1.907 4.073-2.979 8.615-2.979 13.409 0 17.485 14.174 31.659 31.659 31.659 17.484 0 31.658-14.174 31.658-31.659 0-15.865-11.671-29.004-26.896-31.301z" fill="#c668b9"/><ellipse cx="256" cy="398.815" fill="#f6e06e" rx="17.62" ry="17.619" transform="matrix(.16 -.987 .987 .16 -178.672 587.627)"/><circle cx="256" cy="451.552" fill="#f6e06e" r="17.619"/><path d="m245.843 465.712c5 3 10 4 16 3 5.151-1.932 10.297-6.767 12.779-12.633h-35.219c1.266 3.681 3.234 7.069 6.44 9.633z" fill="#dda86a"/><path d="m264.74 361.946c24.091 10.835 41.036 36.551 41.036 66.56v7.221c0 11.24-9.112 20.352-20.351 20.352h-10.803c-2.482 5.866-7.628 10.701-12.779 12.633-6 1-11 0-16-3-3.205-2.564-5.174-5.952-6.44-9.633h-66.689v20.568h166.575v-31.872c-.001-43.046-32.659-78.459-74.549-82.829z" fill="#85adc2"/><path d="m305.776 432.653h32.623c-1.559-10.656-5.131-20.657-10.324-29.604h-26.585c2.763 7.916 4.286 16.493 4.286 25.458z" fill="#8286ea"/><path d="m172.713 465.159h166.575v11.488h-166.575z" fill="#8286ea"/><path d="m52.727 361.339 8.267 23.246c.354.995 1.055 1.784 1.939 2.182l20.654 9.305c2.918 1.315 2.918 5.964 0 7.278l-20.654 9.305c-.884.398-1.585 1.187-1.939 2.182l-8.267 23.247c-1.168 3.284-5.299 3.284-6.466 0l-8.267-23.247c-.354-.995-1.055-1.784-1.939-2.182l-20.655-9.303c-2.918-1.315-2.918-5.964 0-7.278l20.654-9.305c.884-.398 1.585-1.187 1.939-2.182l8.267-23.246c1.168-3.286 5.299-3.286 6.467-.002z" fill="#e8c2d8"/><path d="m486.74 336.461 6.133 17.244c.263.738.782 1.323 1.438 1.619l15.321 6.902c2.164.975 2.164 4.424 0 5.399l-15.321 6.902c-.656.296-1.176.881-1.438 1.619l-6.133 17.244c-.866 2.436-3.93 2.436-4.797 0l-6.133-17.244c-.263-.738-.782-1.323-1.438-1.619l-15.321-6.902c-2.164-.975-2.164-4.424 0-5.399l15.321-6.902c.656-.296 1.176-.881 1.438-1.619l6.133-17.244c.867-2.436 3.931-2.436 4.797 0z" fill="#e8c2d8"/><ellipse cx="432.929" cy="431.348" fill="#d789b9" rx="7.787" ry="7.787" transform="matrix(.16 -.987 .987 .16 -62.197 789.593)"/></g><g><g fill="#3c122c"><path d="m255.122 320.287c-20.785 0-37.697-16.911-37.697-37.698 0-20.786 16.911-37.697 37.697-37.697 20.787 0 37.698 16.911 37.698 37.697 0 20.787-16.911 37.698-37.698 37.698zm0-63.318c-14.127 0-25.619 11.493-25.619 25.62s11.493 25.62 25.619 25.62c14.127 0 25.62-11.493 25.62-25.62s-11.493-25.62-25.62-25.62z"/><path d="m175.795 231.273c-.924 0-1.862-.213-2.741-.662-.027-.014-5.315-2.614-11.583-2.614s-11.557 2.601-11.61 2.627c-2.974 1.484-6.602.291-8.099-2.677-1.498-2.968-.327-6.581 2.633-8.092.789-.402 7.972-3.935 17.075-3.935s16.286 3.532 17.075 3.935c2.97 1.516 4.149 5.154 2.632 8.124-1.066 2.091-3.185 3.294-5.382 3.294z"/><path d="m364.855 231.273c-.924 0-1.862-.213-2.74-.661-.029-.014-5.317-2.615-11.585-2.615s-11.557 2.601-11.61 2.627c-2.973 1.484-6.602.291-8.099-2.677-1.498-2.968-.327-6.581 2.633-8.092.789-.402 7.972-3.935 17.075-3.935s16.286 3.532 17.075 3.935c2.97 1.517 4.15 5.154 2.633 8.124-1.067 2.091-3.186 3.294-5.382 3.294z"/><path d="m486.129 213.501c8.584-11.934 12.576-26.276 11.432-40.792 12.144-17.712 16.945-39.663 13.191-60.877-3.827-21.636-15.851-40.485-33.857-53.078-18.005-12.591-39.833-17.417-61.47-13.591-.533.094-1.066.194-1.6.299-14.023-15.446-35.354-22.93-56.148-19.251-14.043 2.484-26.509 9.606-35.693 20.267-9.981-1.849-20.265-2.826-30.773-2.826h-70.421c-10.53 0-20.835.98-30.835 2.837-8.891-10.297-21.222-17.73-35.631-20.279-20.79-3.678-42.126 3.805-56.149 19.25-.533-.105-1.065-.204-1.598-.299-21.638-3.828-43.467.998-61.472 13.591-18.005 12.596-30.03 31.445-33.857 53.082-3.753 21.214 1.048 43.165 13.192 60.876-1.144 14.516 2.847 28.857 11.432 40.792 4.442 6.176 9.888 11.385 16.068 15.465-11.354 9.432-18.599 23.649-18.599 39.529 0 28.333 23.051 51.384 51.385 51.384 5.142 0 10.102-.78 14.789-2.194 15.49 19.232 35.105 35.004 57.496 45.954-16.242 22.266-25.847 49.667-25.847 79.275v33.732c0 5.559 4.506 10.065 10.064 10.065s10.064-4.506 10.064-10.065v-12.503h25.381v16.322c0 3.335 2.704 6.039 6.039 6.039s6.039-2.704 6.039-6.039v-10.052h62.989c3.968 3.007 8.908 4.795 14.259 4.795 5.352 0 10.292-1.788 14.26-4.795h62.989v10.052c0 3.335 2.704 6.039 6.039 6.039s6.039-2.704 6.039-6.039v-16.322h25.382v12.503c0 5.559 4.506 10.065 10.065 10.065 5.558 0 10.064-4.506 10.064-10.065v-33.732c0-29.609-9.604-57.01-25.847-79.275 22.387-10.948 41.999-26.716 57.487-45.942 4.688 1.416 9.655 2.182 14.798 2.182 28.333 0 51.384-23.051 51.384-51.384 0-15.887-7.252-30.107-18.616-39.537 6.185-4.079 11.642-9.279 16.086-15.458zm-453.255-49.641c-10.519-13.785-14.821-31.47-11.806-48.52 2.892-16.342 11.974-30.579 25.572-40.09 10.558-7.383 22.854-11.231 35.474-11.231 3.637 0 7.301.319 10.956.966 2.079.368 4.159.844 6.182 1.417 4.081 1.156 8.446-.37 10.919-3.815 9.187-12.799 25.145-19.297 40.645-16.554 5.91 1.045 11.297 3.317 15.96 6.497-66.366 22.516-114.29 85.335-114.491 159.167-12.656-8.683-19.854-24.005-17.457-40.266.397-2.683-.307-5.414-1.954-7.571zm41.852 135.891c-17.235 0-31.256-14.021-31.256-31.255 0-9.902 4.639-18.732 11.846-24.462 3.848 20.022 11.242 38.799 21.516 55.638-.697.046-1.398.079-2.106.079zm120.754 79.023c-4.257 3.929-8.134 8.264-11.566 12.945-.22-.024-.442-.039-.668-.039h-29.855c3.585-7.149 7.894-13.875 12.832-20.078 9.407 3.228 19.186 5.648 29.257 7.172zm95.731 1.9c2.707 0 5.397-.07 8.073-.197 7.041 4.78 13.248 10.695 18.372 17.473h-38.019c-.251-6.928-3.491-13.105-8.471-17.276zm77.556 41.199h-26.328c-1.654-6.339-3.988-12.404-6.92-18.116h28.299c2.125 5.834 3.789 11.887 4.949 18.116zm-101.186 29.679c0 6.386-5.195 11.581-11.581 11.581s-11.58-5.195-11.58-11.581 5.194-11.581 11.58-11.581c6.385 0 11.581 5.195 11.581 11.581zm-8.163-23.408c-1.116-.162-2.257-.25-3.418-.25s-2.301.088-3.418.25h-72.095c1.371-6.365 3.528-12.437 6.365-18.116h48.321c4.002 7.404 11.836 12.446 20.826 12.446 8.991 0 16.825-5.042 20.827-12.446h48.063c.085 0 .168-.009.252-.013 2.84 5.682 5 11.76 6.371 18.129zm-111.232-24.387h28.297c-2.932 5.712-5.266 11.777-6.92 18.116h-26.325c1.158-6.229 2.821-12.282 4.948-18.116zm107.814 6.639c-6.386 0-11.58-5.195-11.58-11.581s5.194-11.581 11.58-11.581 11.581 5.195 11.581 11.581-5.196 11.581-11.581 11.581zm-23.636-12.446h-38.019c5.124-6.778 11.331-12.693 18.372-17.473 2.676.127 5.366.197 8.073.197h20.046c-4.981 4.171-8.221 10.348-8.472 17.276zm-91.071 54.117v-9.151c0-3.017.121-6.006.351-8.965h25.641c-.402 3.431-.611 6.919-.611 10.456v7.66zm37.459-7.66c0-1.405.051-2.799.126-4.186h56.361c-1.845 3.367-2.896 7.228-2.896 11.331 0 2.358.351 4.634.997 6.785h-54.587v-13.93zm99.91 13.93c.645-2.151.997-4.427.997-6.785 0-4.103-1.051-7.964-2.896-11.331h56.361c.074 1.387.126 2.781.126 4.186v13.93zm66.664-6.27v-7.66c0-3.537-.209-7.025-.611-10.456h25.639c.23 2.959.353 5.947.353 8.965v9.151zm13.283-60.387h-29.789c-.247 0-.488.019-.727.048-3.433-4.685-7.312-9.023-11.572-12.954 10.071-1.523 19.851-3.944 29.259-7.173 4.938 6.203 9.245 12.93 12.829 20.079zm-67.398-31.135h-70.421c-81.817 0-148.381-66.563-148.381-148.381 0-81.817 66.563-148.381 148.381-148.381h70.421c81.817 0 148.381 66.563 148.381 148.381-.001 81.818-66.564 148.381-148.381 148.381zm146.064-60.794c-.71 0-1.413-.025-2.111-.072 10.275-16.839 17.669-35.615 21.519-55.638 7.206 5.73 11.847 14.553 11.847 24.454 0 17.235-14.021 31.256-31.255 31.256zm22.44-88.051c-.201-73.84-48.135-136.667-114.513-159.176 4.745-3.233 10.158-5.459 15.982-6.49 15.505-2.745 31.457 3.756 40.644 16.554 2.474 3.444 6.838 4.968 10.918 3.815 2.026-.573 4.106-1.05 6.185-1.418 16.339-2.892 32.829.754 46.428 10.265s22.681 23.748 25.572 40.09c3.016 17.05-1.287 34.734-11.805 48.52-1.646 2.157-2.351 4.888-1.955 7.573 2.397 16.261-4.8 31.583-17.456 40.267z"/><path d="m469.908 136.893c-3.335 0-6.039-2.704-6.039-6.039v-11.09c0-3.335 2.704-6.039 6.039-6.039s6.039 2.704 6.039 6.039v11.09c0 3.335-2.704 6.039-6.039 6.039z"/><path d="m444.071 110.049c-3.335 0-6.039-2.704-6.039-6.039v-11.09c0-3.335 2.704-6.039 6.039-6.039s6.039 2.704 6.039 6.039v11.09c0 3.335-2.704 6.039-6.039 6.039z"/><ellipse cx="161.471" cy="277.586" rx="17.688" ry="17.688" transform="matrix(.383 -.924 .924 .383 -156.778 320.538)"/><ellipse cx="350.529" cy="277.586" rx="17.688" ry="17.688" transform="matrix(.16 -.987 .987 .16 20.379 579.125)"/></g><path d="m162.201 111.058c-3.252 0-6.444-1.574-8.383-4.483-3.083-4.625-1.834-10.873 2.791-13.957 1.704-1.136 6.965-4.425 10.789-5.979 5.153-2.094 11.02.386 13.113 5.535 2.092 5.15-.386 11.02-5.535 13.113-1.561.634-5.153 2.714-7.201 4.079-1.715 1.144-3.655 1.692-5.574 1.692z" fill="#fff"/><path d="m114.442 155.83c-1.842 0-3.706-.506-5.377-1.565-4.695-2.976-6.09-9.194-3.114-13.889 9.146-14.433 19.752-24.682 27.039-30.738 4.274-3.553 10.62-2.967 14.173 1.308s2.967 10.62-1.307 14.173c-6.174 5.131-15.16 13.813-22.904 26.032-1.915 3.024-5.177 4.679-8.51 4.679z" fill="#fff"/></g></g></svg>