<svg id="Capa_1" enable-background="new 0 0 512 512" height="512" viewBox="0 0 512 512" width="512" xmlns="http://www.w3.org/2000/svg"><g><g><path d="m379.905 501.143v-33.589c0-68.617-55.625-124.242-124.242-124.242-68.617 0-124.242 55.625-124.242 124.242v33.589z" fill="#a1e8c3"/><path d="m264.365 386.929c23.988 10.789 40.862 36.396 40.862 66.278v7.19c0 11.192-9.073 20.265-20.265 20.265h-112.234v20.481h165.868v-31.736c0-42.864-32.519-78.127-74.231-82.478z" fill="#85adc2"/><ellipse cx="436.167" cy="293.875" fill="#f3d4d2" rx="41.144" ry="41.145" transform="matrix(.924 -.383 .383 .924 -79.26 189.284)"/><ellipse cx="75.157" cy="293.875" fill="#f3d4d2" rx="41.144" ry="41.145" transform="matrix(.924 -.383 .383 .924 -106.74 51.131)"/><path d="m423.474 460.503c-7.973 4.559-16.437 8.833-32.312 8.833-34.008 0-34.008-19.618-68.017-19.618-34.007 0-34.007 19.618-68.014 19.618-34.006 0-34.006-19.618-68.012-19.618-34.004 0-34.004 19.618-68.009 19.618-16.139 0-24.619-4.419-32.71-9.062-8.956-5.14 39.867-68.349 39.867-68.349-52.456-25.182-72.446-80.03-75.411-150.435 0-97.349 75.023-176.266 167.569-176.266h74.475c92.546 0 167.569 78.917 167.569 176.266-1.977 70.655-26.091 122.253-76.303 151.386 0 0 48.414 62.42 39.308 67.627z" fill="#c49a8b"/><path d="m211.209 313.303c-5.185 27.654-36.063 56.747-63.717 51.562s-41.611-42.685-36.425-70.339c5.185-27.653 31.806-45.868 59.459-40.683 27.654 5.186 45.868 31.807 40.683 59.46z" fill="#f3d4d2"/><path d="m299.928 313.303c5.185 27.654 36.063 56.747 63.717 51.562s41.611-42.685 36.426-70.339c-5.185-27.653-31.806-45.868-59.459-40.683-27.655 5.186-45.869 31.807-40.684 59.46z" fill="#f3d4d2"/><path d="m460.469 241.49c0-97.349-75.023-176.266-167.569-176.266h-34.238c79.455 0 143.865 69.849 143.865 156.013-1.461 53.831-17.004 112.597-48.798 144.362-7.726 7.719-7.449 20.287.748 27.503 10.283 9.051 20.52 19.49 16.288 21.984-6.845 4.035-14.112 7.818-27.741 7.818-29.198 0-29.198-17.364-58.396-17.364-29.197 0-29.197 17.364-58.393 17.364s-29.196-17.364-58.391-17.364c-29.194 0-29.194 17.364-58.389 17.364-1.951 0-3.759-.085-5.466-.23-11.48 16.89-22.202 34.951-17.588 37.599 8.091 4.643 16.57 9.063 32.71 9.063 34.004 0 34.004-19.618 68.009-19.618 34.006 0 34.006 19.618 68.012 19.618 34.007 0 34.007-19.618 68.014-19.618 34.009 0 34.009 19.618 68.017 19.618 15.875 0 24.34-4.275 32.312-8.833 9.107-5.207-39.308-67.627-39.308-67.627 50.211-29.133 74.326-80.731 76.302-151.386z" fill="#b2748a"/><path d="m400.07 294.526c-.944-5.037-2.608-9.757-4.852-14.083-7.599 33.68-21.154 64.676-41.229 84.884 3.232.259 6.465.136 9.655-.462 27.654-5.185 41.611-42.685 36.426-70.339z" fill="#da9fd0"/><g fill="#f6e06e"><path d="m188.859 119.985c-7.918-5.729-18.981-3.955-24.71 3.963l-11.541 15.95c-.616-2.93-1.969-5.745-4.108-8.138-6.513-7.286-17.7-7.913-24.986-1.4l-111.597 99.753c-7.286 6.513-7.913 17.7-1.4 24.986 6.513 7.287 17.7 7.914 24.986 1.4l92.676-82.84-51.775 71.553c-5.729 7.918-3.955 18.98 3.963 24.709s18.981 3.955 24.71-3.963l87.745-121.264c5.729-7.917 3.955-18.979-3.963-24.709z"/><path d="m259.874 109.956c-8.977-3.863-19.386.282-23.25 9.258l-59.174 137.488c-3.864 8.977.281 19.386 9.258 23.25 8.977 3.863 19.386-.282 23.25-9.259l59.174-137.488c3.864-8.976-.281-19.385-9.258-23.249z"/><path d="m500.083 230.113-111.597-99.753c-7.286-6.513-18.473-5.886-24.986 1.4-2.139 2.393-3.492 5.208-4.108 8.138l-11.542-15.95c-5.729-7.918-16.792-9.692-24.709-3.963-7.918 5.729-9.692 16.792-3.963 24.71l87.745 121.264c5.729 7.918 16.792 9.692 24.71 3.963s9.692-16.792 3.963-24.709l-51.775-71.553 92.676 82.84c7.286 6.513 18.473 5.886 24.986-1.4 6.513-7.288 5.887-18.475-1.4-24.987z"/></g><path d="m458.559 120.078h-40.992v-75.199c0-18.79-15.233-34.023-34.023-34.023h-252.51c-18.791 0-34.023 15.233-34.023 34.023v75.199h-44.246c-17.142 0-31.039 13.896-31.039 31.039v.804c0 17.142 13.896 31.039 31.039 31.039h405.794c17.142 0 31.039-13.896 31.039-31.039v-.804c0-17.142-13.896-31.039-31.039-31.039z" fill="#f4dab5"/><path d="m96.336 68.386h319.755v52.248h-319.755z" fill="#a1e8c3"/><path d="m417.568 120.625v-75.746c0-18.79-15.233-34.023-34.023-34.023h-51.31c13.615 0 24.652 11.037 24.652 24.653v29.946c0 14.827-12.019 26.846-26.846 26.846h-233.03v28.324z" fill="#dba2b3"/><path d="m356.532 69.796c-2.076 12.762-13.144 22.505-26.492 22.505h-233.029v28.323h320.557v-50.828z" fill="#85adc2"/><path d="m36.385 373.32 6.107 17.171c.261.735.779 1.318 1.432 1.612l15.256 6.873c2.155.971 2.155 4.405 0 5.376l-15.256 6.873c-.653.294-1.171.877-1.432 1.612l-6.107 17.171c-.863 2.426-3.914 2.426-4.776 0l-6.107-17.171c-.262-.735-.779-1.318-1.432-1.612l-15.256-6.873c-2.155-.971-2.155-4.405 0-5.376l15.256-6.873c.653-.294 1.171-.877 1.432-1.612l6.107-17.171c.862-2.426 3.913-2.426 4.776 0z" fill="#ccf3e2"/><circle cx="482.83" cy="437.942" fill="#a1e8c3" r="17.976"/><ellipse cx="461.591" cy="387.708" fill="#a1e8c3" rx="7.754" ry="7.754" transform="matrix(.924 -.383 .383 .924 -113.233 206.156)"/></g><g><path d="m291.415 348.65-14.297 14.296-15.54-14.448c-2.238-2.08-5.68-2.153-8.002-.166l-17.479 14.942-16.383-14.983c-2.45-2.241-6.255-2.072-8.495.38-2.241 2.451-2.071 6.254.38 8.495l20.307 18.571c2.241 2.05 5.658 2.105 7.965.133l17.445-14.912 15.86 14.746c1.157 1.075 2.626 1.609 4.094 1.609 1.541 0 3.081-.589 4.252-1.762l18.396-18.396c2.349-2.348 2.349-6.155 0-8.503-2.347-2.351-6.156-2.351-8.503-.002z" fill="#3c122c"/><path d="m384.425 253.6c-13.44-9.196-29.655-12.604-45.661-9.607-16.005 3.002-29.884 12.055-39.08 25.496-9.196 13.439-12.607 29.655-9.607 45.661 2.941 15.682 12.952 32.084 26.781 43.875 12.54 10.692 26.835 16.453 40.316 16.453 2.815 0 5.597-.252 8.317-.762 16.005-3.002 29.415-14.49 37.761-32.353 7.142-15.287 9.635-33.861 6.669-49.683-3.002-16.006-12.056-29.884-25.496-39.08zm.668 80.279c-3.207 6.863-10.497 18.737-23.295 21.136-1.59.298-3.198.441-4.823.441-20.665-.003-43.287-23.151-47.196-44-2.015-10.743.275-21.628 6.448-30.649 6.172-9.021 15.489-15.099 26.232-17.113 2.544-.478 5.095-.712 7.628-.712 8.164 0 16.136 2.449 23.021 7.16 9.021 6.172 15.099 15.489 17.113 26.232 2.223 11.854.305 25.875-5.128 37.505z" fill="#3c122c"/><path d="m511.962 241.98c-.354-6.323-3.15-12.131-7.872-16.351l-37.427-33.454c18.772-3.774 32.956-20.387 32.956-40.253v-.805c0-22.641-18.42-41.06-41.061-41.06h-30.97v-65.177c0-24.286-19.759-44.045-44.045-44.045h-252.509c-24.286 0-44.045 19.759-44.045 44.045v65.177h-34.224c-22.64 0-41.06 18.419-41.06 41.06v.805c0 20.063 14.469 36.801 33.518 40.354l-37.314 33.353c-4.721 4.221-7.516 10.028-7.871 16.35-.355 6.323 1.774 12.406 5.994 17.128 4.677 5.231 11.17 7.897 17.69 7.897 3.109 0 6.217-.629 9.145-1.853-5.588 8.195-8.876 18.077-8.876 28.724 0 24.333 17.079 44.739 39.875 49.896 11.478 22.274 27.223 39.357 47.378 51.442-4.018 5.425-9.273 12.669-14.507 20.31-21.568 31.485-22.291 39.569-21.182 45.151.713 3.588 2.792 6.533 5.856 8.291 9.541 5.477 19.603 10.393 37.698 10.393.786 0 1.533-.025 2.289-.043v21.829c0 5.534 4.487 10.022 10.022 10.022 5.534 0 10.022-4.487 10.022-10.022v-25.026c6.712-2.177 11.874-5.137 16.68-7.91 2.923-1.686 5.699-3.285 8.765-4.632-.112 1.808-.172 3.629-.172 5.464v35.906c0 3.321 2.692 6.013 6.013 6.013s6.013-2.692 6.013-6.013v-35.906c0-2.991.199-5.935.539-8.837 2.355-.295 4.936-.463 7.838-.463 14.319 0 21.121 3.924 28.998 8.468 9.06 5.226 19.327 11.15 39.014 11.15 19.686 0 29.955-5.924 39.014-11.15 7.876-4.543 14.679-8.468 29-8.468 3.364 0 6.301.223 8.946.614.322 2.852.492 5.749.492 8.686v35.906c0 3.321 2.692 6.013 6.013 6.013s6.013-2.692 6.013-6.013v-35.906c0-1.667-.05-3.323-.142-4.967 2.643 1.237 5.105 2.651 7.678 4.135 5.058 2.917 10.497 6.051 17.738 8.251v24.685c0 5.534 4.487 10.022 10.022 10.022 5.534 0 10.022-4.487 10.022-10.022v-21.809c.415.005.811.023 1.235.023 18.019 0 28.301-5.017 37.287-10.156 3.095-1.77 5.195-4.738 5.913-8.358 1.114-5.614.416-13.698-20.92-44.801-5.327-7.765-10.676-15.104-14.69-20.499 19.637-13.327 35.274-30.502 46.891-51.403 23.699-4.457 41.691-25.291 41.691-50.266 0-10.814-3.379-20.849-9.127-29.119 3.19 1.497 6.633 2.249 10.072 2.249 6.519 0 13.013-2.666 17.689-7.897 4.22-4.723 6.349-10.806 5.995-17.128zm-380.928-221.102h252.511c13.235 0 24.001 10.767 24.001 24.001v18.538h-300.514v-18.537c0-13.235 10.767-24.002 24.002-24.002zm-24.002 54.566h300.513v34.612h-300.513zm-75.283 76.478v-.805c0-11.589 9.428-21.016 21.016-21.016h405.794c11.589 0 21.017 9.428 21.017 21.016v.805c0 11.589-9.429 21.016-21.017 21.016h-405.794c-11.589 0-21.016-9.427-21.016-21.016zm358.631 41.06 40.344 55.756c3.777 5.218 2.603 12.537-2.616 16.313-2.528 1.83-5.613 2.566-8.699 2.071-3.081-.494-5.785-2.159-7.614-4.687l-50.255-69.453zm-189.022 118.474c-4.216 22.486-30.193 47.658-52.019 43.559-12.797-2.399-20.088-14.272-23.295-21.136-5.434-11.63-7.351-25.65-5.127-37.505 3.683-19.641 20.907-33.385 40.204-33.385 2.492 0 5.022.23 7.558.706.442.083.876.186 1.312.283.035 2.872.592 5.743 1.686 8.492 2.343 5.884 6.836 10.502 12.653 13.006 3.01 1.296 6.187 1.945 9.369 1.945 1.554 0 3.108-.164 4.645-.475 3.399 7.413 4.628 15.902 3.014 24.51zm3.077-43.14c-1.233 2.867-3.509 5.08-6.408 6.235-2.9 1.154-6.076 1.112-8.941-.123v.001c-2.867-1.234-5.08-3.511-6.235-6.409-1.155-2.899-1.111-6.074.122-8.94l28.449-66.098h25.437zm-123.16-19.578 40.344-55.756h28.84l-50.255 69.453c-3.776 5.218-11.094 6.392-16.314 2.616h.001c-5.218-3.776-6.391-11.095-2.616-16.313zm-66.275 2.353c-2.08-2.326-3.129-5.323-2.955-8.439.175-3.116 1.552-5.977 3.88-8.057l46.556-41.614h35.06l-66.043 59.035c-4.805 4.293-12.206 3.878-16.498-.925zm29.034 42.784c0-3.024.436-5.946 1.245-8.712 1.808 10.564 4.13 20.47 6.972 29.725-5.09-5.542-8.217-12.913-8.217-21.013zm335.102 90.333c-2.501 1.451-4.252 3.911-4.806 6.749-.554 2.837.145 5.776 1.916 8.061 15.527 20.021 32.481 44.873 37.145 55.533-5.772 2.832-12.099 4.763-22.23 4.763-14.321 0-21.124-3.925-29.001-8.469-9.06-5.226-19.329-11.149-39.016-11.149s-29.956 5.924-39.015 11.15c-7.876 4.543-14.678 8.468-28.999 8.468-14.32 0-21.122-3.925-28.998-8.468-9.06-5.227-19.327-11.15-39.014-11.15s-29.954 5.924-39.012 11.15c-7.877 4.543-14.677 8.468-28.997 8.468-10.282 0-16.562-1.937-22.555-4.926 4.753-10.773 21.927-35.986 37.644-56.338 1.849-2.394 2.518-5.494 1.82-8.437-.698-2.944-2.688-5.414-5.414-6.723-44.244-21.239-66.398-66.065-69.698-141.033l29.732-26.576-19.108 26.407c-7.662 10.591-5.281 25.442 5.309 33.106 4.193 3.033 9.05 4.492 13.867 4.492 7.353 0 14.61-3.403 19.24-9.802l55.357-76.503h33.025l-22.305 51.823c-1.2-.306-2.416-.58-3.651-.812-33.038-6.192-64.962 15.645-71.158 48.687-2.966 15.822-.474 34.396 6.669 49.683 8.345 17.862 21.755 29.351 37.761 32.353 2.721.51 5.501.762 8.317.762 13.48 0 27.777-5.762 40.316-16.453 13.829-11.79 23.84-28.192 26.781-43.875 2.688-14.337.073-28.448-6.423-40.352.298-.565.59-1.134.845-1.727l34.47-80.089h96.743l55.357 76.503c3.713 5.13 9.201 8.508 15.454 9.511 1.27.204 2.542.304 3.804.304 4.949 0 9.76-1.548 13.848-4.506 10.591-7.664 12.973-22.516 5.309-33.107l-19.109-26.408 29.088 26c0 .024.001.048.001.072-1.97 69.434-25.297 116.162-71.309 142.858zm78.982-68.306c3.298-9.627 5.953-19.842 7.945-30.651.792 2.74 1.227 5.631 1.227 8.623 0 8.602-3.512 16.392-9.172 22.028zm38.882-64.811c-4.292 4.801-11.691 5.219-16.495.925l-66.044-59.035h35.06l46.556 41.614c2.326 2.08 3.704 4.94 3.879 8.057.173 3.116-.876 6.113-2.956 8.439z" fill="#3c122c"/><path d="m125.814 162.585c8.969.06 17.784.089 26.568.089 8.785 0 17.54-.029 26.388-.089 5.535-.037 9.991-4.555 9.954-10.089-.037-5.512-4.517-9.954-10.021-9.954-.023 0-.046 0-.068 0-17.607.119-34.841.119-52.689 0-.023 0-.045 0-.067 0-5.504 0-9.984 4.443-10.021 9.955-.035 5.534 4.422 10.05 9.956 10.088z" fill="#fff"/><path d="m70.253 162.585h15.906c5.535 0 10.022-4.487 10.022-10.022s-4.487-10.022-10.022-10.022h-15.906c-5.535 0-10.022 4.487-10.022 10.022s4.488 10.022 10.022 10.022z" fill="#fff"/><g fill="#3c122c"><path d="m351.069 407.166c-3.321 0-6.013 2.692-6.013 6.013v11.356c0 3.321 2.692 6.013 6.013 6.013s6.013-2.692 6.013-6.013v-11.356c0-3.321-2.693-6.013-6.013-6.013z"/><path d="m319.912 395.08c-3.321 0-6.013 2.692-6.013 6.013v11.355c0 3.321 2.692 6.013 6.013 6.013s6.013-2.692 6.013-6.013v-11.355c0-3.321-2.692-6.013-6.013-6.013z"/><path d="m271.298 406.36c-3.321 0-6.013 2.692-6.013 6.013v11.355c0 3.321 2.692 6.013 6.013 6.013s6.013-2.692 6.013-6.013v-11.355c0-3.32-2.693-6.013-6.013-6.013z"/><path d="m284.252 244.101c3.321 0 6.013-2.692 6.013-6.013v-11.355c0-3.321-2.692-6.013-6.013-6.013s-6.013 2.692-6.013 6.013v11.355c0 3.32 2.693 6.013 6.013 6.013z"/><path d="m316.091 226.396c3.321 0 6.013-2.692 6.013-6.013v-11.355c0-3.321-2.692-6.013-6.013-6.013s-6.013 2.692-6.013 6.013v11.355c0 3.321 2.692 6.013 6.013 6.013z"/><ellipse cx="161.534" cy="302.927" rx="17.613" ry="17.613" transform="matrix(.16 -.987 .987 .16 -163.357 413.852)"/><ellipse cx="349.79" cy="302.927" rx="17.613" ry="17.613" transform="matrix(.099 -.995 .995 .099 13.87 621.166)"/></g></g></g></svg>