<svg id="Capa_1" enable-background="new 0 0 512 512" height="512" viewBox="0 0 512 512" width="512" xmlns="http://www.w3.org/2000/svg"><g><g><path d="m184.793 422.174c-.719-1.649-3.629-3.467-8.182-5.073-9.839-14.913-29.169-34.723-55.887-45.635-42.188-17.23-85.599-8.644-89.758 1.541-3.685 9.022 15.516 38.7 49.271 57.337-32.561 19.439-50.565 48.958-46.716 57.785 4.397 10.085 47.997 17.651 89.77-.562 27.265-11.887 46.47-33.043 55.653-48.309 2.629-1.301 4.3-2.638 4.798-3.858.421-1.03.286-2.723-.343-4.888 1.555-3.876 2.051-6.831 1.394-8.338z" fill="#c1e5ef"/><path d="m429.622 430.345c33.755-18.638 52.956-48.315 49.271-57.337-4.16-10.185-47.57-18.771-89.758-1.541-26.719 10.912-46.049 30.721-55.888 45.635-4.553 1.606-7.463 3.424-8.182 5.073-.657 1.507-.16 4.462 1.394 8.339-.629 2.165-.764 3.858-.343 4.888.498 1.219 2.17 2.557 4.799 3.858 9.183 15.266 28.389 36.422 55.653 48.309 41.773 18.213 85.373 10.647 89.77.562 3.848-8.827-14.155-38.346-46.716-57.786z" fill="#c1e5ef"/><path d="m447.964 253.441c.572-5.479.871-11.04.871-16.67 0-87.62-71.03-158.65-158.65-158.65h-70.512c-87.62 0-158.65 71.03-158.65 158.65 0 5.631.298 11.191.87 16.67-17.239 4.993-29.847 20.886-29.847 39.734 0 22.849 18.523 41.373 41.373 41.373 6.511 0 12.668-1.509 18.148-4.188 17.663 24.136 41.986 43.082 70.257 54.163-19.79 22.104-31.829 51.293-31.829 83.297v33.775h249.866v-33.775c0-32.004-12.04-61.192-31.829-83.297 28.27-11.08 52.594-30.026 70.257-54.163 5.48 2.679 11.637 4.188 18.148 4.188 22.85 0 41.373-18.524 41.373-41.373.001-18.849-12.607-34.741-29.846-39.734z" fill="#efc5b4"/><path d="m179.15 436.035v-1.165c-4.877 10.598-7.616 22.382-7.616 34.812v31.912h166.79v-31.912c0-11.977-2.544-23.353-7.09-33.647l-27.486 12.301-24.602-12.301-24.602 11.904-25.396-11.904-25.395 11.11z" fill="#d789b9"/><path d="m290.185 78.811h-20.345c71.035 0 128.619 57.584 128.619 128.619v10.923c0 71.035-57.585 128.619-128.619 128.619h-80.197c-67.978 0-123.631-52.738-128.296-119.529-.207 3.313-.324 6.652-.324 10.018v.001c0 87.62 71.03 158.65 158.65 158.65h58.576c16.107 13.166 26.52 34.064 26.52 57.603v7.23c0 11.254-9.123 20.377-20.378 20.377h-112.857v20.595h166.79v-31.912c0-32.133-18.18-60.01-44.81-73.934 86.082-1.773 155.321-72.101 155.321-158.608v-.001c0-87.622-71.03-158.651-158.65-158.651z" fill="#d994b3"/><path d="m330.131 434.038c-8.187 6.776-16.202 13.808-25.373 18.974.002.234.011.466.011.701v7.23c0 11.254-9.124 20.377-20.378 20.377h-112.857v20.595h166.79v-31.912c0-12.882-2.928-25.076-8.144-35.965z" fill="#c668b9"/><g fill="#e8c2d8"><path d="m434.984 300.196c18.945-11.728 35.184-29.771 37.25-60.65v-18.615c0-103.089-83.57-186.66-186.66-186.66h-61.29c-103.089 0-186.659 83.57-186.659 186.66v18.615c1.316 32.683 20.862 50.125 34.695 61.552l37.862-120.46 44.888 31.48 48.943-37.126 50.916 37.431 52.877-40.529 54.215 40.807 36.727-33.812z"/><path d="m39.566 3.445 8.278 23.277c.354.997 1.056 1.786 1.941 2.185l20.68 9.317c2.922 1.316 2.922 5.971 0 7.288l-20.68 9.317c-.885.399-1.587 1.189-1.941 2.185l-8.278 23.277c-1.169 3.288-5.305 3.288-6.475 0l-8.278-23.277c-.354-.997-1.056-1.786-1.942-2.185l-20.68-9.317c-2.922-1.316-2.922-5.971 0-7.288l20.68-9.317c.885-.399 1.587-1.189 1.942-2.185l8.278-23.277c1.17-3.288 5.306-3.288 6.475 0z"/><path d="m487.453 45.964 6.141 17.266c.263.739.783 1.325 1.44 1.621l15.34 6.911c2.167.977 2.167 4.43 0 5.406l-15.34 6.911c-.657.296-1.177.882-1.44 1.621l-6.141 17.266c-.867 2.439-3.935 2.439-4.803 0l-6.141-17.266c-.263-.739-.783-1.325-1.44-1.621l-15.34-6.911c-2.167-.977-2.167-4.43 0-5.406l15.34-6.911c.657-.296 1.177-.882 1.44-1.621l6.141-17.266c.868-2.439 3.936-2.439 4.803 0z"/></g><path d="m111.374 8.125c0 4.306-3.491 7.797-7.797 7.797-4.307 0-7.797-3.491-7.797-7.797s3.491-7.797 7.797-7.797c4.306 0 7.797 3.491 7.797 7.797z" fill="#d789b9"/></g><g><g fill="#3c122c"><path d="m451.059 430.715c10.534-7.711 18.078-15.38 22.624-20.568 8.453-9.649 21.796-27.887 16.187-41.621-5.608-13.736-27.905-17.419-40.696-18.392-7.828-.595-20.677-.768-36.027 2.046 2.951-3.142 5.78-6.399 8.487-9.761 4.692 1.418 9.655 2.206 14.805 2.206 28.37 0 51.45-23.081 51.45-51.451 0-10.535-3.195-20.332-8.651-28.496 2.63-7.563 4.246-15.68 4.826-24.342.018-.263.027-.527.027-.791v-18.615c0-109.462-89.054-198.516-198.516-198.516h-61.29c-109.463 0-198.517 89.054-198.517 198.516v18.615c0 .159.003.318.01.477.376 9.325 2.094 17.6 4.643 24.951-5.337 8.103-8.451 17.793-8.451 28.201 0 28.37 23.081 51.451 51.45 51.451 5.149 0 10.12-.769 14.813-2.184 2.702 3.354 5.53 6.602 8.475 9.738-15.349-2.813-28.196-2.641-36.024-2.045-12.791.973-35.087 4.656-40.695 18.391-5.611 13.736 7.733 31.973 16.186 41.622 4.546 5.189 12.092 12.86 22.628 20.572-9.723 7.633-16.694 15.074-20.944 20.161-8.225 9.844-21.137 28.389-15.208 41.989 5.93 13.601 28.306 16.76 41.116 17.432 1.916.1 4.13.169 6.607.169 11.879 0 29.778-1.589 49.547-8.8.041 5.53 4.534 10.002 10.074 10.002 5.565 0 10.077-4.512 10.077-10.078v-33.775c0-26.966 9.35-51.784 24.967-71.403 9.419 3.232 19.211 5.652 29.294 7.177-17.724 16.353-28.847 39.759-28.847 65.719v36.106c0 3.339 2.707 6.047 6.047 6.047 3.339 0 6.046-2.707 6.046-6.047v-36.106c0-9.423 1.705-18.453 4.805-26.811l19.469 11.087c1.854 1.056 4.129 1.056 5.984 0l21.785-12.404 21.785 12.404c.927.528 1.959.792 2.992.792 1.032 0 2.065-.264 2.992-.792l21.785-12.405 21.79 12.405c1.854 1.056 4.129 1.055 5.983 0l20.346-11.584c3.217 8.495 4.984 17.698 4.984 27.307v36.106c0 3.339 2.707 6.047 6.047 6.047 3.339 0 6.047-2.707 6.047-6.047v-36.106c0-25.961-11.123-49.367-28.848-65.721 10.084-1.525 19.879-3.94 29.299-7.173 15.615 19.618 24.962 44.436 24.962 71.401v33.775c0 5.566 4.512 10.078 10.078 10.078 5.541 0 10.034-4.473 10.074-10.005 19.771 7.213 37.669 8.803 49.548 8.803 2.475 0 4.692-.069 6.607-.169 12.81-.673 35.186-3.832 41.116-17.432 5.929-13.6-6.982-32.145-15.208-41.989-4.253-5.087-11.218-12.53-20.942-20.164zm-231.385-45.372c-59.403 0-110.762-35.047-134.517-85.546l31.48-100.151 31.626 22.179c4.222 2.959 9.868 2.853 13.974-.261l41.889-31.775 43.782 32.186c4.25 3.124 10.051 3.066 14.235-.143l45.73-35.05 47.02 35.392c4.572 3.442 10.951 3.127 15.16-.75l22.767-20.96 30.508 102.133c-24.316 48.983-74.848 82.746-133.142 82.746zm248.06-92.168c0 17.257-14.039 31.296-31.295 31.296-.715 0-1.424-.031-2.127-.079 2.927-4.797 5.619-9.752 8.065-14.847 10.047-6.386 18.313-13.835 24.768-22.314.372 1.927.589 3.909.589 5.944zm-418.253-72.244c0-96.387 78.416-174.803 174.803-174.803h61.29c96.387 0 174.802 78.416 174.802 174.803v18.206c-1.214 17.01-7.304 30.447-18.907 41.343l-31.36-104.984c-1.17-3.917-4.276-6.955-8.218-8.039-1.037-.285-2.093-.424-3.141-.424-2.939 0-5.815 1.093-8.031 3.134l-29.459 27.121-46.322-34.867c-4.252-3.2-10.118-3.175-14.343.063l-45.813 35.114-43.745-32.159c-4.23-3.11-10.004-3.069-14.188.107l-42.052 31.899-37.805-26.513c-3.095-2.17-7.038-2.734-10.621-1.52-3.579 1.215-6.365 4.065-7.498 7.672l-32.253 102.608c-9.049-9.852-16.356-22.388-17.139-40.395zm23.939 103.539c-17.257 0-31.295-14.039-31.295-31.296 0-1.809.171-3.577.468-5.302 7.729 10.425 16.424 17.615 22.176 22.366 1.232 1.018 2.638 1.749 4.124 2.198 2.057 4.083 4.274 8.073 6.645 11.959-.7.049-1.406.075-2.118.075zm-28.06 158.498c2.542-7.714 14.746-25.051 35.466-38.956 2.782 1.36 5.66 2.675 8.675 3.906 10.757 4.394 21.301 6.938 30.912 8.342-.325 3.81-.495 7.665-.495 11.559v8.242c-.459.21-.901.435-1.367.638-32.257 14.065-63.786 10.586-73.191 6.269zm79.147-50.092c-8.398-1.168-17.234-3.314-26.04-6.91-32.577-13.304-52.076-38.324-55.543-48.075 9.302-4.535 40.74-8.752 73.318 4.552 9.144 3.734 17.22 8.607 24.213 13.875-7.019 11.196-12.443 23.488-15.948 36.558zm197.611-1.84-18.161 10.34-21.79-12.405c-1.856-1.056-4.129-1.056-5.983 0l-21.785 12.405-21.785-12.405c-1.854-1.056-4.129-1.056-5.984 0l-21.785 12.405-17.357-9.884c5.904-10.484 14.18-19.457 24.097-26.193 2.681.127 5.376.199 8.088.199h70.511c2.712 0 5.407-.072 8.088-.199 9.775 6.639 17.96 15.447 23.846 25.737zm47.271-34.727c6.995-5.268 15.086-10.133 24.228-13.866 32.578-13.304 64.018-9.087 73.319-4.552-3.467 9.751-22.967 34.77-55.543 48.075-8.808 3.597-17.647 5.743-26.046 6.911-3.508-13.074-8.935-25.369-15.958-36.568zm21.917 80.39c-.461-.201-.912-.412-1.367-.619v-8.261c0-3.893-.171-7.747-.496-11.557 9.612-1.404 20.158-3.951 30.914-8.344 3.016-1.232 5.894-2.547 8.677-3.907 20.719 13.905 32.923 31.243 35.464 38.956-9.405 4.318-40.934 7.797-73.192-6.268z"/><circle cx="160.278" cy="302.277" r="17.711"/><path d="m349.58 284.566c-9.781 0-17.711 7.929-17.711 17.711 0 9.781 7.93 17.711 17.711 17.711s17.711-7.93 17.711-17.711c.001-9.782-7.929-17.711-17.711-17.711z"/><path d="m177.375 244.471c-.79-.403-7.982-3.94-17.097-3.94s-16.307 3.537-17.097 3.941c-2.964 1.513-4.135 5.131-2.635 8.102 1.501 2.972 5.136 4.165 8.109 2.681.053-.027 5.348-2.631 11.624-2.631s11.571 2.605 11.6 2.618c.88.449 1.819.662 2.744.662 2.199-.001 4.321-1.205 5.39-3.299 1.517-2.974.336-6.616-2.638-8.134z"/><path d="m366.678 244.471c-.79-.404-7.982-3.941-17.097-3.941-9.116 0-16.308 3.537-17.098 3.941-2.964 1.513-4.135 5.131-2.635 8.102 1.501 2.972 5.135 4.165 8.109 2.681.053-.027 5.348-2.631 11.625-2.631 6.276 0 11.57 2.604 11.598 2.618.881.45 1.82.663 2.745.663 2.2 0 4.321-1.205 5.39-3.299 1.517-2.973.337-6.616-2.637-8.134z"/><path d="m272.64 296.231c-3.339 0-6.047 2.707-6.047 6.047 0 6.432-5.233 11.664-11.664 11.664-6.432 0-11.665-5.233-11.665-11.664 0-3.339-2.707-6.047-6.047-6.047-3.339 0-6.046 2.707-6.046 6.047 0 13.1 10.658 23.757 23.758 23.757s23.757-10.658 23.757-23.757c0-3.34-2.707-6.047-6.046-6.047z"/><path d="m276.182 453.724c-3.339 0-6.047 2.707-6.047 6.046v11.418c0 3.339 2.707 6.047 6.047 6.047 3.339 0 6.047-2.707 6.047-6.047v-11.418c0-3.339-2.707-6.046-6.047-6.046z"/><path d="m305.542 469.442c-3.339 0-6.047 2.707-6.047 6.047v11.418c0 3.339 2.707 6.047 6.047 6.047 3.339 0 6.046-2.707 6.046-6.047v-11.418c.001-3.34-2.707-6.047-6.046-6.047z"/></g><path d="m151.792 105.384c-3.256 0-6.451-1.575-8.393-4.487-3.088-4.63-1.838-10.887 2.792-13.976 1.706-1.137 6.973-4.431 10.808-5.988 5.159-2.095 11.035.388 13.128 5.545 2.094 5.157-.388 11.035-5.545 13.129-1.564.635-5.16 2.717-7.208 4.083-1.717 1.145-3.66 1.694-5.582 1.694z" fill="#fff"/><path d="m103.972 150.214c-1.844 0-3.711-.506-5.384-1.567-4.701-2.98-6.098-9.206-3.118-13.907 9.158-14.453 19.779-24.715 27.074-30.778 4.282-3.558 10.633-2.972 14.192 1.31 3.557 4.28 2.97 10.634-1.31 14.191-6.182 5.137-15.178 13.829-22.933 26.066-1.918 3.028-5.184 4.685-8.521 4.685z" fill="#fff"/></g></g></svg>