<svg id="Capa_1" enable-background="new 0 0 512 512" height="512" viewBox="0 0 512 512" width="512" xmlns="http://www.w3.org/2000/svg"><g><g><path d="m391.946 501.44v-35.391c0-72.299-58.61-130.91-130.91-130.91-72.3 0-130.91 58.61-130.91 130.91v35.391z" fill="#a1e8c3"/><path d="m270.206 380.862c25.275 11.368 43.055 38.349 43.055 69.835v7.576c0 11.793-9.56 21.353-21.353 21.353h-118.256v21.58h174.769v-33.439c0-45.165-34.264-82.321-78.215-86.905z" fill="#85adc2"/><path d="m203.922 414.19 23.978 30.249 33.136-41.803 31.804 40.122 25.976-32.77v-29.828h-115.56s.666 33.61.666 34.03z" fill="#ccf3e2"/><path d="m463.307 241.414c.599-5.741.912-11.567.912-17.468 0-91.812-74.428-166.24-166.24-166.24h-73.885c-91.812 0-166.24 74.428-166.24 166.24 0 5.901.313 11.727.912 17.468-18.063 5.231-31.274 21.885-31.274 41.635 0 23.943 19.41 43.352 43.352 43.352 6.823 0 13.274-1.581 19.017-4.389 30.243 41.327 79.099 68.173 134.233 68.173h73.885c55.134 0 103.99-26.847 134.233-68.173 5.742 2.808 12.194 4.389 19.017 4.389 23.943 0 43.352-19.409 43.352-43.352 0-19.75-13.211-36.404-31.274-41.635z" fill="#f3d4d2"/><path d="m297.979 57.859h-21.318c74.433 0 134.773 60.34 134.773 134.772v11.445c0 74.433-60.34 134.773-134.773 134.773h-84.034c-71.23 0-129.546-55.261-134.433-125.248-.216 3.472-.34 6.97-.34 10.497 0 91.812 74.428 166.24 166.24 166.24h73.885c91.812 0 166.24-74.428 166.24-166.24 0-91.811-74.429-166.239-166.24-166.239z" fill="#da9fd0"/><path d="m360.216 221.841c-20.334 0-38.508 9.244-50.555 23.755-.692-.46-1.427-.888-2.229-1.257-31.63-14.553-62.959-14.502-93.115.153-.681.331-1.306.708-1.903 1.105-12.048-14.512-30.221-23.756-50.557-23.756-36.275 0-65.681 29.407-65.681 65.682s29.407 65.682 65.681 65.682c36.275 0 65.682-29.407 65.682-65.682 0-6.535-.968-12.841-2.745-18.798 1.911-.247 3.8-.779 5.568-1.639 20.353-9.889 39.95-9.84 61.672.153 1.678.773 3.454 1.247 5.246 1.479-1.778 5.959-2.746 12.268-2.746 18.805 0 36.275 29.407 65.682 65.682 65.682s65.682-29.407 65.682-65.682c-.001-36.275-29.407-65.682-65.682-65.682zm-198.359 107.62c-23.162 0-41.938-18.776-41.938-41.938s18.777-41.938 41.938-41.938c23.162 0 41.939 18.776 41.939 41.938-.001 23.162-18.777 41.938-41.939 41.938zm198.359 0c-23.162 0-41.938-18.776-41.938-41.938s18.776-41.938 41.938-41.938 41.938 18.776 41.938 41.938-18.776 41.938-41.938 41.938z" fill="#9781dd"/><path d="m161.857 221.841c-2.225 0-4.424.113-6.592.33 26.626 2.924 47.344 25.482 47.344 52.887 0 29.391-23.826 53.217-53.217 53.217-27.405 0-49.963-20.717-52.887-47.343-.216 2.168-.33 4.366-.33 6.591 0 36.275 29.407 65.681 65.682 65.681s65.682-29.406 65.682-65.681c-.001-36.275-29.407-65.682-65.682-65.682z" fill="#af30fa" opacity=".3"/><path d="m363.083 221.841c-2.225 0-4.424.113-6.592.33 26.626 2.924 47.344 25.482 47.344 52.887 0 29.391-23.826 53.217-53.217 53.217-27.405 0-49.963-20.717-52.887-47.343-.216 2.168-.33 4.366-.33 6.591 0 36.275 29.407 65.681 65.682 65.681s65.682-29.406 65.682-65.681c-.001-36.275-29.407-65.682-65.682-65.682z" fill="#af30fa" opacity=".3"/><path d="m272.702 386.409c-6.104-4.7-16.398-4.731-22.478 0-14.803 11.518-46.828 14.386-64.035 13.908-16.824-.467-3.346-6.692-.478-30.591.629-5.241.316-10.342.951-16.037 1.944-17.433 16.057-31.401 33.507-33.189 20.677-2.117 38.396 12.479 41.294 31.916 2.852-19.126 20.054-33.565 40.304-32.005.329.025.137.089.137.089 17.45 1.787 31.562 15.755 33.507 33.189.635 5.695.322 10.796.951 16.037 2.868 23.899 16.346 30.124-.478 30.591-16.92.47-47.804-2.65-62.916-13.694z" fill="#a07575"/><path d="m336.362 369.727c-.629-5.242-.316-10.342-.951-16.037-1.944-17.433-16.057-31.401-33.507-33.189 0 0 .192-.063-.137-.089-4.794-.369-9.414.168-13.717 1.442 10.574 3.437 18.518 12.288 19.797 22.917.502 4.173.255 7.911.752 11.753 2.267 17.515 12.923 22.077-.378 22.42-13.377.345-25.983-1.942-37.931-10.036l.428-.158c-4.826-3.444-13.602-3.467-18.408 0-11.703 8.443-48.832 10.544-62.436 10.193-2.971-.076-4.741-.366-5.682-.96-4.279 17.125-12.696 21.927 1.997 22.335 17.207.477 49.232-2.39 64.035-13.909 6.08-4.73 16.374-4.7 22.478 0l.266.214c15.113 11.044 45.996 14.164 62.916 13.695 16.824-.468 3.346-6.693.478-30.591z" fill="#925873"/><path d="m299.691 315.713c0 30.93-17.306 38.96-38.655 38.96s-38.655-8.029-38.655-38.96c0-30.93 17.307-73.049 38.655-73.049s38.655 42.118 38.655 73.049z" fill="#e8a284"/><path d="m261.036 242.664c-1.645 0-3.266.252-4.857.727 14.343 4.867 25.371 33.581 25.371 55.18 0 23.672-13.245 29.817-29.584 29.817-14.458 0-26.487-4.823-29.066-22.333-.339 3.296-.519 6.534-.519 9.657 0 30.93 17.307 38.959 38.655 38.959s38.655-8.029 38.655-38.959c.001-30.93-17.306-73.048-38.655-73.048z" fill="#d57b84"/><path d="m449.705 291.071c19.851-12.289 36.867-31.195 39.032-63.552v-19.505c0-108.021-87.568-195.59-195.59-195.59h-64.222c-108.021 0-195.59 87.568-195.59 195.59v19.505c1.379 34.247 21.861 52.523 36.355 64.497l39.673-126.222 47.037 32.986 51.285-38.902 53.352 39.221 55.407-42.468 56.809 42.759 38.483-35.429z" fill="#a07575"/><path d="m468.829 375.564 8.674 24.39c.371 1.044 1.107 1.872 2.034 2.29l21.67 9.763c3.061 1.379 3.061 6.257 0 7.636l-21.67 9.763c-.928.418-1.663 1.246-2.034 2.29l-8.674 24.39c-1.225 3.446-5.559 3.446-6.785 0l-8.674-24.39c-.371-1.044-1.107-1.872-2.035-2.29l-21.67-9.763c-3.061-1.379-3.061-6.257 0-7.636l21.67-9.763c.928-.418 1.663-1.246 2.035-2.29l8.674-24.39c1.226-3.446 5.56-3.446 6.785 0z" fill="#ccf3e2"/><path d="m37.613 410.609 6.434 18.092c.276.775.821 1.388 1.509 1.699l16.074 7.242c2.271 1.023 2.271 4.641 0 5.665l-16.074 7.242c-.688.31-1.234.924-1.509 1.699l-6.434 18.092c-.909 2.556-4.124 2.556-5.033 0l-6.434-18.092c-.275-.775-.821-1.389-1.509-1.699l-16.074-7.242c-2.271-1.023-2.271-4.641 0-5.665l16.074-7.242c.688-.31 1.234-.924 1.509-1.699l6.434-18.092c.909-2.556 4.124-2.556 5.033 0z" fill="#ccf3e2"/><path d="m84.518 391.003c4.512 0 8.17 3.658 8.17 8.17s-3.658 8.17-8.17 8.17c-4.513 0-8.17-3.658-8.17-8.17-.001-4.512 3.657-8.17 8.17-8.17" fill="#a1e8c3"/></g><g><g fill="#3c122c"><path d="m496.232 253.419c2.667-7.799 4.305-16.16 4.901-25.07.018-.276.028-.554.028-.83v-19.505c0-114.7-93.314-208.014-208.014-208.014h-64.222c-114.699 0-208.013 93.314-208.013 208.014v19.505c0 .167.003.333.01.5.386 9.592 2.13 18.124 4.72 25.721-5.498 8.443-8.711 18.502-8.711 29.308 0 29.727 24.185 53.912 53.913 53.912 5.396 0 10.602-.814 15.519-2.3 16.251 20.176 36.842 36.708 60.333 48.196-17.048 23.364-27.13 52.118-27.13 83.192v35.391c0 5.832 4.728 10.56 10.56 10.56 5.831 0 10.56-4.728 10.56-10.56v-35.391c0-28.263 9.795-54.282 26.166-74.841 1.772.608 3.556 1.189 5.353 1.743-.895 3.05-1.069 5.984.754 8.792 2.773 4.271 8.192 4.773 13.053 4.909 1.214.034 2.51.052 3.874.052-14.056 16.394-22.571 37.671-22.571 60.91v37.833c0 3.499 2.837 6.336 6.336 6.336s6.336-2.837 6.336-6.336v-37.833c0-19.306 6.794-37.048 18.11-50.98.222.529.498 1.037.859 1.493l23.978 30.249c1.202 1.516 3.031 2.4 4.965 2.4 1.935 0 3.763-.884 4.965-2.4l23.099-29.141v85.331c0 3.499 2.837 6.336 6.336 6.336s6.336-2.837 6.336-6.336v-82.141l19.239 24.271c1.202 1.516 3.031 2.4 4.965 2.4s3.763-.884 4.965-2.4l24.978-31.51c12.03 14.142 19.301 32.45 19.301 52.429v37.833c0 3.499 2.837 6.336 6.336 6.336s6.336-2.837 6.336-6.336v-37.833c0-23.24-8.507-44.529-22.565-60.924 1.383.006 2.685-.006 3.868-.038 4.861-.135 10.279-.637 13.052-4.909 1.825-2.811 1.65-5.746.754-8.799 1.792-.551 3.572-1.129 5.34-1.736 16.376 20.56 26.181 46.575 26.181 74.841v35.391c0 5.832 4.728 10.56 10.56 10.56s10.56-4.728 10.56-10.56v-35.391c0-31.069-10.073-59.827-27.117-83.19 23.489-11.488 44.069-28.033 60.318-48.207 4.919 1.488 10.123 2.309 15.522 2.309 29.727 0 53.912-24.185 53.912-53.912 0-10.94-3.283-21.122-8.908-29.63zm-450.472-45.405c0-100.998 82.167-183.166 183.165-183.166h64.222c100.998 0 183.166 82.168 183.166 183.166v19.076c-1.273 17.824-7.655 31.906-19.813 43.322l-32.86-110.006c-1.226-4.105-4.481-7.289-8.612-8.424-1.087-.299-2.193-.444-3.292-.444-3.078 0-6.093 1.146-8.416 3.283l-30.867 28.418-48.539-36.535c-4.457-3.355-10.603-3.329-15.029.066l-48.005 36.795-45.837-33.697c-4.432-3.26-10.482-3.214-14.867.111l-44.064 33.424-39.615-27.781c-3.241-2.275-7.374-2.865-11.128-1.592-3.751 1.274-6.67 4.26-7.858 8.039l-33.792 107.517c-9.482-10.322-17.139-23.459-17.959-42.324zm296.892 160.958c-.281-2.352-.355-4.766-.432-7.322-.044-1.447-.091-2.923-.174-4.447 5.806 1.52 11.893 2.337 18.169 2.337 6.251 0 12.317-.803 18.104-2.308-10.889 6.588-22.645 11.878-35.054 15.658-.232-1.251-.448-2.541-.613-3.918zm-163.843 3.905c-12.403-3.778-24.156-9.056-35.04-15.639 5.782 1.501 11.843 2.303 18.089 2.303 6.277 0 12.363-.821 18.17-2.342-.084 1.526-.131 3.007-.175 4.457-.076 2.554-.15 4.966-.431 7.316-.166 1.371-.38 2.657-.613 3.905zm3.879-29.809c-6.486 2.445-13.5 3.801-20.831 3.801-32.723 0-59.346-26.623-59.346-59.346s26.623-59.346 59.346-59.346c31.299 0 56.997 24.36 59.178 55.113-2.778 9.516-4.461 19.304-4.883 28.134-.544 1.229-1.129 2.437-1.752 3.621-14.675 3.312-26.66 14.056-31.712 28.023zm39.304-95.103c8.271-3.543 16.634-5.936 25.069-7.161-6.936 4.58-12.927 12.322-17.745 21.564-1.906-5.097-4.371-9.924-7.324-14.403zm39.044 1.035c15.102 0 32.319 35.539 32.319 66.713 0 22.867-9.665 32.623-32.319 32.623s-32.319-9.756-32.319-32.623c0-31.175 17.217-66.713 32.319-66.713zm14.273-7.999c8.209 1.283 16.463 3.63 24.745 7.04-2.937 4.466-5.384 9.279-7.281 14.359-4.752-9.124-10.646-16.791-17.464-21.399zm32.369 74.043c-.626-1.187-1.212-2.398-1.758-3.63-.423-8.827-2.106-18.612-4.883-28.124 2.18-30.753 27.88-55.113 59.179-55.113 32.724 0 59.346 26.623 59.346 59.346s-26.623 59.346-59.346 59.346c-7.333 0-14.35-1.352-20.832-3.804-5.054-13.965-17.036-24.707-31.706-28.021zm52.538-99.539c-20.421 0-38.866 8.554-51.975 22.258-32.024-14.196-63.769-14.21-94.429-.035-13.111-13.684-31.55-22.223-51.955-22.223-39.711 0-72.018 32.307-72.018 72.018 0 6.786.964 13.348 2.727 19.576-3.43-5.407-6.536-11.036-9.291-16.864l32.852-104.524 33.14 23.241c4.421 3.1 10.339 2.989 14.641-.273l43.893-33.295 45.877 33.726c4.453 3.274 10.532 3.214 14.916-.15l47.917-36.728 49.27 37.086c4.791 3.606 11.476 3.276 15.886-.786l23.855-21.963 31.846 106.613c-2.391 4.794-5.015 9.452-7.871 13.951 1.769-6.24 2.736-12.812 2.736-19.611.001-39.71-32.306-72.017-72.017-72.017zm-289.372 100.337c-18.082 0-32.794-14.71-32.794-32.793 0-1.707.147-3.379.401-5.016 8.122 10.991 17.278 18.564 23.328 23.561 1.406 1.161 3.026 1.981 4.738 2.433 2.041 4 4.231 7.913 6.561 11.73-.739.051-1.482.085-2.234.085zm157.056 118.397-17.683-22.307c-.029-1.53-.072-3.75-.123-6.372 8.124-.909 16.689-2.432 24.545-4.815h19.81zm64.941-1.679-24.205-30.535v-1.279h20.069c7.71 2.305 16.005 3.799 23.776 4.712v2.325zm42.867-38.576c-15.575.431-45.273-2.552-58.882-12.389l-.138-.111c-.039-.032-.079-.064-.12-.095-8.37-6.447-21.935-6.438-30.235.02-12.964 10.088-42.971 13.058-59.968 12.576-.386-.01-.737-.024-1.059-.04.162-.398.327-.796.482-1.172 1.987-4.816 4.991-12.093 6.214-22.29.35-2.912.434-5.724.517-8.445.078-2.604.153-5.064.44-7.645 1.471-13.184 11.301-23.946 23.991-26.913 3.645 22.256 18.422 33.529 44.086 33.529s40.441-11.273 44.086-33.529c12.69 2.966 22.521 13.728 23.992 26.911.287 2.58.361 5.04.44 7.642.081 2.721.167 5.535.517 8.449 1.223 10.197 4.226 17.474 6.213 22.289.156.377.321.775.483 1.173-.322.016-.673.03-1.059.04zm115.521-78.142c-.748 0-1.487-.034-2.222-.084 2.883-4.725 5.546-9.599 7.985-14.6 10.796-6.793 19.65-14.746 26.528-23.823.328 1.856.501 3.765.501 5.714 0 18.083-14.71 32.793-32.792 32.793z"/><ellipse cx="161.857" cy="292.587" rx="18.559" ry="18.558" transform="matrix(.038 -.999 .999 .038 -136.726 443.096)"/><circle cx="360.216" cy="292.587" r="18.558"/><path d="m210.198 287.523c0-26.656-21.685-48.341-48.341-48.341s-48.341 21.685-48.341 48.341 21.685 48.341 48.341 48.341 48.341-21.686 48.341-48.341zm-48.341 35.669c-19.668 0-35.67-16.001-35.67-35.67 0-19.668 16.001-35.67 35.67-35.67s35.67 16.001 35.67 35.67-16.002 35.67-35.67 35.67z"/><path d="m408.557 287.523c0-26.656-21.685-48.341-48.341-48.341s-48.341 21.685-48.341 48.341 21.685 48.341 48.341 48.341 48.341-21.686 48.341-48.341zm-84.011 0c0-19.668 16.001-35.67 35.67-35.67 19.668 0 35.67 16.001 35.67 35.67 0 19.668-16.001 35.67-35.67 35.67-19.668-.001-35.67-16.002-35.67-35.67z"/><path d="m320.911 462.702h-31.914c-3.499 0-6.336 2.837-6.336 6.336v15.957c0 12.292 10.001 22.292 22.293 22.292s22.293-10 22.293-22.292v-15.957c0-3.499-2.837-6.336-6.336-6.336zm-6.335 22.293c0 5.305-4.316 9.62-9.621 9.62s-9.621-4.316-9.621-9.62v-9.621h19.242z"/><path d="m343.011 104.53c3.499 0 6.336-2.837 6.336-6.336v-11.965c0-3.499-2.837-6.336-6.336-6.336s-6.336 2.837-6.336 6.336v11.965c0 3.499 2.837 6.336 6.336 6.336z"/><path d="m368.659 142.41c3.499 0 6.336-2.837 6.336-6.336v-11.964c0-3.499-2.837-6.336-6.336-6.336s-6.336 2.837-6.336 6.336v11.964c.001 3.5 2.838 6.336 6.336 6.336z"/><path d="m405.52 121.534c3.499 0 6.336-2.837 6.336-6.336v-11.965c0-3.499-2.837-6.336-6.336-6.336s-6.336 2.837-6.336 6.336v11.965c0 3.499 2.837 6.336 6.336 6.336z"/></g><path d="m152.965 86.938c-3.412 0-6.761-1.651-8.795-4.703-3.235-4.852-1.924-11.408 2.929-14.643 1.786-1.191 7.303-4.64 11.32-6.273 5.399-2.195 11.563.402 13.758 5.806 2.197 5.402-.402 11.562-5.805 13.758-1.642.667-5.411 2.849-7.559 4.281-1.8 1.2-3.835 1.774-5.848 1.774z" fill="#fff"/><path d="m102.857 133.913c-1.932 0-3.888-.53-5.642-1.641-4.926-3.122-6.389-9.646-3.268-14.572 9.597-15.144 20.724-25.897 28.37-32.251 4.487-3.728 11.142-3.113 14.871 1.373 3.727 4.486 3.112 11.143-1.372 14.871-6.478 5.383-15.905 14.491-24.028 27.312-2.011 3.172-5.433 4.908-8.931 4.908z" fill="#fff"/><path d="m248.706 311.778c-.359 0-.72-.019-1.085-.056-5.802-.592-10.025-5.776-9.432-11.577.753-7.375 2.555-14.016 5.356-19.739 2.564-5.236 8.89-7.403 14.128-4.84 5.238 2.565 7.405 8.889 4.841 14.128-1.701 3.473-2.815 7.711-3.314 12.596-.556 5.436-5.144 9.488-10.494 9.488z" fill="#fff"/></g></g></svg>