<svg id="Capa_1" enable-background="new 0 0 512 512" height="512" viewBox="0 0 512 512" width="512" xmlns="http://www.w3.org/2000/svg"><g><g><path d="m381.892 501.94v-33.718c0-68.88-55.839-124.719-124.719-124.719-68.881 0-124.719 55.839-124.719 124.719v33.718z" fill="#fff"/><path d="m340.425 481.978v-11.897c0-2.898-.15-5.76-.439-8.582h-165.626c-.289 2.822-.439 5.684-.439 8.582v11.897h-41.467v18.686h42.361v-10.606h163.812v10.606h43.266v-18.686z" fill="#9781dd"/><path d="m186.418 430.611v-2.745h142.503c-.12-.204-.249-.403-.371-.606 6.399 7.307 11.476 15.867 15.829 24.741h36.464c-1.31-10.089-3.834-19.796-7.406-28.979h-45.049v3.973c-14.593-24.068-41.013-40.165-71.215-40.165-29.886 0-56.071 15.762-70.755 39.413v-3.221h-45.508c-3.573 9.183-6.096 18.89-7.406 28.979h41.761c2.466-7.501 6.104-15.149 11.153-21.39z" fill="#9781dd"/><path d="m449.958 254.233c.985-7.14 1.506-14.428 1.506-21.84 0-87.47-70.909-158.379-158.378-158.379h-70.391c-87.47 0-158.378 70.908-158.378 158.379 0 7.278.501 14.437 1.452 21.454-17.874 4.544-31.096 20.741-31.096 40.029 0 22.81 18.492 41.302 41.302 41.302 7.829 0 15.149-2.179 21.387-5.962 28.967 37.442 74.331 61.556 125.333 61.556h70.391c50.743 0 95.908-23.867 124.894-60.983 6.017 3.424 12.973 5.39 20.391 5.39 22.811 0 41.302-18.492 41.302-41.302.001-18.787-12.547-34.634-29.715-39.644z" fill="#efc5b4"/><path d="m292.368 79.056h-20.31c70.913 0 128.399 57.486 128.399 128.399v10.904c0 70.913-57.486 128.399-128.399 128.399h-80.06c-67.862 0-123.42-52.648-128.076-119.325-.206 3.308-.323 6.641-.323 10.001v.001c0 87.47 70.908 158.378 158.378 158.378h70.391c87.47 0 158.379-70.909 158.379-158.378v-.001c0-87.469-70.908-158.378-158.379-158.378z" fill="#d994b3"/><path d="m436.92 300.303c18.913-11.708 36.945-34.959 37.186-60.547v-18.583c0-102.913-83.427-186.34-186.34-186.34h-61.185c-102.913 0-186.34 83.427-186.34 186.34v18.583c1.314 32.628 20.827 50.039 34.636 61.447 82.126-37.398 184.258-98.062 260.281-168.71 26.876 65.273 57.592 115.955 101.762 167.81z" fill="#f6e06e"/><path d="m394.835 123.339h-275.324v-72.6c0-21.485 17.417-38.902 38.902-38.902h197.519c21.485 0 38.902 17.417 38.902 38.902v72.6z" fill="#fff"/><path d="m394.664 47.16c-1.808-19.807-18.454-35.324-38.732-35.324h-197.519c-20.278 0-36.924 15.517-38.732 35.324z" fill="#9781dd"/><path d="m119.511 85.282h275.324v38.057h-275.324z" fill="#9781dd"/><path d="m355.933 11.837h-40.389c17.096 0 30.955 13.859 30.955 30.955v25.283c0 16.235-13.161 29.395-29.395 29.395h-197.593v25.869h275.324v-72.6c0-21.486-17.417-38.902-38.902-38.902z" fill="#8962de"/><path d="m394.835 82.9v-29.135h-48.336v14.31c0 5.409-1.467 10.472-4.016 14.826h52.352z" fill="#e1bdfc"/><path d="m265.909 386.785c24.08 10.831 41.019 36.535 41.019 66.532v7.217c0 11.235-9.108 20.343-20.343 20.343h-112.664v20.56h166.505v-31.858c-.001-43.028-32.645-78.426-74.517-82.794z" fill="#e1bdfc"/><path d="m302.834 428.418h26.708c-12.965-22.743-36.333-38.786-63.633-41.633 17.053 7.67 30.514 22.803 36.925 41.633z" fill="#8962de"/><path d="m340.425 489.673v-20.094c0-2.389-.117-4.75-.314-7.088h-33.283c-.985 10.316-9.669 18.386-20.244 18.386h-112.663v8.795h166.504z" fill="#8962de"/><path d="m41.494 408.613 8.264 23.237c.354.995 1.054 1.783 1.938 2.182l20.645 9.301c2.917 1.314 2.917 5.961 0 7.275l-20.645 9.301c-.884.398-1.584 1.187-1.938 2.181l-8.264 23.237c-1.167 3.283-5.296 3.283-6.464 0l-8.264-23.237c-.354-.995-1.054-1.783-1.938-2.181l-20.645-9.301c-2.917-1.314-2.917-5.961 0-7.275l20.645-9.301c.884-.398 1.584-1.187 1.938-2.182l8.264-23.237c1.167-3.283 5.296-3.283 6.464 0z" fill="#faf1a9"/><path d="m444.548 375.529 6.13 17.237c.263.738.782 1.323 1.438 1.618l15.314 6.9c2.164.975 2.164 4.422 0 5.397l-15.314 6.9c-.656.296-1.175.88-1.438 1.618l-6.13 17.237c-.866 2.435-3.929 2.435-4.795 0l-6.13-17.237c-.263-.738-.782-1.323-1.438-1.618l-15.314-6.9c-2.164-.975-2.164-4.422 0-5.397l15.314-6.9c.656-.296 1.175-.88 1.438-1.618l6.13-17.237c.866-2.436 3.929-2.436 4.795 0z" fill="#faf1a9"/><g fill="#f6e06e"><path d="m510.005 472.376c0 9.966-8.079 18.045-18.045 18.045s-18.045-8.079-18.045-18.045 8.079-18.045 18.045-18.045c9.966.001 18.045 8.079 18.045 18.045"/><path d="m108.88 404.267c0 4.299-3.485 7.784-7.784 7.784s-7.784-3.485-7.784-7.784 3.485-7.784 7.784-7.784 7.784 3.484 7.784 7.784"/></g></g><g><g fill="#3c122c"><path d="m480.688 264.838c2.514-7.268 4.231-15.17 5.183-23.781.048-.432.072-.866.072-1.3v-18.583c0-64.69-31.175-122.216-79.271-158.408v-12.027c-.001-27.978-22.762-50.739-50.739-50.739h-197.52c-27.977 0-50.738 22.761-50.738 50.739v12.027c-48.096 36.192-79.271 93.718-79.271 158.408v18.583c0 .569.041 1.137.123 1.7 1.232 8.493 3.143 16.038 5.53 22.792-5.942 8.377-9.445 18.599-9.445 29.628 0 28.321 23.041 51.363 51.362 51.363 5.142 0 10.101-.778 14.787-2.193 15.479 19.221 35.084 34.982 57.459 45.928-16.234 22.257-25.827 49.652-25.827 79.248v33.717c0 5.556 4.504 10.06 10.06 10.06s10.06-4.504 10.06-10.06v-13.246h25.371v17.063c0 3.334 2.702 6.036 6.036 6.036 3.333 0 6.036-2.703 6.036-6.036v-9.435h154.432v9.435c0 3.334 2.703 6.036 6.036 6.036s6.036-2.703 6.036-6.036v-17.063h25.371v13.246c0 5.556 4.504 10.06 10.06 10.06s10.06-4.504 10.06-10.06v-33.717c0-29.595-9.599-56.984-25.834-79.24 22.383-10.947 41.995-26.712 57.478-45.938 4.682 1.415 9.636 2.195 14.774 2.195 28.322 0 51.363-23.041 51.363-51.363.002-10.776-3.349-20.774-9.044-29.039zm-74.017-141.499v-29.76c34.184 31.876 55.598 77.278 55.598 127.595v17.913c-2.782 23.876-12.485 36.793-23.223 45.336-38.201-46.244-65.61-91.761-89.939-149.248h45.727c6.538 0 11.837-5.299 11.837-11.836zm-23.673-65.988v20.474h-251.65v-20.474zm-251.65 32.546h251.65v21.605h-251.65zm27.065-66.224h197.519c13.054 0 23.979 9.29 26.512 21.605h-250.542c2.533-12.315 13.457-21.605 26.511-21.605zm-106.336 197.501c0-50.311 21.419-95.699 55.598-127.575v29.74c0 6.537 5.299 11.836 11.836 11.836h195.035c-63.157 55.65-150.319 111.489-237.653 152.072-10.783-10.072-21.119-24.146-24.816-48.367zm23.898 103.944c-17.227 0-31.242-14.015-31.242-31.242 0-2.369.267-4.677.77-6.896 6.836 10.029 14.661 17.422 21.835 23.349 1.141.943 2.427 1.638 3.782 2.091 2.15 4.316 4.481 8.525 6.98 12.621-.703.049-1.411.077-2.125.077zm120.711 78.988c-4.037 3.725-7.732 7.814-11.029 12.22-.275-.039-.554-.065-.839-.065h-29.836c3.506-6.866 7.683-13.335 12.445-19.319 9.406 3.229 19.189 5.64 29.259 7.164zm95.682 1.902c2.702 0 5.386-.072 8.057-.198 7.253 4.922 13.625 11.044 18.835 18.078h-56.051v-17.88zm77.388 40.433h-26.381c-1.714-6.341-4.105-12.406-7.101-18.108h28.398c2.17 5.828 3.881 11.879 5.084 18.108zm-220.079-18.109h28.395c-2.995 5.702-5.387 11.767-7.1 18.108h-26.375c1.202-6.228 2.91-12.279 5.08-18.108zm38.076 7.629h63.384v9.472c0 3.333 2.703 6.036 6.036 6.036s6.036-2.703 6.036-6.036v-9.472h63.384c2.777 5.684 4.883 11.751 6.197 18.108h-151.235c1.314-6.357 3.421-12.424 6.198-18.108zm63.384-12.073h-56.052c5.21-7.035 11.582-13.156 18.835-18.078 2.671.126 5.355.198 8.057.198h29.159v17.88zm-108.623 52.734v-8.399c0-3.27.144-6.507.414-9.709h25.657c-.461 3.669-.7 7.407-.7 11.2v6.909h-25.371zm37.443 7.628v-14.537c0-1.198.035-2.387.089-3.572h154.254c.054 1.184.089 2.374.089 3.572v14.537zm166.504-7.628v-6.909c0-3.793-.239-7.53-.7-11.2h25.655c.27 3.202.415 6.438.415 9.709v8.399h-25.37zm12.901-60.362h-29.718c-.322 0-.635.032-.943.081-3.299-4.41-6.996-8.503-11.037-12.231 10.067-1.523 19.842-3.944 29.247-7.171 4.764 5.984 8.944 12.453 12.451 19.321zm-66.994-30.373h-70.391c-56.777 0-106.184-32.079-131.102-79.055 88.192-41.449 175.985-97.985 239.881-154.389 25.267 57.91 54.041 104.277 94.043 151.856-24.463 48.356-74.636 81.588-132.431 81.588zm146.003-60.769c-.709 0-1.41-.031-2.107-.078 3.084-5.055 5.907-10.286 8.455-15.671 9.877-6.335 17.9-13.624 24.185-22.062.456 2.12.709 4.315.709 6.569.001 17.227-14.015 31.242-31.242 31.242z"/><ellipse cx="162.684" cy="302.963" rx="17.681" ry="17.681" transform="matrix(.987 -.161 .161 .987 -46.674 30.159)"/><circle cx="351.662" cy="302.963" r="17.681"/><path d="m368.731 245.256c-.789-.402-7.969-3.933-17.068-3.933s-16.279 3.531-17.068 3.933c-2.959 1.511-4.128 5.122-2.632 8.089 1.497 2.966 5.121 4.159 8.096 2.676.053-.026 5.339-2.626 11.604-2.626s11.551 2.6 11.579 2.614c.879.449 1.816.661 2.74.661 2.196-.001 4.314-1.203 5.381-3.293 1.515-2.97.336-6.605-2.632-8.121z"/><path d="m257.173 296.927c-13.078 0-23.717 10.639-23.717 23.717 0 3.333 2.703 6.036 6.036 6.036s6.036-2.703 6.036-6.036c0-6.421 5.224-11.645 11.645-11.645s11.644 5.224 11.644 11.645c0 3.333 2.703 6.036 6.036 6.036s6.036-2.703 6.036-6.036c.001-13.077-10.638-23.717-23.716-23.717z"/></g><path d="m132.067 234.234c-3.538 0-6.97-1.87-8.807-5.182-2.695-4.859-.941-10.982 3.918-13.678 13.412-7.439 26.762-15.277 39.679-23.294 4.72-2.931 10.923-1.479 13.853 3.242s1.479 10.923-3.242 13.853c-13.195 8.191-26.832 16.196-40.53 23.795-1.547.857-3.221 1.264-4.871 1.264z" fill="#fff"/><path d="m93.029 254.705c-3.708 0-7.274-2.057-9.027-5.606-2.461-4.981-.419-11.015 4.562-13.476 2.45-1.21 4.893-2.433 7.332-3.665 4.958-2.508 11.01-.519 13.517 4.439s.519 11.01-4.439 13.517c-2.493 1.26-4.991 2.51-7.496 3.748-1.432.707-2.953 1.043-4.449 1.043z" fill="#fff"/></g></g></svg>