<svg id="Capa_1" enable-background="new 0 0 512 512" height="512" viewBox="0 0 512 512" width="512" xmlns="http://www.w3.org/2000/svg"><g><g><path d="m382.737 501.965v-33.633c0-68.708-55.699-124.408-124.408-124.408-68.709 0-124.408 55.699-124.408 124.408v33.633z" fill="#a07575"/><path d="m267.044 388.315c24.02 10.803 40.916 36.444 40.916 66.366v7.199c0 11.207-9.085 20.292-20.292 20.292h-112.383v20.508h166.089v-31.779c0-42.919-32.563-78.229-74.33-82.586z" fill="#925873"/><path d="m449.647 254.596c.508-5.157.773-10.385.773-15.676 0-87.252-70.732-157.983-157.983-157.983h-70.215c-87.252 0-157.983 70.732-157.983 157.983 0 5.485.281 10.903.826 16.243-16.631 5.299-28.68 20.868-28.68 39.257 0 22.753 18.445 41.199 41.199 41.199 6.049 0 11.787-1.314 16.961-3.656 28.733 39.36 75.214 64.94 127.677 64.94h70.215c52.777 0 99.502-25.885 128.192-65.646 5.551 2.785 11.813 4.362 18.446 4.362 22.754 0 41.199-18.446 41.199-41.199 0-19.098-12.997-35.156-30.627-39.824z" fill="#f3d4d2"/><path d="m93.986 55.556c-11.56-10.23-23.316-27.373-30.191-40.82-2.521-4.931-12.905-7.849-15.906.934l-7.864 41.069c-3.105 36.652 23.459 54.053 54.545 57.72l51.287 5.567 4.176-49.28s-41.096-1.96-56.047-15.19z" fill="#faf1a9"/><path d="m422.673 55.556c11.56-10.23 23.316-27.373 30.191-40.82 2.521-4.931 12.905-7.849 15.906.934l7.864 41.069c3.105 36.652-23.459 54.053-54.545 57.72l-51.287 5.567-4.176-49.28s41.096-1.96 56.047-15.19z" fill="#faf1a9"/><path d="m383.286 229.204c20.538 28.144 17.277 74.155 17.277 74.155 0 26.47-21.458 47.927-47.927 47.927-12.888 0-24.586-5.087-33.2-13.362-1.415-3.464-3.212-8.215-3.988-14.679-.477-3.974-.24-7.842-.721-12.16-1.474-13.22-12.176-23.811-25.408-25.167 0 0 .146-.048-.104-.067-15.356-1.183-28.4 9.766-30.562 24.269-2.198-14.739-15.634-25.807-31.313-24.202-13.232 1.355-23.934 11.947-25.408 25.167-.482 4.318-.244 8.186-.721 12.16-.787 6.556-2.624 11.351-4.048 14.827-8.598 8.185-20.227 13.214-33.035 13.214-26.47 0-47.927-21.457-47.927-47.927 0 0-4.712-47.757 23.6-76.026l-83.853.109s5.635 111.486 91.357 157.889c24.891 13.473 71.616 26.014 84.275 39.465 7.906 8.401-6.133 26.759-4.191 42.365 2.384 19.156 24.013 29.844 30.941 29.844s29.074-11.054 31.86-30.807c1.941-13.765-13.414-33-5.312-41.159 13.189-13.282 58.468-25.034 83.715-38.59 83.453-44.808 92.119-159.007 92.119-159.007z" fill="#e8a284"/><path d="m54.33 218.903v-5.273c0-97.853 75.839-177.178 169.392-177.178h69.215c93.553 0 169.392 79.326 169.392 177.178v5.273" fill="#96b4eb"/><path d="m220.087 125.621h-143.412c-4.791 8.738-8.871 17.953-12.201 27.546h155.613z" fill="#8286ea"/><path d="m462.96 155.302h-170.238v-129.924c0-5.35-4.338-9.688-9.688-9.688h-49.41c-5.351 0-9.688 4.338-9.688 9.688v129.924h-170.238c-8.506 0-15.401 6.895-15.401 15.401v36.917c0 8.506 6.895 15.401 15.401 15.401h409.262c8.506 0 15.401-6.895 15.401-15.401v-36.917c0-8.506-6.895-15.401-15.401-15.401z" fill="#f6e06e"/><path d="m462.96 155.302h-13.108c-24.895-64.37-84.387-117.633-154.122-118.813v7.805c33.141 10.033 59.059 28.926 71.025 52.201 6.841 13.305-3.056 29.125-18.016 29.125h-56.31v36.095h123.664c.578 1.316.904 2.769.904 4.298v16.646c0 5.916-4.796 10.712-10.712 10.712h-357.276c-5.916 0-10.712-4.796-10.712-10.712v24.96c0 8.506 6.895 15.401 15.401 15.401h353.611c-2.441 21.298-16.154 108.552-79.602 142.619-21.946 11.783-43.013 22.335-54.477 33.88-7.042 7.092-10.918 27.505-8.526 39.349 3.836 18.992-8.417 34.462-14.428 34.103-7.973-.477-21.088-11.554-22.896-12.181-.22 2.152-.252 4.286.007 6.37 2.384 19.156 24.013 29.844 30.941 29.844s29.074-11.054 31.86-30.807c1.942-13.765-13.414-33-5.312-41.159 13.189-13.282 58.468-25.034 83.715-38.589 73.703-39.574 89.07-140.404 91.656-163.427h2.712c8.506 0 15.401-6.895 15.401-15.401v-36.917c.001-8.507-6.894-15.402-15.4-15.402z" fill="#da9fd0"/><path d="m295.73 36.489v7.805c33.142 10.033 59.059 28.926 71.025 52.201 6.841 13.305-3.056 29.125-18.016 29.125h-56.31v36.095h123.664c.578 1.316.904 2.769.904 4.298v16.645c0 5.916-4.796 10.712-10.712 10.712h-350.846c-.724 6.649-1.109 13.406-1.109 20.258v5.273h407.999v-5.273c0-20.437-3.319-40.061-9.406-58.328h-3.07c-24.896-64.368-84.388-117.631-154.123-118.811z" fill="#8286ea"/><path d="m462.96 155.302h-13.108-157.13v-29.681h-.294v36.095h123.664c.578 1.316.904 2.769.904 4.298v16.645c0 5.916-4.796 10.712-10.712 10.712h-357.275c-5.916 0-10.712-4.796-10.712-10.712v24.96c0 8.506 6.895 15.401 15.401 15.401h353.611 52.939 2.712c8.506 0 15.401-6.895 15.401-15.401v-36.917c0-8.505-6.895-15.4-15.401-15.4z" fill="#dda86a"/><path d="m372.094 384.496c66.779-38.578 83.786-128.139 87.608-157.032l-53.12 1.209c-1.258 8.892-3.734 22.726-8.399 38.491 3.564 19.458 2.38 36.194 2.38 36.194 0 26.469-21.458 47.927-47.927 47.927-1.341 0-2.666-.068-3.979-.176-6.299 5.482-13.255 10.4-20.949 14.531-21.946 11.784-43.013 22.334-54.477 33.88-7.042 7.092-10.918 27.504-8.526 39.349 3.836 18.993-8.417 34.462-14.428 34.103-7.973-.477-21.088-11.554-22.896-12.182-.744 6.157.811 12.506 3.979 17.702 2.295 3.836 5.328 7.113 8.57 9.795 13.387 11.335 24.726 11.46 39.596-2.481 1.601-1.537 3.119-3.225 4.487-5.059 3.077-4.127 5.392-8.995 6.176-14.55.529-3.75-.23-7.907-1.444-12.134-2.268-7.896-6.137-16.04-6.243-22.254-.046-2.671.604-4.986 2.376-6.771 4.534-4.566 12.859-8.951 22.86-13.29 19.092-8.285 44.287-16.403 60.855-25.3 1.183-.635 2.347-1.289 3.501-1.952z" fill="#d57b84"/><path d="m285.769 446.797h-55.278c-5.936 0-10.748-4.812-10.748-10.749v-6.581c0-5.936 4.812-10.749 10.748-10.749h55.278c5.936 0 10.748 4.812 10.748 10.749v6.581c.001 5.937-4.811 10.749-10.748 10.749z" fill="#96b4eb"/><path d="m470.754 393.185 8.243 23.179c.353.992 1.052 1.779 1.933 2.176l20.593 9.278c2.909 1.311 2.909 5.946 0 7.257l-20.593 9.278c-.882.397-1.581 1.184-1.933 2.176l-8.243 23.179c-1.164 3.275-5.283 3.275-6.448 0l-8.243-23.179c-.353-.992-1.052-1.779-1.933-2.176l-20.593-9.278c-2.909-1.311-2.909-5.946 0-7.257l20.593-9.278c.882-.397 1.581-1.184 1.933-2.176l8.243-23.179c1.165-3.275 5.284-3.275 6.448 0z" fill="#efc5b4"/><path d="m37.52 362.813 6.115 17.194c.262.736.78 1.32 1.434 1.614l15.276 6.882c2.158.972 2.158 4.411 0 5.383l-15.276 6.882c-.654.295-1.172.878-1.434 1.614l-6.115 17.194c-.864 2.429-3.919 2.429-4.783 0l-6.115-17.194c-.262-.736-.78-1.319-1.434-1.614l-15.276-6.882c-2.158-.972-2.158-4.411 0-5.383l15.276-6.882c.654-.295 1.172-.878 1.434-1.614l6.115-17.194c.864-2.43 3.919-2.43 4.783 0z" fill="#efc5b4"/><circle cx="68.422" cy="468.213" fill="#e8a284" r="18"/></g><g><g fill="#3c122c"><path d="m467.193 251.626c1.768-8.833 2.699-15.704 3.15-19.666 10.436-3.172 18.053-12.881 18.053-24.34v-36.918c0-14.026-11.41-25.436-25.436-25.436h-2.993c-3.507-9.297-7.706-18.234-12.533-26.739 27.06-10.644 41.694-33.191 39.199-62.635-.029-.349-.077-.697-.143-1.041l-7.865-41.07c-.088-.461-.209-.914-.36-1.358-2.471-7.228-8.298-11.854-15.588-12.377-7.578-.538-15.473 3.711-18.75 10.121-6.124 11.978-17.127 28.335-27.905 37.872v.001c-4.702 4.161-14.243 7.252-24.346 9.356-25.779-17.796-56.196-28.835-88.919-30.687v-1.333c0-10.875-8.847-19.723-19.723-19.723h-49.41c-10.875 0-19.723 8.848-19.723 19.723v1.331c-32.725 1.851-63.144 12.891-88.924 30.689-10.101-2.104-19.64-5.197-24.341-9.356 0 0 0-.001-.001-.001-10.776-9.535-21.78-25.891-27.905-37.871-3.276-6.409-11.158-10.668-18.749-10.121-7.291.523-13.118 5.15-15.588 12.377-.152.444-.272.898-.361 1.358l-7.864 41.07c-.066.344-.114.692-.143 1.041-2.493 29.43 12.119 51.978 39.199 62.635-4.827 8.505-9.026 17.441-12.533 26.739h-2.993c-14.026 0-25.436 11.41-25.436 25.436v36.918c0 11.429 7.577 21.119 17.971 24.316.379 4.072 1.188 11.03 2.849 19.949-13.696 9.205-22.733 24.829-22.733 42.535 0 28.25 22.984 51.234 51.235 51.234 3.288 0 6.503-.316 9.619-.912 15.119 21.013 33.755 37.736 55.325 49.412.901.488 1.836.973 2.786 1.457-13.546 20.979-21.427 45.944-21.427 72.72v33.633c0 5.542 4.493 10.035 10.035 10.035s10.035-4.493 10.035-10.035v-33.633c0-23.86 7.349-46.034 19.896-64.387 5.412 2.22 11.013 4.404 16.539 6.558 2.854 1.112 5.768 2.249 8.674 3.399-12.375 15.297-19.802 34.754-19.802 55.918v35.954c0 3.325 2.695 6.021 6.021 6.021 3.325 0 6.021-2.696 6.021-6.021v-35.954c0-19.612 7.381-37.522 19.495-51.131 4.978 2.113 9.628 4.23 13.549 6.292-.398 1.431-.628 2.932-.628 4.488v6.581c0 5.091 2.288 9.65 5.88 12.728-1.71 6.155-3.021 12.794-2.171 19.624 3.172 25.492 30.106 38.639 40.899 38.639 12.441 0 38.401-15.359 41.797-39.441.931-6.607-.696-13.285-2.718-19.503 3.157-3.051 5.131-7.32 5.131-12.047v-6.581c0-1.367-.182-2.688-.492-3.961 4.103-2.119 8.972-4.282 14.149-6.43 11.912 13.562 19.156 31.316 19.156 50.742v35.954c0 3.325 2.696 6.021 6.021 6.021s6.021-2.696 6.021-6.021v-35.954c0-20.946-7.278-40.218-19.425-55.443 2.343-.909 4.682-1.809 6.982-2.691 6.097-2.341 12.285-4.718 18.237-7.154 12.308 18.239 19.514 40.19 19.514 63.801v33.633c0 5.542 4.493 10.035 10.035 10.035s10.035-4.493 10.035-10.035v-33.633c0-26.547-7.756-51.305-21.09-72.172.558-.289 1.115-.579 1.657-.87 21.606-11.601 40.396-28.746 55.726-50.633 3.238.648 6.582.999 10.009.999 28.251 0 51.235-22.984 51.235-51.234 0-17.874-9.205-33.628-23.117-42.797zm-37.87-188.554c12.398-10.971 23.78-27.757 30.602-40.23l6.75 35.249c2.022 26.431-14.343 38.072-30.336 43.161-7.461-10.339-15.923-19.85-25.236-28.372 7.024-2.45 13.512-5.642 18.22-9.808zm-126.565-16.255c60.446 3.874 111.885 43.247 135.571 98.449h-135.571zm-68.786-21.092h48.716v119.542h-48.716zm-20.071 21.089v98.452h-135.572c23.687-55.203 75.126-94.577 135.572-98.452zm-163.918 11.277 6.75-35.249c6.824 12.473 18.206 29.261 30.602 40.229 4.708 4.166 11.194 7.362 18.216 9.813-9.309 8.52-17.77 18.022-25.229 28.358-16.02-5.1-32.359-16.739-30.339-43.151zm-1.651 112.611c0-2.959 2.407-5.365 5.366-5.365h409.262c2.959 0 5.366 2.407 5.366 5.365v36.918c0 2.959-2.407 5.365-5.366 5.365h-409.262c-2.959 0-5.366-2.407-5.366-5.365zm242.428 109.321c-.349-.087-.711-.147-1.082-.176-12.513-.96-24.136 4.922-30.998 14.56-7.001-9.917-19.021-15.803-31.954-14.478-16.047 1.643-28.991 14.466-30.778 30.489-.267 2.392-.333 4.567-.396 6.67-.058 1.909-.112 3.712-.32 5.441-.605 5.036-1.924 8.923-3.125 11.971-7.522 6.741-17.414 10.767-27.98 10.767-23.107 0-41.906-18.799-41.906-41.906 0-.193-.01-.393-.028-.585-.043-.441-3.891-43.663 20.451-69.717h235.992c18.728 26.027 15.949 69.443 15.919 69.877-.01.141-.015.283-.015.425 0 23.107-18.799 41.906-41.906 41.906-10.621 0-20.607-4.12-28.17-10.982-1.178-3.015-2.45-6.839-3.04-11.757-.207-1.727-.262-3.529-.319-5.437-.063-2.104-.128-4.28-.396-6.673-1.754-15.748-14.286-28.404-29.949-30.395zm23.2 60.419c-11.863.18-33.1-2.09-42.918-9.165l-.078-.063c-.038-.031-.077-.062-.116-.091-6.876-5.293-17.599-5.285-24.415.019-9.343 7.27-30.877 9.519-43.735 9.301 1.519-3.703 3.604-9.091 4.49-16.48.272-2.263.337-4.424.4-6.513.059-1.949.114-3.791.327-5.699 1.163-10.428 9.59-18.774 20.037-19.844 12.083-1.235 22.963 7.151 24.744 19.1.44 2.95 2.973 5.133 5.955 5.133 2.983 0 5.516-2.183 5.955-5.133 1.705-11.434 11.942-19.744 23.48-19.196.202.042.409.074.618.096 10.448 1.07 18.874 9.416 20.037 19.845.213 1.908.268 3.749.327 5.7.063 2.088.128 4.248.4 6.51.889 7.39 2.972 12.777 4.492 16.48zm-267.541-46.021c0-7.859 2.933-15.039 7.75-20.527 1.623 5.865 3.558 12.072 5.869 18.491 4.238 11.772 9.24 22.818 14.948 33.084-15.972-1.326-28.567-14.739-28.567-31.048zm233.833 170.375c-1.914 13.572-17.828 21.573-21.935 22.159-4.002-.544-19.361-8.099-20.97-21.034-.466-3.743.598-8.373 1.971-13.103h38.511c1.521 4.495 2.837 9.049 2.423 11.978zm10.245-28.748c0 2.607-2.121 4.728-4.728 4.728h-55.279c-2.606 0-4.727-2.121-4.727-4.728v-6.581c0-2.607 2.121-4.728 4.727-4.728h55.279c2.607 0 4.728 2.121 4.728 4.728zm73.349-58.441c-9.71 5.214-23.12 10.362-36.088 15.342-16.863 6.475-32.947 12.664-43.449 19.75h-51.583c-10.578-7.462-27.412-14.024-45.046-20.896-12.882-5.021-26.202-10.211-35.598-15.298-33.164-17.952-57.711-48.358-72.961-90.372-8.326-22.937-11.467-43.306-12.582-53.076h60.656c-20.057 28.72-17.378 66.447-17.013 70.587.153 29.617 24.294 53.664 53.947 53.664 9.956 0 19.446-2.783 27.62-7.674 2.831 2.631 7.169 2.758 9.659 2.827.94.026 1.94.04 2.997.04 13.96-.001 37.341-2.452 49.424-11.854 2.407-1.872 7.153-1.877 9.628-.017l.132.107c.076.063.156.124.236.182 13.525 9.884 39.561 11.868 51.428 11.541 2.51-.07 6.898-.194 9.728-2.887 8.199 4.925 17.712 7.734 27.656 7.734 29.678 0 53.835-24.088 53.948-53.741.235-3.649 2.257-41.921-13.711-70.51h57.094c-1.367 10.057-4.983 30.857-13.623 54.119-15.858 42.69-40.249 73.116-72.499 90.432zm77.068-52.081c5.427-9.913 10.261-20.563 14.447-31.91 2.611-7.077 4.783-13.905 6.598-20.318 5.134 5.558 8.28 12.979 8.28 21.123.001 16.566-12.994 30.149-29.325 31.105z"/><path d="m181.101 245.922c-.787-.402-7.949-3.924-17.025-3.924-9.077 0-16.239 3.522-17.025 3.924-2.952 1.506-4.118 5.11-2.625 8.068 1.492 2.96 5.108 4.148 8.076 2.669.052-.026 5.325-2.62 11.575-2.62 6.249 0 11.522 2.593 11.55 2.607.877.448 1.812.659 2.733.659 2.191 0 4.303-1.199 5.368-3.285 1.51-2.96.335-6.587-2.627-8.098z"/><path d="m341.008 256.66c.053-.026 5.325-2.62 11.575-2.62 6.249 0 11.523 2.593 11.551 2.607.876.448 1.811.659 2.732.659 2.19 0 4.303-1.199 5.367-3.285 1.512-2.962.336-6.589-2.625-8.1-.787-.402-7.949-3.924-17.025-3.924-9.077 0-16.238 3.522-17.025 3.924-2.952 1.507-4.118 5.11-2.624 8.068 1.492 2.961 5.111 4.15 8.074 2.671z"/></g><path d="m162.206 97.99c1.503 0 3.029-.339 4.465-1.054 8.449-4.207 17.312-7.257 26.343-9.065 5.434-1.088 8.958-6.376 7.87-11.81-1.088-5.435-6.38-8.958-11.81-7.87-10.768 2.156-21.316 5.783-31.35 10.78-4.961 2.471-6.98 8.495-4.51 13.456 1.756 3.523 5.305 5.563 8.992 5.563z" fill="#fff"/><path d="m131.79 117.427c2.633 0 5.263-1.03 7.232-3.077 1.225-1.273 2.489-2.525 3.758-3.721 4.033-3.801 4.22-10.153.419-14.185-3.803-4.033-10.154-4.222-14.186-.418-1.505 1.418-3.003 2.902-4.454 4.409-3.842 3.993-3.72 10.347.273 14.189 1.948 1.872 4.454 2.803 6.958 2.803z" fill="#fff"/><ellipse cx="164.076" cy="303.485" fill="#3c122c" rx="17.637" ry="17.636" transform="matrix(.987 -.16 .16 .987 -46.494 30.201)"/><ellipse cx="352.583" cy="303.485" fill="#3c122c" rx="17.636" ry="17.637" transform="matrix(.924 -.383 .383 .924 -89.3 158.029)"/></g></g></svg>