<svg id="Capa_1" enable-background="new 0 0 512 512" height="512" viewBox="0 0 512 512" width="512" xmlns="http://www.w3.org/2000/svg"><g><g><path d="m300.303 46.227h-79.651c-99.424 0-180.024 80.599-180.024 180.024v226.577c0 17.734 14.376 32.11 32.11 32.11h62.507v16.96h250.465v-16.96h62.507c17.734 0 32.11-14.376 32.11-32.11v-226.577c0-99.425-80.6-180.024-180.024-180.024z" fill="#9781dd"/><path d="m319.987 410.698c1.5 5.111 2.302 10.501 2.302 16.071 0 32.715-27.674 59.236-61.812 59.236s-61.812-26.521-61.812-59.236c0-5.146.685-10.138 1.971-14.898l14.86-14.577h92.718z" fill="#fff"/><path d="m323.605 415.068c-.175 4.481-1 8.848-2.205 13.15-.831 4.443-2.105 8.737-4.061 12.773-1.71 6.637-3.974 13.125-6.902 19.376v.394c0 11.281-9.145 20.426-20.426 20.426h-113.128v20.644h167.189v-31.989c0-20.957-7.721-40.106-20.467-54.774z" fill="#8962de"/><path d="m310.437 460.498h1.386c3.836-9.156 13.51-39.936 13.563-43.286-13.589-16.747-33.511-28.143-56.136-30.503 24.179 10.875 41.187 36.685 41.187 66.806z" fill="#e1bdfc"/><path d="m453.975 253.15c.573-5.492.872-11.066.872-16.71v-.001c0-87.829-71.2-159.03-159.03-159.03h-70.68c-87.829 0-159.029 71.2-159.029 159.03v.001c0 5.644.299 11.217.873 16.71-17.28 5.005-29.918 20.936-29.918 39.829 0 22.904 18.568 41.472 41.472 41.472 6.527 0 12.699-1.512 18.191-4.198 28.932 39.534 75.669 65.217 128.411 65.217h70.68c52.743 0 99.479-25.683 128.411-65.217 5.493 2.686 11.665 4.198 18.192 4.198 22.904 0 41.472-18.568 41.472-41.472.001-18.893-12.637-34.824-29.917-39.829z" fill="#a07575"/><path d="m451.378 203.296c-15.249-71.919-79.098-125.886-155.56-125.886h-70.68c-76.462 0-140.312 53.966-155.561 125.886z" fill="#fff"/><path d="m404.303 203.134c.031 1.166.049 2.335.049 3.509v10.949c0 71.205-57.723 128.927-128.927 128.927h-80.389c-68.141 0-123.927-52.864-128.603-119.816-.207 3.322-.325 6.668-.325 10.042v.001c0 87.83 71.2 159.029 159.03 159.029h70.68c87.83 0 159.029-71.2 159.029-159.029v-.001c0-11.533-1.239-22.775-3.57-33.611z" fill="#925873"/><path d="m404.32 204.124h47.172c-15.049-72.181-79.026-126.408-155.674-126.408h-20.393c70.362 0 127.552 56.367 128.895 126.408z" fill="#e1bdfc"/><path d="m479.155 13.36 6.155 17.307c.264.741.785 1.328 1.444 1.625l15.377 6.928c2.172.979 2.172 4.44 0 5.419l-15.377 6.928c-.658.297-1.18.884-1.444 1.625l-6.155 17.307c-.869 2.445-3.945 2.445-4.814 0l-6.155-17.307c-.264-.741-.785-1.328-1.444-1.625l-15.377-6.928c-2.172-.979-2.172-4.44 0-5.419l15.377-6.928c.658-.297 1.18-.884 1.444-1.625l6.155-17.307c.87-2.445 3.945-2.445 4.814 0z" fill="#c2b2eb"/><g fill="#9781dd"><circle cx="26.358" cy="76.064" r="18.119"/><circle cx="83.66" cy="7.816" r="7.816"/></g></g><g fill="#3c122c"><path d="m183.353 302.104c0 9.805-7.948 17.753-17.753 17.753s-17.753-7.948-17.753-17.753 7.949-17.753 17.753-17.753c9.805-.001 17.753 7.948 17.753 17.753z"/><ellipse cx="355.355" cy="302.104" rx="17.753" ry="17.753" transform="matrix(.23 -.973 .973 .23 -20.31 578.544)"/><path d="m179.978 255.62c-.927 0-1.868-.214-2.75-.664-.029-.014-5.337-2.624-11.628-2.624s-11.598 2.61-11.651 2.637c-2.98 1.488-6.624.292-8.129-2.687-1.503-2.979-.329-6.605 2.642-8.122.792-.404 8.001-3.95 17.138-3.95s16.346 3.546 17.138 3.949c2.981 1.522 4.165 5.173 2.643 8.154-1.072 2.099-3.199 3.306-5.403 3.307z"/><path d="m369.733 255.62c-.927 0-1.868-.214-2.751-.664-.028-.014-5.335-2.624-11.626-2.624-6.292 0-11.599 2.61-11.652 2.637-2.981 1.488-6.624.292-8.129-2.687-1.503-2.979-.329-6.605 2.642-8.122.792-.404 8.001-3.95 17.139-3.95 9.137 0 16.346 3.546 17.138 3.95 2.981 1.522 4.164 5.173 2.642 8.154-1.071 2.098-3.198 3.306-5.403 3.306z"/><path d="m260.478 325.918c-13.131 0-23.815-10.683-23.815-23.814 0-3.347 2.714-6.061 6.061-6.061s6.061 2.714 6.061 6.061c0 6.447 5.245 11.692 11.693 11.692 6.447 0 11.692-5.245 11.692-11.692 0-3.347 2.714-6.061 6.061-6.061s6.061 2.714 6.061 6.061c-.001 13.131-10.683 23.814-23.814 23.814z"/><path d="m490.428 274.166v-47.915c0-104.835-85.29-190.125-190.125-190.125h-79.651c-104.836 0-190.125 85.29-190.125 190.125v47.896c-2.299 5.836-3.566 12.188-3.566 18.832 0 6.636 1.274 12.975 3.566 18.807v141.042c0 23.276 18.937 42.212 42.212 42.212h52.405v6.859c0 5.579 4.523 10.102 10.102 10.102 5.578 0 10.102-4.522 10.102-10.102v-33.856c0-27.032 9.375-51.908 25.031-71.574 9.44 3.239 19.253 5.668 29.359 7.196-17.766 16.392-28.915 39.853-28.915 65.875v36.192c0 3.347 2.714 6.061 6.061 6.061s6.061-2.714 6.061-6.061v-36.192c0-13.722 3.596-26.611 9.877-37.8 2.651 33.69 31.971 60.327 67.657 60.327s65.006-26.639 67.656-60.329c6.282 11.189 9.878 24.08 9.878 37.802v36.192c0 3.347 2.714 6.061 6.061 6.061s6.061-2.714 6.061-6.061v-36.192c0-24.06-9.531-45.933-25.011-62.052-.482-.771-1.123-1.41-1.868-1.887-.668-.656-1.348-1.3-2.036-1.936 10.109-1.529 19.926-3.959 29.369-7.2 15.654 19.665 25.02 44.547 25.02 71.577v33.856c0 5.579 4.523 10.102 10.102 10.102s10.102-4.522 10.102-10.102v-6.859h52.406c23.275 0 42.212-18.936 42.212-42.212v-141.041c2.293-5.832 3.566-12.172 3.566-18.807-.002-6.638-1.274-12.981-3.569-18.813zm-439.698-47.915c0-93.695 76.227-169.922 169.922-169.922h79.651c93.695 0 169.922 76.227 169.922 169.922v23.328c-1.794-1.152-3.661-2.199-5.596-3.126.195-3.316.32-6.65.32-10.013 0-93.259-75.872-169.131-169.131-169.131h-70.68c-93.259 0-169.132 75.872-169.132 169.132 0 3.363.125 6.697.32 10.012-1.934.926-3.803 1.966-5.595 3.118v-23.32zm387.604-33.056h-355.714c18.575-61.094 75.433-105.683 142.518-105.683h70.68c67.084 0 123.942 44.588 142.516 105.683zm-379.272 75.243c3.865 20.097 11.301 38.932 21.616 55.832-.709.049-1.423.08-2.144.08-17.298 0-31.37-14.073-31.37-31.371 0-9.939 4.663-18.792 11.898-24.541zm66.082 199.604v6.794h-52.405c-12.136 0-22.008-9.873-22.008-22.008v-116.446c8.03 5.162 17.569 8.171 27.804 8.171 5.167 0 10.156-.77 14.864-2.194 15.544 19.292 35.218 35.124 57.682 46.112-16.302 22.349-25.937 49.854-25.937 79.571zm135.334 11.903c-30.741 0-55.751-23.854-55.751-53.175 0-4.278.551-8.522 1.602-12.634 3.302-3.225 6.886-6.161 10.718-8.762 2.682.127 5.379.198 8.092.198h70.68c2.713 0 5.41-.071 8.092-.198 3.841 2.607 7.435 5.551 10.744 8.786 1.046 4.107 1.575 8.34 1.575 12.61-.002 29.32-25.011 53.175-55.752 53.175zm35.34-94.577h-70.68c-82.12 0-148.929-66.809-148.929-148.928 0-7.835.613-15.53 1.784-23.042h364.967c1.172 7.512 1.784 15.207 1.784 23.042.001 82.12-66.807 148.928-148.926 148.928zm174.407 67.46c0 12.136-9.873 22.008-22.009 22.008h-52.406v-6.794c0-29.717-9.634-57.223-25.935-79.571 22.466-10.988 42.141-26.822 57.685-46.116 4.708 1.424 9.694 2.198 14.861 2.198 10.235 0 19.774-3.009 27.804-8.171zm-27.804-128.478c-.721 0-1.435-.031-2.145-.08 10.32-16.908 17.758-35.753 21.621-55.861 7.241 5.751 11.894 14.626 11.894 24.57 0 17.298-14.072 31.371-31.37 31.371z"/><path d="m277.961 445.291c-.007 0-.014 0-.022 0l-11.401.04v-23.427c0-3.347-2.714-6.061-6.061-6.061s-6.061 2.714-6.061 6.061v23.469l-11.444.04c-3.347.012-6.051 2.735-6.039 6.082.012 3.34 2.723 6.04 6.061 6.04h.022l11.401-.04v9.051c0 3.347 2.714 6.061 6.061 6.061s6.061-2.714 6.061-6.061v-9.093l11.444-.04c3.347-.012 6.051-2.735 6.039-6.082-.012-3.34-2.723-6.04-6.061-6.04z"/><path d="m415.199 410.993c-3.347 0-6.061-2.714-6.061-6.061v-11.131c0-3.347 2.714-6.061 6.061-6.061s6.061 2.714 6.061 6.061v11.131c0 3.347-2.714 6.061-6.061 6.061z"/><path d="m447.304 430.811c-3.347 0-6.061-2.714-6.061-6.061v-11.131c0-3.347 2.714-6.061 6.061-6.061s6.061 2.714 6.061 6.061v11.131c0 3.347-2.714 6.061-6.061 6.061z"/><path d="m425.108 458.952c-3.347 0-6.061-2.714-6.061-6.061v-11.131c0-3.347 2.714-6.061 6.061-6.061s6.061 2.714 6.061 6.061v11.131c0 3.347-2.714 6.061-6.061 6.061z"/><path d="m95.933 442.059c-3.347 0-6.061-2.714-6.061-6.061v-11.132c0-3.347 2.714-6.061 6.061-6.061s6.061 2.714 6.061 6.061v11.132c0 3.347-2.714 6.061-6.061 6.061z"/></g></g></svg>