<svg id="Capa_1" enable-background="new 0 0 512 512" height="512" viewBox="0 0 512 512" width="512" xmlns="http://www.w3.org/2000/svg"><g><g><path d="m452.382 254.691c.57-5.46.867-11 .867-16.611 0-87.307-70.776-158.083-158.083-158.083h-70.26c-87.307 0-158.083 70.776-158.083 158.083 0 5.611.297 11.151.867 16.611-17.177 4.975-29.74 20.811-29.74 39.592 0 22.768 18.457 41.226 41.225 41.226 6.488 0 12.623-1.503 18.084-4.173 28.759 39.299 75.218 64.828 127.647 64.828h70.26c52.429 0 98.887-25.53 127.647-64.828 5.461 2.67 11.596 4.173 18.083 4.173 22.768 0 41.225-18.457 41.225-41.226.001-18.781-12.562-34.617-29.739-39.592z" fill="#c49a8b"/><path d="m304.169 200.329 151.918 84.757c11.541-21.433 12.204-62.401 12.204-62.401-6.471-89.032-80.748-159.255-171.432-159.255h-76.399c-94.936 0-171.897 76.961-171.897 171.897 0 50.38 21.674 95.696 56.206 127.137-9.131 11.474-22.874 26.705-33.382 29.43-21.574 5.593-35.468 39.485-35.099 44.65.816 11.421 29.551 29.778 40.157 26.515 2.07-.636 2.414-30.091 23.308-36.807 12.861-4.134 24.53-25.859 32.129-43.586 8.525 5.136 17.54 9.537 26.945 13.152-14.648 20.416-23.275 45.442-23.275 72.486v33.655h248.973v-33.655c0-27.414-8.868-52.752-23.882-73.318 23.891-9.554 45.143-24.303 62.341-42.868 0 0-72.608-3.964-146.268-7.185-5.456-.731-11.022-1.116-16.678-1.116-2.028 0-4.044.053-6.049.149-41.027-1.693-80.064-3-104.469-3.089-13.613-.049-24.881-10.584-25.851-24.162l-5.176-72.472 18.809-10.916c50.403-29.252 109.122-40.864 166.867-32.998z" fill="#f4dab5"/><path d="m297.612 412.586c7.609 11.694 12.087 25.948 12.087 41.342v7.204c0 11.214-9.091 20.305-20.305 20.305h-112.454v20.521h166.194v-31.798c0-22.358-8.843-42.638-23.206-57.573h-22.316z" fill="#dba2b3"/><path d="m304.169 200.329c-57.745-7.866-116.464 3.746-166.869 32.998l-18.809 10.916 5.176 72.472c.97 13.578 12.238 24.112 25.851 24.162 59.444.215 205.687 7.658 256.07 10.312 19.7-19.235 34.393-43.569 41.945-70.874zm52.157 122.433c-36.247-1.669-141.458-6.351-184.223-6.486-9.793-.031-17.9-6.657-18.598-15.199l-3.724-45.587 13.532-6.867c36.262-18.401 78.506-25.705 120.049-20.757l103.141 50.314c-5.434 17.176-16.005 32.483-30.177 44.582z" fill="#b2748a"/><path d="m74.465 2.458 8.248 23.193c.353.993 1.052 1.78 1.935 2.177l20.606 9.284c2.911 1.312 2.911 5.95 0 7.262l-20.606 9.284c-.882.397-1.581 1.184-1.935 2.177l-8.248 23.193c-1.165 3.277-5.286 3.277-6.452 0l-8.248-23.193c-.353-.993-1.052-1.78-1.935-2.177l-20.606-9.284c-2.911-1.312-2.911-5.95 0-7.262l20.606-9.284c.882-.397 1.581-1.184 1.935-2.177l8.248-23.193c1.165-3.277 5.286-3.277 6.452 0z" fill="#faf1a9"/><path d="m462.808 440.1 6.119 17.204c.262.737.781 1.32 1.435 1.615l15.286 6.887c2.159.973 2.159 4.414 0 5.387l-15.286 6.887c-.654.295-1.173.879-1.435 1.615l-6.119 17.204c-.864 2.431-3.921 2.431-4.786 0l-6.119-17.204c-.262-.737-.781-1.32-1.435-1.615l-15.286-6.887c-2.159-.973-2.159-4.414 0-5.387l15.286-6.887c.654-.295 1.173-.879 1.435-1.615l6.119-17.204c.865-2.431 3.922-2.431 4.786 0z" fill="#faf1a9"/><circle cx="486.893" cy="399.615" fill="#f6e06e" r="7.769"/><path d="m22.341 100.823c0 4.291-3.479 7.77-7.769 7.77-4.291 0-7.77-3.479-7.77-7.77s3.479-7.77 7.77-7.77c4.291.001 7.769 3.479 7.769 7.77z" fill="#f6e06e"/><path d="m480.739 72.833 6.119 17.204c.262.737.781 1.32 1.435 1.615l15.286 6.887c2.16.973 2.16 4.414 0 5.387l-15.286 6.887c-.654.295-1.173.879-1.435 1.615l-6.119 17.204c-.864 2.431-3.921 2.431-4.786 0l-6.119-17.204c-.262-.737-.781-1.32-1.435-1.615l-15.286-6.887c-2.159-.973-2.159-4.414 0-5.387l15.286-6.887c.654-.295 1.173-.879 1.435-1.615l6.119-17.204c.865-2.431 3.922-2.431 4.786 0z" fill="#faf1a9"/></g><g fill="#3c122c"><ellipse cx="165.723" cy="303.353" rx="17.648" ry="17.648" transform="matrix(.924 -.383 .383 .924 -103.473 86.511)"/><ellipse cx="354.35" cy="303.353" rx="17.648" ry="17.648" transform="matrix(.973 -.23 .23 .973 -60.217 89.528)"/><path d="m180.015 257.146c-.922 0-1.857-.212-2.734-.66-.028-.014-5.304-2.609-11.558-2.609-6.253 0-11.529 2.595-11.582 2.621-2.969 1.48-6.587.289-8.081-2.671-1.494-2.961-.327-6.566 2.627-8.074.787-.402 7.954-3.926 17.036-3.926 9.083 0 16.249 3.524 17.036 3.926 2.963 1.513 4.14 5.142 2.627 8.106-1.065 2.086-3.178 3.287-5.371 3.287z"/><path d="m368.642 257.146c-.922 0-1.857-.212-2.734-.66-.028-.014-5.305-2.609-11.559-2.609-6.253 0-11.529 2.595-11.582 2.621-2.964 1.478-6.586.29-8.08-2.671-1.495-2.961-.327-6.566 2.626-8.073.787-.402 7.954-3.926 17.036-3.926s16.249 3.524 17.036 3.926c2.963 1.513 4.14 5.142 2.627 8.105-1.064 2.086-3.178 3.287-5.37 3.287z"/><path d="m260.037 327.026c-13.053 0-23.673-10.62-23.673-23.673 0-3.327 2.698-6.025 6.025-6.025s6.025 2.698 6.025 6.025c0 6.409 5.214 11.623 11.623 11.623s11.623-5.214 11.623-11.623c0-3.327 2.698-6.025 6.025-6.025s6.025 2.698 6.025 6.025c-.001 13.053-10.62 23.673-23.673 23.673z"/><path d="m476.733 257.686c2.677-16.553 2.96-31.057 2.977-32.084.005-.297-.004-.594-.025-.891-3.325-45.739-23.674-88.222-57.298-119.626-33.794-31.562-77.884-48.944-124.15-48.944h-76.399c-100.321 0-181.939 81.618-181.939 181.939 0 7.384.454 14.663 1.313 21.82-8.253 9.101-13.302 21.158-13.302 34.383 0 26.859 20.766 48.944 47.084 51.082 4.769 6.509 9.952 12.695 15.523 18.509-7.985 9.093-16.35 16.926-21.65 18.3-26.215 6.796-43.32 44.955-42.595 55.086.794 11.113 12.478 20.692 19.372 25.414 4.095 2.805 16.761 10.794 28.01 10.794 1.975 0 3.909-.247 5.743-.811 6.095-1.875 7.294-7.339 8.353-12.159 1.638-7.46 4.686-21.346 15.075-24.686 11.467-3.686 22.257-15.97 32.907-37.495 2.397 1.293 4.824 2.54 7.284 3.727-11.128 19.573-17.507 42.181-17.507 66.26v33.655c0 5.546 4.496 10.041 10.042 10.041s10.041-4.496 10.041-10.041v-4.559l25.323 5.927v2.443c0 3.327 2.697 6.025 6.025 6.025 3.327 0 6.025-2.698 6.025-6.025v-24.486l154.144 4.447v.098c-.338 1.119-.352 2.331 0 3.488v16.454c0 3.327 2.698 6.025 6.025 6.025s6.025-2.698 6.025-6.025v-14.894l25.323-14.772v25.855c0 5.546 4.496 10.041 10.042 10.041 5.545 0 10.041-4.496 10.041-10.041v-33.655c0-24.098-6.373-46.734-17.517-66.318 20.41-9.809 39.034-23.403 54.679-40.291 2.646-2.856 3.402-6.982 1.942-10.591-1.459-3.606-4.869-6.044-8.753-6.258.408-.496.817-.991 1.22-1.491 4.678 1.415 9.628 2.196 14.762 2.196 28.269 0 51.267-22.998 51.267-51.267-.001-14.33-5.922-27.289-15.432-36.599zm-17.112-31.971c-.072 3.344-.338 8.459-.902 14.395-56.587-38.087-107.743-64.87-161.354-84.344 19.924-3.129 40.348-5.634 61.257-7.516 35.137 15.524 64.906 32.865 97.376 53.618 1.781 7.75 3.008 15.711 3.623 23.847zm-223.109-58.1c11.85-2.779 23.902-5.313 36.151-7.604 61.939 20.1 119.364 49.228 184.388 93.518-1.071 6.86-2.539 13.894-4.522 20.059l-142.091-79.275c-.101-.056-.208-.102-.311-.155-.083-.043-.161-.093-.246-.133-24.007-11.491-48.262-20.222-73.369-26.41zm11.694 23.99c-40.17 3.298-79.514 15.447-114.569 35.792l-5.38 3.122-2.537-27.397c21.378-8.933 43.626-16.867 66.728-23.788.799.341 1.65.593 2.552.719 18.259 2.553 35.914 6.386 53.206 11.552zm181.778-47.316c8.748 12.216 15.847 25.697 20.947 40.124-22.507-14.071-44.197-26.58-67.811-38.073 15.371-1.01 30.994-1.694 46.864-2.051zm-208.147-68.064h76.399c22.325 0 43.705 4.609 63.192 12.943-54.258 4.302-105.627 12.68-153.04 25.012-45.888 11.935-89.223 27.875-129.184 47.459 27.336-50.801 81.016-85.414 142.633-85.414zm-150.785 103.024c87.414-45.579 191.955-72.28 311.008-79.444 11.467 6.987 22.025 15.354 31.42 24.884-69.622 2.542-134.833 11.339-194.084 26.245-56.677 14.258-109.445 34.493-157.159 60.198 1.859-11.044 4.833-21.714 8.815-31.883zm-23.06 115.034c0-.743.033-1.479.084-2.209 2.692 8.646 6.015 17.015 9.911 25.058-6.142-5.697-9.995-13.829-9.995-22.849zm11.989-56.202c0-.925.02-1.845.035-2.766 4.908-2.791 9.863-5.53 14.885-8.195l7.3 92.721c-14.112-24.01-22.22-51.954-22.22-81.76zm26.534-16.966c6.516-3.276 13.121-6.451 19.82-9.52l3.221 34.782c.056.605.17 1.189.326 1.755l5.147 72.052c.257 3.592 1.048 7.033 2.285 10.254l-22.332-1.786zm10.164 195.577c-18.945 6.09-25.045 24.73-27.68 35.691-2.741-.948-6.436-2.642-10.73-5.428-7.267-4.715-10.883-9.105-11.806-10.945 1.732-7.289 13.448-30.769 27.444-34.396 10.365-2.687 21.953-13.381 31.339-23.978 4.267 3.571 8.701 6.948 13.285 10.122-6.98 14.377-15.067 26.754-21.852 28.934zm7.93-67.122 37.615 3.009c2.773.703 5.665 1.083 8.635 1.093 33.816.123 96.502 2.629 153.282 5.243l-157.435 22.49c-15.731-8.279-29.945-19.065-42.097-31.835zm227.095 67.311c9.059-1.706 17.96-4.092 26.624-7.13 4.346 7.267 7.9 15.058 10.564 23.246l-28.776-2.257c-2.391-4.883-5.203-9.524-8.412-13.859zm-1.74 20.57c.169 1.008.588 1.935 1.199 2.714 1.518 3.628 2.77 7.392 3.723 11.274l-141.133-20.882c2.456-4.128 5.275-8.016 8.433-11.603 6.458.697 13.012 1.064 19.652 1.064h76.399c6.592 0 13.151-.371 19.653-1.084 4.864 5.528 8.936 11.764 12.074 18.517zm-181.216 4.166 31.797-12.061c-3.493 6.87-6.129 14.244-7.748 21.991l-26.133 1.089c.515-3.734 1.216-7.408 2.084-11.019zm4.578-14.624c2.33-5.989 5.144-11.736 8.403-17.191 6.863 2.409 13.915 4.411 21.123 5.991zm-7.735 58.03v-16.719c0-1.194.025-2.381.062-3.566l25.486-1.062c-.138 2.022-.224 4.059-.224 6.117v21.158zm37.387-15.794c.026-3.542.286-7.027.777-10.441.069-.283.116-.574.143-.87.864-5.55 2.311-10.908 4.297-16.001l148.672 21.997c.147 1.943.242 3.899.242 5.879v3.883zm162.114-26.012 27.066 2.123c1.127 5.505 1.847 11.155 2.149 16.916l-25.148 14.67v-7.133c-.001-9.256-1.436-18.178-4.067-26.576zm-46.856-43.281h-76.399c-19.005 0-37.251-3.303-54.206-9.347l200.206-28.601c12.514.629 23.579 1.199 32.49 1.664-28.677 23.267-64.82 36.284-102.091 36.284zm100.76-56.463c-56.194-2.924-188.764-9.527-246.114-9.873-.768-.26-1.575-.441-2.42-.509l-4.582-.367c-5.92-2.025-10.353-7.44-10.819-13.97l-4.73-66.218 13.387-7.769c47.688-27.676 103.942-39.005 158.61-31.98l132.64 74.002c-7.552 21.609-19.991 40.937-35.972 56.684zm41.901-18.006c-.716 0-1.424-.031-2.128-.079 5.519-9.044 10.207-18.645 13.96-28.701 2.314 1.238 5.024 1.53 7.549.793 2.581-.754 4.753-2.511 6.028-4.879 1.465-2.722 2.769-5.699 3.932-8.834 1.184 3.289 1.843 6.825 1.843 10.516 0 17.195-13.989 31.184-31.184 31.184z"/></g></g></svg>