<svg id="Capa_1" enable-background="new 0 0 512 512" height="512" viewBox="0 0 512 512" width="512" xmlns="http://www.w3.org/2000/svg"><g><g><path d="m378.814 501.953v-33.675c0-68.793-55.768-124.56-124.56-124.56-68.793 0-124.56 55.767-124.56 124.56v33.675z" fill="#d789b9"/><path d="m262.979 386.999c24.05 10.817 40.966 36.489 40.966 66.448v7.208c0 11.221-9.096 20.317-20.317 20.317h-112.521v20.533h166.293v-31.817c0-42.973-32.602-78.327-74.421-82.689z" fill="#c668b9"/><path d="m133.706 436.809c-2.617 10.053-4.013 20.598-4.013 31.47v16.64l26.136-25.267c-7.413-7.56-14.786-15.166-22.123-22.843z" fill="#9781dd"/><path d="m194.904 358.756c-16.491 8.956-30.74 21.518-41.67 36.642l34.671 33.242 37.898-36.638z" fill="#9781dd"/><path d="m221.362 460.719 33.6 32.216 33.267-33.763-31.116-33.48z" fill="#9781dd"/><path d="m320.99 363.107-29.526 28.929 31.333 32.052 30.664-31.122c-8.952-11.775-19.956-21.898-32.471-29.859z" fill="#9781dd"/><path d="m359.118 461.243 19.696 20.148v-13.113c0-8.15-.792-16.113-2.286-23.826z" fill="#9781dd"/><path d="m225.803 392.003 31.31 33.689 34.351-33.656-31.921-32.653z" fill="#9781dd"/><path d="m322.797 424.088-34.568 35.084 34.522 37.146 36.367-35.075z" fill="#9781dd"/><path d="m155.829 459.651c10.884 11.101 21.867 22.081 33.066 32.879l32.467-31.811-33.457-32.079z" fill="#9781dd"/><path d="m303.945 460.655c0 4.703-1.625 9.008-4.31 12.448 11.006 6.635 19.273 17.624 28.283 26.484.649.638 1.294 1.279 1.942 1.918h7.541v-31.817c0-16.609-4.894-32.062-13.288-45.043-6.771 7.55-13.589 15.059-20.424 22.551.164 2.06.257 4.143.257 6.25v7.209z" fill="#8962de"/><path d="m202.376 480.972h-23.455c2.988 3.816 5.981 7.627 8.973 11.439 4.762-3.876 9.696-7.578 14.482-11.439z" fill="#8962de"/><ellipse cx="435.221" cy="294.154" fill="#a07575" rx="41.25" ry="41.25" transform="matrix(.924 -.383 .383 .924 -79.439 188.943)"/><ellipse cx="73.286" cy="294.154" fill="#a07575" rx="41.25" ry="41.25" transform="matrix(.924 -.383 .383 .924 -106.989 50.437)"/><path d="m289.404 396.095h-70.301c-87.359 0-158.177-70.818-158.177-158.177 0-87.359 70.818-158.177 158.177-158.177h70.301c87.359 0 158.177 70.818 158.177 158.177 0 87.359-70.818 158.177-158.177 158.177z" fill="#fff"/><path d="m289.404 79.662h-20.284c70.823 0 128.236 57.413 128.236 128.236v10.89c0 70.823-57.413 128.236-128.236 128.236h-79.958c-67.775 0-123.263-52.581-127.913-119.173-.206 3.304-.323 6.632-.323 9.988v.001c0 87.359 70.818 158.177 158.177 158.177h70.301c87.359 0 158.177-70.818 158.177-158.177v-.001c0-87.359-70.818-158.177-158.177-158.177z" fill="#e1bdfc"/><circle cx="254.254" cy="432.927" fill="#f6e06e" r="18.752"/><circle cx="254.254" cy="486.189" fill="#f6e06e" r="18.752"/><path d="m50.949 212.096v-5.279c0-22.055 3.848-43.171 10.88-62.651 9.078-25.146-48.077-104.151-29.817-122.357 30.433-30.342 143.174 7.612 188.538 7.612h69.3c49.77 0 160.265-40.333 191.291-4.618 14.474 16.662-39.775 98.973-32.167 120.494 6.775 19.166 10.476 39.891 10.476 61.52v5.279" fill="#d789b9"/><path d="m481.14 24.804c-14.762-16.994-47.518-16.767-83.161-11.863 5.153 1.372 9.5 3.289 12.806 5.887 12.62 9.915-9.182 73.645-9.23 73.764-8.905 21.785-22.312 34.67-40.988 34.848l-300.994.37c1.018 5.515 3.564 12.734 2.257 16.357-7.032 19.481-10.88 40.596-10.88 62.651v5.279h408.5v-5.279c0-21.629-3.701-42.354-10.476-61.52-7.608-21.521 46.64-103.833 32.166-120.494z" fill="#c668b9"/><g fill="#9781dd"><path d="m102.919 92.456-70.368-71.145c-.178.168-.367.326-.539.498-16.146 16.097 26.66 79.721 30.518 111.625z"/><path d="m85.159 212.096h103.368l16.415-16.491-51.541-52.11z"/><path d="m153.978 40.651-51.059 51.805 50.482 51.039 51.215-51.486z"/><path d="m256.09 144.216-51.148 51.389 16.311 16.491h69.569l16.071-16.354z"/><path d="m171.292 23.085c-13.399-2.416-27.738-5.149-42.015-7.485l24.701 25.052z"/><path d="m307.847 92.215-50.126-53.592-53.105 53.386 51.474 52.207z"/><path d="m356.993 144.759-50.1 50.983 16.125 16.354h96.956z"/><path d="m477.966 21.653-70.079 71.314 40.764 42.412c4.532-30.064 45.26-95.873 32.488-110.575-.978-1.127-2.04-2.173-3.173-3.151z"/><path d="m340.556 22.914 17.817 18.537 26.399-26.524c-14.916 2.421-30.009 5.377-44.216 7.987z"/><path d="m249.115 29.422 8.606 9.201 9.154-9.201z"/><path d="m407.888 92.967-49.515-51.515-50.526 50.763 49.146 52.544z"/></g><path d="m449.678 224.789h-390.849c-8.005 0-14.495-6.489-14.495-14.495v-33.883c0-8.005 6.489-14.494 14.495-14.494h390.85c8.005 0 14.495 6.489 14.495 14.494v33.883c-.001 8.005-6.49 14.495-14.496 14.495z" fill="#f6e06e"/><path d="m449.678 161.916h-59.081c6.351 0 11.5 5.149 11.5 11.5v23.445c0 6.351-5.149 11.5-11.5 11.5h-334.763c-6.351 0-11.5-5.149-11.5-11.5v13.432c0 8.005 6.489 14.495 14.494 14.495h390.85c8.005 0 14.495-6.49 14.495-14.495v-33.883c0-8.004-6.489-14.494-14.495-14.494z" fill="#dda86a"/><path d="m458.406 379.076 8.253 23.207c.353.994 1.053 1.781 1.936 2.179l20.619 9.29c2.913 1.312 2.913 5.954 0 7.266l-20.619 9.29c-.883.398-1.582 1.185-1.936 2.179l-8.253 23.207c-1.166 3.279-5.29 3.279-6.456 0l-8.253-23.207c-.353-.994-1.053-1.781-1.936-2.179l-20.619-9.29c-2.913-1.312-2.913-5.954 0-7.266l20.619-9.29c.883-.398 1.582-1.185 1.936-2.179l8.253-23.207c1.166-3.278 5.29-3.278 6.456 0z" fill="#faf1a9"/><path d="m69.477 423.508 6.122 17.215c.262.737.781 1.321 1.436 1.616l15.295 6.891c2.161.974 2.161 4.416 0 5.39l-15.295 6.891c-.655.295-1.174.879-1.436 1.616l-6.122 17.215c-.865 2.432-3.924 2.432-4.789 0l-6.122-17.215c-.262-.737-.781-1.321-1.436-1.616l-15.295-6.891c-2.161-.974-2.161-4.416 0-5.39l15.295-6.891c.655-.295 1.174-.879 1.436-1.616l6.122-17.215c.866-2.432 3.925-2.432 4.789 0z" fill="#faf1a9"/><ellipse cx="40.423" cy="376.798" fill="#f6e06e" rx="18.022" ry="18.022" transform="matrix(.23 -.973 .973 .23 -335.583 329.569)"/></g><g><g fill="#3c122c"><ellipse cx="159.884" cy="303.229" rx="17.658" ry="17.658" transform="matrix(.851 -.526 .526 .851 -135.539 129.343)"/><ellipse cx="348.623" cy="303.229" rx="17.658" ry="17.658" transform="matrix(.526 -.851 .851 .526 -92.602 440.368)"/><path d="m174.185 256.995c-.922 0-1.858-.212-2.737-.66-.027-.014-5.306-2.61-11.563-2.61s-11.537 2.596-11.59 2.623c-2.969 1.481-6.591.289-8.085-2.673-1.495-2.963-.327-6.57 2.629-8.078.788-.402 7.958-3.929 17.046-3.929s16.258 3.526 17.046 3.929c2.965 1.514 4.142 5.144 2.628 8.111-1.066 2.086-3.181 3.287-5.374 3.287z"/><path d="m362.924 256.995c-.922 0-1.858-.212-2.736-.66-.029-.014-5.308-2.61-11.565-2.61s-11.537 2.596-11.59 2.623c-2.968 1.481-6.591.289-8.085-2.673-1.495-2.963-.327-6.57 2.629-8.078.788-.402 7.958-3.929 17.046-3.929s16.258 3.526 17.046 3.929c2.965 1.513 4.143 5.144 2.629 8.11-1.066 2.087-3.181 3.288-5.374 3.288z"/><path d="m254.253 326.916c-13.061 0-23.686-10.625-23.686-23.686 0-3.329 2.699-6.029 6.029-6.029s6.029 2.699 6.029 6.029c0 6.412 5.217 11.629 11.629 11.629 6.413 0 11.63-5.217 11.63-11.629 0-3.329 2.699-6.029 6.029-6.029s6.029 2.699 6.029 6.029c-.002 13.061-10.628 23.686-23.689 23.686z"/><path d="m457.325 247.884c.194-3.298.303-6.619.303-9.965 0-2.241-.051-4.47-.141-6.689 9.939-5.248 16.733-15.686 16.733-27.686v-20.382c0-9.241-4.029-17.556-10.42-23.29-1.497-6.051-3.272-12.032-5.355-17.922-.126-.362-1.101-3.915 3.248-17.075 3.197-9.676 8.253-21.499 13.141-32.933 15.939-37.277 25.137-60.78 13.891-73.727-24.83-28.585-85.262-17.279-138.579-7.304-23.262 4.352-45.235 8.463-60.297 8.463h-69.3c-13.823 0-35.572-3.988-58.599-8.209-24.508-4.494-52.288-9.586-76.207-10.856-30.048-1.598-49.381 2.975-60.826 14.385-14.591 14.548-2.48 42.455 11.544 74.769 7.933 18.28 18.798 43.315 15.918 51.291-2.038 5.647-3.788 11.38-5.285 17.178-7.759 5.701-12.808 14.885-12.808 25.229v20.382c0 12 6.793 22.438 16.733 27.686-.09 2.219-.14 4.448-.14 6.689 0 3.346.11 6.667.303 9.965-17.249 8.273-29.194 25.897-29.194 46.27 0 28.286 23.012 51.298 51.298 51.298 5.134 0 10.087-.774 14.767-2.187 15.461 19.196 35.041 34.939 57.39 45.87-16.214 22.228-25.798 49.586-25.798 79.143v33.675c0 5.549 4.499 10.047 10.048 10.047s10.047-4.499 10.047-10.047v-18.977l14.365-14.365 10.973 10.973v26.182c0 3.329 2.699 6.028 6.028 6.028.796 0 1.553-.158 2.248-.438.627.212 1.277.341 1.931.341 1.542 0 3.086-.589 4.262-1.766l7.939-7.939 7.939 7.939c1.177 1.177 2.72 1.766 4.262 1.766s3.086-.589 4.262-1.766c2.355-2.354 2.355-6.171 0-8.525l-7.939-7.939 24.615-24.615 9.963 9.964c-.727 2.33-1.12 4.806-1.12 7.372 0 13.664 11.117 24.781 24.781 24.781s24.781-11.117 24.781-24.781c0-2.566-.392-5.042-1.119-7.372l9.964-9.964 24.615 24.615-7.939 7.939c-2.355 2.354-2.355 6.171 0 8.525 1.177 1.177 2.72 1.766 4.262 1.766 1.543 0 3.086-.589 4.263-1.766l7.938-7.938 7.938 7.938c1.176 1.177 2.72 1.766 4.262 1.766.655 0 1.305-.13 1.931-.341.695.28 1.453.438 2.248.438 3.329 0 6.029-2.699 6.029-6.028v-26.182l10.973-10.973 14.366 14.366v18.976c0 5.549 4.499 10.047 10.047 10.047 5.549 0 10.047-4.499 10.047-10.047v-33.675c0-29.558-9.579-56.918-25.792-79.146 22.347-10.931 41.925-26.673 57.386-45.868 4.679 1.413 9.632 2.188 14.766 2.188 28.285 0 51.297-23.012 51.297-51.298.006-20.372-11.937-37.997-29.187-46.269zm12.898-198.827c-3.327 10.343-8.684 22.87-13.863 34.985-5.561 13.005-10.189 24.04-13.386 33.445l-25.757-25.757 56.222-56.222c-.288 2.758-1.124 7.047-3.216 13.549zm-398.098 80.504 29.308-29.308 42.685 42.685-8.931 8.931h-65.383c.475-1.435.963-2.867 1.477-4.291 1.865-5.168 1.966-11.229.844-18.017zm80.518 4.852-42.685-42.685 42.313-42.313 42.685 42.685zm50.837-33.787 43.058 43.057-8.186 8.186h-68.254l-8.931-8.931zm-50.431 51.243h-.812l.406-.406zm289.879 20.095c6.175 0 11.198 5.024 11.198 11.198v20.382c0 6.175-5.024 11.197-11.198 11.197h-377.349c-6.175 0-11.197-5.023-11.197-11.197v-20.382c0-6.175 5.023-11.198 11.197-11.198zm-179.341-28.281 43.057-43.057 42.313 42.313-8.93 8.93h-68.254zm93.489 8.186.406-.406.406.406zm82.424-3.223c.378 1.07.746 2.145 1.102 3.222h-65.666l-8.93-8.93 42.685-42.685 29.682 29.682c.277.277.577.516.89.728-1.459 7.132-1.509 13.045.237 17.983zm-57.871-123.005c33.143-5.585 66.859-9.119 84.539.087l-57.477 57.477-42.313-42.313zm-20.76 3.711-3.015 3.015-2.067-2.067c1.68-.315 3.376-.631 5.082-.948zm-3.015 20.064 42.313 42.313-42.685 42.685-42.313-42.313zm-93.217-9.947h25.212c13.994 0 32.048-2.925 51.56-6.497l7.92 7.92-42.685 42.685-43.057-43.057zm33.483 52.632-43.057 43.057-43.058-43.057 43.058-43.057zm-129.281-59.254c19.969 3.607 38.374 6.622 51.711 6.622h24.938l1.05 1.05-43.058 43.057-42.685-42.685zm-14.417-2.632-2.152 2.151-3.11-3.11c1.773.322 3.529.642 5.262.959zm-25.898-4.546 15.222 15.222-42.313 42.313-57.689-57.689c16.246-8.946 51.335-5.318 84.78.154zm-88.038 18.807c-.742-2.648-1.232-4.863-1.547-6.717l53.97 53.97-24.223 24.221c-3.365-10.453-8.408-22.082-13.792-34.487-5.614-12.936-11.419-26.313-14.408-36.987zm32.8 280.881c-17.205 0-31.203-13.998-31.203-31.203 0-9.887 4.628-18.706 11.825-24.425 3.842 19.993 11.225 38.741 21.485 55.556-.696.046-1.398.072-2.107.072zm66.486 140.538c.075-3.671.327-7.298.741-10.877l5.068 5.068zm25.587-3.082-2.728-2.728 3.417-3.417c-.3 2.028-.529 4.077-.689 6.145zm7.967-30.472-19.22 19.22-10.971-10.971c3.08-12.353 8.171-23.918 14.904-34.327l18.981 18.981c-1.333 2.303-2.567 4.67-3.694 7.097zm-6.774-34.614c8.802 2.901 17.919 5.102 27.292 6.519-3.605 3.326-6.939 6.941-9.958 10.815zm10.584 97.569v-3.656l1.828 1.828zm10.353-10.352-10.353-10.353v-4.824c0-10.826 2.252-21.13 6.298-30.486l3.812-3.811 24.858 24.858zm8.282-57.998 20.834-20.835c.832.012 1.663.032 2.498.032h6.065l10.462 10.462c-3.829 4.363-6.158 10.074-6.158 16.322 0 2.993.534 5.864 1.511 8.523l-10.354 10.354zm46.446-20.803h24.073l-3.513 3.513c-2.659-.977-5.53-1.51-8.523-1.51s-5.864.534-8.523 1.51zm-.688 26.783c0-7.017 5.708-12.724 12.724-12.724s12.724 5.708 12.724 12.724-5.708 12.724-12.724 12.724c-7.016.001-12.724-5.707-12.724-12.724zm12.724 65.987c-7.017 0-12.724-5.708-12.724-12.724s5.708-12.724 12.724-12.724 12.724 5.708 12.724 12.724c.001 7.016-5.707 12.724-12.724 12.724zm17.126-30.61c-4.453-4.266-10.486-6.896-17.126-6.896-6.639 0-12.672 2.63-17.125 6.895l-7.975-7.975 8.779-8.779c4.363 3.829 10.074 6.158 16.322 6.158s11.958-2.329 16.322-6.158l8.779 8.779zm6.145-26.854c.977-2.659 1.51-5.529 1.51-8.523 0-6.247-2.329-11.958-6.158-16.322l10.462-10.462h6.066c.835 0 1.665-.02 2.497-.032l20.835 20.835-24.858 24.858zm53.847 53.847-1.828-1.828 1.828-1.828zm0-20.706-10.353 10.354-24.615-24.615 24.858-24.858 3.813 3.813c4.046 9.355 6.297 19.659 6.297 30.484zm-16.708-70.343c9.372-1.417 18.49-3.618 27.292-6.519l-17.334 17.334c-3.019-3.874-6.353-7.489-9.958-10.815zm28.486 58.565c-.161-2.068-.389-4.116-.689-6.143l3.416 3.416zm25.589 3.086-5.812-5.812 5.071-5.071c.415 3.58.666 7.21.741 10.883zm-3.361-25.314-10.977 10.976-19.218-19.218c-1.127-2.427-2.361-4.795-3.694-7.098l18.983-18.983c6.733 10.408 11.826 21.971 14.906 34.323zm-75.972-54.536h-70.302c-81.679 0-148.129-66.451-148.129-148.129 0-1.031.016-2.058.038-3.083h366.484c.022 1.025.038 2.052.038 3.083 0 81.678-66.451 148.129-148.129 148.129zm145.816-60.691c-.708 0-1.408-.031-2.104-.078 10.255-16.807 17.635-35.548 21.478-55.532 7.194 5.719 11.828 14.524 11.828 24.407 0 17.205-13.996 31.203-31.202 31.203z"/></g><path d="m128.516 203.015c-5.415 0-9.882-4.309-10.039-9.758-.16-5.547 4.207-10.173 9.754-10.333 12.21-.351 23.5-.351 35.531 0 5.547.163 9.911 4.791 9.749 10.338-.163 5.547-4.787 9.934-10.338 9.749-11.633-.341-22.552-.341-34.363 0-.098.003-.197.004-.294.004z" fill="#fff"/><path d="m91.563 203.015h-10.603c-5.549 0-10.048-4.499-10.048-10.048s4.499-10.047 10.048-10.047h10.603c5.549 0 10.048 4.499 10.048 10.047 0 5.55-4.499 10.048-10.048 10.048z" fill="#fff"/></g></g></svg>