<svg id="Capa_1" enable-background="new 0 0 512 512" height="512" viewBox="0 0 512 512" width="512" xmlns="http://www.w3.org/2000/svg"><g><g><path d="m449.049 255.098c.569-5.45.866-10.982.866-16.584 0-87.169-70.664-157.833-157.833-157.833h-70.148c-87.169 0-157.833 70.664-157.833 157.833 0 5.602.297 11.134.866 16.584-17.15 4.968-29.693 20.779-29.693 39.53 0 22.732 18.428 41.16 41.16 41.16 6.478 0 12.603-1.501 18.055-4.166 17.572 24.012 41.77 42.86 69.895 53.884-19.688 21.991-31.666 51.029-31.666 82.868v33.601h248.579v-33.601c0-31.839-11.978-60.877-31.666-82.868 28.125-11.023 52.323-29.872 69.895-53.884 5.452 2.665 11.577 4.166 18.055 4.166 22.732 0 41.16-18.428 41.16-41.16.001-18.751-12.543-34.562-29.692-39.53z" fill="#c49a8b"/><path d="m133.728 452.46c-.666 5.211-1.01 10.521-1.01 15.913v33.602h248.579v-33.602c0-5.392-.344-10.702-1.01-15.913z" fill="#ccf3e2"/><path d="m176.505 451.04c-1.459 6.161-2.255 12.579-2.255 19.186v31.749h165.931v-31.749c0-6.607-.795-13.025-2.255-19.186z" fill="#a1e8c3"/><path d="m257.206 473.49c-5.221-.001-10.164-2.31-13.563-6.337-7.518-8.909-18.285-14.018-29.541-14.018-7.691 0-15.145 2.336-21.558 6.755-5.698 3.927-13.502 2.491-17.43-3.208-3.927-5.699-2.491-13.502 3.208-17.43 10.614-7.314 22.986-11.18 35.779-11.18 15.989 0 31.312 6.136 43.104 17.059 11.792-10.923 27.115-17.059 43.104-17.059 12.583 0 24.785 3.75 35.285 10.844 5.735 3.874 7.244 11.665 3.37 17.399-3.875 5.734-11.668 7.241-17.4 3.37-6.341-4.285-13.691-6.549-21.255-6.549-11.255 0-22.023 5.11-29.541 14.018-3.397 4.026-8.341 6.336-13.562 6.336z" fill="#ccf3e2"/><path d="m321.937 463.599c-1.721-.976-2.435-2.466-2.44-3.971-.175-.115-.348-.232-.523-.348h-12.384v1.933c0 11.195-9.076 20.272-20.273 20.272h-112.275v20.489h165.931v-27.704c-6.123-3.317-11.942-7.219-18.036-10.671z" fill="#85adc2"/><path d="m306.591 457.384c6.652 2.843 13.187 5.934 19.68 9.12h13.611c-.633-14.315-4.886-27.685-11.88-39.213h-26.168c3.066 8.26 4.758 17.279 4.758 26.729v3.364z" fill="#b1b6e1"/><path d="m221.933 397.474h59.174c9.129 7.732 16.337 17.996 20.725 29.817h26.168c-7.59-12.511-18.395-22.854-31.268-29.891 85.017-2.461 153.181-72.146 153.181-157.759v-.001c0-87.168-70.664-157.833-157.833-157.833h-20.24c70.669 0 127.957 57.289 127.957 127.957v10.867c0 70.669-57.288 127.957-127.957 127.957h-79.785c-67.628 0-122.994-52.467-127.635-118.914-.206 3.296-.322 6.617-.322 9.966v.001c.002 87.169 70.667 157.833 157.835 157.833z" fill="#af30fa" opacity=".3"/><path d="m475.513 235.928c-1.698-79.443-55.203-146.122-128.083-167.628.122-1.802.123-3.58-.017-5.322-2.681-33.259-48.048-56.739-101.331-52.443-49.965 4.027-89.147 31.048-91.623 61.822-66.62 24.999-114.361 88.601-115.963 163.571 0 0 .317 21.338 3.734 31.82l22.898-18.534c41.418 13.37 94.917 2.236 138.568-33.018 24.798-20.028 42.631-44.805 52.633-70.409.427-.059.853-.117 1.279-.181 9.989 25.668 27.848 50.515 52.705 70.59 43.628 35.235 97.093 46.376 138.502 33.039l20.759 16.137c6.382-10.635 5.939-29.444 5.939-29.444z" fill="#e8a284"/><path d="m359.218 92.405c-1.071-14.196-12.92-25.383-27.39-25.383-6.246 0-12.003 2.088-16.618 5.598l-18.115-6.937c-2.083-20.616-19.49-36.707-40.655-36.707s-38.572 16.091-40.655 36.707l-18.115 6.937c-4.615-3.51-10.371-5.598-16.618-5.598-14.158 0-25.812 10.71-27.31 24.47-18.347 12.608-29.758 33.621-29.758 56.555v3.522c85.938-36.997 174.168-38.154 264.912 0v-.128c.001-23.646-11.316-45.385-29.678-59.036z" fill="#fff"/><g fill="#faf1a9"><ellipse cx="256.441" cy="76.61" rx="25.002" ry="31.865"/><path d="m196.262 95.139c3.144 9.056-.26 18.464-7.605 21.014-7.344 2.55-15.847-2.724-18.991-11.78s.261-18.464 7.605-21.014 15.847 2.724 18.991 11.78z"/><ellipse cx="329.99" cy="99.568" rx="17.357" ry="14.077" transform="matrix(.328 -.945 .945 .328 127.698 378.648)"/></g><path d="m458.584 377.613 8.235 23.157c.353.991 1.051 1.777 1.931 2.174l20.574 9.269c2.907 1.309 2.907 5.941 0 7.25l-20.574 9.269c-.881.397-1.579 1.183-1.931 2.174l-8.235 23.157c-1.163 3.272-5.278 3.272-6.442 0l-8.235-23.157c-.353-.991-1.051-1.777-1.932-2.174l-20.574-9.269c-2.907-1.31-2.907-5.941 0-7.25l20.574-9.269c.881-.397 1.579-1.183 1.932-2.174l8.235-23.157c1.164-3.272 5.278-3.272 6.442 0z" fill="#ccf3e2"/><path d="m88.352 4.917 6.109 17.177c.262.736.779 1.318 1.433 1.613l15.261 6.876c2.156.971 2.156 4.407 0 5.378l-15.261 6.876c-.653.295-1.171.877-1.433 1.613l-6.109 17.177c-.863 2.427-3.915 2.427-4.778 0l-6.109-17.177c-.261-.736-.779-1.318-1.433-1.613l-15.261-6.876c-2.156-.972-2.156-4.407 0-5.378l15.261-6.876c.653-.295 1.171-.877 1.433-1.613l6.109-17.177c.863-2.426 3.915-2.426 4.778 0z" fill="#ccf3e2"/><circle cx="28.253" cy="92.035" fill="#a1e8c3" r="7.757"/></g><g><g fill="#3c122c"><path d="m480.269 266.437c5.507-12.528 5.314-28.746 5.267-30.723-1.06-49.578-21.168-96.02-56.622-130.769-20.594-20.185-45.038-35.098-71.637-44.075-2.051-19.114-15.118-35.802-36.947-47.1-20.784-10.758-47.44-15.456-75.053-13.229-27.616 2.225-53.175 11.132-71.967 25.08-15.257 11.323-24.817 24.988-27.9 39.473-22.219 9.139-42.679 22.563-60.316 39.851-35.453 34.75-55.561 81.192-56.621 130.769-.003.121-.003.242-.002.363.033 2.219.409 21.103 3.676 32.929-4.382 7.54-6.899 16.29-6.899 25.622 0 28.223 22.962 51.185 51.186 51.185 5.119 0 10.06-.768 14.725-2.177 15.429 19.156 34.978 34.858 57.282 45.766-16.181 22.181-25.748 49.476-25.748 78.971v33.601c0 5.537 4.489 10.026 10.026 10.026s10.026-4.489 10.026-10.026v-33.601c0-3.335.152-6.634.433-9.897h25.579c-.478 3.728-.729 7.526-.729 11.383v35.92c0 3.322 2.693 6.015 6.015 6.015s6.015-2.693 6.015-6.015v-30.617c.239-.114.474-.241.702-.391 7.862-5.182 21.754-10.543 31.393-10.543 10.438 0 20.382 3.265 28.756 9.441 4.878 3.598 10.592 5.397 16.307 5.397 5.715-.001 11.431-1.799 16.307-5.397 8.374-6.176 18.317-9.441 28.756-9.441 9.966 0 23.005 4.95 30.213 9.608.466.302.96.524 1.466.682v31.26c0 3.322 2.693 6.015 6.015 6.015s6.015-2.693 6.015-6.015v-35.92c0-3.857-.251-7.654-.729-11.383h25.58c.281 3.263.432 6.563.432 9.897v33.601c0 5.537 4.489 10.026 10.026 10.026s10.026-4.489 10.026-10.026v-33.601c0-29.493-9.567-56.789-25.745-78.967 22.298-10.907 41.835-26.614 57.261-45.766 4.67 1.412 9.618 2.173 14.743 2.173 28.224 0 51.186-22.962 51.186-51.185 0-10.413-3.135-20.101-8.499-28.19zm-323.119-169.988c1.444-.993 2.383-2.565 2.573-4.307 1.187-10.892 10.357-19.105 21.33-19.105 4.729 0 9.216 1.512 12.976 4.371 1.657 1.261 3.848 1.572 5.793.83l18.115-6.938c2.122-.813 3.605-2.752 3.834-5.013 1.802-17.842 16.707-31.297 34.669-31.297s32.866 13.454 34.67 31.297c.229 2.261 1.711 4.2 3.834 5.013l18.115 6.938c1.943.742 4.134.43 5.792-.83 3.761-2.859 8.248-4.371 12.976-4.371 11.156 0 20.553 8.706 21.392 19.82.131 1.739 1.01 3.335 2.409 4.375 14.618 10.867 24.19 27.296 26.634 45.147-42.625-16.736-85.493-25.171-127.643-25.007-41.493.136-83.286 8.567-124.368 25.075 1.656-18.479 11.448-35.38 26.899-45.998zm28.109-54.728c15.818-11.739 37.705-19.266 61.629-21.194 3.865-.311 7.691-.463 11.463-.463 36.825 0 68.302 14.425 76.843 34.828-11.668-2.406-23.638-3.717-35.786-3.885-7.258-16.671-23.818-28.047-42.967-28.047-19.155 0-35.719 11.382-42.973 28.062-14.669.289-29.073 2.25-42.992 5.786 3.498-5.296 8.457-10.392 14.783-15.087zm-36.546 44.069c-.2.751-.383 1.51-.532 2.282-18.967 14.046-30.211 36.268-30.211 59.974-.95 5.289 2.334 11.423 8.394 9.046 85.293-36.719 172.837-36.714 260.202.021 1.855.779 3.98.581 5.66-.535 1.678-1.115 2.687-2.996 2.687-5.011v-.128c0-24.166-11.175-47.244-30.022-62.26-.217-1.351-.522-2.672-.897-3.963 58.388 25.723 100.06 83.688 101.497 150.933.067 3.197-.199 7.948-.957 12.605l-9.564-7.435c-2.617-2.033-6.073-2.643-9.227-1.627-39.854 12.835-89.333.844-129.13-31.296-23.2-18.738-40.568-42.198-50.226-67.845-1.471-3.907-5.209-6.492-9.382-6.492-4.174 0-7.912 2.587-9.382 6.493-9.656 25.646-27.024 49.106-50.225 67.844-39.821 32.16-89.322 44.145-129.19 31.276-3.222-1.039-6.754-.383-9.387 1.749l-9.58 7.753c-.467-5.362-.669-10.467-.716-13.218 1.496-66.66 42.536-124.184 100.188-150.166zm-72.279 239.972c-17.168 0-31.135-13.966-31.135-31.134 0-9.864 4.616-18.665 11.797-24.371 3.833 19.948 11.207 38.65 21.443 55.426-.697.047-1.397.079-2.105.079zm68.431 120.683c3.572-18.296 11.519-35.044 22.712-49.105 9.373 3.217 19.121 5.617 29.154 7.134-12.104 11.166-21.109 25.638-25.569 41.97h-26.297zm147.217-40.072c2.694 0 5.374-.066 8.037-.191 6.646 4.512 12.559 10.027 17.502 16.338-4.973-1.299-10.123-1.969-15.342-1.969-17.188 0-33.582 7.326-45.063 20.117-11.481-12.792-27.875-20.117-45.063-20.117-5.407 0-10.733.721-15.866 2.111 4.965-6.37 10.913-11.934 17.609-16.48 2.664.126 5.344.191 8.039.191zm10.197 45.824c-13.027 0-25.44 4.077-35.897 11.791-5.483 4.043-12.849 4.044-18.332-.001-10.458-7.713-22.871-11.79-35.897-11.79-9.968 0-22.232 4.024-31.581 8.816.837-7.277 2.687-14.251 5.418-20.77 7.804-5.01 16.835-7.661 26.164-7.661 13.911 0 27.173 5.99 36.387 16.434 2.2 2.493 5.362 3.922 8.676 3.922s6.477-1.429 8.676-3.922c9.214-10.444 22.476-16.434 36.387-16.434 9.093 0 17.918 2.525 25.586 7.296 2.754 6.479 4.649 13.408 5.529 20.648-8.724-4.427-20.631-8.329-31.116-8.329zm66.875-5.752h-26.302c-4.46-16.333-13.466-30.804-25.57-41.971 10.032-1.517 19.775-3.923 29.147-7.139 11.196 14.062 19.152 30.81 22.725 49.11zm-77.072-60.123h-70.148c-73.385 0-134.438-53.761-145.871-123.966 8.27 1.615 16.781 2.414 25.43 2.414 15.256-.001 30.923-2.481 46.383-7.278 1.131.136 2.312-.044 3.405-.589.052-.026 5.32-2.617 11.564-2.617s11.511 2.591 11.539 2.604c.876.447 1.81.659 2.73.659 2.189 0 4.299-1.198 5.363-3.282 1.51-2.959.336-6.582-2.623-8.092-.227-.117-1.002-.496-2.188-.974 11.208-5.831 22.072-12.92 32.33-21.204 19.702-15.912 35.679-34.95 47.01-55.863 11.331 20.914 27.307 39.952 47.009 55.863 10.259 8.286 21.124 15.375 32.333 21.206-1.184.477-1.957.856-2.184.972-2.949 1.506-4.114 5.105-2.622 8.061 1.492 2.958 5.108 4.144 8.067 2.667.053-.026 5.32-2.617 11.564-2.617s11.512 2.591 11.54 2.604c.875.447 1.809.659 2.73.659.24 0 .479-.021.716-.049 15.454 4.792 31.114 7.27 46.365 7.268 8.646 0 17.161-.801 25.431-2.415-11.435 70.206-72.487 123.969-145.873 123.969zm145.499-60.56c-.711 0-1.415-.032-2.114-.08 10.237-16.78 17.61-35.487 21.443-55.439 7.188 5.707 11.806 14.516 11.806 24.385 0 17.168-13.967 31.134-31.135 31.134z"/><path d="m274.627 297.668c-3.322 0-6.015 2.693-6.015 6.015 0 6.399-5.206 11.605-11.604 11.605-6.399 0-11.604-5.206-11.604-11.605 0-3.322-2.693-6.015-6.015-6.015s-6.015 2.693-6.015 6.015c0 13.032 10.603 23.635 23.635 23.635 13.033 0 23.635-10.603 23.635-23.635-.002-3.322-2.695-6.015-6.017-6.015z"/><path d="m256.441 114.49c17.103 0 31.018-16.993 31.018-37.88s-13.914-37.88-31.018-37.88c-17.103 0-31.018 16.993-31.018 37.88s13.915 37.88 31.018 37.88zm0-63.729c10.469 0 18.987 11.596 18.987 25.849s-8.518 25.849-18.987 25.849c-10.47 0-18.987-11.596-18.987-25.849s8.517-25.849 18.987-25.849z"/><path d="m184.892 122.8c1.925 0 3.856-.311 5.738-.964 10.466-3.634 15.541-16.495 11.314-28.67s-16.181-19.125-26.647-15.49c-10.466 3.634-15.541 16.495-11.314 28.67 3.468 9.986 12.131 16.454 20.909 16.454zm-5.648-33.759c.603-.209 1.227-.308 1.862-.308 3.714 0 7.751 3.42 9.473 8.379 2.016 5.808.233 11.926-3.895 13.359-4.13 1.425-9.319-2.264-11.335-8.07-2.017-5.808-.233-11.926 3.895-13.36z"/><path d="m322.324 121.648c1.883.654 3.812.964 5.738.964 8.777 0 17.442-6.47 20.908-16.454 4.228-12.174-.848-25.036-11.314-28.67-10.468-3.638-22.421 3.316-26.646 15.49-4.227 12.174.848 25.036 11.314 28.67zm.051-24.724c1.722-4.96 5.76-8.38 9.472-8.38.635 0 1.26.1 1.862.309 4.129 1.433 5.913 7.551 3.896 13.359-2.017 5.807-7.208 9.502-11.335 8.07-4.128-1.432-5.912-7.55-3.895-13.358z"/><path d="m422.888 224.194c3.322 0 6.015-2.693 6.015-6.015v-11.36c0-3.322-2.693-6.015-6.015-6.015s-6.015 2.693-6.015 6.015v11.36c0 3.322 2.693 6.015 6.015 6.015z"/><path d="m385.384 211.622c3.322 0 6.015-2.693 6.015-6.015v-11.359c0-3.322-2.693-6.015-6.015-6.015s-6.015 2.693-6.015 6.015v11.359c0 3.321 2.693 6.015 6.015 6.015z"/><path d="m162.844 286.064c-9.731 0-17.62 7.888-17.62 17.619s7.888 17.62 17.62 17.62c9.731 0 17.62-7.889 17.62-17.62s-7.889-17.619-17.62-17.619z"/><path d="m351.171 286.064c-9.731 0-17.62 7.888-17.62 17.619s7.889 17.62 17.62 17.62 17.62-7.889 17.62-17.62-7.888-17.619-17.62-17.619z"/></g><path d="m120.837 230.71c-4.732 0-8.943-3.365-9.844-8.186-1.017-5.443 2.571-10.68 8.014-11.697 3.204-.598 6.42-1.333 9.558-2.18 5.345-1.446 10.849 1.716 12.295 7.062 1.445 5.345-1.716 10.849-7.061 12.294-3.648.986-7.385 1.839-11.108 2.535-.623.116-1.243.172-1.854.172z" fill="#fff"/><path d="m161.838 215.633c-3.455 0-6.817-1.788-8.678-4.991-2.781-4.787-1.156-10.923 3.632-13.705 10.992-6.386 20.47-14.366 28.171-23.716 3.52-4.275 9.837-4.886 14.112-1.365 4.274 3.52 4.885 9.839 1.365 14.112-9.221 11.196-20.517 20.719-33.575 28.306-1.584.92-3.318 1.359-5.027 1.359z" fill="#fff"/></g></g></svg>