<svg id="Capa_1" enable-background="new 0 0 512 512" height="512" viewBox="0 0 512 512" width="512" xmlns="http://www.w3.org/2000/svg"><g><g><path d="m434.622 429.136h-357.455c-17.269 0-31.268-13.999-31.268-31.268v-167.174c0-96.816 78.485-175.301 175.301-175.301h69.39c96.816 0 175.301 78.485 175.301 175.301v167.174c-.001 17.269-14 31.268-31.269 31.268z" fill="#9781dd"/><path d="m380.213 501.594v-33.609c0-68.659-55.659-124.319-124.319-124.319-68.659 0-124.319 55.659-124.319 124.319v33.609z" fill="#c49a8b"/><path d="m219.418 395.291c-27.541 13.502-46.508 41.805-46.508 74.546v31.756h46.508z" fill="#a07575"/><path d="m293.54 395.89v105.704h45.34v-31.756c-.001-32.274-18.437-60.224-45.34-73.948z" fill="#a07575"/><path d="m264.603 387.652c24.003 10.796 40.887 36.418 40.887 66.319v7.194c0 11.199-9.079 20.278-20.278 20.278h-112.303v20.494h165.97v-31.757c0-42.89-32.539-78.175-74.276-82.528z" fill="#925873"/><path d="m293.843 479.493c-2.622 1.237-5.54 1.949-8.631 1.949h-67.879v20.494h76.51z" fill="#b2748a"/><path d="m447.981 254.66c.569-5.452.866-10.985.866-16.588 0-4.063-.154-8.089-.456-12.074h-384.993c-.301 3.985-.456 8.012-.456 12.074 0 5.603.297 11.136.866 16.588-17.154 4.968-29.7 20.783-29.7 39.538 0 22.737 18.432 41.17 41.17 41.17 6.479 0 12.606-1.501 18.059-4.168 28.721 39.246 75.117 64.741 127.475 64.741h70.165c52.358 0 98.754-25.495 127.475-64.741 5.453 2.667 11.58 4.168 18.059 4.168 22.738 0 41.17-18.433 41.17-41.17 0-18.755-12.546-34.57-29.7-39.538z" fill="#c49a8b"/><path d="m398.567 225.997c-3.25 67.792-59.238 121.757-127.834 121.757h-79.803c-67.644 0-123.023-52.479-127.665-118.942-.206 3.298-.322 6.619-.322 9.969 0 87.189 70.681 157.87 157.87 157.87h70.165c87.189 0 157.87-70.681 157.87-157.87 0-4.305-.179-8.567-.517-12.784z" fill="#b2748a"/><ellipse cx="427.163" cy="85.369" fill="#e8a284" rx="31.549" ry="75.341"/><path d="m468.404 226.23h-425.02v-49.532c0-16.159 13.099-29.258 29.258-29.258h366.504c16.159 0 29.258 13.099 29.258 29.258z" fill="#a1e8c3"/><g fill="#f6e06e"><path d="m118.414 216.698c-20.15-21.833-40.3-43.667-60.45-65.5-8.689 5.18-14.579 15.193-14.579 26.698v48.335h66.232z"/><path d="m243.327 211.101-52.741-57.148c-22.234 24.092-44.469 48.185-66.703 72.277h117.547l5.945-6.442c-3.579-.187-6.684-4.972-4.048-8.687z"/><path d="m255.695 226.23h129.938c-21.656-23.466-43.313-46.932-64.969-70.398z"/><path d="m458.621 154.813c-20.772 22.508-41.544 45.016-62.317 67.523l.336.365c1.014 1.098 1.456 2.33 1.482 3.53h70.282v-48.335c0-9.232-3.796-17.498-9.783-23.083z"/></g><path d="m483.885 449.547 6.11 17.181c.262.736.78 1.318 1.433 1.613l15.265 6.877c2.157.972 2.157 4.408 0 5.379l-15.265 6.877c-.654.294-1.172.877-1.433 1.613l-6.11 17.181c-.863 2.427-3.916 2.427-4.779 0l-6.11-17.181c-.262-.736-.779-1.319-1.433-1.613l-15.265-6.877c-2.157-.972-2.157-4.408 0-5.379l15.265-6.877c.654-.295 1.172-.878 1.433-1.613l6.11-17.181c.863-2.428 3.916-2.428 4.779 0z" fill="#ccf3e2"/><ellipse cx="92.682" cy="28.642" fill="#a1e8c3" rx="17.987" ry="17.987" transform="matrix(.466 -.885 .885 .466 24.176 97.325)"/><path d="m32.894 56.244 6.11 17.181c.262.736.78 1.319 1.433 1.613l15.265 6.877c2.157.972 2.157 4.408 0 5.379l-15.265 6.877c-.653.295-1.171.878-1.433 1.613l-6.11 17.181c-.863 2.427-3.916 2.427-4.779 0l-6.11-17.181c-.262-.736-.78-1.318-1.433-1.613l-15.265-6.876c-2.157-.972-2.157-4.408 0-5.379l15.265-6.877c.654-.295 1.171-.878 1.433-1.613l6.11-17.181c.863-2.428 3.916-2.428 4.779-.001z" fill="#ccf3e2"/></g><g><g fill="#3c122c"><path d="m487.709 294.198c0-12.395-4.433-23.768-11.791-32.633v-28.709c1.56-1.768 2.514-4.083 2.514-6.626v-49.532c0-15.333-8.834-28.633-21.675-35.102 7.215-15.763 11.983-36.081 11.983-56.228 0-26.634-8.437-47.604-13.466-57.733-5.124-10.321-15.589-27.635-28.111-27.635-12.521 0-22.987 17.314-28.111 27.636-4.156 8.371-10.635 24.151-12.76 44.408-27.951-16.926-60.708-26.678-95.702-26.678h-69.39c-69.077 0-129.433 37.997-161.304 94.181-15.423 5.306-26.539 19.95-26.539 37.151v49.532c0 2.543.954 4.858 2.515 6.626v28.711c-7.356 8.865-11.791 20.237-11.791 32.63 0 12.397 4.431 23.778 11.791 32.646v71.024c0 22.771 18.525 41.296 41.296 41.296h47.503c-2.039 9.288-3.122 18.929-3.122 28.82v33.609c0 5.538 4.49 10.028 10.028 10.028s10.028-4.49 10.028-10.028v-33.609c0-26.833 9.298-51.533 24.837-71.055 9.376 3.218 19.121 5.63 29.158 7.148-17.636 16.273-28.706 39.561-28.706 65.394v35.928c0 3.323 2.694 6.017 6.017 6.017s6.017-2.694 6.017-6.017v-35.928c0-26.474 13.449-49.846 33.862-63.697.165.008.332.012.497.019v99.927c0 3.323 2.693 6.017 6.017 6.017 3.323 0 6.017-2.694 6.017-6.017v-99.75h61.131v100.014c0 3.323 2.694 6.017 6.017 6.017s6.017-2.694 6.017-6.017v-100.19c.172-.007.346-.012.518-.02 20.413 13.85 33.861 37.222 33.861 63.697v35.928c0 3.323 2.694 6.017 6.017 6.017s6.017-2.694 6.017-6.017v-35.928c0-25.832-11.07-49.121-28.706-65.394 10.033-1.517 19.776-3.928 29.148-7.144 15.542 19.522 24.847 44.217 24.847 71.052v33.609c0 5.538 4.49 10.028 10.028 10.028s10.028-4.49 10.028-10.028v-33.609c0-9.891-1.082-19.533-3.121-28.82h47.503c22.771 0 41.296-18.525 41.296-41.296v-71.024c7.355-8.868 11.787-20.249 11.787-32.646zm-196.732 91.716h-70.165c-81.52 0-147.842-66.322-147.842-147.842 0-.607.025-1.208.033-1.813h365.784c.008.605.033 1.207.033 1.813-.001 81.52-66.323 147.842-147.843 147.842zm-246.841-91.716c0-9.867 4.62-18.667 11.802-24.377 3.834 19.951 11.201 38.661 21.439 55.441-.695.047-1.393.078-2.1.078-17.171 0-31.141-13.97-31.141-31.142zm395.011-136.73c.394 0 .779.036 1.168.059-.074.075-.152.142-.224.219l-49.866 54.032-50.122-54.31zm-385.735 19.23c0-3.11.759-6.041 2.076-8.643l44.434 48.147h-46.51zm313.605 39.504h-92.332l46.166-50.024zm-113.374-6.772-47.954-51.961h95.908zm-21.041 6.772h-91.465l45.732-49.554zm-112.073-7.242-47.521-51.492h95.041zm335.32 60.869c7.182 5.707 11.804 14.503 11.804 24.369 0 17.172-13.97 31.142-31.142 31.142-.707 0-1.406-.029-2.101-.076 10.237-16.778 17.604-35.486 21.439-55.435zm2.528-53.627h-44.942l41.395-44.854c.752-.815 1.335-1.722 1.767-2.68 1.131 2.448 1.78 5.161 1.78 8.03zm-42.948-176.293c4.412-9.797 8.987-15.863 11.734-18.608 2.747 2.745 7.322 8.811 11.734 18.608 6.311 14.015 9.787 30.16 9.787 45.46 0 22.076-6.113 40.407-12.251 52.043h-18.539c-6.138-11.637-12.251-29.968-12.251-52.043-.001-15.301 3.475-31.446 9.786-45.46zm-194.23 25.513h69.39c35.523 0 68.458 11.272 95.429 30.42 1.172 14.855 4.729 29.345 9.744 41.571h-310.9c29.81-43.435 79.793-71.991 136.337-71.991zm-90.438 353.686h-53.594c-11.712 0-21.24-9.528-21.24-21.24v-56.281c5.974 2.448 12.505 3.809 19.351 3.809 5.125 0 10.073-.765 14.744-2.176 15.432 19.157 34.973 34.868 57.278 45.777-6.727 9.222-12.311 19.329-16.539 30.111zm303.861 0h-53.594c-4.228-10.783-9.807-20.891-16.535-30.114 22.31-10.911 41.853-26.627 57.286-45.79 4.669 1.409 9.608 2.192 14.731 2.192 6.846 0 13.377-1.361 19.351-3.809v56.281c.001 11.712-9.527 21.24-21.239 21.24z"/><path d="m161.708 285.632c-9.734 0-17.624 7.89-17.624 17.623 0 9.734 7.891 17.624 17.624 17.624s17.624-7.891 17.624-17.624-7.89-17.623-17.624-17.623z"/><path d="m350.081 285.632c-9.734 0-17.624 7.89-17.624 17.623 0 9.734 7.89 17.624 17.624 17.624 9.733 0 17.624-7.891 17.624-17.624-.001-9.733-7.891-17.623-17.624-17.623z"/><path d="m178.721 245.733c-.786-.401-7.943-3.92-17.013-3.92s-16.226 3.519-17.013 3.92c-2.96 1.511-4.135 5.134-2.624 8.094 1.511 2.959 5.134 4.135 8.094 2.624.051-.026 5.279-2.605 11.542-2.605 6.246 0 11.515 2.591 11.543 2.605.876.447 1.81.659 2.73.659 2.189 0 4.301-1.199 5.364-3.283 1.512-2.959.337-6.583-2.623-8.094z"/><path d="m367.093 245.733c-.786-.401-7.943-3.92-17.013-3.92s-16.226 3.519-17.013 3.92c-2.96 1.511-4.135 5.134-2.624 8.094 1.51 2.959 5.133 4.135 8.094 2.624.051-.026 5.279-2.605 11.543-2.605 6.245 0 11.514 2.591 11.542 2.605.876.447 1.81.659 2.73.659 2.189 0 4.301-1.199 5.364-3.283 1.512-2.959.337-6.583-2.623-8.094z"/><path d="m273.518 297.239c-3.323 0-6.017 2.694-6.017 6.017 0 6.4-5.207 11.607-11.607 11.607s-11.607-5.207-11.607-11.607c0-3.323-2.694-6.017-6.017-6.017s-6.017 2.694-6.017 6.017c0 13.035 10.605 23.641 23.641 23.641s23.641-10.605 23.641-23.641c0-3.323-2.694-6.017-6.017-6.017z"/></g><path d="m185.102 110.067c-4.386 0-8.414-2.9-9.652-7.331-1.491-5.334 1.624-10.866 6.958-12.357 13.485-3.769 27.172-5.549 40.654-5.284 5.537.108 9.938 4.685 9.83 10.222s-4.669 9.942-10.222 9.83c-11.528-.222-23.263 1.305-34.864 4.547-.902.252-1.811.373-2.704.373z" fill="#fff"/><path d="m154.467 122.655c-3.53 0-6.953-1.867-8.783-5.174-2.682-4.845-.928-10.948 3.918-13.63 1.363-.754 2.755-1.497 4.137-2.207 4.925-2.532 10.971-.592 13.503 4.335 2.531 4.926.591 10.972-4.335 13.503-1.201.617-2.41 1.262-3.594 1.917-1.538.852-3.203 1.256-4.846 1.256z" fill="#fff"/></g></g></svg>