<svg id="Capa_1" enable-background="new 0 0 512 512" height="512" viewBox="0 0 512 512" width="512" xmlns="http://www.w3.org/2000/svg"><g><g><path d="m380.925 495.767v-34.102c0-69.666-56.475-126.142-126.142-126.142-69.666 0-126.142 56.476-126.142 126.142v34.102z" fill="#a07575"/><path d="m338.985 495.767v-32.222c0-46.503-37.698-84.202-84.202-84.202-46.503 0-84.202 37.699-84.202 84.202v32.222z" fill="#d789b9"/><path d="m331.784 428.232h-154.335l-7.114 39.952h167.469z" fill="#fff"/><path d="m263.618 379.883c24.355 10.954 41.487 36.952 41.487 67.291v7.3c0 11.363-9.212 20.575-20.575 20.575h-113.949v20.794h168.404v-32.221c0-43.519-33.017-79.321-75.367-83.739z" fill="#c668b9"/><path d="m305.105 454.474c0 4.638-1.553 8.903-4.142 12.344h38.022v-3.196c0-12.286-2.634-23.956-7.364-34.479h-28.605c1.357 5.768 2.09 11.806 2.09 18.032v7.299z" fill="#e1bdfc"/><path d="m449.686 245.212c.578-5.532.879-11.146.879-16.832 0-88.468-71.717-160.185-160.185-160.185h-71.194c-88.468 0-160.185 71.717-160.185 160.185 0 5.685.301 11.299.879 16.832-17.406 5.041-30.135 21.088-30.135 40.118 0 23.071 18.703 41.774 41.774 41.774 6.574 0 12.791-1.523 18.324-4.229 29.142 39.822 76.218 65.69 129.344 65.69h71.194c53.126 0 100.202-25.869 129.344-65.69 5.533 2.706 11.75 4.229 18.324 4.229 23.071 0 41.774-18.703 41.774-41.774-.002-19.03-12.732-35.077-30.137-40.118z" fill="#a07575"/><path d="m58.071 164.633h388.987v43.328h-388.987z" fill="#d789b9"/><path d="m399.702 206.425v3.111c0 71.722-58.142 129.864-129.864 129.864h-80.973c-68.636 0-124.827-53.248-129.537-120.687-.209 3.346-.327 6.716-.327 10.115v.001c0 88.467 71.717 160.185 160.185 160.185h71.194c88.468 0 160.185-71.717 160.185-160.185v-.001c0-7.605-.542-15.082-1.567-22.404h-49.296z" fill="#925873"/><path d="m399.702 209.373h49.677c-1.929-15.902-6.177-31.088-12.413-45.204h-41.863c2.992 10.939 4.598 22.451 4.598 34.339v10.865z" fill="#c668b9"/><path d="m445.809 79.569h-29.097c-3.322-35.471-38.75-63.336-161.929-63.336s-158.608 27.865-161.929 63.336h-29.281c-12.882 0-22.783 9.226-20.978 19.549l10.568 53.261c1.401 7.059 8.928 12.251 17.763 12.251h368.286c8.911 0 16.48-5.279 17.794-12.412l9.759-52.974c1.909-10.363-8.01-19.675-20.956-19.675z" fill="#9781dd"/><path d="m445.809 79.569h-67.286v4.334c7.533 1.779 12.555 6.876 11.297 12.431l-7.99 35.283c-1.076 4.751-7.272 8.267-14.567 8.267h-301.513c-7.233 0-13.396-3.457-14.542-8.159l-.983-4.032h-1.96l4.898 24.686c1.401 7.059 8.928 12.251 17.763 12.251h368.286c8.911 0 16.48-5.279 17.794-12.412l9.759-52.974c1.909-10.363-8.01-19.675-20.956-19.675z" fill="#8962de"/><path d="m203.687 265.146c0 36.581-22.459 66.237-50.164 66.237s-50.164-29.655-50.164-66.237c0-36.581 100.328-36.581 100.328 0z" fill="#c2b2eb"/><path d="m39.949 357.988 8.358 23.502c.358 1.006 1.066 1.804 1.96 2.207l20.88 9.407c2.95 1.329 2.95 6.029 0 7.358l-20.88 9.408c-.894.403-1.603 1.2-1.96 2.206l-8.358 23.502c-1.181 3.32-5.357 3.32-6.537 0l-8.358-23.502c-.358-1.006-1.066-1.804-1.96-2.206l-20.88-9.408c-2.95-1.329-2.95-6.029 0-7.358l20.88-9.407c.894-.403 1.603-1.2 1.96-2.207l8.358-23.502c1.18-3.32 5.356-3.32 6.537 0z" fill="#e8c2d8"/><path d="m447.801 435.401 6.2 17.433c.265.747.791 1.338 1.454 1.637l15.489 6.978c2.188.986 2.188 4.472 0 5.458l-15.489 6.978c-.663.299-1.189.89-1.454 1.637l-6.2 17.433c-.876 2.463-3.973 2.463-4.849 0l-6.2-17.433c-.266-.746-.791-1.338-1.454-1.637l-15.489-6.978c-2.188-.986-2.188-4.472 0-5.458l15.489-6.978c.663-.299 1.189-.89 1.454-1.637l6.2-17.433c.876-2.463 3.973-2.463 4.849 0z" fill="#e8c2d8"/><g fill="#d789b9"><ellipse cx="493.749" cy="396.602" rx="18.251" ry="18.251" transform="matrix(.217 -.976 .976 .217 -.346 792.773)"/><circle cx="470.347" cy="34.191" r="7.873"/><circle cx="80.49" cy="460.473" r="7.873"/></g></g><g><g fill="#3c122c"><path d="m460.432 238.481c.196-3.343.308-6.709.308-10.1 0-19.587-3.33-38.409-9.441-55.939 8.153-3.374 14.187-10.093 15.714-18.381l9.759-52.974c1.34-7.272-.634-14.535-5.56-20.449-5.862-7.04-15.358-11.243-25.403-11.243h-20.527c-4.377-17.785-16.44-31.856-36.043-41.947-27.959-14.394-71.94-21.39-134.456-21.39-62.517 0-106.498 6.996-134.456 21.389-19.603 10.091-31.667 24.162-36.043 41.947h-20.711c-9.991 0-19.457 4.167-25.322 11.146-4.929 5.865-6.946 13.085-5.679 20.33.013.076.027.152.043.228l10.568 53.261c1.58 7.963 7.379 14.444 15.173 17.847-6.166 17.596-9.53 36.498-9.53 56.175 0 3.391.111 6.757.308 10.101-17.467 8.376-29.564 26.219-29.564 46.849 0 28.645 23.304 51.949 51.949 51.949 5.2 0 10.218-.78 14.957-2.211 15.656 19.436 35.48 35.377 58.109 46.445-16.418 22.511-26.119 50.219-26.119 80.151v34.102c0 5.62 4.555 10.175 10.175 10.175s10.175-4.555 10.175-10.175v-34.102c0-27.228 9.44-52.286 25.209-72.094 9.511 3.264 19.398 5.71 29.579 7.25-17.896 16.511-29.129 40.141-29.129 66.352v36.455c0 3.371 2.733 6.105 6.105 6.105 3.371 0 6.105-2.734 6.105-6.105v-25.337h156.195v25.337c0 3.371 2.734 6.105 6.105 6.105s6.105-2.734 6.105-6.105v-36.455c0-26.212-11.233-49.841-29.129-66.352 10.182-1.54 20.071-3.987 29.583-7.251 15.768 19.808 25.206 44.869 25.206 72.095v34.102c0 5.62 4.555 10.175 10.175 10.175s10.175-4.555 10.175-10.175v-34.102c0-29.932-9.7-57.64-26.119-80.151 22.633-11.071 42.46-27.014 58.117-46.454 4.738 1.431 9.751 2.219 14.95 2.219 28.645 0 51.949-23.304 51.949-51.949-.001-20.63-12.098-38.473-29.565-46.849zm-306.909 9.404c11.463 0 22.411 2.126 30.039 5.835 6.602 3.21 9.95 7.054 9.95 11.427 0 30.912-17.939 56.062-39.989 56.062s-39.989-25.149-39.989-56.062c0-9.518 17.939-17.262 39.989-17.262zm37.59-13.09c-10.284-4.685-23.555-7.26-37.59-7.26-14.652 0-28.48 2.8-38.936 7.883-13.801 6.71-21.402 17.267-21.402 29.728 0 7.917.957 15.656 2.773 23.013-5.931-1.198-11.592-3.177-16.8-5.987-6.44-16.707-9.98-34.842-9.98-53.792 0-4.512.208-8.975.601-13.386h126.75c-.856 6.716-2.699 13.37-5.416 19.801zm-119.743-32.011c1.672-9.673 4.277-19.03 7.713-27.979h351.399c3.435 8.949 6.038 18.306 7.71 27.979zm58.271-157.244c24.661-12.696 66.766-19.132 125.142-19.132s100.481 6.437 125.142 19.132c12.267 6.315 20.118 14.091 23.987 23.854h-298.259c3.87-9.763 11.72-17.539 23.988-23.854zm-75.811 48.092c1.579-1.88 4.968-3.888 9.742-3.888h382.236c4.796 0 8.189 2.022 9.764 3.914 1.535 1.843 1.271 3.273 1.185 3.742l-9.759 52.974c-.307 1.668-3.257 4.081-7.787 4.081h-368.286c-4.493 0-7.453-2.398-7.782-4.056l-10.538-53.113c-.19-1.232.222-2.46 1.225-3.654zm17.688 223.297c-17.424 0-31.599-14.175-31.599-31.599 0-10.011 4.689-18.938 11.976-24.731 3.891 20.243 11.366 39.226 21.753 56.251-.704.049-1.413.079-2.13.079zm261.34 145.152h-156.15c.129-9.302 1.881-18.216 5.005-26.465h146.14c3.124 8.249 4.876 17.163 5.005 26.465zm-10.905-38.675h-134.34c5.892-9.906 13.905-18.407 23.42-24.865 2.703.128 5.42.199 8.153.199h71.194c2.734 0 5.451-.071 8.153-.199 9.515 6.458 17.528 14.96 23.42 24.865zm-31.573-45.015h-71.194c-53.354 0-100.285-28.004-126.885-70.08 4.01.809 8.096 1.337 12.23 1.585 1.639 2.879 3.441 5.632 5.408 8.229 11.444 15.111 26.922 23.432 43.583 23.432s32.139-8.322 43.583-23.432c10.805-14.268 16.757-33.083 16.757-52.98 0-6.55-2.12-12.566-6.117-17.782 4.994-10.339 8.161-21.287 9.254-32.371h222.788c.392 4.412.603 8.875.603 13.387 0 82.718-67.295 150.012-150.01 150.012zm147.668-61.462c-.715 0-1.421-.042-2.124-.089 10.382-17.018 17.854-35.994 21.744-56.228 7.285 5.792 11.978 14.71 11.978 24.719 0 17.423-14.175 31.598-31.598 31.598z"/><path d="m350.35 276.638c-9.876 0-17.882 8.006-17.882 17.882s8.006 17.883 17.882 17.883 17.882-8.006 17.882-17.883c0-9.875-8.006-17.882-17.882-17.882z"/><path d="m367.613 236.155c-.798-.407-8.059-3.978-17.263-3.978-9.203 0-16.464 3.571-17.262 3.978-3.003 1.533-4.195 5.21-2.663 8.213s5.208 4.195 8.213 2.662c.052-.026 5.356-2.643 11.712-2.643 6.338 0 11.684 2.629 11.712 2.643.889.454 1.837.669 2.77.669 2.221 0 4.364-1.217 5.443-3.331 1.533-3.003.341-6.68-2.662-8.213z"/><path d="m272.665 288.416c-3.371 0-6.105 2.734-6.105 6.105 0 6.495-5.283 11.778-11.777 11.778s-11.777-5.283-11.777-11.778c0-3.371-2.733-6.105-6.105-6.105-3.371 0-6.105 2.734-6.105 6.105 0 13.227 10.761 23.988 23.987 23.988 13.227 0 23.987-10.761 23.987-23.988 0-3.372-2.734-6.105-6.105-6.105z"/><path d="m226.662 338.006c-3.372 0-6.105 2.733-6.105 6.105v11.528c0 3.371 2.733 6.105 6.105 6.105s6.105-2.734 6.105-6.105v-11.528c0-3.372-2.734-6.105-6.105-6.105z"/><path d="m254.783 346.484c-3.371 0-6.105 2.734-6.105 6.105v11.529c0 3.371 2.734 6.105 6.105 6.105s6.105-2.733 6.105-6.105v-11.529c0-3.371-2.734-6.105-6.105-6.105z"/><path d="m282.904 338.006c-3.371 0-6.105 2.733-6.105 6.105v11.528c0 3.371 2.734 6.105 6.105 6.105s6.105-2.734 6.105-6.105v-11.528c0-3.372-2.734-6.105-6.105-6.105z"/></g><path d="m164.316 127.01c-.022 0-.044 0-.066 0l-39.989-.254c-5.62-.036-10.146-4.62-10.11-10.24.036-5.597 4.585-10.11 10.174-10.11h.066l39.989.254c5.62.036 10.146 4.62 10.111 10.24-.037 5.597-4.586 10.11-10.175 10.11z" fill="#fff"/><path d="m86.706 126.756h-6.304c-5.62 0-10.175-4.555-10.175-10.175s4.555-10.175 10.175-10.175h6.304c5.62 0 10.175 4.555 10.175 10.175s-4.555 10.175-10.175 10.175z" fill="#fff"/></g></g></svg>