<svg id="Capa_1" enable-background="new 0 0 512 512" height="512" viewBox="0 0 512 512" width="512" xmlns="http://www.w3.org/2000/svg"><g><g><path d="m313.198 326.205h-58.878c-66.853 0-121.048-54.195-121.048-121.048v-4.155c0-66.853 54.195-121.048 121.048-121.048h58.878c66.853 0 121.048 54.195 121.048 121.048v4.155c0 66.853-54.195 121.048-121.048 121.048z" fill="#e8c2d8"/><path d="m390.846 467.872c0-69.431-56.285-125.716-125.715-125.716-69.431 0-125.715 56.285-125.715 125.716v33.987h251.431v-33.987z" fill="#a1e8c3"/><path d="m390.075 453.87c-6.007-54.198-46.47-98.001-98.993-109.025v39.652c-8.174-2.656-16.891-4.11-25.951-4.11-46.346 0-83.917 37.571-83.917 83.918v37.745h167.835v-37.745c0-3.536-.244-7.013-.669-10.435z" fill="#96b4eb"/><path d="m273.937 385.826c24.273 10.917 41.346 36.827 41.346 67.064v7.275c0 11.325-9.181 20.505-20.505 20.505h-113.565v20.724h167.835v-32.112c0-43.372-32.905-79.053-75.111-83.456z" fill="#8286ea"/><path d="m459.375 252.151c.576-5.513.876-11.109.876-16.775 0-9.089-.763-17.999-2.225-26.672-1.351-8.016-10.638-12.012-17.347-7.422-14.052 9.616-31.046 15.244-49.359 15.244-34.529 0-64.379-19.993-78.635-49.029-10.743 4.704-22.603 7.333-35.082 7.333-48.359 0-87.562-39.203-87.562-87.562 0-2.239.112-4.451.277-6.647-69.145 17.523-120.308 80.161-120.308 154.755 0 5.666.3 11.261.876 16.775-17.347 5.024-30.034 21.017-30.034 39.983 0 22.993 18.64 41.633 41.633 41.633 6.552 0 12.748-1.518 18.262-4.214 29.043 39.687 75.961 65.468 128.907 65.468h70.953c52.946 0 99.864-25.782 128.907-65.468 5.514 2.696 11.71 4.214 18.262 4.214 22.993 0 41.633-18.64 41.633-41.633 0-18.967-12.687-34.959-30.034-39.983z" fill="#a1e8c3"/><path d="m436.227 202.037c-5.534-28.316-14.872-52.516-29.406-76.953-28.69-27.56-63.289-49.445-106.214-49.445h-20.472c71.479 0 129.425 57.945 129.425 129.425v10.991c0 .841-.016 1.678-.032 2.515 10.76-2.289 20.425-7.091 29.307-13.373-1.278-.554-2.304-1.602-2.608-3.16z" fill="#d392d8"/><path d="m443.675 205.067c-1.463.743-3.328.783-4.839.129-8.882 6.282-18.548 11.084-29.307 13.373-1.341 70.318-58.754 126.91-129.393 126.91h-80.7c-68.404 0-124.406-53.067-129.099-120.278-.208 3.334-.326 6.694-.326 10.081v.001c0 88.168 71.475 159.644 159.644 159.644h70.953c88.169 0 159.644-71.475 159.644-159.644v-.001c0-12.52-1.445-24.701-4.17-36.39-4.255 1.748-8.299 4.087-12.407 6.175z" fill="#85adc2"/><path d="m282.953 319.115c0-9.729-7.796-17.637-17.482-17.819-9.988-.187-18.162 8.296-18.162 18.286v5.938c0 4.386 3.556 7.942 7.942 7.942h19.77c4.391 0 7.949-3.563 7.942-7.954z" fill="#d789b9"/><path d="m326.254 463.467-14.672-2.253-2.42 15.158-14.233-8.708-14.02 16.731-2.839-28.139-13.206-14.415 13.002-3.443-2.845-22.385 19.498 15.935 19.199-10.211-2.34 21.619z" fill="#a1e8c3"/><path d="m77.283 2.482 8.33 23.422c.357 1.003 1.063 1.798 1.954 2.199l20.81 9.376c2.94 1.325 2.94 6.009 0 7.333l-20.81 9.376c-.891.401-1.597 1.196-1.954 2.199l-8.33 23.422c-1.177 3.309-5.339 3.309-6.515 0l-8.33-23.422c-.357-1.003-1.063-1.798-1.954-2.199l-20.81-9.376c-2.94-1.325-2.94-6.009 0-7.333l20.81-9.376c.891-.401 1.597-1.196 1.954-2.199l8.33-23.422c1.176-3.309 5.338-3.309 6.515 0z" fill="#ccf3e2"/><path d="m471.714 41.88 6.179 17.374c.264.744.788 1.333 1.449 1.631l15.436 6.955c2.181.983 2.181 4.457 0 5.44l-15.436 6.955c-.661.298-1.185.887-1.449 1.631l-6.179 17.374c-.873 2.455-3.96 2.455-4.833 0l-6.179-17.374c-.265-.744-.788-1.333-1.449-1.631l-15.436-6.955c-2.181-.983-2.181-4.457 0-5.44l15.436-6.955c.661-.298 1.185-.887 1.449-1.631l6.179-17.374c.873-2.454 3.96-2.454 4.833 0z" fill="#ccf3e2"/><g fill="#a1e8c3"><circle cx="480.875" cy="424.606" r="18.189"/><path d="m28.143 126.675c0 4.333-3.513 7.846-7.846 7.846s-7.846-3.513-7.846-7.846 3.513-7.846 7.846-7.846 7.846 3.512 7.846 7.846z"/></g></g><g><g fill="#3c122c"><path d="m188.423 306.573h-38.011c-5.601 0-10.141-4.54-10.141-10.141s4.54-10.141 10.141-10.141h38.011c5.601 0 10.141 4.54 10.141 10.141-.001 5.601-4.541 10.141-10.141 10.141z"/><path d="m379.148 306.573h-38.011c-5.601 0-10.141-4.54-10.141-10.141s4.54-10.141 10.141-10.141h38.011c5.601 0 10.141 4.54 10.141 10.141s-4.54 10.141-10.141 10.141z"/><path d="m184.32 254.63c-.931 0-1.875-.214-2.761-.667-.028-.014-5.357-2.635-11.672-2.635s-11.644 2.621-11.697 2.647c-2.999 1.494-6.652.292-8.16-2.697-1.509-2.99-.33-6.631 2.653-8.154.795-.406 8.032-3.965 17.204-3.965s16.409 3.559 17.204 3.965c2.993 1.528 4.181 5.193 2.653 8.186-1.076 2.108-3.21 3.32-5.424 3.32z"/><path d="m374.809 254.63c-.931 0-1.875-.214-2.761-.667-.028-.014-5.357-2.635-11.672-2.635s-11.643 2.621-11.696 2.647c-2.998 1.494-6.652.292-8.161-2.697-1.509-2.99-.33-6.631 2.653-8.154.795-.406 8.032-3.965 17.204-3.965 9.173 0 16.41 3.559 17.205 3.965 2.993 1.528 4.181 5.193 2.653 8.186-1.077 2.108-3.212 3.32-5.425 3.32z"/><path d="m275.021 339.546h-19.77c-7.734 0-14.026-6.292-14.026-14.026v-5.938c0-6.533 2.693-12.922 7.388-17.53 4.614-4.528 10.632-6.935 16.973-6.839 12.928.242 23.447 10.959 23.452 23.893l.01 6.393c.006 3.75-1.45 7.278-4.1 9.932-2.651 2.654-6.176 4.115-9.927 4.115zm-9.871-32.168c-2.964 0-5.802 1.188-8.014 3.359-2.378 2.335-3.742 5.558-3.742 8.846v5.938c0 1.024.833 1.858 1.857 1.858h19.77c.637 0 1.066-.297 1.315-.545.248-.249.544-.678.543-1.315l-.01-6.393c0-.003 0-.007 0-.009 0-6.352-5.164-11.617-11.511-11.736-.07-.003-.139-.003-.208-.003zm23.887 11.737h.01z"/><path d="m189.385 336.433c-2.199 0-4.323-1.196-5.406-3.284-1.548-2.983-.384-6.655 2.599-8.203 10.542-5.47 13.327-11.757 13.44-12.022 0 0 2.415-5.15 7.842-2.945 5.04 2.047 3.475 7.415 3.475 7.415-.414 1.077-4.468 10.734-19.153 18.353-.895.466-1.854.686-2.797.686z"/><path d="m340.877 336.433c-.944 0-1.901-.22-2.797-.685-14.685-7.619-18.739-17.277-19.153-18.353 0 0-1.274-4.854 3.12-6.905 5.287-2.467 8.197 2.435 8.197 2.435.113.265 2.898 6.552 13.44 12.022 2.983 1.547 4.146 5.22 2.599 8.203-1.083 2.086-3.206 3.283-5.406 3.283z"/><path d="m280.909 490.48c-.597 0-1.199-.088-1.788-.269-2.339-.719-4.019-2.77-4.265-5.205l-2.636-26.129-11.842-12.925c-1.438-1.57-1.951-3.779-1.352-5.822s2.223-3.625 4.281-4.17l7.852-2.079-2.173-17.101c-.314-2.47.909-4.882 3.087-6.089 2.178-1.208 4.872-.965 6.799.611l16.364 13.375 15.625-8.31c1.99-1.058 4.4-.93 6.267.333 1.866 1.263 2.881 3.454 2.639 5.694l-2.085 19.256 13.463 18.201c1.466 1.982 1.591 4.652.317 6.763s-3.693 3.244-6.132 2.869l-8.693-1.335-1.467 9.186c-.32 2.005-1.619 3.718-3.462 4.567-1.845.849-3.99.722-5.721-.336l-9.762-5.973-10.652 12.712c-1.175 1.401-2.894 2.175-4.664 2.176zm-4.764-45.332 6.412 6.999c.886.967 1.435 2.194 1.567 3.5l1.39 13.78 4.75-5.669c1.937-2.308 5.269-2.855 7.839-1.282l6.483 3.966.987-6.185c.527-3.304 3.622-5.565 6.932-5.055l.073.011-6.093-8.237c-.909-1.229-1.322-2.754-1.158-4.273l1.104-10.198-9.056 4.816c-2.165 1.152-4.81.891-6.707-.661l-7.69-6.285.922 7.257c.384 3.025-1.53 5.868-4.478 6.649z"/><path d="m470.086 245.434c.195-3.329.306-6.68.306-10.057 0-8.059-.573-16.165-1.703-24.093-1.147-8.051-6.229-14.889-13.594-18.292-3.547-1.639-7.358-2.343-11.118-2.148-5.204-67.606-61.861-121.03-130.779-121.03h-58.878c-19.665 0-38.328 4.359-55.087 12.148-1.006-2.709-2.775-5.121-5.139-6.881-3.796-2.826-8.763-3.704-13.287-2.348-34.246 10.272-65.036 31.718-86.699 60.388-22.399 29.644-34.238 65.004-34.238 102.255 0 3.378.111 6.731.306 10.061-17.408 8.349-29.464 26.135-29.464 46.696 0 28.548 23.225 51.773 51.773 51.773 5.182 0 10.179-.784 14.901-2.21 15.604 19.374 35.363 35.262 57.919 46.295-16.363 22.434-26.031 50.048-26.031 79.88v33.987c0 5.601 4.54 10.141 10.141 10.141s10.141-4.54 10.141-10.141v-33.987c0-27.135 9.407-52.11 25.123-71.851 9.48 3.253 19.335 5.691 29.483 7.226-17.837 16.455-29.033 40.004-29.033 66.128v36.332c0 3.36 2.724 6.084 6.084 6.084s6.084-2.724 6.084-6.084v-36.332c0-26.768 13.597-50.403 34.234-64.413 2.692.128 5.399.199 8.122.199h70.954c2.723 0 5.43-.071 8.123-.199 20.637 14.01 34.234 37.645 34.234 64.413v36.332c0 3.36 2.724 6.084 6.084 6.084s6.084-2.724 6.084-6.084v-36.332c0-1.094-.027-2.181-.065-3.266l5.175-8.559 4.516 5.987c1.836 2.434 5.189 3.132 7.844 1.637l7.878-4.438c.145 2.361.225 4.738.225 7.135v33.987c0 5.601 4.54 10.141 10.141 10.141s10.141-4.54 10.141-10.141v-33.987c0-29.832-9.674-57.442-26.038-79.877 22.555-11.031 42.314-26.918 57.919-46.289 4.723 1.427 9.726 2.2 14.909 2.2 28.548 0 51.773-23.225 51.773-51.773 0-20.56-12.054-38.351-29.464-46.697zm-50.635-76.234h-63.222c-4.596 0-8.336-3.74-8.336-8.336s3.74-8.336 8.336-8.336h56.706c2.603 5.333 4.787 10.905 6.516 16.672zm-44.944-60.571h-32.003c-3.36 0-6.084 2.724-6.084 6.084s2.724 6.084 6.084 6.084h47.219c6.144 5.865 11.612 12.431 16.287 19.561h-49.781c-11.307 0-20.505 9.198-20.505 20.505s9.198 20.505 20.505 20.505h66.135c1.035 5.772 1.615 11.7 1.716 17.742-10.201 4.773-21.36 7.275-32.761 7.275-27.949 0-53.829-15.162-67.54-39.568-1.447-2.577-3.51-4.596-5.908-5.964.001-.053.008-.105.008-.158v-48.465c0-9.522-7.747-17.269-17.269-17.269s-17.269 7.747-17.269 17.269v48.466c0 1.385.468 2.658 1.248 3.681-2.314.208-4.645.313-6.988.313-9.839 0-19.246-1.864-27.912-5.227.342.015.685.026 1.03.026 13.059 0 23.683-10.624 23.683-23.682v-45.712h38.793c22.654 0 43.738 6.831 61.312 18.534zm-68.795 50.845c-.354.105-.707.211-1.058.342-3.105 1.16-6.269 2.106-9.476 2.854.213-.62.334-1.282.334-1.974v-48.466c0-2.812 2.288-5.1 5.1-5.1s5.1 2.288 5.1 5.1zm-43.476-69.379v45.712c0 6.349-5.165 11.514-11.514 11.514s-11.514-5.165-11.514-11.514v-44.675c4.943-.677 9.985-1.037 15.111-1.037zm-31.028 59.109c-14.722-11.06-25.383-27.245-29.334-45.892 7.871-4.243 16.306-7.569 25.166-9.82v42.314c0 4.97 1.542 9.585 4.168 13.398zm-148.723 174.422c-17.365 0-31.492-14.127-31.492-31.492 0-9.979 4.67-18.881 11.935-24.652 3.877 20.176 11.327 39.096 21.68 56.065-.702.046-1.409.079-2.123.079zm296.44 124.02-7.658 4.315-6.724-8.913c-1.216-1.612-3.15-2.517-5.169-2.412-2.017.103-3.85 1.2-4.895 2.928l-2.14 3.539c-4.369-17.095-13.648-32.242-26.237-43.855 10.145-1.534 19.998-3.972 29.476-7.224 11.721 14.721 19.93 32.352 23.347 51.622zm-78.317-62.766h-70.954c-82.436 0-149.503-67.067-149.503-149.503 0-63.236 40.789-120.3 99.998-141.107 3.602 50.618 45.936 90.702 97.455 90.702 10.415 0 20.647-1.635 30.468-4.865 17.733 28.817 49.278 46.561 83.248 46.561 18.508 0 36.527-5.207 52.112-15.058 1.257-.794 2.411-.551 3.157-.206.652.301 1.781 1.058 2.021 2.742.996 6.984 1.5 14.128 1.5 21.232.001 82.435-67.066 149.502-149.502 149.502zm147.168-61.254c-.714 0-1.421-.031-2.123-.078 10.35-16.963 17.798-35.877 21.677-56.046 7.26 5.772 11.938 14.657 11.938 24.632 0 17.364-14.127 31.492-31.492 31.492z"/><path d="m239.732 486.829c-3.36 0-6.084-2.724-6.084-6.084v-11.175c0-3.36 2.724-6.084 6.084-6.084s6.084 2.724 6.084 6.084v11.174c.001 3.36-2.724 6.085-6.084 6.085z"/><path d="m211.097 474.209c-3.36 0-6.084-2.724-6.084-6.084v-11.175c0-3.36 2.724-6.084 6.084-6.084s6.084 2.724 6.084 6.084v11.174c.001 3.36-2.724 6.085-6.084 6.085z"/></g><path d="m147.478 161.087c-2.303 0-4.619-.78-6.521-2.379-4.286-3.604-4.84-10.001-1.236-14.288 1.327-1.579 5.487-6.241 8.752-8.826 4.391-3.476 10.769-2.734 14.245 1.657s2.734 10.768-1.657 14.245c-1.333 1.056-4.222 4.079-5.816 5.976-2.005 2.385-4.876 3.615-7.767 3.615z" fill="#fff"/><path d="m113.928 217.855c-.932 0-1.88-.129-2.82-.401-5.38-1.555-8.481-7.177-6.927-12.557 4.78-16.542 12.151-29.445 17.493-37.355 3.133-4.641 9.437-5.865 14.078-2.73 4.642 3.134 5.864 9.437 2.73 14.079-4.526 6.703-10.77 17.633-14.817 31.637-1.283 4.439-5.336 7.327-9.737 7.327z" fill="#fff"/></g></g></svg>