<svg id="Capa_1" enable-background="new 0 0 512 512" height="512" viewBox="0 0 512 512" width="512" xmlns="http://www.w3.org/2000/svg"><g><g><path d="m448.92 254.493c.57-5.462.868-11.004.868-16.617v-.001c0-87.342-70.805-158.147-158.147-158.147h-70.288c-87.342 0-158.147 70.805-158.147 158.147v.001c0 5.613.297 11.156.868 16.617-17.184 4.977-29.752 20.82-29.752 39.608 0 22.777 18.465 41.242 41.242 41.242 6.491 0 12.628-1.504 18.091-4.175 17.607 24.059 41.841 42.961 70.023 54.004-19.72 22.033-31.717 51.124-31.717 83.02v33.668h249.074v-33.668c0-31.897-11.997-60.987-31.717-83.02 28.182-11.044 52.416-29.945 70.023-54.004 5.463 2.671 11.6 4.175 18.091 4.175 22.777 0 41.242-18.465 41.242-41.242-.002-18.788-12.57-34.631-29.754-39.608z" fill="#9781dd"/><path d="m339.627 469.682c0-42.966-32.596-78.312-74.408-82.674 24.045 10.815 40.959 36.482 40.959 66.435v7.207c0 11.219-9.095 20.313-20.313 20.313h-17.734v20.53h71.496z" fill="#8962de"/><path d="m173.365 480.963h74.674v20.53h-74.674z" fill="#8962de"/><path d="m287.901 459.522h-19.77v-14.803h19.77c13.061.179 13.011-20.284 0-20.091h-19.77v-23.765c0-2.774-1.124-5.285-2.942-7.103-.682-.682-1.461-1.266-2.315-1.73-1.423-.773-3.055-1.212-4.788-1.212s-3.365.439-4.788 1.212c-.854.464-1.633 1.048-2.315 1.73-1.818 1.818-2.942 4.329-2.942 7.103v23.765h-22.948c-13.019-.192-13.054 20.273 0 20.091h22.948v14.803h-22.948c-13.09-.196-12.952 20.337 0 20.091h22.948v1.35 20.53c-.166 13.047 20.259 13.042 20.091 0v-20.53-1.35h19.77c12.956.248 13.084-20.292-.001-20.091z" fill="#fff"/><path d="m248.04 480.963h20.091v20.53h-20.091z" fill="#e1bdfc"/><path d="m291.64 79.728h-20.28c70.81 0 128.212 57.402 128.212 128.212v10.888c0 70.81-57.402 128.212-128.212 128.212h-79.943c-67.763 0-123.24-52.571-127.889-119.151-.206 3.303-.323 6.631-.323 9.986v.001c0 87.342 70.805 158.147 158.147 158.147h70.288c87.342 0 158.147-70.805 158.147-158.147v-.001c.001-87.342-70.804-158.147-158.147-158.147z" fill="#8962de"/><path d="m339.144 184.446h-166.547c-43.313 0-78.425 35.112-78.425 78.425v5.872c0 43.313 35.112 78.425 78.425 78.425h27.119v7.202c0 16.743 13.573 30.316 30.316 30.316h52.565c16.743 0 30.316-13.573 30.316-30.316v-7.202h26.232c43.313 0 78.425-35.112 78.425-78.425v-5.872c-.001-43.314-35.113-78.425-78.426-78.425z" fill="#fff"/><path d="m399.572 218.828c0 70.81-57.402 128.212-128.212 128.212h-79.943c-28.88 0-55.525-9.555-76.958-25.668 14.349 15.842 35.081 25.795 58.139 25.795h27.119v7.202c0 16.743 13.573 30.316 30.316 30.316h52.565c16.743 0 30.316-13.573 30.316-30.316v-7.202h26.232c43.313 0 78.425-35.112 78.425-78.425v-5.872c0-18.998-6.758-36.416-17.997-49.988v5.946z" fill="#e1bdfc"/><path d="m41.383 28.714 8.252 23.203c.353.993 1.053 1.781 1.935 2.178l20.615 9.288c2.912 1.312 2.912 5.952 0 7.265l-20.615 9.287c-.883.398-1.582 1.185-1.935 2.178l-8.252 23.203c-1.166 3.278-5.289 3.278-6.454 0l-8.252-23.203c-.353-.993-1.053-1.781-1.935-2.178l-20.616-9.288c-2.912-1.312-2.912-5.952 0-7.265l20.615-9.288c.883-.398 1.582-1.185 1.935-2.178l8.252-23.203c1.166-3.277 5.289-3.277 6.455.001z" fill="#c2b2eb"/><path d="m416.928 1.824 6.121 17.211c.262.737.781 1.321 1.436 1.616l15.292 6.89c2.16.973 2.16 4.415 0 5.389l-15.292 6.89c-.655.295-1.173.879-1.436 1.616l-6.121 17.211c-.865 2.432-3.923 2.432-4.788 0l-6.121-17.211c-.262-.737-.781-1.321-1.436-1.616l-15.292-6.89c-2.16-.973-2.16-4.415 0-5.389l15.292-6.89c.655-.295 1.174-.879 1.436-1.616l6.121-17.211c.865-2.432 3.923-2.432 4.788 0z" fill="#c2b2eb"/><g fill="#9781dd"><circle cx="492.04" cy="116.972" r="18.018"/><circle cx="130.028" cy="42.861" r="7.773"/></g></g><g><g fill="#3c122c"><path d="m291.569 351.348h-9.218v-7.249c0-3.329-2.699-6.027-6.027-6.027-3.329 0-6.027 2.699-6.027 6.027v7.249h-10.046v-7.249c0-3.329-2.699-6.027-6.027-6.027s-6.027 2.699-6.027 6.027v7.249h-10.046v-7.249c0-3.329-2.699-6.027-6.027-6.027-3.329 0-6.027 2.699-6.027 6.027v7.249h-4.673c-3.329 0-6.027 2.699-6.027 6.027 0 3.329 2.699 6.027 6.027 6.027h4.673v6.677c0 3.329 2.699 6.027 6.027 6.027 3.329 0 6.027-2.699 6.027-6.027v-6.677h10.046v6.677c0 3.329 2.699 6.027 6.027 6.027s6.027-2.699 6.027-6.027v-6.677h10.046v6.677c0 3.329 2.699 6.027 6.027 6.027 3.329 0 6.027-2.699 6.027-6.027v-6.677h9.218c3.329 0 6.027-2.699 6.027-6.027.001-3.328-2.698-6.027-6.027-6.027z"/><circle cx="162.145" cy="303.175" r="17.655"/><circle cx="350.848" cy="303.175" r="17.655"/><path d="m176.443 256.949c-.922 0-1.858-.212-2.735-.66-.028-.014-5.306-2.61-11.563-2.61s-11.535 2.596-11.588 2.622c-2.971 1.481-6.59.289-8.084-2.673s-.327-6.568 2.629-8.077c.788-.402 7.957-3.927 17.043-3.927s16.255 3.525 17.043 3.927c2.965 1.513 4.142 5.143 2.629 8.109-1.066 2.088-3.181 3.289-5.374 3.289z"/><path d="m365.146 256.949c-.922 0-1.858-.212-2.735-.66-.028-.014-5.306-2.61-11.563-2.61-6.275 0-11.512 2.584-11.563 2.61-2.967 1.514-6.596.336-8.109-2.629s-.336-6.595 2.629-8.109c.788-.402 7.957-3.927 17.043-3.927 9.087 0 16.255 3.525 17.043 3.927 2.965 1.513 4.142 5.143 2.629 8.109-1.066 2.088-3.181 3.289-5.374 3.289z"/><path d="m249.096 297.457c0 2.513-2.037 4.551-4.551 4.551s-4.55-2.037-4.55-4.551c0-2.513 2.037-4.551 4.55-4.551s4.551 2.037 4.551 4.551z"/><path d="m269.931 297.457c0 2.513-2.037 4.551-4.551 4.551-2.513 0-4.551-2.037-4.551-4.551 0-2.513 2.037-4.551 4.551-4.551s4.551 2.037 4.551 4.551z"/><path d="m459.529 247.848c.194-3.301.304-6.624.304-9.973 0-92.742-75.451-168.193-168.193-168.193h-70.288c-92.742 0-168.193 75.451-168.193 168.193 0 3.347.11 6.668.304 9.968-17.246 8.27-29.188 25.889-29.188 46.257 0 28.28 23.008 51.287 51.288 51.287 5.133 0 10.086-.772 14.764-2.186 15.459 19.193 35.035 34.933 57.381 45.862-16.211 22.224-25.794 49.576-25.794 79.129v33.668c0 5.548 4.497 10.046 10.046 10.046 5.548 0 10.046-4.497 10.046-10.046v-33.668c0-26.882 9.322-51.621 24.891-71.177 9.386 3.221 19.143 5.635 29.19 7.156-17.665 16.302-28.747 39.635-28.747 65.51v36.291c0 3.329 2.699 6.027 6.027 6.027s6.027-2.699 6.027-6.027v-36.291c0-26.519 13.473-49.931 33.919-63.809 2.665.126 5.345.196 8.04.196h70.288c2.696 0 5.375-.07 8.04-.196 20.446 13.878 33.919 37.29 33.919 63.809v36.291c0 3.329 2.699 6.027 6.027 6.027 3.329 0 6.027-2.699 6.027-6.027v-36.291c0-25.875-11.083-49.209-28.747-65.51 10.05-1.521 19.81-3.936 29.198-7.159 15.568 19.556 24.882 44.3 24.882 71.18v33.668c0 5.548 4.497 10.046 10.046 10.046 5.548 0 10.046-4.497 10.046-10.046v-33.668c0-29.553-9.584-56.904-25.795-79.128 22.347-10.93 41.925-26.671 57.384-45.866 4.678 1.412 9.628 2.19 14.761 2.19 28.28 0 51.288-23.007 51.288-51.287.001-20.368-11.943-37.984-29.188-46.253zm-383.967 77.449c-17.202 0-31.197-13.995-31.197-31.196 0-9.882 4.633-18.688 11.826-24.406 3.842 19.981 11.221 38.718 21.474 55.523-.696.047-1.395.079-2.103.079zm216.078 60.681h-70.288c-81.664 0-148.102-66.438-148.102-148.102 0-81.663 66.438-148.102 148.102-148.102h70.288c81.664 0 148.102 66.438 148.102 148.102 0 81.663-66.438 148.102-148.102 148.102zm145.79-60.681c-.707 0-1.407-.032-2.103-.079 10.254-16.806 17.633-35.545 21.474-55.527 7.193 5.719 11.825 14.527 11.825 24.41 0 17.202-13.994 31.196-31.196 31.196z"/></g><path d="m164.537 139.444c-3.246 0-6.431-1.57-8.367-4.473-3.078-4.616-1.831-10.853 2.785-13.931 1.7-1.134 6.949-4.416 10.769-5.969 5.14-2.089 10.999.384 13.089 5.524 2.089 5.14-.384 11-5.524 13.089-1.56.634-5.145 2.709-7.187 4.071-1.713 1.142-3.65 1.689-5.565 1.689z" fill="#fff"/><path d="m116.868 184.132c-1.839 0-3.699-.505-5.368-1.562-4.686-2.969-6.078-9.176-3.108-13.862 9.129-14.407 19.716-24.637 26.989-30.681 4.266-3.546 10.601-2.962 14.146 1.306 3.546 4.267 2.962 10.6-1.306 14.146-6.162 5.121-15.13 13.786-22.859 25.983-1.912 3.018-5.167 4.67-8.494 4.67z" fill="#fff"/></g></g></svg>