<svg id="Capa_1" enable-background="new 0 0 512 512" height="512" viewBox="0 0 512 512" width="512" xmlns="http://www.w3.org/2000/svg"><g><g><path d="m86.293 502.344c0-11.856-3.2-18.069-21.18-29.328-27.462-17.197-28.856-35.855-28.856-64.874 0-9.713 7.874-17.587 17.587-17.587s17.587 7.874 17.587 17.587c0 26.443 1.222 28.094 12.349 35.062 22.621 14.165 37.687 29.643 37.687 59.14" fill="#96b4eb"/><path d="m369.829 501.95v-33.682c0-68.808-55.78-124.587-124.587-124.587-68.808 0-124.587 55.78-124.587 124.587v33.682z" fill="#96b4eb"/><path d="m253.968 386.829c24.055 10.819 40.975 36.497 40.975 66.462v7.21c0 11.223-9.098 20.322-20.322 20.322h-112.544v20.538h166.329v-31.824c0-42.984-32.61-78.345-74.438-82.708z" fill="#8286ea"/><path d="m437.743 254.482c.57-5.464.868-11.009.868-16.624v-.001c0-87.378-70.833-158.211-158.211-158.211h-70.317c-87.378 0-158.211 70.834-158.211 158.211v.001c0 5.615.297 11.16.868 16.624-17.191 4.979-29.764 20.828-29.764 39.624 0 22.787 18.472 41.259 41.259 41.259 6.493 0 12.633-1.504 18.098-4.176 28.783 39.33 75.279 64.881 127.75 64.881h70.317c52.471 0 98.968-25.551 127.75-64.881 5.465 2.672 11.605 4.176 18.098 4.176 22.787 0 41.259-18.472 41.259-41.259 0-18.795-12.573-34.644-29.764-39.624z" fill="#efc5b4"/><path d="m280.4 79.425h-20.288c70.838 0 128.264 57.425 128.264 128.263v10.893c0 70.838-57.425 128.264-128.264 128.264h-79.976c-67.79 0-123.289-52.592-127.941-119.199-.206 3.305-.323 6.634-.323 9.99v.001c0 87.378 70.833 158.211 158.211 158.211h70.317c87.378 0 158.211-70.834 158.211-158.211v-.001c0-87.377-70.834-158.211-158.211-158.211z" fill="#d994b3"/><path d="m424.081 134.784c1.769-42.051 1.34-113.988-21.433-123.545-19.134-8.029-58.643 26.047-87.847 55.364-10.027-1.797-20.351-2.736-30.894-2.736h-77.33c-10.543 0-20.867.939-30.894 2.736-29.204-29.317-68.713-63.393-87.847-55.364-22.773 9.557-23.202 81.494-21.433 123.545-21.251 28.851-33.817 64.493-33.817 103.074v.001c0 21.757 21.362 39.96 22.223 38.426 29.807-53.035 86.598-88.868 151.767-88.868h77.33c65.043 0 121.742 35.695 151.595 88.562 4.265 7.552 22.396-16.363 22.396-38.12v-.001c0-38.581-12.566-74.223-33.816-103.074z" fill="#96b4eb"/><ellipse cx="245.242" cy="429.518" fill="#f6e06e" rx="27.962" ry="27.962" transform="matrix(.889 -.457 .457 .889 -169.236 159.634)"/><path d="m245.242 401.556c-1.418 0-2.81.107-4.171.311 9.606 1.634 16.928 9.976 16.928 20.048 0 11.244-9.115 20.359-20.359 20.359-10.072 0-18.414-7.321-20.048-16.928-.204 1.361-.311 2.753-.311 4.171 0 15.444 12.519 27.962 27.962 27.962s27.962-12.519 27.962-27.962c-.001-15.442-12.52-27.961-27.963-27.961z" fill="#dda86a"/><path d="m440.67 376.826 8.255 23.212c.353.994 1.053 1.781 1.936 2.179l20.623 9.291c2.913 1.313 2.913 5.955 0 7.268l-20.623 9.292c-.883.398-1.583 1.185-1.936 2.179l-8.255 23.212c-1.166 3.279-5.291 3.279-6.457 0l-8.255-23.212c-.353-.994-1.053-1.781-1.936-2.179l-20.623-9.292c-2.914-1.313-2.914-5.955 0-7.268l20.623-9.291c.883-.398 1.583-1.186 1.936-2.179l8.255-23.212c1.167-3.279 5.291-3.279 6.457 0z" fill="#c1e5ef"/><ellipse cx="479.849" cy="491.987" fill="#96b4eb" rx="18.026" ry="18.026" transform="matrix(.23 -.973 .973 .23 -109.223 845.964)"/><circle cx="491.298" cy="376.429" fill="#96b4eb" r="7.776"/><path d="m282.885 61.889h-28.688c85.124 0 154.13 57.196 154.13 127.75-.186 11.115-10.75 7.624-15.749 2.417-29.395-30.619-80.763-39.453-138.381-39.453h-68.503c-57.73 0-98.297 35.134-134.444 65.251-8.32 6.932-14.205-.53-17.264-10.994-1.585 9.439-2.423 19.131-2.423 29.021 0 21.757 21.362 39.96 22.223 38.426 29.807-53.035 86.598-88.868 151.767-88.868h77.33c65.043 0 121.742 35.695 151.595 88.562 4.265 7.552 22.396-16.363 22.396-38.12.002-96.095-77.897-173.992-173.989-173.992z" fill="#8286ea"/></g><g><g fill="#3c122c"><path d="m463.806 259.202c2.572-6.978 4.141-14.433 4.141-21.343 0-39.443-12.477-76.025-33.685-106.015.434-11.536.678-24.99.368-38.782-1.23-54.618-10.157-83.562-28.094-91.089-17.936-7.53-44.846 6.377-84.684 43.761-3.6 3.378-7.106 6.773-10.506 10.131-8.955-1.345-18.117-2.047-27.44-2.047h-77.33c-9.322 0-18.482.703-27.436 2.047-3.399-3.357-6.911-6.753-10.51-10.131-39.838-37.383-66.746-51.288-84.683-43.761s-26.864 36.471-28.093 91.088c-.31 13.791-.066 27.246.368 38.782-21.208 29.99-33.685 66.572-33.685 106.015 0 7.681 2.033 14.721 4.763 20.715-8.884 9.227-14.373 21.743-14.373 35.532 0 28.292 23.016 51.309 51.308 51.309 5.135 0 10.093-.767 14.772-2.18 15.461 19.197 35.044 34.94 57.392 45.873-13.201 18.101-21.997 39.605-24.813 62.924-6.869-7.185-15.004-13.008-23.381-18.254-5.178-3.243-5.8-3.963-6.255-5.196-1.273-3.444-1.379-12.064-1.379-21.35 0-15.239-12.398-27.636-27.636-27.636s-27.636 12.398-27.636 27.636c0 31.633 2.337 53.831 33.572 73.391 16.464 10.31 16.464 13.819 16.464 20.811 0 5.55 4.499 10.05 10.05 10.05 5.55 0 10.05-4.499 10.05-10.05 0-16.576-6.05-25.418-25.896-37.846-23.114-14.474-24.14-28.504-24.14-56.356 0-4.156 3.381-7.537 7.537-7.537s7.537 3.381 7.537 7.537c0 27.503 1.367 33.749 17.066 43.58 20.881 13.075 32.97 25.549 32.97 50.621 0 .756.09 1.489.248 2.197.802 4.748 4.922 8.368 9.898 8.368 5.55 0 10.05-4.499 10.05-10.05v-33.682c0-26.892 9.326-51.64 24.9-71.204 9.393 3.224 19.159 5.635 29.214 7.155-17.676 16.308-28.771 39.648-28.771 65.538v36.006c0 3.33 2.699 6.03 6.03 6.03 3.33 0 6.03-2.7 6.03-6.03v-36.006c0-26.529 13.473-49.954 33.927-63.834 2.668.127 5.351.195 8.049.195h10.537c-5.8 6.1-9.37 14.337-9.37 23.398 0 18.743 15.249 33.992 33.992 33.992s33.992-15.249 33.992-33.992c0-9.061-3.571-17.299-9.37-23.398h10.535c2.709 0 5.402-.071 8.081-.198 20.44 13.887 33.896 37.317 33.896 63.837v36.006c0 3.33 2.7 6.03 6.03 6.03s6.03-2.7 6.03-6.03v-36.006c0-25.888-11.095-49.225-28.771-65.533 10.055-1.52 19.817-3.941 29.211-7.164 15.577 19.564 24.904 44.314 24.904 71.208v33.682c0 5.55 4.499 10.05 10.05 10.05 5.55 0 10.05-4.499 10.05-10.05v-33.682c0-29.564-9.585-56.929-25.802-79.162 22.35-10.932 41.933-26.672 57.396-45.869 4.68 1.414 9.639 2.177 14.775 2.177 28.292 0 51.309-23.017 51.309-51.309-.002-13.468-5.228-25.738-13.753-34.9zm-212.535 191.398v-17.917c0-3.33-2.7-6.03-6.03-6.03s-6.03 2.7-6.03 6.03v17.917c-9.17-2.627-15.903-11.081-15.903-21.083 0-12.093 9.839-21.932 21.932-21.932s21.932 9.839 21.932 21.932c.002 10.003-6.731 18.456-15.901 21.083zm84.447-390.315c47.426-44.477 61.581-40.39 63.04-39.779 1.458.612 14.29 7.855 15.773 72.853.116 5.097.145 10.155.12 15.11-21.812-22.038-49.134-38.608-79.709-47.446.262-.245.515-.493.776-.738zm-259.77 33.228c1.466-65.139 14.316-72.395 15.777-73.007.283-.119 1.044-.368 2.434-.368 5.773 0 22.387 4.306 60.606 40.147.261.245.519.492.779.737-30.58 8.839-57.907 25.412-79.72 47.455-.024-4.902.01-9.92.124-14.964zm130.629-19.596h77.33c90.398 0 163.941 73.544 163.941 163.942 0 9.469-4.453 19.403-8.356 25.223-33.62-53.097-92.406-85.715-155.586-85.715h-77.33c-62.354 0-120.373 31.732-154.206 83.569-4.574-5.625-9.735-14.19-9.735-23.078 0-90.397 73.544-163.941 163.942-163.941zm-142.342 251.399c-17.208 0-31.209-14-31.209-31.209 0-6.736 2.147-12.978 5.791-18.083 2.67 3.012 6.165 6.481 9.615 8.529 4.181 14.452 10.249 28.109 17.923 40.687-.701.047-1.407.076-2.12.076zm308.049 28.685c-.326-.054-.659-.09-1-.09h-49.315c-3.33 0-6.03 2.7-6.03 6.03s2.7 6.03 6.03 6.03h32.783c-21.868 12.74-47.271 20.049-74.352 20.049h-70.316c-27.08 0-52.481-7.31-74.347-20.049h32.777c3.33 0 6.03-2.7 6.03-6.03s-2.7-6.03-6.03-6.03h-49.314c-.342 0-.676.035-1.003.09-24.731-19.61-43.077-46.937-51.368-78.309 29.75-48.408 82.709-78.226 139.749-78.226h77.33c57.014 0 110.005 29.824 139.753 78.224-8.294 31.374-26.642 58.701-51.377 78.311zm53.964-28.685c-.711 0-1.415-.027-2.113-.074 7.247-11.878 13.068-24.715 17.215-38.279 4.001-1.087 8.07-4.24 11.782-8.686 2.745 4.644 4.326 10.055 4.326 15.83 0 17.208-14.001 31.209-31.21 31.209z"/><path d="m139.26 256.291c.052-.026 5.333-2.623 11.591-2.623 6.259 0 11.539 2.597 11.567 2.611.878.448 1.814.66 2.737.66 2.194 0 4.309-1.202 5.376-3.29 1.514-2.966.337-6.598-2.629-8.112-.788-.402-7.96-3.929-17.05-3.929s-16.262 3.527-17.05 3.929c-2.956 1.509-4.124 5.117-2.629 8.08 1.495 2.964 5.116 4.156 8.087 2.674z"/><path d="m328.04 256.291c.052-.026 5.333-2.623 11.591-2.623s11.539 2.597 11.567 2.611c.878.448 1.814.66 2.737.66 2.194 0 4.309-1.202 5.376-3.29 1.514-2.966.337-6.598-2.629-8.112-.788-.402-7.96-3.929-17.05-3.929s-16.262 3.527-17.05 3.929c-2.956 1.509-4.124 5.117-2.629 8.08 1.495 2.964 5.115 4.156 8.087 2.674z"/><path d="m262.904 297.154c-3.33 0-6.03 2.7-6.03 6.03 0 6.414-5.218 11.632-11.633 11.632-6.414 0-11.632-5.218-11.632-11.632 0-3.33-2.7-6.03-6.03-6.03s-6.03 2.7-6.03 6.03c0 13.063 10.628 23.692 23.692 23.692s23.692-10.628 23.692-23.692c0-3.33-2.699-6.03-6.029-6.03z"/><path d="m168.514 334.262h-49.314c-3.33 0-6.03 2.7-6.03 6.03s2.7 6.03 6.03 6.03h49.314c3.33 0 6.03-2.7 6.03-6.03s-2.7-6.03-6.03-6.03z"/><path d="m371.284 334.262h-49.315c-3.33 0-6.03 2.7-6.03 6.03s2.7 6.03 6.03 6.03h49.315c3.33 0 6.03-2.7 6.03-6.03s-2.7-6.03-6.03-6.03z"/><path d="m345.227 147.862c3.33 0 6.03-2.7 6.03-6.03v-11.074c0-3.33-2.7-6.03-6.03-6.03s-6.03 2.7-6.03 6.03v11.074c0 3.33 2.7 6.03 6.03 6.03z"/><path d="m379.507 175.286c3.33 0 6.03-2.7 6.03-6.03v-11.074c0-3.33-2.7-6.03-6.03-6.03s-6.03 2.7-6.03 6.03v11.074c0 3.33 2.7 6.03 6.03 6.03z"/></g><path d="m140.617 127.863c-3.248 0-6.435-1.572-8.372-4.477-3.078-4.618-1.829-10.858 2.789-13.936 1.702-1.134 6.955-4.418 10.772-5.969 5.142-2.09 11.004.384 13.094 5.526s-.384 11.004-5.526 13.094c-1.559.633-5.146 2.71-7.193 4.074-1.713 1.141-3.65 1.688-5.564 1.688z" fill="#fff"/><path d="m92.929 172.569c-1.84 0-3.701-.505-5.37-1.562-4.688-2.971-6.08-9.18-3.109-13.868 9.134-14.413 19.724-24.646 26.999-30.693 4.269-3.546 10.605-2.963 14.152 1.306s2.963 10.605-1.306 14.152c-6.164 5.123-15.136 13.791-22.869 25.994-1.913 3.019-5.169 4.671-8.497 4.671z" fill="#fff"/><ellipse cx="150.852" cy="303.184" fill="#3c122c" rx="17.662" ry="17.662" transform="matrix(.707 -.707 .707 .707 -170.2 195.469)"/><ellipse cx="339.631" cy="303.184" fill="#3c122c" rx="17.662" ry="17.662" transform="matrix(.23 -.973 .973 .23 -33.474 564.072)"/></g></g></svg>