<svg id="Capa_1" enable-background="new 0 0 512 512" height="512" viewBox="0 0 512 512" width="512" xmlns="http://www.w3.org/2000/svg"><g><g><path d="m380.225 501.874v-33.584c0-68.607-55.617-124.224-124.224-124.224-68.607 0-124.224 55.617-124.224 124.224v33.584z" fill="#96b4eb"/><path d="m264.702 386.656c23.985 10.787 40.856 36.39 40.856 66.268v7.189c0 11.19-9.072 20.262-20.262 20.262h-112.218v20.478h165.844v-31.732c0-42.857-32.514-78.115-74.22-82.465z" fill="#8286ea"/><path d="m447.941 255.128c.569-5.448.865-10.977.865-16.575v-.001c0-87.123-70.627-157.75-157.75-157.75h-70.111c-87.123 0-157.75 70.627-157.75 157.75v.001c0 5.598.297 11.127.865 16.575-17.141 4.965-29.677 20.768-29.677 39.508 0 22.72 18.418 41.139 41.138 41.139 6.474 0 12.596-1.5 18.045-4.164 28.699 39.216 75.06 64.692 127.378 64.692h70.111c52.318 0 98.679-25.476 127.378-64.692 5.449 2.665 11.571 4.164 18.045 4.164 22.72 0 41.139-18.418 41.139-41.139.001-18.741-12.535-34.544-29.676-39.508z" fill="#efc5b4"/><path d="m382.19 229.806c11.638 24.495 17.401 49.111 15.782 73.881 0 26.431-21.426 47.857-47.857 47.857s-47.857-21.426-47.857-47.857h.003c0-25.549-20.712-46.261-46.261-46.261s-46.261 20.712-46.261 46.261h.004c0 26.431-21.426 47.857-47.857 47.857-26.43 0-47.856-21.426-47.856-47.857-2.098-26.958 4.595-52.353 22.209-75.805h-82.323s5.627 111.321 91.222 157.656c85.596 46.335 79.074 102.947 110.862 102.947 31.572 0 26.771-57.089 110.101-101.83 83.329-44.741 91.983-158.772 91.983-158.772" fill="#fff"/><path d="m418.841 227.882s-.999 102.693-83.052 141.067c-77.081 36.049-62.238 90.475-90.744 90.475-6.631 0-11.878-2.69-16.98-7.326v13.758c8.718 13.683 15.303 22.629 27.935 22.629 31.572 0 26.771-57.089 110.101-101.83 83.329-44.741 91.983-158.772 91.983-158.772h-39.243z" fill="#e1bdfc"/><path d="m469.111 162.664h-23.342c-12.942-22.601-91.616-152.539-189.769-152.539s-176.826 129.938-189.768 152.539h-23.342c-18.153 0-32.869 14.716-32.869 32.869s14.716 32.869 32.869 32.869h426.221c18.153 0 32.869-14.716 32.869-32.869s-14.716-32.869-32.869-32.869z" fill="#96b4eb"/><g fill="#faf1a9"><path d="m345.949 83.715 4.634 9.389c.984 1.993 2.885 3.375 5.085 3.694l10.362 1.506c5.539.805 7.751 7.612 3.743 11.519l-7.498 7.309c-1.592 1.551-2.318 3.787-1.942 5.978l1.77 10.32c.946 5.517-4.844 9.724-9.799 7.119l-9.268-4.872c-1.967-1.034-4.318-1.034-6.285 0l-9.268 4.872c-4.954 2.605-10.745-1.602-9.799-7.119l1.77-10.32c.376-2.191-.351-4.426-1.942-5.978l-7.498-7.309c-4.008-3.907-1.797-10.714 3.743-11.519l10.362-1.506c2.2-.32 4.101-1.701 5.085-3.694l4.634-9.389c2.477-5.02 9.634-5.02 12.111 0z"/><path d="m262.056 40.916 4.634 9.389c.984 1.993 2.885 3.375 5.085 3.694l10.362 1.506c5.539.805 7.751 7.612 3.743 11.519l-7.498 7.309c-1.592 1.552-2.318 3.787-1.942 5.978l1.77 10.32c.946 5.517-4.844 9.724-9.799 7.119l-9.268-4.872c-1.967-1.034-4.318-1.034-6.285 0l-9.268 4.872c-4.954 2.605-10.745-1.602-9.799-7.119l1.77-10.32c.376-2.191-.35-4.426-1.942-5.978l-7.498-7.309c-4.008-3.907-1.796-10.714 3.743-11.519l10.361-1.505c2.2-.32 4.101-1.701 5.085-3.694l4.634-9.389c2.477-5.021 9.635-5.021 12.112-.001z"/><path d="m178.163 83.715 4.634 9.389c.984 1.993 2.885 3.375 5.085 3.694l10.362 1.506c5.539.805 7.751 7.612 3.743 11.519l-7.498 7.309c-1.592 1.551-2.318 3.787-1.942 5.978l1.77 10.32c.946 5.517-4.844 9.724-9.799 7.119l-9.268-4.872c-1.967-1.034-4.318-1.034-6.285 0l-9.268 4.872c-4.954 2.605-10.745-1.602-9.799-7.119l1.77-10.32c.376-2.191-.351-4.426-1.942-5.978l-7.498-7.309c-4.008-3.907-1.796-10.714 3.743-11.519l10.362-1.506c2.2-.32 4.101-1.701 5.085-3.694l4.634-9.389c2.476-5.02 9.634-5.02 12.111 0z"/></g><path d="m256 10.126c-10.112 0-20.018 1.38-29.666 3.879 4.021-.594 8.093-.924 12.215-.924 40.748 0 76.907 30.611 102.295 60.113 5.324 6.187 4.089 14.498 7.923 20.435 21.138 32.733 5.698 47.577-32.791 33.489h-121.268l-24.56 6.591-19.479-6.591h-52.323s21.95-40.654 56.377-73.415c-54.635 46.115-90.362 112.296-90.362 112.296h383.278c0-.001-84.137-155.873-191.639-155.873z" fill="#8286ea"/><g><path d="m159.697 140.549 9.268-4.873c1.968-1.034 4.318-1.034 6.285 0l9.268 4.873c4.955 2.604 10.745-1.603 9.799-7.12l-1.083-6.312h-42.254l-1.082 6.312c-.947 5.517 4.844 9.724 9.799 7.12z" fill="#dfb5a7"/></g><g><path d="m327.483 140.549 9.268-4.873c1.967-1.034 4.318-1.034 6.285 0l9.268 4.873c4.955 2.604 10.745-1.603 9.799-7.12l-1.77-10.32c-.376-2.19.351-4.426 1.942-5.978l7.498-7.309c4.008-3.907 1.797-10.714-3.743-11.519l-10.362-1.506c-2.2-.319-4.101-1.701-5.085-3.694l-2.363-4.788c3.404 18.001-9.269 37.048-29.433 38.681l-1.103 6.433c-.946 5.517 4.845 9.724 9.799 7.12z" fill="#dfb5a7"/></g><path d="m477.906 424.713 8.231 23.145c.352.991 1.05 1.776 1.931 2.173l20.563 9.264c2.905 1.309 2.905 5.938 0 7.246l-20.563 9.264c-.88.397-1.578 1.182-1.931 2.173l-8.231 23.145c-1.163 3.27-5.275 3.27-6.438 0l-8.231-23.145c-.352-.991-1.05-1.776-1.93-2.173l-20.563-9.264c-2.905-1.309-2.905-5.938 0-7.246l20.563-9.264c.88-.397 1.578-1.182 1.93-2.173l8.231-23.145c1.163-3.27 5.275-3.27 6.438 0z" fill="#c1e5ef"/><path d="m40.171 409.709 6.106 17.168c.261.735.779 1.318 1.432 1.612l15.253 6.872c2.155.971 2.155 4.404 0 5.375l-15.253 6.872c-.653.294-1.171.877-1.432 1.612l-6.106 17.168c-.863 2.425-3.913 2.425-4.776 0l-6.106-17.168c-.261-.735-.779-1.318-1.432-1.612l-15.253-6.872c-2.155-.971-2.155-4.404 0-5.375l15.253-6.872c.653-.294 1.171-.877 1.432-1.612l6.106-17.168c.862-2.426 3.913-2.426 4.776 0z" fill="#c1e5ef"/><ellipse cx="466.338" cy="76.738" fill="#96b4eb" rx="17.973" ry="17.973" transform="matrix(.924 -.383 .383 .924 6.132 184.302)"/><path d="m97.597 403.725c0 4.282-3.471 7.753-7.753 7.753s-7.753-3.471-7.753-7.753 3.471-7.753 7.753-7.753 7.753 3.471 7.753 7.753z" fill="#96b4eb"/></g><g><g fill="#3c122c"><path d="m142.264 254.266c1.49 2.955 5.102 4.143 8.063 2.666.053-.026 5.318-2.616 11.559-2.616 6.24 0 11.505 2.589 11.532 2.603.876.447 1.809.659 2.729.659 2.187 0 4.297-1.198 5.359-3.28 1.51-2.957.337-6.579-2.62-8.088-.786-.401-7.937-3.918-17-3.918s-16.215 3.517-17 3.918c-2.948 1.503-4.113 5.101-2.622 8.056z"/><path d="m338.556 256.931c.053-.026 5.318-2.616 11.559-2.616s11.506 2.59 11.534 2.604c.875.447 1.808.658 2.728.658 2.187 0 4.297-1.198 5.359-3.281 1.51-2.957.336-6.578-2.622-8.088-.786-.401-7.937-3.918-17-3.918s-16.215 3.517-17 3.918c-2.947 1.505-4.113 5.102-2.621 8.057 1.49 2.955 5.103 4.143 8.063 2.666z"/><path d="m273.611 297.675c-3.32 0-6.012 2.692-6.012 6.012 0 6.395-5.203 11.598-11.599 11.598-6.395 0-11.598-5.203-11.598-11.598 0-3.32-2.692-6.012-6.012-6.012s-6.012 2.692-6.012 6.012c0 13.025 10.597 23.623 23.622 23.623 13.026 0 23.623-10.597 23.623-23.623 0-3.32-2.692-6.012-6.012-6.012z"/><path d="m469.11 238.423c23.65 0 42.89-19.24 42.89-42.89s-19.24-42.89-42.89-42.89h-17.582c-8.226-13.84-26.364-42.365-51.891-71.221-20.637-23.329-41.822-41.968-62.969-55.4-27.073-17.197-54.214-25.917-80.668-25.917s-53.595 8.72-80.669 25.917c-21.146 13.432-42.332 32.072-62.969 55.4-25.526 28.855-43.664 57.381-51.89 71.221h-17.582c-23.65 0-42.89 19.24-42.89 42.89s19.24 42.89 42.89 42.89h1.993c.471 3.735 1.161 8.393 2.157 13.755-13.664 9.192-22.678 24.787-22.678 42.458 0 28.209 22.95 51.159 51.16 51.159 3.255 0 6.439-.308 9.526-.892 15.11 21.033 33.746 37.769 55.321 49.448.909.492 1.788.987 2.675 1.482-13.464 20.915-21.287 45.789-21.287 72.459v33.584c0 5.534 4.487 10.02 10.02 10.02 5.534 0 10.02-4.486 10.02-10.02v-33.584c0-22.837 6.761-44.114 18.354-61.978 7.894 5.342 14.696 10.731 20.649 16.077-8.686 13.728-13.733 29.974-13.733 47.386v35.901c0 3.32 2.692 6.012 6.012 6.012s6.012-2.692 6.012-6.012v-35.901c0-14.165 3.866-27.434 10.578-38.838 12.926 13.398 21.027 26.204 27.804 36.924 10.393 16.443 19.369 30.643 38.527 30.643 19.11 0 28.338-14.352 39.022-30.97 6.79-10.561 14.902-23.164 27.524-36.241 6.58 11.325 10.365 24.465 10.365 38.481v35.901c0 3.32 2.692 6.012 6.012 6.012s6.012-2.692 6.012-6.012v-35.901c0-17.264-4.954-33.387-13.501-47.041 5.972-5.355 12.797-10.731 20.698-16.027 11.431 17.781 18.074 38.92 18.074 61.583v33.584c0 5.534 4.487 10.02 10.02 10.02 5.534 0 10.02-4.486 10.02-10.02v-33.584c0-26.455-7.695-51.143-20.96-71.953.521-.284 1.027-.571 1.556-.855 21.612-11.604 40.402-28.766 55.725-50.677 3.21.636 6.52.989 9.914.989 28.209 0 51.159-22.95 51.159-51.159 0-17.835-9.184-33.553-23.062-42.709 1.053-5.273 1.808-9.842 2.339-13.504zm-213.11-218.277c78.931 0 146.413 92.462 171.93 132.497h-343.858c25.516-40.037 92.997-132.497 171.928-132.497zm-235.959 175.387c0-12.599 10.25-22.849 22.849-22.849h426.22c12.599 0 22.849 10.25 22.849 22.849s-10.25 22.849-22.849 22.849h-426.22c-12.599 0-22.849-10.25-22.849-22.849zm371.933 107.729c-.01.142-.015.283-.015.425 0 23.073-18.772 41.845-41.845 41.845-23.005 0-41.732-18.66-41.845-41.639.003-.069.004-.137.004-.206 0-28.824-23.45-52.274-52.274-52.274-28.823 0-52.273 23.45-52.273 52.274 0 .059.001.119.003.178-.096 22.992-18.83 41.667-41.844 41.667-23.073 0-41.845-18.771-41.845-41.845 0-.193-.01-.392-.028-.584-.04-.414-3.434-38.497 16.28-64.681h242.974c15.185 26.184 12.737 64.434 12.708 64.84zm-347.571-8.626c0-7.83 2.922-14.98 7.715-20.453 1.625 5.881 3.565 12.107 5.884 18.546 4.214 11.703 9.182 22.69 14.851 32.903-15.914-1.359-28.45-14.737-28.45-30.996zm423.194 0c0 16.518-12.937 30.065-29.211 31.054 5.389-9.861 10.193-20.451 14.354-31.732 2.618-7.097 4.794-13.942 6.612-20.37 5.11 5.544 8.245 12.932 8.245 21.048zm-106.237 83.19c-49.613 26.639-69.822 58.072-83.195 78.872-10.368 16.124-14.664 21.767-22.165 21.767-7.487 0-11.408-5.206-21.588-21.311-13.272-20.996-33.328-52.725-84.503-80.427-33.115-17.926-57.627-48.286-72.854-90.239-7.1-19.561-10.421-37.24-11.934-48.065h56.709c-16.555 27.89-14.155 61.648-13.812 65.549.153 29.574 24.259 53.584 53.868 53.584 29.703 0 53.868-24.166 53.868-53.869 0-.059-.001-.118-.003-.177.097-22.112 18.115-40.072 40.249-40.072 22.125 0 40.137 17.945 40.249 40.044-.002.069-.003.137-.003.206 0 29.703 24.165 53.869 53.869 53.869 29.634 0 53.757-24.053 53.869-53.662.221-3.438 2.029-37.642-11.153-65.472h53.785c-4.642 28.931-22.608 105.766-85.256 139.403z"/><path d="m373.97 114.128c3.504-3.416 4.742-8.431 3.23-13.086-1.513-4.656-5.461-7.985-10.305-8.688l-10.363-1.506c-.241-.035-.449-.186-.558-.406l-4.634-9.39c-2.166-4.389-6.551-7.116-11.446-7.116-4.896 0-9.281 2.727-11.447 7.116l-4.635 9.391c-.108.218-.316.369-.558.405l-10.361 1.506c-4.845.704-8.793 4.033-10.306 8.688-1.512 4.655-.274 9.669 3.23 13.086l7.499 7.309c.174.17.255.415.212.656l-1.77 10.32c-.827 4.824 1.118 9.608 5.079 12.485 2.238 1.626 4.857 2.452 7.492 2.452 2.029 0 4.068-.49 5.953-1.48l9.268-4.872c.214-.113.474-.114.69 0l9.268 4.872c4.332 2.279 9.482 1.906 13.444-.971 3.96-2.877 5.906-7.661 5.079-12.485l-1.77-10.321c-.042-.24.038-.485.213-.656zm-8.394-8.61-7.497 7.308c-3.01 2.933-4.383 7.157-3.672 11.299l1.77 10.32c.023.136.078.454-.295.725-.372.272-.66.121-.781.056l-9.267-4.872c-3.72-1.956-8.161-1.956-11.882-.001l-9.268 4.873c-.123.064-.409.215-.781-.057-.373-.271-.318-.589-.294-.725l1.77-10.32c.71-4.143-.663-8.367-3.672-11.299l-7.498-7.309c-.099-.096-.331-.321-.188-.76.142-.438.462-.484.599-.504l10.361-1.506c4.16-.604 7.753-3.215 9.611-6.982l4.635-9.391c.061-.123.204-.412.664-.412s.603.289.663.412c0 .001 0 .001.001.001l4.633 9.389c1.859 3.769 5.452 6.38 9.611 6.983l10.363 1.506c.136.02.456.066.598.504.147.44-.085.666-.184.762z"/><path d="m283.001 49.556-10.361-1.506c-.242-.035-.45-.186-.559-.406l-4.634-9.389c-2.167-4.389-6.553-7.116-11.448-7.116s-9.28 2.727-11.445 7.116l-4.635 9.39c-.108.219-.316.37-.557.405l-10.362 1.506c-4.844.704-8.793 4.033-10.305 8.688-1.513 4.655-.276 9.669 3.229 13.087l7.499 7.309c.174.17.254.415.212.656l-1.77 10.32c-.827 4.824 1.118 9.608 5.079 12.485 2.238 1.626 4.857 2.452 7.492 2.452 2.029 0 4.068-.49 5.952-1.48l9.269-4.873c.215-.114.474-.114.689.001l9.268 4.872c4.329 2.278 9.482 1.907 13.442-.971 3.96-2.877 5.908-7.661 5.081-12.486l-1.77-10.321c-.042-.24.038-.485.213-.656l7.498-7.308c3.505-3.417 4.742-8.432 3.229-13.087-1.513-4.656-5.462-7.985-10.306-8.688zm-1.318 13.164-7.497 7.308c-3.01 2.933-4.383 7.157-3.673 11.299l1.77 10.319c.023.136.078.455-.296.726-.374.272-.659.12-.78.056l-9.268-4.872c-3.72-1.955-8.162-1.955-11.881 0l-9.268 4.873c-.123.064-.408.215-.781-.057-.373-.271-.318-.589-.295-.725l1.77-10.32c.71-4.143-.662-8.367-3.672-11.299l-7.498-7.308c-.099-.096-.331-.322-.188-.76.142-.438.462-.484.598-.504l10.363-1.506c4.159-.605 7.752-3.216 9.61-6.983l4.635-9.39c.061-.123.204-.412.663-.412.461 0 .604.29.665.413l4.633 9.388c1.859 3.768 5.453 6.379 9.612 6.984l10.362 1.506c.136.02.456.067.598.504.149.438-.083.663-.182.76z"/><path d="m199.109 92.354-10.363-1.506c-.242-.035-.45-.187-.558-.405l-4.633-9.39h-.001c-2.166-4.389-6.552-7.116-11.447-7.116s-9.281 2.726-11.448 7.116l-4.633 9.388c-.109.219-.317.371-.56.407l-10.362 1.506c-4.844.704-8.792 4.033-10.304 8.688-1.513 4.655-.275 9.669 3.23 13.086l7.498 7.308c.175.171.255.416.213.657l-1.77 10.32c-.827 4.824 1.118 9.608 5.079 12.485 2.238 1.626 4.856 2.452 7.491 2.452 2.029 0 4.068-.49 5.952-1.48l9.268-4.872c.214-.113.474-.114.69 0l9.268 4.872c4.335 2.279 9.487 1.905 13.444-.972 3.96-2.877 5.906-7.661 5.079-12.485l-1.77-10.321c-.042-.24.038-.485.213-.656l7.497-7.308c3.505-3.416 4.744-8.43 3.231-13.085-1.512-4.656-5.46-7.985-10.304-8.689zm-1.32 13.164-7.498 7.309c-3.009 2.934-4.381 7.158-3.672 11.298l1.77 10.32c.023.136.078.454-.295.725-.373.272-.66.121-.781.056l-9.267-4.872c-1.86-.978-3.9-1.467-5.941-1.467s-4.081.489-5.941 1.466l-9.268 4.873c-.122.064-.405.216-.78-.056-.373-.271-.318-.589-.295-.725l1.77-10.32c.71-4.141-.662-8.365-3.672-11.3l-7.498-7.308c-.099-.096-.33-.321-.188-.759.143-.438.462-.485.599-.505l10.361-1.506c4.158-.604 7.751-3.214 9.613-6.983l4.632-9.389c.062-.124.204-.414.665-.414s.604.29.665.414l4.633 9.391c1.861 3.768 5.454 6.378 9.611 6.981l10.362 1.506c.137.02.456.066.599.504.147.439-.084.664-.184.761z"/><path d="m304.269 367.719c-3.32 0-6.012 2.692-6.012 6.012v11.354c0 3.32 2.692 6.012 6.012 6.012s6.012-2.692 6.012-6.012v-11.354c0-3.32-2.692-6.012-6.012-6.012z"/><path d="m273.251 393.448c-3.32 0-6.012 2.692-6.012 6.012v11.354c0 3.32 2.692 6.012 6.012 6.012s6.012-2.692 6.012-6.012v-11.354c0-3.32-2.692-6.012-6.012-6.012z"/><path d="m248.402 371.594c-3.32 0-6.012 2.692-6.012 6.012v11.354c0 3.32 2.692 6.012 6.012 6.012s6.012-2.692 6.012-6.012v-11.354c0-3.32-2.692-6.012-6.012-6.012z"/></g><path d="m136.043 204.001c-8.783 0-17.597-.03-26.565-.09-5.534-.037-9.99-4.553-9.954-10.087.037-5.511 4.516-9.954 10.019-9.954h.067c17.845.119 35.077.119 52.681 0h.068c5.503 0 9.982 4.442 10.019 9.953.037 5.534-4.419 10.05-9.953 10.088-8.845.061-17.599.09-26.382.09z" fill="#fff"/><path d="m69.828 203.912h-15.903c-5.534 0-10.02-4.486-10.02-10.02s4.487-10.02 10.02-10.02h15.903c5.534 0 10.02 4.486 10.02 10.02.001 5.534-4.486 10.02-10.02 10.02z" fill="#fff"/><circle cx="161.886" cy="303.687" fill="#3c122c" r="17.611"/><circle cx="350.115" cy="303.687" fill="#3c122c" r="17.611"/></g></g></svg>