<svg id="Capa_1" enable-background="new 0 0 512 512" height="512" viewBox="0 0 512 512" width="512" xmlns="http://www.w3.org/2000/svg"><g><g><path d="m383.988 502.003v-33.766c0-68.979-55.918-124.897-124.897-124.897-68.979 0-124.897 55.918-124.897 124.897v33.766z" fill="#fff"/><path d="m267.839 386.592c24.115 10.846 41.077 36.587 41.077 66.627v7.228c0 11.251-9.121 20.372-20.372 20.372h-112.824v20.589h166.742v-31.903c0-43.091-32.691-78.539-74.623-82.913z" fill="#e1bdfc"/><path d="m294.336 395.86h-70.491c-87.595 0-158.604-71.01-158.604-158.604 0-87.595 71.009-158.604 158.604-158.604h70.491c87.595 0 158.604 71.009 158.604 158.604 0 87.594-71.009 158.604-158.604 158.604z" fill="#c1e5ef"/><path d="m294.336 78.425h-20.339c71.014 0 128.582 57.568 128.582 128.582v10.92c0 71.014-57.568 128.582-128.582 128.582h-80.174c-67.958 0-123.595-52.723-128.258-119.495-.206 3.313-.324 6.65-.324 10.015v.001c0 87.594 71.009 158.604 158.604 158.604h70.491c87.595 0 158.604-71.01 158.604-158.604v-.001c0-87.595-71.009-158.604-158.604-158.604z" fill="#a6aaed"/><path d="m303.54 61.714h-87.748c-87.935 0-159.22 88.268-159.22 176.203l39.717 269.128s49.623.144 48.865.144c-4.369-55.929 2.587-178.901 55.665-295.872-11.855 83.991-28.954 223.903-27.447 294.258h39.839c-4.067-58.291 31.909-289.932 43.765-364.016 1.039-1.582 2.073-3.164 3.132-4.745 65.122 149.996 102.215 287.926 107.664 371.461l56.344-1.186 38.644-269.172c0-87.935-71.285-176.203-159.22-176.203z" fill="#9781dd"/><g fill="#8962de"><path d="m89.066 455.355h-.405l7.628 51.69 45.446.006c-.121-5.263-.034-10.503.171-15.639.457-11.434 1.61-22.879 3.375-34.221l-55.965-.008z"/><path d="m209.21 457.201-35.029-.005c-1.171 16.494-1.738 33.566.719 49.859l31.766.004c-1.695-16.439-.312-33.502 2.544-49.858z"/><path d="m303.54 61.714h-43.357c72.497 0 131.268 78.385 131.268 156.474l-23.586 176.959c-1.718 12.893-6.817 24.591-14.314 34.277 6.503 25.597 13.088 51.359 14.401 77.658l56.164.007 38.644-269.172c0-87.935-71.285-176.203-159.22-176.203z"/></g><path d="m451.534 2.466 8.276 23.27c.354.996 1.056 1.786 1.941 2.185l20.674 9.315c2.921 1.316 2.921 5.97 0 7.286l-20.674 9.315c-.885.399-1.587 1.188-1.941 2.185l-8.276 23.27c-1.169 3.288-5.304 3.288-6.473 0l-8.276-23.27c-.354-.996-1.056-1.786-1.941-2.185l-20.674-9.317c-2.921-1.316-2.921-5.97 0-7.286l20.674-9.315c.885-.399 1.587-1.188 1.941-2.185l8.276-23.27c1.169-3.286 5.304-3.286 6.473.002z" fill="#c2b2eb"/><path d="m32.768 87.607 6.139 17.261c.263.739.783 1.325 1.44 1.621l15.336 6.909c2.167.976 2.167 4.428 0 5.404l-15.336 6.909c-.657.296-1.177.882-1.44 1.621l-6.139 17.261c-.867 2.439-3.934 2.439-4.802 0l-6.139-17.261c-.263-.739-.783-1.325-1.44-1.621l-15.336-6.909c-2.166-.976-2.166-4.428 0-5.404l15.336-6.909c.657-.296 1.177-.882 1.44-1.621l6.139-17.261c.868-2.439 3.935-2.439 4.802 0z" fill="#c2b2eb"/><ellipse cx="102.043" cy="29.168" fill="#9781dd" rx="18.07" ry="18.07" transform="matrix(.212 -.977 .977 .212 51.936 122.724)"/><circle cx="500.777" cy="113.095" fill="#9781dd" r="7.795"/></g><g><path d="m288.439 51.854h-58.697c-95.939 0-173.991 82.28-173.991 183.415 0 .4.024.798.071 1.194l31.692 265.523c.611 5.119 4.961 8.881 9.991 8.881.398 0 .801-.024 1.207-.072 5.525-.659 9.469-5.673 8.81-11.198l-31.62-264.92c.302-89.752 69.198-162.674 153.84-162.674h58.697c17.441 0 34.21 3.103 49.851 8.804.326.406.705.78 1.148 1.102.214.162 21.57 16.892 38.039 77.098 15.252 55.759 29.255 161.085 9.355 346.22-.357 3.319 2.045 6.3 5.364 6.657.219.024.437.035.653.035 3.048 0 5.669-2.3 6.003-5.399 8.96-83.363 11.907-157.903 8.757-221.552-2.53-51.12-8.98-95.422-19.172-131.676-8.092-28.784-17.321-48.049-25.052-60.557 46.901 27.887 78.719 81.079 78.896 142.032l-26.96 265.007c-.563 5.535 3.468 10.479 9.003 11.042 5.538.556 10.479-3.468 11.043-9.003l27.012-265.522c.035-.339.052-.679.052-1.019 0-101.138-78.053-183.418-173.992-183.418z" fill="#3c122c"/><path d="m260.985 134.869c-.654-1.506-1.893-2.682-3.433-3.257-1.538-.573-3.245-.497-4.726.215l-1.191.572c-1.767.847-3.014 2.499-3.344 4.431-2.086 12.199-51.028 299.576-46.173 369.166.232 3.33 3.131 5.841 6.451 5.609 3.33-.232 5.841-3.121 5.609-6.451-1.332-19.085 1.653-55.975 6.652-99.265 1.004.019 2.007.046 3.016.046h70.491c2.71 0 5.402-.072 8.081-.199 20.5 13.917 34 37.403 34 63.995v36.095c0 3.338 2.707 6.045 6.045 6.045s6.045-2.707 6.045-6.045v-36.095c0-25.951-11.117-49.35-28.835-65.698 7.729-1.17 15.285-2.873 22.636-5.057 10.618 41.412 17.138 77.739 19.071 107.374.208 3.198 2.867 5.651 6.026 5.651.132 0 .266-.004.399-.013 3.331-.217 5.856-3.094 5.638-6.425-5.448-83.514-46.437-218.626-112.458-370.694zm33.351 250.916h-70.491c-.204 0-.406-.005-.609-.008 9.243-74.803 23.092-162.524 30.955-210.687v172.01c0 3.338 2.707 6.045 6.045 6.045s6.045-2.707 6.045-6.045v-168.783c8.919 21.54 17.291 42.653 25.081 63.228v108.441c0 3.338 2.707 6.045 6.045 6.045s6.045-2.707 6.045-6.045v-75.638c13.383 37.352 24.67 72.625 33.655 105.129-13.554 4.083-27.904 6.308-42.771 6.308z" fill="#3c122c"/><path d="m209 198.713c.458-3.04-1.439-5.94-4.409-6.738-2.972-.8-6.065.761-7.192 3.623l-6.24 15.84c-.038.098-.075.198-.108.297-37.273 111.399-53.566 230.438-52.932 293.899.033 3.339 2.763 6.032 6.105 5.985 3.338-.033 6.017-2.767 5.984-6.105-.281-28.152 2.834-67.452 9.71-112.205 4.185 1.722 8.444 3.296 12.788 4.683-3.384 39.376-5.517 77.622-4.872 107.714.07 3.293 2.762 5.915 6.041 5.915.044 0 .088 0 .132-.001 3.338-.072 5.986-2.835 5.914-6.174-2.031-94.772 23.867-272.139 29.079-306.733zm-45.735 174.115c5.943-34.312 13.984-71.154 24.275-108.206-4.287 32.615-9.133 72.63-12.962 112.734-3.846-1.356-7.618-2.87-11.313-4.528z" fill="#3c122c"/><path d="m184.266 127.474c1.92 0 3.862-.548 5.579-1.693 2.049-1.366 5.645-3.447 7.211-4.084 5.154-2.096 7.634-7.972 5.538-13.127s-7.973-7.633-13.127-5.539c-3.831 1.558-9.094 4.848-10.799 5.985-4.63 3.086-5.881 9.342-2.794 13.971 1.941 2.911 5.136 4.487 8.392 4.487z" fill="#fff"/><path d="m144.978 167.608c7.751-12.232 16.745-20.921 22.925-26.057 4.28-3.557 4.866-9.908 1.309-14.188-3.556-4.279-9.909-4.864-14.187-1.31-7.294 6.062-17.911 16.321-27.067 30.77-2.978 4.7-1.583 10.925 3.117 13.903 1.673 1.06 3.539 1.565 5.383 1.565 3.337 0 6.602-1.656 8.52-4.683z" fill="#fff"/><g fill="#3c122c"><path d="m110.386 240.611c-3.336.11-5.952 2.904-5.842 6.242l8.536 258.484c.108 3.268 2.791 5.845 6.038 5.845.067 0 .135-.001.203-.003 3.336-.11 5.952-2.904 5.842-6.242l-8.536-258.484c-.11-3.336-2.9-5.948-6.241-5.842z"/><path d="m273.645 428.441c-3.338 0-6.045 2.707-6.045 6.045v11.414c0 3.338 2.707 6.045 6.045 6.045s6.045-2.707 6.045-6.045v-11.415c0-3.337-2.707-6.044-6.045-6.044z"/><path d="m314.844 447.74c-3.338 0-6.045 2.707-6.045 6.045v11.415c0 3.338 2.707 6.045 6.045 6.045s6.045-2.707 6.045-6.045v-11.416c0-3.337-2.707-6.044-6.045-6.044z"/><path d="m289.984 462.096c-3.338 0-6.045 2.706-6.045 6.045v11.415c0 3.338 2.707 6.045 6.045 6.045s6.045-2.707 6.045-6.045v-11.415c-.001-3.338-2.707-6.045-6.045-6.045z"/></g></g></g></svg>