<svg id="Capa_1" enable-background="new 0 0 512 512" height="512" viewBox="0 0 512 512" width="512" xmlns="http://www.w3.org/2000/svg"><g><g><path d="m380.306 500.79v-33.792c0-69.032-55.961-124.993-124.993-124.993-69.032 0-124.993 55.961-124.993 124.993v33.792z" fill="#d789b9"/><path d="m129.706 450.481h251.385v29.044h-251.385z" fill="#f6e06e"/><path d="m264.068 385.886c24.133 10.854 41.109 36.616 41.109 66.679v7.233c0 11.26-9.128 20.388-20.388 20.388h-112.912v20.605h166.871v-31.928c0-43.124-32.716-78.6-74.68-82.977z" fill="#c668b9"/><path d="m290.062 479.472h48.686v-10.609c0-5.887-.63-11.624-1.79-17.166h-31.797c.003.289.015.577.015.868v7.233c.001 9.433-6.414 17.347-15.114 19.674z" fill="#dda86a"/><path d="m448.441 252.516c.572-5.481.871-11.044.871-16.677v-.001c0-87.663-71.064-158.727-158.727-158.727h-70.545c-87.662 0-158.727 71.064-158.727 158.727v.001c0 5.633.298 11.196.871 16.677-17.247 4.996-29.861 20.896-29.861 39.753 0 22.861 18.532 41.393 41.393 41.393 6.514 0 12.674-1.509 18.157-4.19 28.877 39.458 75.524 65.092 128.167 65.092h70.546c52.642 0 99.29-25.634 128.167-65.092 5.483 2.681 11.643 4.19 18.157 4.19 22.861 0 41.393-18.532 41.393-41.393-.001-18.857-12.615-34.757-29.862-39.753z" fill="#a07575"/><path d="m290.586 80.085h-20.354c71.069 0 128.682 57.613 128.682 128.681v10.928c0 71.069-57.613 128.682-128.682 128.682h-80.236c-68.011 0-123.691-52.763-128.357-119.588-.207 3.315-.324 6.655-.324 10.023v.001c0 87.662 71.064 158.727 158.727 158.727h70.546c87.662 0 158.727-71.064 158.727-158.727v-.001c-.003-87.662-71.067-158.726-158.729-158.726z" fill="#925873"/><path d="m68.375 193.695s-21.774 118.204 16.136 219.491l60.603-18.138c-26.756-29.602-40.342-157.55 1.139-175.338 51.284-21.992-77.878-26.015-77.878-26.015z" fill="#9781dd"/><path d="m442.25 193.695s21.775 118.204-16.136 219.491l-60.603-18.138c26.756-29.602 40.342-157.55-1.139-175.338-51.284-21.992 77.878-26.015 77.878-26.015z" fill="#9781dd"/><path d="m459.958 145.859h-8.187c-23.165-69.52-86.377-119.409-160.739-119.409h-69.541c-74.362 0-137.574 49.889-160.739 119.409h-10.085c-9.07 0-16.422 7.353-16.422 16.422v43.792c0 9.07 7.352 16.422 16.422 16.422h409.291c9.07 0 16.422-7.352 16.422-16.422v-43.792c0-9.069-7.352-16.422-16.422-16.422z" fill="#d789b9"/><path d="m162.735 153.895v-109.184c0-10.342-10.241-17.566-19.984-14.097l-20.883 7.438c-5.962 2.124-9.943 7.768-9.943 14.097v101.746z" fill="#f6e06e"/><path d="m404.952 153.895v-101.747c0-6.329-3.981-11.973-9.943-14.097l-20.883-7.438c-9.743-3.47-19.984 3.754-19.984 14.097v109.184h50.81z" fill="#f6e06e"/><path d="m459.958 145.859h-67.724c6.407 0 11.601 5.194 11.601 11.602v22.55c0 6.407-5.194 11.601-11.601 11.601h-346.388c-6.407 0-11.601-5.194-11.601-11.601v26.062c0 9.07 7.352 16.422 16.422 16.422h409.291c9.07 0 16.422-7.352 16.422-16.422v-43.792c0-9.069-7.352-16.422-16.422-16.422z" fill="#c668b9"/><path d="m285.91 115.466-20.462 12.277c-6.329 3.797-13.943 3.797-20.272 0l-20.462-12.277c-6.937-4.162-11.263-12.239-11.263-21.026v-39.564c0-13.185 9.581-23.874 21.399-23.874h40.923c11.818 0 21.399 10.689 21.399 23.874v39.564c.001 8.787-4.325 16.864-11.262 21.026z" fill="#f6e06e"/><path d="m275.774 31.003h-14.549c9.06 0 16.404 8.193 16.404 18.3v30.328c0 6.736-3.317 12.928-8.634 16.118l-15.685 9.411c-4.851 2.91-10.688 2.91-15.54 0l-15.685-9.411c-5.317-3.19-8.634-9.382-8.634-16.118v14.81c0 8.787 4.327 16.863 11.263 21.025l20.461 12.277c6.329 3.798 13.943 3.798 20.272 0l20.462-12.277c6.937-4.162 11.263-12.239 11.263-21.025v-39.564c.001-13.185-9.579-23.874-21.398-23.874z" fill="#dda86a"/><path d="m478.552 2.467 8.282 23.288c.355.997 1.057 1.787 1.942 2.186l20.69 9.322c2.923 1.317 2.923 5.974 0 7.291l-20.69 9.322c-.886.399-1.588 1.189-1.942 2.186l-8.282 23.288c-1.17 3.29-5.308 3.29-6.478 0l-8.282-23.288c-.355-.997-1.057-1.787-1.943-2.186l-20.69-9.322c-2.923-1.317-2.923-5.974 0-7.291l20.69-9.322c.886-.399 1.588-1.189 1.943-2.186l8.282-23.288c1.17-3.289 5.308-3.289 6.478 0z" fill="#e8c2d8"/><circle cx="18.426" cy="393.562" fill="#d789b9" r="18.084"/><path d="m69.96 440.506 6.144 17.274c.263.74.784 1.326 1.441 1.622l15.348 6.915c2.168.977 2.168 4.432 0 5.409l-15.348 6.915c-.657.296-1.178.882-1.441 1.622l-6.144 17.275c-.868 2.44-3.937 2.44-4.805 0l-6.144-17.275c-.263-.74-.784-1.326-1.441-1.622l-15.348-6.915c-2.168-.977-2.168-4.432 0-5.409l15.348-6.915c.657-.296 1.178-.882 1.441-1.622l6.144-17.274c.868-2.441 3.937-2.441 4.805 0z" fill="#e8c2d8"/></g><g><g fill="#3c122c"><path d="m174.966 254.98c-.925 0-1.864-.213-2.746-.663-.028-.014-5.326-2.619-11.605-2.619s-11.577 2.605-11.629 2.632c-2.981 1.485-6.614.29-8.114-2.682-1.5-2.973-.328-6.593 2.637-8.106.791-.404 7.986-3.942 17.106-3.942s16.315 3.539 17.106 3.942c2.975 1.518 4.156 5.162 2.638 8.138-1.07 2.095-3.192 3.3-5.393 3.3z"/><path d="m364.36 254.98c-.926 0-1.864-.213-2.746-.663-.028-.014-5.326-2.619-11.605-2.619s-11.576 2.605-11.629 2.632c-2.981 1.485-6.614.29-8.114-2.682-1.5-2.973-.328-6.593 2.637-8.106.791-.404 7.986-3.942 17.105-3.942 9.12 0 16.315 3.539 17.106 3.942 2.975 1.518 4.156 5.162 2.638 8.138-1.068 2.095-3.191 3.3-5.392 3.3z"/><path d="m255.312 325.145c-13.106 0-23.769-10.663-23.769-23.769 0-3.341 2.709-6.049 6.049-6.049 3.341 0 6.049 2.709 6.049 6.049 0 6.435 5.235 11.671 11.67 11.671s11.671-5.235 11.671-11.671c0-3.341 2.709-6.049 6.049-6.049 3.341 0 6.049 2.709 6.049 6.049.002 13.106-10.661 23.769-23.768 23.769z"/><path d="m459.626 246.104c.028-5.187-.015-10.094-.11-14.687 15.484-4.038 26.947-18.139 26.947-34.87v-19.8c0-16.125-10.647-29.808-25.279-34.392-10.201-30.329-27.659-57.117-50.182-78.113v-12.094c0-8.865-5.611-16.82-13.962-19.795l-20.883-7.438c-6.425-2.288-13.588-1.306-19.162 2.624-.553.39-1.078.811-1.585 1.248-20.003-8.01-41.702-12.42-64.375-12.42h-69.541c-21.58 0-42.285 3.979-61.479 11.268-.044-.031-.084-.066-.128-.096-5.574-3.932-12.736-4.912-19.162-2.624l-20.883 7.438c-8.351 2.975-13.962 10.93-13.962 19.795v8.127c-24.49 21.414-43.46 49.475-54.343 81.498-15.699 3.887-27.375 18.089-27.375 34.973v19.8c0 16.732 11.463 30.833 26.948 34.87-.094 4.588-.138 9.491-.11 14.672-17.022 8.407-28.76 25.946-28.76 46.181 0 23.599 15.969 43.526 37.666 49.576 4.36 23.202 10.755 47.69 20.066 71.686 1.528 3.936 5.304 6.435 9.395 6.435.65 0 1.309-.063 1.968-.194l40.768-8.092c-7.617 16.892-11.867 35.616-11.867 55.318v33.792c0 5.568 4.514 10.082 10.082 10.082s10.082-4.514 10.082-10.082v-12.55h25.426v16.376c0 3.341 2.708 6.049 6.049 6.049s6.049-2.709 6.049-6.049v-16.376h71.337v17.71c0 3.341 2.708 6.049 6.049 6.049s6.049-2.709 6.049-6.049v-17.71h71.336v16.376c0 3.341 2.709 6.049 6.049 6.049 3.341 0 6.049-2.709 6.049-6.049v-16.376h25.427v12.55c0 5.568 4.514 10.082 10.082 10.082s10.082-4.514 10.082-10.082v-33.792c0-19.7-4.245-38.424-11.859-55.316l40.761 8.09c.659.131 1.317.194 1.968.194 4.091 0 7.867-2.5 9.395-6.435 9.313-23.999 15.708-48.49 20.068-71.694 21.695-6.05 37.664-25.97 37.664-49.568.004-20.231-11.736-37.758-28.755-46.165zm-48.625-152.695c11.726 13.916 21.289 29.877 28.134 47.305h-28.134zm-50.81-48.698c0-2.937 1.376-5.592 3.776-7.284 2.4-1.693 5.362-2.098 8.129-1.113l20.883 7.438c3.543 1.262 5.923 4.636 5.923 8.398v88.566h-38.711zm-104.147-19.757h-7.827c2.557-.207 5.181-.209 7.827 0zm-36.543 29.923c0-9.828 6.886-17.824 15.35-17.824h40.923c8.464 0 15.35 7.996 15.35 17.824v39.563c0 6.687-3.191 12.757-8.326 15.838l-20.462 12.277c-4.397 2.639-9.648 2.639-14.046 0l-20.462-12.277c-5.136-3.082-8.326-9.151-8.326-15.838v-39.563zm-50.716-8.98c13.971-5.124 28.814-8.279 44.233-9.128-3.52 5.031-5.615 11.306-5.615 18.108v39.563c0 10.913 5.441 20.957 14.201 26.212l20.461 12.277c4.149 2.49 8.698 3.734 13.249 3.734 4.549 0 9.101-1.245 13.248-3.734l20.462-12.277c8.759-5.255 14.201-15.299 14.201-26.212v-39.563c0-6.84-2.121-13.146-5.677-18.193 17.737.749 34.74 4.532 50.546 10.879v93.152h-179.309zm-50.81 6.251c0-3.761 2.381-7.135 5.923-8.398l20.882-7.438c2.765-.985 5.729-.579 8.129 1.113 2.399 1.693 3.776 4.347 3.776 7.284v96.004h-38.711v-88.565zm-12.099 36.292v52.275h-32.505c7.675-19.544 18.779-37.235 32.505-52.275zm-63.47 203.829c0-8.65 3.537-16.48 9.228-22.152.678 14.209 2.006 30.494 4.417 47.98-8.232-5.646-13.645-15.113-13.645-25.828zm53.411 106.056c-22.026-61.328-25.23-125.695-24.49-165.747h49.173c-10.23 21.104-14.102 45.769-11.485 73.68 2.922 31.154 13.016 59.089 19.695 77.574.893 2.472 1.834 5.077 2.654 7.436zm70.011 70.168v7.648h-25.426v-9.143c0-3.509.167-6.979.476-10.408h25.749c-.521 3.896-.799 7.867-.799 11.903zm3.276-24.002h-26.484c3.636-18.232 11.602-34.919 22.773-48.948 9.423 3.235 19.215 5.666 29.301 7.194-12.059 11.126-21.062 25.516-25.59 41.754zm80.159 31.651h-71.337v-7.648c0-4.048.317-8.022.919-11.903h70.418zm-67.511-31.651c5.388-16.462 16.152-30.508 30.216-40.052 2.676.126 5.365.208 8.072.208h29.224v12.25h-10.021c-3.572 0-6.467 2.896-6.467 6.467v7.231c0 3.572 2.895 6.467 6.467 6.467h10.021v7.43h-67.512zm79.61-7.429h10.021c3.571 0 6.467-2.895 6.467-6.467v-7.231c0-3.571-2.895-6.467-6.467-6.467h-10.021v-12.25h29.223c2.706 0 5.392-.085 8.067-.212 14.067 9.544 24.832 23.592 30.221 40.056h-67.511zm71.337 39.08h-71.336v-19.552h70.417c.602 3.881.919 7.855.919 11.903zm8.822-31.651c-4.529-16.24-13.533-30.632-25.596-41.758 10.088-1.526 19.883-3.951 29.307-7.186 11.171 14.028 19.136 30.714 22.773 48.944zm28.703 31.651h-25.427v-7.648c0-4.036-.278-8.007-.798-11.903h25.751c.31 3.429.474 6.9.474 10.408zm-2.219-113.465c-22.563 13.824-49.075 21.805-77.419 21.805h-70.546c-28.345 0-54.857-7.981-77.419-21.806-11.646-34.272-25.498-87.955.883-130.098h223.618c26.381 42.144 12.528 95.827.883 130.099zm46.803 35.648-35.548-7.057c.82-2.359 1.761-4.963 2.654-7.435 6.679-18.485 16.773-46.42 19.695-77.574 2.618-27.914-1.267-52.576-11.501-73.681h49.194c.738 40.055-2.472 104.431-24.494 165.747zm35.623-185.911h-390.236c-8.749 0-15.867-7.118-15.867-15.867v-19.8c0-8.749 7.118-15.867 15.867-15.867h390.236c8.749 0 15.867 7.118 15.867 15.867v19.8c0 8.749-7.118 15.867-15.867 15.867zm4.146 105.679c2.411-17.49 3.74-33.779 4.417-47.99 5.695 5.671 9.227 13.513 9.227 22.166-.001 10.714-5.414 20.179-13.644 25.824z"/></g><path d="m243.13 92.141c-5.568 0-10.082-4.514-10.082-10.082v-21.855c0-5.568 4.514-10.082 10.082-10.082s10.082 4.514 10.082 10.082v21.854c.001 5.569-4.513 10.083-10.082 10.083z" fill="#fff"/><ellipse cx="160.616" cy="301.376" fill="#3c122c" rx="17.72" ry="17.72" transform="matrix(.835 -.55 .55 .835 -139.24 137.939)"/><ellipse cx="350.01" cy="301.376" fill="#3c122c" rx="17.72" ry="17.719" transform="matrix(.099 -.995 .995 .099 15.612 619.986)"/></g></g></svg>