<svg id="Capa_1" enable-background="new 0 0 512 512" height="512" viewBox="0 0 512 512" width="512" xmlns="http://www.w3.org/2000/svg"><g><g><path d="m380.806 501.952v-33.678c0-68.8-55.774-124.574-124.574-124.574-68.8 0-124.574 55.774-124.574 124.574v33.678z" fill="#faf1a9"/><path d="m300.819 502.249v-19.967c0-25.471-19.962-46.119-44.587-46.119-24.625 0-44.587 20.648-44.587 46.119v19.967" fill="#e8c2d8"/><path d="m448.713 254.51c.571-5.463.868-11.008.868-16.622 0-87.368-70.826-158.194-158.194-158.194h-70.309c-87.368 0-158.195 70.826-158.195 158.194 0 5.614.297 11.159.868 16.622-17.189 4.979-29.761 20.826-29.761 39.62 0 22.784 18.47 41.255 41.255 41.255 6.492 0 12.632-1.504 18.096-4.176 28.78 39.326 75.271 64.874 127.737 64.874h70.309c52.466 0 98.957-25.547 127.737-64.874 5.464 2.672 11.604 4.176 18.096 4.176 22.784 0 41.255-18.47 41.255-41.255-.001-18.794-12.573-34.642-29.762-39.62z" fill="#efc5b4"/><path d="m302.827 402.746c23.44 14.704 36.561 38.228 36.561 67.94v31.821h-166.312v-20.536h112.534c11.222 0 20.319-9.098 20.319-20.319v-7.209c0-20.882-8.22-39.68-21.344-52.818z" fill="#dfb5a7"/><path d="m299.553 476.407c-3.64 3.441-8.539 5.565-13.943 5.565h-76.89v20.536h90.833z" fill="#d392d8"/><path d="m291.387 80.617h-20.287c70.831 0 128.251 57.42 128.251 128.251v10.892c0 70.83-57.419 128.25-128.251 128.25h-79.967c-67.783 0-123.277-52.587-127.927-119.187-.206 3.305-.323 6.633-.323 9.989v.001c0 87.369 70.826 158.195 158.195 158.195h58.407c.992.811 1.962 1.652 2.91 2.521 6.053-.034 11.982.337 17.958.689-1.837-1.152-3.717-2.244-5.647-3.253 85.835-1.768 154.875-71.893 154.875-158.152v-.001c0-87.369-70.826-158.195-158.194-158.195z" fill="#d994b3"/><path d="m97.3 502.496c0-11.855-3.2-18.067-21.178-29.325-27.459-17.195-28.853-35.851-28.853-64.867 0-9.712 7.873-17.585 17.585-17.585s17.585 7.873 17.585 17.585c0 26.44 1.222 28.091 12.348 35.059 22.619 14.163 37.683 29.64 37.683 59.133" fill="#e8c2d8"/><path d="m474.037 28.579c-33.039-27.875-81.339-24.97-113.616 13.286-6.963 8.253-11.069 18.776-13.234 30.203-16.506-5.196-34.071-8.003-52.294-8.003h-77.322c-18.383 0-36.097 2.86-52.73 8.145-2.158-11.482-6.27-22.058-13.262-30.345-32.276-38.256-80.576-41.161-113.616-13.286-33.039 27.875-38.307 75.975-6.031 114.231 7.341 8.702 17.707 14.695 29.333 18.774-11.309 23.077-17.667 49.022-17.667 76.454 0 21.755 21.359 39.956 22.221 38.423 29.804-53.029 86.589-88.859 151.751-88.859h77.322c65.036 0 121.729 35.692 151.579 88.552 4.264 7.552 22.394-16.361 22.394-38.116 0-27.488-6.385-53.482-17.737-76.594 11.466-4.075 21.68-10.031 28.938-18.634 32.278-38.256 27.01-86.356-6.029-114.231z" fill="#faf1a9"/><path d="m105.914 101.908c9.786-7.628 20.434-13.722 31.749-18.422-1.239-7.286-3.737-14.02-8.141-19.239-19.373-22.962-48.363-24.706-68.194-7.975s-22.992 45.601-3.619 68.563c3.809 4.515 8.975 7.814 14.813 10.208 10.259-11.898 20.971-23.454 33.392-33.135z" fill="#e8c2d8"/><path d="m450.673 56.271c-19.831-16.731-48.821-14.987-68.194 7.975-3.816 4.523-6.2 10.184-7.576 16.354 23.826 13.159 43.989 33.628 59.387 56.291 7.945-2.441 15.098-6.243 20.003-12.057 19.372-22.961 16.211-51.831-3.62-68.563z" fill="#e8c2d8"/><path d="m294.893 64.065h-28.685c85.115 0 154.114 57.189 154.114 127.737-.186 11.113-10.749 7.623-15.747 2.417-29.392-30.616-80.754-39.449-138.367-39.449h-68.496c-57.724 0-98.287 35.131-134.43 65.244-8.319 6.931-14.204-.53-17.262-10.993-1.585 9.438-2.422 19.129-2.422 29.018 0 21.755 21.359 39.956 22.221 38.423 29.804-53.029 86.589-88.859 151.751-88.859h77.322c65.036 0 121.729 35.692 151.579 88.553 4.264 7.552 22.394-16.361 22.394-38.116.001-96.085-77.89-173.975-173.972-173.975z" fill="#dfb5a7"/><path d="m472.742 416.04 8.254 23.21c.353.994 1.053 1.781 1.936 2.179l20.621 9.29c2.913 1.312 2.913 5.954 0 7.267l-20.621 9.291c-.883.398-1.582 1.185-1.936 2.179l-8.254 23.21c-1.166 3.279-5.29 3.279-6.456 0l-8.254-23.21c-.354-.994-1.053-1.781-1.936-2.179l-20.621-9.291c-2.913-1.313-2.913-5.954 0-7.267l20.621-9.29c.883-.398 1.582-1.185 1.936-2.179l8.254-23.21c1.166-3.279 5.29-3.279 6.456 0z" fill="#faf1a9"/><circle cx="430.478" cy="398.36" fill="#f6e06e" r="7.775"/></g><g><g fill="#3c122c"><path d="m256.232 430.134c-27.91 0-50.617 24.494-50.617 54.602v21.029c0 3.33 2.699 6.029 6.029 6.029s6.029-2.699 6.029-6.029v-21.029c0-23.458 17.298-42.544 38.558-42.544 21.261 0 38.558 19.085 38.558 42.544v21.029c0 3.33 2.7 6.029 6.029 6.029s6.029-2.699 6.029-6.029v-21.029c.002-30.108-22.705-54.602-50.615-54.602z"/><path d="m179.513 335.427h-49.31c-3.33 0-6.029 2.699-6.029 6.029s2.7 6.029 6.029 6.029h49.31c3.33 0 6.029-2.699 6.029-6.029s-2.7-6.029-6.029-6.029z"/><path d="m382.261 335.427h-49.31c-3.33 0-6.029 2.699-6.029 6.029s2.699 6.029 6.029 6.029h49.31c3.33 0 6.029-2.699 6.029-6.029s-2.699-6.029-6.029-6.029z"/><path d="m150.262 256.319c.053-.027 5.332-2.623 11.59-2.623s11.538 2.596 11.567 2.61c.877.448 1.813.66 2.736.66 2.193 0 4.309-1.201 5.375-3.289 1.514-2.965.337-6.597-2.629-8.11-.788-.402-7.959-3.929-17.048-3.929s-16.26 3.527-17.048 3.929c-2.956 1.509-4.123 5.117-2.628 8.079 1.495 2.964 5.12 4.154 8.085 2.673z"/><path d="m339.021 256.319c.053-.027 5.332-2.623 11.591-2.623 6.258 0 11.537 2.596 11.565 2.61.878.448 1.814.66 2.737.66 2.193 0 4.309-1.201 5.375-3.288 1.514-2.966.338-6.597-2.628-8.111-.788-.402-7.959-3.929-17.048-3.929-9.09 0-16.261 3.527-17.049 3.929-2.956 1.509-4.124 5.117-2.628 8.079 1.495 2.964 5.119 4.154 8.085 2.673z"/><path d="m273.892 297.177c-3.33 0-6.029 2.7-6.029 6.029 0 6.413-5.218 11.63-11.63 11.63-6.414 0-11.631-5.218-11.631-11.63 0-3.33-2.7-6.029-6.029-6.029s-6.029 2.7-6.029 6.029c0 13.062 10.628 23.689 23.69 23.689s23.689-10.627 23.689-23.689c-.002-3.329-2.702-6.029-6.031-6.029z"/><path d="m478.914 238.038c0-25.293-5.132-49.409-14.404-71.366 8.984-4.321 16.998-9.985 23.239-17.382 17.018-20.171 25.478-44.387 23.821-68.186-1.621-23.297-12.65-44.679-31.053-60.206-18.405-15.526-41.339-22.796-64.574-20.474-23.738 2.374-46.183 14.79-63.202 34.962-5.892 6.983-10.001 15.262-12.755 24.228-14.435-3.65-29.54-5.597-45.093-5.597h-77.321c-15.708 0-30.962 1.983-45.527 5.704-2.754-9.007-6.87-17.325-12.785-24.335-17.019-20.172-39.465-32.588-63.202-34.962-23.243-2.318-46.17 4.948-64.574 20.474-18.404 15.527-29.433 36.909-31.054 60.206-1.656 23.799 6.803 48.015 23.821 68.186 6.331 7.504 14.487 13.223 23.628 17.566-9.224 21.908-14.329 45.959-14.329 71.182 0 7.628 2.004 14.623 4.706 20.59-8.857 9.223-14.315 21.735-14.315 35.502 0 28.289 23.015 51.304 51.303 51.304 5.136 0 10.095-.766 14.776-2.18 15.459 19.194 35.037 34.938 57.382 45.87-13.223 18.131-22.029 39.676-24.828 63.043-6.866-7.174-14.994-12.988-23.363-18.228-5.177-3.243-5.799-3.964-6.254-5.196-1.274-3.443-1.379-12.062-1.379-21.347 0-15.237-12.397-27.634-27.634-27.634s-27.634 12.397-27.634 27.634c0 31.63 2.337 53.827 33.567 73.383 16.463 10.31 16.463 13.818 16.463 20.809 0 5.549 4.499 10.049 10.049 10.049s10.049-4.499 10.049-10.049c0-4.835-.52-9.009-1.743-12.81l13.269-7.66c2.327 5.838 3.547 12.519 3.547 20.47 0 1.048.162 2.059.46 3.009 1.162 4.264 5.052 7.404 9.685 7.404 5.549 0 10.049-4.499 10.049-10.049v-33.678c0-26.89 9.325-51.636 24.899-71.198 9.39 3.223 19.151 5.636 29.202 7.157-17.672 16.306-28.76 39.646-28.76 65.531v36.002c0 3.33 2.7 6.029 6.029 6.029s6.029-2.699 6.029-6.029v-36.002c0-26.524 13.473-49.944 33.922-63.827 2.668.126 5.352.195 8.051.195h70.309c2.697 0 5.378-.069 8.044-.195 20.452 13.882 33.928 37.3 33.928 63.827v36.002c0 3.33 2.699 6.029 6.029 6.029s6.029-2.699 6.029-6.029v-36.002c0-25.886-11.095-49.221-28.768-65.528 10.054-1.521 19.816-3.938 29.209-7.16 15.574 19.562 24.9 44.309 24.9 71.199v33.678c0 5.549 4.499 10.049 10.049 10.049 5.549 0 10.048-4.499 10.048-10.049v-33.678c0-29.56-9.583-56.921-25.798-79.151 22.353-10.933 41.937-26.679 57.4-45.879 4.679 1.412 9.63 2.19 14.764 2.19 28.288 0 51.303-23.014 51.303-51.304 0-13.448-5.217-25.69-13.714-34.848 2.55-6.95 4.105-14.367 4.105-21.245zm-411.05 215.62c-5.139-5.486-7.987-11.35-9.552-18.288h15.665c1.681 4.806 4.473 8.305 9.083 11.841zm-3.919-53.8c4.156 0 7.536 3.381 7.536 7.536 0 6.336.076 11.533.379 15.917h-15.113c-.289-4.781-.338-10.038-.338-15.917 0-4.155 3.381-7.536 7.536-7.536zm34.816 78.422c-4.04-4.77-9.918-9.34-18.215-14.536-.762-.477-1.496-.953-2.211-1.43l16.697-7.084c6.942 4.804 12.655 9.723 16.974 15.403zm342.98-351.014c-15.84-20.947-36.045-38.418-59.258-51.034 1.148-3.04 2.654-5.786 4.604-8.098 16.457-19.504 41.562-22.552 59.698-7.254 8.531 7.197 13.64 17.054 14.385 27.755.775 11.139-3.304 22.614-11.485 32.312-2.118 2.51-4.828 4.593-7.944 6.319zm-73.639-78.921c13.63-16.155 31.33-26.072 49.841-27.923 17.785-1.779 35.401 3.846 49.615 15.837 30.213 25.49 32.246 67.577 4.83 100.072-4.292 5.087-10.038 9.124-16.697 12.311-2.191-3.925-4.521-7.762-6.984-11.504 3.869-2.277 7.346-5.037 10.196-8.415 10.214-12.106 15.292-26.64 14.298-40.924-.974-13.984-7.592-26.816-18.638-36.135s-24.811-13.68-38.757-12.289c-14.248 1.425-27.719 8.877-37.933 20.983-2.622 3.108-4.639 6.653-6.189 10.467-4.091-1.886-8.262-3.626-12.507-5.214 2.01-6.584 4.893-12.487 8.925-17.266zm-73.209 25.769c90.388 0 163.924 73.536 163.924 163.924 0 9.469-4.452 19.401-8.355 25.221-33.616-53.091-92.396-85.705-155.569-85.705h-77.321c-62.348 0-120.362 31.729-154.191 83.56-4.574-5.625-9.734-14.189-9.734-23.075 0-90.388 73.536-163.924 163.924-163.924h77.322zm-232.578 46.833c-8.182-9.697-12.26-21.173-11.485-32.312.745-10.701 5.854-20.558 14.385-27.755 7.498-6.326 16.575-9.7 25.91-9.7 1.286 0 2.578.064 3.87.193 11.11 1.111 21.736 7.063 29.917 16.761 1.995 2.364 3.522 5.186 4.677 8.315-23.112 12.635-43.229 30.084-59 50.991-3.252-1.761-6.082-3.896-8.274-6.493zm-22.702 15.384c-27.416-32.495-25.383-74.581 4.83-100.072 12.492-10.539 27.614-16.16 43.166-16.16 2.142 0 4.296.107 6.449.323 18.51 1.851 36.21 11.768 49.84 27.923 4.065 4.818 6.966 10.774 8.98 17.423-4.235 1.596-8.396 3.343-12.476 5.236-1.56-3.884-3.609-7.487-6.273-10.645-10.214-12.107-23.687-19.559-37.933-20.984-13.945-1.391-27.711 2.969-38.757 12.289-11.046 9.318-17.664 22.151-18.638 36.135-.994 14.284 4.083 28.818 14.298 40.924 2.932 3.475 6.525 6.3 10.529 8.613-2.452 3.735-4.771 7.563-6.951 11.48-6.805-3.219-12.691-7.302-17.064-12.485zm35.631 189.005c-17.207 0-31.206-13.999-31.206-31.206 0-6.698 2.132-12.902 5.74-17.989 2.688 3.039 6.225 6.557 9.713 8.613 4.178 14.384 10.234 27.975 17.874 40.498-.702.048-1.407.084-2.121.084zm306.671 29.739h-48.964c-3.33 0-6.029 2.7-6.029 6.029s2.699 6.029 6.029 6.029h30.777c-21.407 12.031-46.086 18.901-72.342 18.901h-70.309c-26.254 0-50.931-6.872-72.337-18.901h30.772c3.33 0 6.029-2.7 6.029-6.029s-2.7-6.029-6.029-6.029h-48.958c-25.385-19.656-44.233-47.359-52.688-79.252 29.752-48.375 82.689-78.172 139.706-78.172h77.321c56.987 0 109.954 29.799 139.704 78.163-8.453 31.894-27.298 59.604-52.682 79.261zm86.511-60.945c0 17.207-13.998 31.206-31.206 31.206-.709 0-1.41-.032-2.108-.079 7.215-11.825 13.009-24.605 17.151-38.102 4.035-1.077 8.141-4.261 11.883-8.756 2.714 4.621 4.28 9.994 4.28 15.731z"/><path d="m368.505 161.028c3.33 0 6.029-2.7 6.029-6.029v-11.385c0-3.329-2.699-6.029-6.029-6.029s-6.029 2.7-6.029 6.029v11.385c0 3.33 2.7 6.029 6.029 6.029z"/><path d="m397.738 186.602c3.329 0 6.029-2.7 6.029-6.029v-11.385c0-3.329-2.7-6.029-6.029-6.029-3.33 0-6.029 2.7-6.029 6.029v11.385c0 3.329 2.7 6.029 6.029 6.029z"/><ellipse cx="161.852" cy="303.206" rx="17.66" ry="17.66" transform="matrix(.707 -.707 .707 .707 -166.994 203.254)"/><ellipse cx="350.612" cy="303.206" rx="17.66" ry="17.66" transform="matrix(.383 -.924 .924 .383 -63.688 511.097)"/></g><path d="m131.601 142.065c-3.118 0-6.19-1.446-8.155-4.166-3.25-4.499-2.236-10.781 2.262-14.03 2.424-1.751 4.937-3.46 7.472-5.081 4.677-2.993 10.89-1.627 13.88 3.048 2.991 4.675 1.627 10.889-3.048 13.88-2.218 1.42-4.417 2.915-6.535 4.445-1.78 1.284-3.837 1.904-5.876 1.904z" fill="#fff"/><path d="m167.975 122.667c-4.081 0-7.918-2.505-9.422-6.555-1.931-5.203.721-10.987 5.924-12.917 12.31-4.569 24.963-7.569 37.608-8.917 5.517-.6 10.47 3.408 11.057 8.926.589 5.519-3.408 10.47-8.926 11.057-10.985 1.172-22.003 3.788-32.747 7.775-1.151.428-2.332.631-3.494.631z" fill="#fff"/></g></g></svg>