<svg id="Capa_1" enable-background="new 0 0 512 512" height="512" viewBox="0 0 512 512" width="512" xmlns="http://www.w3.org/2000/svg"><g><g><path d="m144.142 419.864c-16.97 29.393-54.554 39.463-83.947 22.493s-39.463-54.554-22.493-83.947 65.706-50.616 95.099-33.646c29.392 16.971 28.311 65.708 11.341 95.1z" fill="#9781dd"/><path d="m126.969 424.533c-4.875 13.448-7.538 27.958-7.538 43.091v34.178h252.849v-34.178c0-16.596-3.203-32.442-9.016-46.961-17.498 12.606-38.128 20.744-59.281 23.661-59.286 6.029-121.543 16.017-177.014-19.791z" fill="#96b4eb"/><path d="m295.908 445.163c.247 2.539.382 5.114.382 7.724v7.316c0 11.389-9.232 20.621-20.621 20.621h-114.204v20.841h168.781v-32.293c0-10.452-1.918-20.451-5.392-29.689-6.836 2.104-13.823 3.669-20.871 4.641-2.686.273-5.378.554-8.075.839z" fill="#8286ea"/><path d="m441.195 250.685c.579-5.544.881-11.171.881-16.869v-.001c0-88.666-71.878-160.544-160.544-160.544h-71.353c-88.666 0-160.544 71.878-160.544 160.544v.001c0 5.697.302 11.325.881 16.869-17.444 5.053-30.203 21.136-30.203 40.208 0 23.123 18.745 41.867 41.867 41.867 6.589 0 12.819-1.526 18.365-4.238 17.875 24.425 42.489 43.598 71.099 54.811-10.669 11.917-19.115 25.865-24.674 41.2 55.471 35.808 117.727 25.82 177.014 19.791 21.153-2.918 41.783-11.055 59.281-23.662-5.531-13.817-13.446-26.416-23.211-37.323 28.615-11.212 53.236-30.387 71.114-54.817 5.545 2.712 11.776 4.238 18.365 4.238 23.122 0 41.867-18.744 41.867-41.867-.002-19.072-12.76-35.155-30.205-40.208z" fill="#c49a8b"/><path d="m254.711 385.446c22.314 10.036 38.569 32.676 41.197 59.718 2.697-.285 5.389-.566 8.075-.839 7.049-.972 14.035-2.537 20.871-4.641-11.022-29.311-37.869-50.872-70.143-54.238z" fill="#b2748a"/><path d="m329.756 179.814h-169.071c-43.969 0-79.613 35.644-79.613 79.613v5.961c0 43.969 35.644 79.613 79.613 79.613h27.529v7.311c0 16.997 13.779 30.775 30.775 30.775h53.361c16.997 0 30.775-13.779 30.775-30.775v-7.311h26.63c43.969 0 79.613-35.644 79.613-79.613v-5.961c.001-43.969-35.642-79.613-79.612-79.613z" fill="#fff"/><path d="m177.848 264.5 2.638 8.419 8.072 3.562c11.765 5.191 14.943 20.409 6.238 29.874l-5.972 6.494.952 8.771c1.387 12.784-10.203 23.145-22.753 20.34l-8.61-1.925-7.12 5.21c-10.378 7.593-25.146 2.736-28.991-9.535l-2.638-8.419-8.072-3.562c-11.765-5.191-14.943-20.409-6.238-29.874l5.972-6.494-.952-8.771c-1.387-12.784 10.203-23.145 22.753-20.34l8.61 1.925 7.12-5.21c10.378-7.593 25.146-2.736 28.991 9.535z" fill="#d789b9"/><path d="m369.41 264.5 2.638 8.419 8.072 3.562c11.765 5.191 14.943 20.409 6.238 29.874l-5.972 6.494.952 8.771c1.387 12.784-10.203 23.145-22.753 20.34l-8.61-1.925-7.12 5.21c-10.378 7.593-25.146 2.736-28.991-9.535l-2.638-8.419-8.072-3.562c-11.765-5.191-14.943-20.409-6.238-29.874l5.972-6.494-.952-8.771c-1.387-12.784 10.203-23.145 22.753-20.34l8.61 1.925 7.12-5.21c10.378-7.593 25.146-2.736 28.991 9.535z" fill="#d789b9"/><path d="m281.532 73.51h-20.587c71.882 0 130.155 58.272 130.155 130.155v5.017c11.41 13.777 18.27 31.459 18.27 50.746v5.961c0 24.304-10.903 46.05-28.07 60.653-1.339 10.631-11.65 18.392-22.714 15.919l-4.061-.908c-3.012.985-6.099 1.803-9.257 2.427l-2.413 1.765c-7.078 5.179-16.195 4.562-22.499-.243h-17.229v7.311c0 16.997-13.778 30.775-30.775 30.775h-53.362c-16.997 0-30.775-13.779-30.775-30.775v-7.311h-27.529c-25.518 3.196-44.453-10.104-59.02-26.186-29.293-22.022-48.994-56.117-51.702-94.899-.209 3.353-.328 6.731-.328 10.137v.001c0 88.665 71.878 160.543 160.544 160.543h71.353c88.666 0 160.544-71.878 160.544-160.543v-.001c-.001-88.666-71.879-160.544-160.545-160.544z" fill="#af30fa" opacity=".3"/><path d="m391.1 208.682v6.036c0 21.69-5.313 42.137-14.697 60.122l3.718 1.64c11.765 5.191 14.943 20.409 6.238 29.875l-5.972 6.494.952 8.771c.164 1.514.141 2.993-.039 4.421 17.167-14.603 28.07-36.349 28.07-60.653v-5.961c-.001-19.286-6.861-36.968-18.27-50.745z" fill="#e1bdfc"/><path d="m313.864 335.71-.566-1.805c-16.021 7.047-33.728 10.968-52.353 10.968h-79.419v.129h6.689v7.311c0 16.997 13.779 30.775 30.775 30.775h53.361c16.997 0 30.775-13.779 30.775-30.775v-7.311h17.229c-2.939-2.241-5.269-5.39-6.491-9.292z" fill="#e1bdfc"/><path d="m381.338 321.62-.952-8.771 5.972-6.494c8.704-9.466 5.527-24.683-6.238-29.875l-3.718-1.64c-13.658 26.174-35.952 47.12-63.104 59.064l.566 1.805c1.223 3.902 3.552 7.051 6.492 9.292h9.401c5.309 0 10.493-.531 15.511-1.522l4.708-3.444 4.55 1.017c9.929-3.249 18.994-8.393 26.774-15.011.179-1.428.202-2.907.038-4.421z" fill="#c668b9"/><path d="m27.392 262.224c-3.475-10.663-3.798-32.367-3.798-32.367 2.108-98.626 82.709-177.932 181.841-177.932h80.841c99.132 0 179.734 79.305 181.841 177.932 0 0 .451 19.132-6.04 29.951l-21.116-16.413c-42.12 13.566-96.504 2.233-140.881-33.608-25.784-20.823-44.187-46.692-54.225-73.349-10.038 26.658-28.441 52.526-54.224 73.349-44.401 35.86-98.819 47.186-140.948 33.586" fill="#9781dd"/><g fill="#a1e8c3"><path d="m255.906 255.342c0 12.062-4.513 15.307-10.081 15.307-5.567 0-10.08-3.245-10.08-15.307s10.08-28.374 10.08-28.374 10.081 16.311 10.081 28.374z"/><path d="m215.181 243.917c-9.09 7.929-14.502 6.66-18.162 2.465-3.659-4.195-4.181-9.73 4.91-17.658 9.09-7.929 28.009-11.054 28.009-11.054s-5.667 18.319-14.757 26.247z"/><path d="m276.53 243.917c9.09 7.929 14.502 6.66 18.162 2.465 3.659-4.195 4.181-9.73-4.91-17.658-9.09-7.929-28.009-11.054-28.009-11.054s5.667 18.319 14.757 26.247z"/></g><path d="m145.823 135.246 12.879-28.432-28.844-13.066c-.318-1.843-.806-3.682-1.49-5.497-5.832-15.492-23.119-23.323-38.611-17.491-1.815.683-3.52 1.529-5.115 2.506l-26.706-12.099-11.748 25.934c-1.753.319-3.501.79-5.228 1.44-15.492 5.832-23.323 23.119-17.491 38.611.65 1.726 1.449 3.352 2.365 4.879l-13.546 29.903 29.391 13.314c.214.733.447 1.462.72 2.188 5.832 15.492 23.119 23.323 38.611 17.491.726-.273 1.429-.58 2.12-.902l29.925 13.556 13.307-29.375c1.155-.284 2.306-.63 3.446-1.06 15.492-5.832 23.323-23.119 17.491-38.611-.429-1.14-.927-2.234-1.476-3.289z" fill="#e8c2d8"/><path d="m233.778 109.119c.716-.833 1.396-1.71 2.023-2.645 8.52-12.694 5.136-29.892-7.559-38.411-.935-.627-1.896-1.182-2.874-1.682l-5.566-28.285-28.695 5.647c-1.227-1.215-2.581-2.336-4.069-3.334-12.694-8.52-29.892-5.136-38.411 7.558-.998 1.487-1.826 3.038-2.502 4.627l-26.57 5.228 5.077 25.8c-1.147 1.18-2.209 2.472-3.158 3.886-8.52 12.694-5.136 29.892 7.559 38.412 1.415.95 2.887 1.743 4.396 2.4l5.854 29.748 29.239-5.754c.554.436 1.121.86 1.715 1.259 12.694 8.52 29.892 5.136 38.411-7.558.399-.595.764-1.202 1.111-1.816l29.77-5.858z" fill="#faf1a9"/><path d="m488.059 202.654 11.97-34.666-34.029-11.749c-.435-1.254-.939-2.498-1.535-3.721-8.086-16.615-28.111-23.53-44.727-15.444-1.223.596-2.388 1.263-3.504 1.982l-32.934-11.373-11.537 33.412c-2.015.544-4.01 1.278-5.956 2.225-16.616 8.086-23.53 28.111-15.444 44.727.947 1.946 2.064 3.754 3.314 5.425l-10.683 30.939 30.042 10.373c.536 1.915 1.24 3.81 2.141 5.662 8.086 16.616 28.111 23.531 44.727 15.445 1.852-.901 3.575-1.958 5.179-3.134l34.639 11.961 11.756-34.046c.792-.314 1.579-.649 2.358-1.027 16.616-8.087 23.53-28.111 15.444-44.727-.378-.779-.791-1.529-1.221-2.264z" fill="#f6e06e"/><path d="m472.76 396.502 8.377 23.555c.359 1.008 1.069 1.808 1.965 2.211l20.927 9.428c2.957 1.332 2.957 6.043 0 7.375l-20.927 9.429c-.896.404-1.606 1.203-1.965 2.211l-8.377 23.554c-1.183 3.328-5.369 3.328-6.552 0l-8.377-23.554c-.359-1.008-1.069-1.808-1.965-2.211l-20.927-9.429c-2.957-1.332-2.957-6.043 0-7.375l20.927-9.428c.896-.404 1.606-1.203 1.965-2.211l8.377-23.555c1.183-3.328 5.369-3.328 6.552 0z" fill="#faf1a9"/><path d="m439.739 1.851 6.214 17.472c.266.748.793 1.341 1.457 1.641l15.523 6.994c2.193.988 2.193 4.482 0 5.471l-15.523 6.994c-.665.299-1.191.892-1.457 1.64l-6.214 17.472c-.878 2.468-3.982 2.468-4.86 0l-6.214-17.472c-.266-.748-.793-1.341-1.457-1.64l-15.523-6.994c-2.193-.988-2.193-4.482 0-5.471l15.523-6.994c.665-.3 1.191-.892 1.457-1.641l6.214-17.472c.877-2.468 3.982-2.468 4.86 0z" fill="#faf1a9"/><circle cx="425.741" cy="391.881" fill="#f6e06e" r="7.89"/><path d="m27.483 26.36c0 4.358-3.533 7.89-7.89 7.89-4.358 0-7.89-3.533-7.89-7.89s3.533-7.89 7.89-7.89 7.89 3.532 7.89 7.89z" fill="#f6e06e"/></g><g><path d="m59.348 384.49c-.437 0-.88-.047-1.324-.145-3.3-.728-5.385-3.993-4.656-7.293.983-4.453 2.648-8.734 4.951-12.723 1.69-2.927 5.432-3.928 8.358-2.241 2.927 1.689 3.93 5.431 2.241 8.358-1.676 2.904-2.887 6.014-3.6 9.244-.632 2.854-3.163 4.8-5.97 4.8z" fill="#fff"/><path d="m77.738 426.228c-1.038 0-2.09-.264-3.053-.821-8.953-5.168-15.88-13.337-19.504-23.003-1.186-3.164.417-6.691 3.581-7.878 3.165-1.188 6.691.417 7.878 3.581 2.631 7.017 7.661 12.948 14.163 16.702 2.927 1.69 3.93 5.432 2.24 8.358-1.134 1.963-3.19 3.061-5.305 3.061z" fill="#fff"/><g fill="#3c122c"><ellipse cx="150.074" cy="300.105" rx="17.922" ry="17.922" transform="matrix(.16 -.987 .987 .16 -170.149 400.315)"/><ellipse cx="341.637" cy="300.105" rx="17.922" ry="17.922" transform="matrix(.197 -.98 .98 .197 -19.847 575.982)"/><path d="m245.856 324.146c-13.256 0-24.041-10.785-24.041-24.041 0-3.379 2.74-6.119 6.119-6.119s6.119 2.74 6.119 6.119c0 6.508 5.295 11.804 11.804 11.804s11.804-5.295 11.804-11.804c0-3.379 2.74-6.119 6.119-6.119s6.119 2.74 6.119 6.119c-.002 13.256-10.787 24.041-24.043 24.041z"/><path d="m245.825 276.767c-6.05 0-16.199-2.783-16.199-21.426 0-13.413 9.869-29.77 10.994-31.591 1.115-1.804 3.084-2.902 5.205-2.902s4.09 1.098 5.205 2.902c1.125 1.821 10.994 18.178 10.994 31.591 0 18.643-10.149 21.426-16.199 21.426zm0-36.4c-2.117 4.914-3.962 10.524-3.962 14.975 0 9.189 2.577 9.189 3.962 9.189 1.384 0 3.962 0 3.962-9.189 0-4.45-1.845-10.061-3.962-14.975z"/><path d="m203.641 255.826c-3.126 0-7.393-1.019-11.234-5.421-3.976-4.559-8.55-14.037 5.499-26.291 10.108-8.817 28.922-12.131 31.034-12.48 2.092-.343 4.215.417 5.608 2.015 1.394 1.598 1.861 3.804 1.234 5.83-.632 2.045-6.473 20.234-16.581 29.05-5.346 4.663-10.196 7.044-14.829 7.279-.234.011-.479.018-.731.018zm16.21-29.352c-5.097 1.635-10.544 3.934-13.9 6.861-6.924 6.04-5.23 7.982-4.32 9.026 1.112 1.276 1.743 1.244 2.123 1.225.798-.041 3.117-.539 7.406-4.279 3.367-2.938 6.383-8.013 8.691-12.833z"/><path d="m288.07 255.826c-.252 0-.496-.007-.732-.018-4.633-.235-9.483-2.616-14.829-7.279-10.108-8.817-15.949-27.006-16.581-29.05-.627-2.026-.16-4.232 1.234-5.83s3.518-2.359 5.608-2.015c2.112.349 20.926 3.663 31.034 12.48 14.049 12.254 9.475 21.732 5.499 26.291-3.84 4.401-8.107 5.421-11.233 5.421zm-16.199-29.348c2.312 4.825 5.327 9.904 8.681 12.829 4.289 3.74 6.608 4.238 7.406 4.279.376.018 1.01.05 2.123-1.225.91-1.043 2.604-2.986-4.32-9.026-3.354-2.925-8.795-5.223-13.89-6.857z"/><path d="m494.717 202.118 13.092-37.915-37.139-12.824c-.225-.515-.455-1.029-.703-1.538-4.531-9.312-12.354-16.339-22.065-19.866-7.711-11.963-16.785-23.159-27.184-33.352-36.117-35.4-83.862-54.896-134.443-54.896h-59.524l-2.129-10.816-31.713 6.241c-.79-.639-1.609-1.251-2.463-1.824-7.496-5.031-16.505-6.843-25.362-5.099-8.859 1.743-16.508 6.832-21.539 14.328-.573.854-1.099 1.73-1.589 2.621l-29.588 5.822 2.519 12.799c-8.7-3.843-18.374-4.121-27.286-.765-1.106.417-2.176.887-3.216 1.398l-29.5-13.364-13.02 28.747c-1.025.285-2.046.618-3.061 1-9.022 3.396-16.182 10.103-20.159 18.884-3.978 8.782-4.298 18.587-.902 27.608.38 1.01.808 1.993 1.27 2.954l-14.823 32.722 18.818 8.525c-5.907 17.915-9.196 36.784-9.609 56.131-.003.123-.003.246-.001.369.034 2.314.435 22.438 3.992 34.384-4.616 7.768-7.274 16.828-7.274 26.501 0 20.986 12.487 39.099 30.416 47.332-4.653 4.727-8.612 9.806-11.661 15.087-9.569 16.574-12.111 35.883-7.158 54.37 4.954 18.486 16.81 33.938 33.384 43.507 11.041 6.375 23.293 9.63 35.709 9.63 6.223 0 12.489-.818 18.661-2.472.027-.007.054-.016.082-.023-.208 3.073-.314 6.174-.314 9.3v34.178c0 5.632 4.566 10.198 10.198 10.198s10.198-4.566 10.198-10.198v-34.178c0-11.634 1.725-22.87 4.922-33.475 7.796 3.37 16.023 6.369 24.622 8.953-2.483 8.249-3.826 16.986-3.826 26.033v36.537c0 3.379 2.739 6.119 6.119 6.119 3.379 0 6.119-2.74 6.119-6.119v-36.537c0-7.929 1.191-15.583 3.393-22.8 22.691 5.658 47.423 8.663 72.728 8.663 26.842 0 52.96-3.367 76.699-9.684 2.408 7.515 3.723 15.516 3.723 23.821v36.537c0 3.379 2.74 6.119 6.119 6.119s6.119-2.74 6.119-6.119v-36.537c0-9.492-1.474-18.645-4.196-27.248 8.566-2.735 16.75-5.88 24.476-9.412 3.528 11.094 5.437 22.901 5.437 35.148v34.178c0 5.632 4.566 10.198 10.198 10.198s10.198-4.566 10.198-10.198v-34.178c0-29.997-9.721-57.766-26.174-80.326 22.68-11.095 42.554-27.07 58.244-46.551 4.747 1.434 9.774 2.212 14.983 2.212 28.709 0 52.065-23.356 52.065-52.065 0-10.158-2.93-19.641-7.982-27.66l2.773-8.03c.042-.02.085-.037.127-.057 19.623-9.55 27.818-33.284 18.269-52.906-.024-.042-.048-.081-.069-.122zm-35.753-46.923c3.005 6.175 3.578 13.103 1.654 19.648-12.318-15.364-32.751-22.162-51.869-17.123 2.352-6.397 7.069-11.933 13.667-15.144 3.785-1.842 7.853-2.771 11.942-2.771 3.005 0 6.022.501 8.946 1.511 6.903 2.384 12.464 7.313 15.66 13.879zm-3.028 121.742-19.497-6.732c2.664-3.41 4.78-7.271 6.234-11.482.324-.938.6-1.883.851-2.833.902.388 1.815.755 2.753 1.079 4.233 1.462 8.599 2.188 12.95 2.188.965 0 1.928-.049 2.89-.12zm-81.632 36.572.952 8.771c.445 4.107-1.066 8.041-4.145 10.794-3.081 2.754-7.159 3.814-11.19 2.914l-8.61-1.925c-1.72-.384-3.524-.008-4.948 1.033l-7.121 5.21c-3.335 2.44-7.498 3.098-11.421 1.807-3.924-1.29-6.883-4.291-8.118-8.233l-2.638-8.419c-.527-1.683-1.755-3.057-3.369-3.768l-8.072-3.561c-3.779-1.668-6.431-4.944-7.275-8.987-.845-4.044.275-8.107 3.071-11.147l5.972-6.494c1.194-1.298 1.769-3.048 1.579-4.802l-.951-8.772c-.446-4.107 1.065-8.041 4.145-10.794 2.361-2.111 5.31-3.228 8.374-3.228.932 0 1.876.103 2.816.314l8.61 1.925c1.723.385 3.525.008 4.948-1.033l7.12-5.21c3.334-2.44 7.496-3.097 11.421-1.808 3.924 1.291 6.884 4.292 8.118 8.233l2.638 8.419c.527 1.683 1.755 3.056 3.369 3.768l8.072 3.562c3.779 1.668 6.431 4.943 7.275 8.987s-.275 8.107-3.071 11.148l-5.972 6.495c-1.195 1.298-1.77 3.048-1.579 4.801zm30.16-113.095 14.125-2.955 9.048-8.031 2.745 11.563 8.735 11.304-13.997 3.578-9.354 7.467-2.508-12.126zm2.499 40.773c-8.556-3.544-15.44-10.004-19.528-18.403-4.106-8.438-4.932-17.89-2.4-26.847l16.847 20.684zm5.936-55.041-26.381 5.52c3.543-8.563 10.005-15.452 18.409-19.542 5.247-2.553 10.884-3.841 16.552-3.841 3.351 0 6.712.459 10.01 1.363zm-16.752-29.06c-.911-.392-1.833-.764-2.781-1.091-4.126-1.425-8.378-2.139-12.618-2.175l6.338-18.356 17.262 5.96c-3.9 4.566-6.688 9.932-8.201 15.662zm-6.775 10.476c.04.014.079.03.119.044-7.011 5.795-12.325 13.413-15.369 22.23-3.382 9.795-3.642 20.153-.878 29.918-7.332-2.008-13.8-7.029-17.38-14.385-3.196-6.566-3.643-13.985-1.259-20.887 2.384-6.903 7.313-12.464 13.879-15.66 6.567-3.196 13.985-3.643 20.888-1.26zm-33.1 57.144c3.696 2.845 7.847 5 12.251 6.394-.235.589-.461 1.183-.669 1.787-1.454 4.211-2.171 8.555-2.179 12.883l-14.899-5.145zm24.407 33.063c-3.196-6.566-3.643-13.984-1.259-20.887.254-.735.547-1.449.858-2.151 6.025 8.747 14.643 15.328 24.87 18.859 5.363 1.852 10.893 2.771 16.405 2.771 3.112 0 6.215-.311 9.279-.895-2.473 6.56-7.275 11.842-13.604 14.923-13.558 6.597-29.952.936-36.549-12.62zm57.416-17.492c-8.459 4.116-17.935 4.938-26.914 2.382l19.519-15.583 25.926-6.627c-3.516 8.697-10.033 15.692-18.531 19.828zm3.585-44.682-5.807-24.462c8.644 3.527 15.598 10.023 19.716 18.483 4.133 8.493 4.946 18.013 2.353 27.021zm-155.404-133.472c54.947 0 104.364 26.507 135.92 67.381-1.742.568-3.458 1.252-5.134 2.068-.505.245-.983.523-1.473.787l-36.075-12.457-12.53 36.287c-1.303.474-2.59 1.014-3.854 1.629-9.506 4.626-16.641 12.677-20.092 22.669-3.45 9.993-2.803 20.731 1.823 30.237.615 1.265 1.309 2.464 2.038 3.632l-3.605 10.439c-12.77-5.89-25.195-13.564-36.806-22.943-23.599-19.059-41.265-42.922-51.089-69.009-1.496-3.974-5.298-6.604-9.544-6.604-.827 0-1.636.103-2.415.293l-3.12-15.855c.188-.264.38-.524.561-.794 10.386-15.475 6.246-36.515-9.229-46.902-.27-.181-.546-.349-.82-.522l-.066-.337h55.51zm-103.535 251.386.952 8.772c.446 4.107-1.065 8.041-4.145 10.794-3.08 2.754-7.159 3.814-11.19 2.914l-8.61-1.925c-1.72-.384-3.524-.008-4.948 1.033l-7.12 5.21c-3.335 2.44-7.499 3.098-11.421 1.807-3.924-1.29-6.883-4.291-8.118-8.233l-2.638-8.419c-.527-1.683-1.755-3.057-3.369-3.768l-8.072-3.561c-3.779-1.668-6.431-4.943-7.275-8.987s.275-8.107 3.071-11.148l5.972-6.494c1.194-1.298 1.769-3.048 1.579-4.802l-.951-8.771c-.445-4.107 1.066-8.042 4.145-10.795 2.361-2.111 5.31-3.228 8.374-3.228.932 0 1.875.103 2.816.314l8.61 1.925c1.723.385 3.525.008 4.948-1.033l7.12-5.21c3.333-2.44 7.495-3.097 11.421-1.808 3.924 1.291 6.884 4.292 8.118 8.233l2.638 8.419c.527 1.683 1.755 3.056 3.369 3.768l8.073 3.562c3.779 1.668 6.431 4.943 7.275 8.987.844 4.043-.275 8.106-3.071 11.147l-5.972 6.495c-1.196 1.298-1.771 3.049-1.581 4.802zm-128.926-79.841c-3.278-1.058-6.87-.389-9.548 1.778l-9.745 7.887c-.476-5.455-.681-10.647-.729-13.446.334-14.883 2.614-29.316 6.579-43.063 3.704 5.611 8.91 10.085 15.185 12.928 4.754 2.154 9.808 3.236 14.876 3.235 4.247 0 8.504-.762 12.601-2.288l33.069 14.98 14.672-32.39c.397-.134.794-.269 1.188-.417 10.176-3.831 17.591-11.803 21.098-21.279l14.046-2.764c5.572 3.662 11.954 5.571 18.484 5.571 2.191 0 4.398-.214 6.596-.646 8.751-1.722 16.318-6.713 21.351-14.061l16.863-3.319c-10.32 20.792-25.727 39.77-45.179 55.479-40.504 32.714-90.854 44.907-131.407 31.815zm12.886-57.803c6.001 2.718 12.378 4.083 18.774 4.083 1.7 0 3.4-.108 5.096-.301-2.754 4.358-6.807 7.707-11.716 9.555-5.963 2.244-12.443 2.033-18.247-.596s-10.237-7.361-12.481-13.324c-1.896-5.035-2.019-10.435-.435-15.489 4.666 6.967 11.179 12.525 19.009 16.072zm-12.704-52.324 11.507 17.531 3.532 22.26c-6.77-3.833-11.941-9.852-14.716-17.222-2.764-7.342-2.857-15.246-.323-22.569zm57.605 48.152c9.707-6.793 16.252-17.066 18.538-28.389l4.32 21.951 2.811-.553c-2.566 2.978-5.836 5.295-9.618 6.719-5.22 1.965-10.838 2.047-16.051.272zm4.924 13.398-6.519 14.392-14.533-6.583c3.259-3.135 5.93-6.887 7.852-11.131.037-.081.067-.162.103-.243.308.15.614.304.927.446 3.908 1.769 8.017 2.802 12.17 3.119zm-3.21-69.004c.788 1.878 1.742 3.671 2.849 5.364.167.396.353.782.506 1.187 2.806 7.455 2.752 15.295.393 22.314l-12.351-16.833-2.574-22.602c4.546 2.611 8.337 6.233 11.177 10.57zm1.08 34.821c-3.714 6.505-9.623 11.803-17.164 14.642-7.368 2.773-15.298 2.856-22.641.298l18.913-11.991zm-25.215-8.8-10.105 6.406-1.898-11.959-5.389-8.21 10.147-1.132 9.622-6.451 1.363 11.972 5.881 8.015zm115.518-27.141c-3.9 5.81-9.478 9.83-15.66 11.865l7.369-18.128 13.342-12.677c.448 6.477-1.161 13.144-5.051 18.94zm2.519 15.399c.054 4.328-1.187 8.569-3.651 12.24-3.21 4.783-8.09 8.029-13.741 9.141-5.653 1.111-11.397-.043-16.18-3.253-3.851-2.585-6.583-6.207-8.105-10.246 4.539 1.581 9.251 2.357 13.937 2.357 10.034 0 19.934-3.553 27.74-10.239zm-21.152-28.714-3.932 9.671-7.413-7.538-7.838-3.043 6.539-5.861 3.544-9.401 7.016 7.792 8.096 2.666zm-18.225 12.589 13.812 14.046c-6.495.461-13.182-1.145-18.995-5.047-5.795-3.889-9.809-9.448-11.849-15.611zm56.992-41.098c9.873 6.626 12.514 20.049 5.888 29.921-2.632 3.922-6.4 6.788-10.783 8.314 4.745-14.436 1.384-30.499-8.84-41.814.589-.048 1.177-.086 1.764-.086 4.234-.001 8.375 1.252 11.971 3.665zm-5.966 51.151c.159-.029.317-.05.476-.082 3.716-.731 7.216-2.059 10.403-3.898l2.599 13.207-13.331 2.624c.643-3.879.607-7.878-.147-11.851zm-3.887-79.013 2.414 12.268c-3.646-.495-7.388-.397-11.104.334-.432.085-.859.182-1.285.283-.068-.433-.143-.866-.228-1.299-.623-3.166-1.68-6.173-3.115-8.966zm-18.554 27.645c5.743 3.854 9.739 9.349 11.796 15.446l-17.323-5.705-13.326-14.8c.67-.044 1.342-.072 2.015-.072 5.804-.001 11.668 1.66 16.838 5.131zm-42.718-21.549c3.21-4.783 8.09-8.029 13.741-9.141 1.402-.276 2.81-.412 4.208-.412 4.235 0 8.376 1.252 11.971 3.665 4.294 2.882 7.335 7.116 8.719 12.04-14.582-4.597-30.74-.972-41.957 9.591-.969-5.511.191-11.084 3.318-15.743zm.677 29.822c3.882-5.785 9.429-9.79 15.578-11.834l-6.936 18.4-13.7 12.278c-.425-6.448 1.187-13.077 5.058-18.844zm-3.4 54.901c.439-.087.874-.187 1.307-.29.692 4.422 2.271 8.692 4.648 12.549l-12.836 2.526-2.814-14.298c1.028.095 2.06.16 3.098.16 2.192-.001 4.399-.214 6.597-.647zm-4.836-11.679c-4.833.389-9.621-.84-13.706-3.581-9.873-6.626-12.514-20.049-5.888-29.921 3.301-4.917 8.287-8.022 13.681-9.093-5.908 14.27-3.507 30.635 5.913 42.595zm-8.216-63.979c-.264 3.06-.111 6.174.479 9.272-3.344.609-6.595 1.713-9.632 3.296l-2.04-10.366zm-59.343 28.526c2.629-5.804 7.361-10.236 13.324-12.481 2.735-1.03 5.577-1.543 8.415-1.543 3.349 0 6.69.715 9.832 2.139 2.861 1.296 5.372 3.114 7.459 5.333-.422.546-.836 1.101-1.227 1.683-2.614 3.896-4.351 8.201-5.179 12.68-2.17-1.481-4.481-2.788-6.924-3.894-8.22-3.724-17.151-4.902-25.862-3.516.058-.133.103-.269.162-.401zm6.921 12.078c3.64 0 7.271.612 10.771 1.817l-18.675 12.522-20.963 2.338c3.837-6.677 9.816-11.775 17.116-14.523 3.819-1.438 7.789-2.154 11.751-2.154zm-24.526-31.78 12.352 5.595c-2.469 2.792-4.478 5.942-5.977 9.32-3.625-1.77-7.541-2.937-11.58-3.424zm-31.193 37.483c2.629-5.804 7.361-10.237 13.324-12.481 2.735-1.03 5.578-1.543 8.415-1.543 3.349 0 6.69.715 9.832 2.138.274.124.531.272.798.405-14.793 8.818-23.254 25.298-22.102 42.221-5.003-2.734-8.833-7.102-10.863-12.494-2.245-5.962-2.033-12.442.596-18.246zm-2.408 36.69c2.719 2.439 5.821 4.478 9.243 6.028.598.271 1.202.52 1.808.757-.3.578-.59 1.162-.861 1.76-1.922 4.243-2.982 8.725-3.189 13.243l-13.999-6.341zm3.127 147.455c0-10.037 4.704-18.984 12.012-24.79 3.899 20.29 11.391 39.316 21.801 56.381-.709.048-1.423.079-2.144.079-17.462-.001-31.669-14.208-31.669-31.67zm73.677 147.753c-13.224 3.543-27.037 1.725-38.894-5.12-11.856-6.846-20.338-17.898-23.881-31.123-3.543-13.224-1.725-27.037 5.12-38.894 4.383-7.592 11.65-14.876 20.428-20.785 3.515-.324 6.925-1.001 10.204-1.992 15.693 19.488 35.573 35.465 58.26 46.562-10.361 14.202-18.052 30.467-22.33 48.055-2.834 1.353-5.808 2.466-8.907 3.297zm34.515-16.032c4.152-9.844 9.627-18.997 16.194-27.246 9.531 3.271 19.443 5.714 29.646 7.258-8.807 8.125-16.001 17.971-21.045 28.999-8.691-2.581-16.983-5.595-24.795-9.011zm105.002 20.146c-23.745 0-46.924-2.727-68.202-7.889 6.031-12.33 15.205-22.848 26.477-30.508 2.717.129 5.451.195 8.199.195h71.353c2.739 0 5.461-.072 8.169-.2 10.987 7.458 19.982 17.628 26.019 29.545-22.287 5.779-46.789 8.857-72.015 8.857zm108.609-21.748c-7.732 3.578-15.974 6.742-24.626 9.473-5.012-10.567-12.017-20.009-20.519-27.853 10.206-1.544 20.119-3.994 29.653-7.266 6.207 7.798 11.432 16.409 15.492 25.646zm-70.781-36.85h-71.353c-75.121 0-137.534-55.385-148.59-127.462 8.479 1.67 17.209 2.495 26.082 2.494 8.619 0 17.368-.786 26.137-2.312-.463.361-.92.733-1.363 1.129-6.06 5.417-9.032 13.158-8.155 21.238l.652 6.012-4.094 4.452c-5.501 5.983-7.704 13.977-6.042 21.933 1.661 7.956 6.879 14.4 14.315 17.681l5.533 2.441 1.808 5.771c2.431 7.756 8.252 13.66 15.973 16.199 2.594.853 5.24 1.273 7.859 1.273 5.179 0 10.255-1.643 14.611-4.829l4.881-3.571 5.902 1.319c7.932 1.773 15.955-.316 22.015-5.733 6.059-5.417 9.032-13.158 8.155-21.238l-.652-6.013 4.094-4.452c5.501-5.982 7.704-13.976 6.042-21.932-1.661-7.956-6.879-14.4-14.314-17.681l-5.534-2.441-1.808-5.771c-2.43-7.755-8.252-13.66-15.973-16.199-7.721-2.54-15.911-1.244-22.47 3.556l-4.881 3.571-5.902-1.32c-.239-.053-.479-.092-.718-.138 22.438-6.799 44.478-18.415 64.295-34.42 20.042-16.186 36.291-35.548 47.817-56.823 11.526 21.275 27.776 40.637 47.817 56.823 13.477 10.885 27.983 19.729 42.942 26.418l-1.402 4.059 2.831.977c-.419.271-.832.554-1.238.852l-4.881 3.571-5.902-1.32c-7.932-1.772-15.956.317-22.015 5.733-6.06 5.417-9.032 13.158-8.155 21.238l.652 6.012-4.094 4.452c-5.501 5.982-7.704 13.977-6.043 21.933s6.879 14.4 14.315 17.681l5.533 2.441 1.808 5.771c2.431 7.756 8.252 13.66 15.973 16.199 2.594.853 5.24 1.273 7.86 1.273 5.179 0 10.255-1.643 14.61-4.829l4.881-3.571 5.902 1.319c7.933 1.773 15.956-.316 22.015-5.733 6.06-5.417 9.033-13.158 8.156-21.238l-.652-6.013 4.094-4.452c5.502-5.983 7.704-13.977 6.042-21.933-.321-1.539-.779-3.019-1.356-4.433 3.181.809 6.463 1.248 9.778 1.248 5.803 0 11.696-1.281 17.256-3.987.648-.315 1.281-.65 1.907-.997-19.653 60.175-76.307 103.772-142.956 103.772zm147.998-61.6c-.722 0-1.434-.036-2.144-.085 6.963-11.413 12.625-23.701 16.778-36.659l17.014 5.875c-.427 17.093-14.454 30.869-31.648 30.869zm41.628-78.42c-5.998 2.919-12.706 3.538-19.085 1.807 15.613-11.997 22.751-32.235 18.205-51.345 5.694 2.519 10.568 6.966 13.5 12.99 6.597 13.555.935 29.95-12.62 36.548zm14.685-53.822c-4.27-3.881-9.31-6.739-14.724-8.451.236-.591.462-1.188.671-1.793 1.649-4.777 2.352-9.724 2.141-14.626l18.316 6.324z"/></g></g></g></svg>