<svg id="Capa_1" enable-background="new 0 0 512 512" height="512" viewBox="0 0 512 512" width="512" xmlns="http://www.w3.org/2000/svg"><g><g><ellipse cx="436.602" cy="292.726" fill="#efc5b4" rx="41.228" ry="41.228" transform="matrix(.851 -.526 .526 .851 -88.689 273.254)"/><ellipse cx="74.861" cy="292.726" fill="#efc5b4" rx="41.228" ry="41.228" transform="matrix(.533 -.846 .846 .533 -212.736 200.092)"/><path d="m400.448 123.367c2.85-19.288 9.015-75.809-15.251-83.06-18.686-5.584-38.315 23.157-50.1 44.748-14.447-4.304-29.747-6.626-45.592-6.626h-67.547c-15.845 0-31.145 2.322-45.592 6.626-11.785-21.591-31.414-50.332-50.1-44.748-24.266 7.252-18.101 63.773-15.251 83.06-29.91 28.984-48.508 69.573-48.508 114.512l1.744 176.381c31.856 0 31.856 20.084 63.712 20.084 2.789 0 5.322-.162 7.665-.443-2.857 10.468-4.391 21.482-4.391 32.856v33.657h248.988v-33.657c0-11.347-1.527-22.336-4.371-32.782 2.15.23 4.447.368 6.962.368 31.859 0 31.859-20.084 63.717-20.084l2.421-176.381c.002-44.938-18.596-85.528-48.506-114.511z" fill="#a1e8c3"/><path d="m303.681 79.062c56.185 18.011 96.861 70.669 96.861 132.835l-1.578 114.94c-.378 27.5-19.938 51.376-47.022 56.157-2.721.481-5.769.755-9.253.755-27.867 0-27.867-17.568-55.735-17.568-27.866 0-27.866 17.568-55.732 17.568-27.865 0-27.865-17.568-55.731-17.568-27.864 0-27.864 17.568-55.728 17.568-27.865 0-27.865-17.568-55.73-17.568l-.004-.45h-.257l.48 48.529c31.856 0 31.856 20.084 63.712 20.084 31.855 0 31.855-20.084 63.71-20.084 31.856 0 31.856 20.084 63.712 20.084 22.613 0 29.183-10.115 42.481-15.987 4.807 9.947 7.53 21.261 7.53 33.268v7.204c0 11.215-9.091 20.306-20.306 20.306h-112.461v20.523h166.204v-31.8c0-20.429-7.383-39.126-19.611-53.595 31.733.053 31.778 20.082 63.595 20.082 31.859 0 31.859-20.084 63.717-20.084l2.422-176.381c-.001-83.285-63.856-151.643-145.276-158.818z" fill="#85adc2"/><ellipse cx="255.732" cy="226.024" fill="#fff" rx="82.898" ry="72.454"/><path d="m255.731 368.595c-25.008 0-50.007-6.254-74.839-18.765-9.906-4.992-13.89-17.068-8.899-26.973 4.99-9.907 17.068-13.888 26.973-8.9 38.198 19.247 75.335 19.247 113.532 0 9.906-4.992 21.982-1.006 26.973 8.9s1.006 21.983-8.9 26.973c-24.827 12.508-49.838 18.765-74.84 18.765z" fill="#fff"/><circle cx="255.732" cy="226.024" fill="#96b4eb" r="51.503"/><ellipse cx="255.732" cy="226.024" fill="#3c122c" rx="22.537" ry="22.537" transform="matrix(.622 -.783 .783 .622 -80.344 285.51)"/><path d="m479.025 15.865 8.249 23.195c.353.993 1.052 1.78 1.935 2.178l20.608 9.285c2.911 1.312 2.911 5.951 0 7.262l-20.608 9.285c-.882.397-1.582 1.184-1.935 2.177l-8.249 23.195c-1.165 3.277-5.287 3.277-6.452 0l-8.249-23.195c-.353-.993-1.052-1.78-1.935-2.177l-20.608-9.285c-2.911-1.312-2.911-5.951 0-7.262l20.608-9.285c.882-.397 1.582-1.185 1.935-2.178l8.249-23.195c1.165-3.277 5.287-3.277 6.452 0z" fill="#ccf3e2"/><path d="m29.246 87.246 6.119 17.205c.262.737.781 1.32 1.435 1.615l15.286 6.887c2.16.973 2.16 4.414 0 5.387l-15.286 6.888c-.655.295-1.173.879-1.435 1.615l-6.119 17.205c-.864 2.431-3.921 2.431-4.786 0l-6.119-17.205c-.262-.737-.781-1.32-1.435-1.615l-15.286-6.887c-2.16-.973-2.16-4.414 0-5.387l15.286-6.887c.655-.295 1.173-.879 1.435-1.615l6.119-17.205c.865-2.431 3.922-2.431 4.786-.001z" fill="#ccf3e2"/><g fill="#a1e8c3"><ellipse cx="52.448" cy="19.557" rx="18.012" ry="18.012" transform="matrix(.385 -.923 .923 .385 14.216 60.441)"/><ellipse cx="489.478" cy="164.937" rx="7.77" ry="7.77" transform="matrix(.924 -.383 .383 .924 -25.859 199.871)"/></g></g><g><path d="m487.873 292.726c0-20.29-11.852-37.857-28.993-46.162l.117-8.547c0-.046.001-.092.001-.138 0-45.819-18.283-87.442-47.927-117.979 1.059-8.139 2.204-19.605 2.268-31.51.178-33.227-8.322-52.643-25.266-57.706-16.946-5.061-34.704 6.503-52.786 34.379-1.792 2.762-3.49 5.538-5.093 8.271-13.04-3.225-26.666-4.949-40.688-4.949h-67.546c-14.024 0-27.651 1.724-40.692 4.95-1.604-2.734-3.296-5.508-5.089-8.272-18.082-27.876-35.841-39.443-52.786-34.379-16.944 5.063-25.445 24.479-25.266 57.706.064 11.914 1.21 23.385 2.27 31.522-29.644 30.549-47.928 72.198-47.928 118.066l.085 8.61c-17.122 8.311-28.96 25.862-28.96 46.138 0 20.637 12.261 38.455 29.877 46.577l.742 75.056c.054 5.507 4.534 9.943 10.042 9.943 13.026 0 18.972 3.749 26.5 8.495 7.837 4.942 16.649 10.466 32.343 11.428-1.244 7.328-1.899 14.855-1.899 22.533v33.657c0 5.546 4.496 10.042 10.042 10.042s10.042-4.496 10.042-10.042v-33.657c0-8.275.888-16.346 2.566-24.128 9.222-2.217 15.542-6.184 21.329-9.833 3.955-2.493 7.482-4.705 11.82-6.249-6.621 12.451-10.389 26.64-10.389 41.698v35.979c0 3.327 2.697 6.025 6.025 6.025 3.327 0 6.025-2.698 6.025-6.025v-35.979c0-16.322 5.123-31.457 13.815-43.929 12.463.154 18.334 3.834 25.703 8.48 8.616 5.433 18.382 11.59 37.212 11.59s28.596-6.157 37.213-11.59c7.506-4.731 13.443-8.47 26.389-8.493 8.696 12.476 13.821 27.616 13.821 43.942v35.979c0 3.327 2.698 6.025 6.025 6.025s6.025-2.698 6.025-6.025v-35.979c0-14.93-3.699-29.01-10.216-41.384 3.953 1.523 7.268 3.607 10.96 5.935 5.936 3.743 12.419 7.828 22.033 10.008 1.655 7.729 2.547 15.737 2.547 23.953v33.657c0 5.546 4.496 10.042 10.042 10.042s10.042-4.496 10.042-10.042v-33.657c0-7.692-.658-15.233-1.905-22.576 15.273-1.077 23.943-6.515 31.668-11.385 7.529-4.746 13.475-8.495 26.503-8.495 5.492 0 9.966-4.412 10.041-9.904l1.029-74.914c17.824-8.038 30.267-25.968 30.267-46.758zm-444.198 0c0-8.578 3.491-16.347 9.115-21.991l.439 44.402c-5.878-5.674-9.554-13.615-9.554-22.411zm308.586-216.926c11.711-18.001 23.228-27.916 30.061-25.873 6.831 2.042 11.021 16.65 10.934 38.125-.021 5.282-.285 10.523-.664 15.386-12.895-9.911-27.248-18.01-42.68-23.917.767-1.243 1.546-2.486 2.349-3.721zm-223.12-25.873c6.835-2.041 18.35 7.874 30.061 25.873.804 1.236 1.583 2.479 2.35 3.722-15.445 5.912-29.81 14.022-42.713 23.948-1.805-24.996.382-50.578 10.302-53.543zm307.479 354.925c-12.629 1.706-20.34 6.568-27.3 10.955-7.529 4.745-13.475 8.495-26.503 8.495s-18.974-3.749-26.503-8.495c-8.617-5.433-18.384-11.59-37.214-11.59s-28.596 6.157-37.212 11.59c-7.528 4.745-13.475 8.495-26.502 8.495s-18.973-3.749-26.501-8.495c-8.616-5.433-18.382-11.59-37.212-11.59-18.829 0-28.594 6.158-37.211 11.59-7.527 4.745-13.473 8.495-26.499 8.495-13.027 0-18.972-3.749-26.501-8.495-6.952-4.384-14.653-9.239-27.262-10.95l-1.65-166.978c0-82.384 67.025-149.409 149.409-149.409h67.546c82.359 0 149.369 66.991 149.409 149.341zm21.314-89.426.615-44.815c5.698 5.651 9.239 13.473 9.239 22.115 0 8.945-3.798 17.01-9.854 22.7z" fill="#3c122c"/><path d="m142.429 156.845c-4.21-3.609-10.55-3.122-14.16 1.09-8.755 10.214-15.833 21.572-21.037 33.76-2.178 5.1.191 11.001 5.292 13.178 1.286.549 2.623.81 3.939.81 3.901 0 7.611-2.287 9.24-6.102 4.399-10.303 10.393-19.917 17.814-28.576 3.61-4.211 3.123-10.55-1.088-14.16z" fill="#fff"/><path d="m169.728 148.541c4.714-2.922 6.167-9.112 3.245-13.826-2.923-4.714-9.113-6.167-13.826-3.245-1.748 1.084-3.496 2.224-5.195 3.39-4.573 3.137-5.736 9.388-2.599 13.962 1.947 2.836 5.09 4.361 8.289 4.361 1.958 0 3.936-.572 5.673-1.763 1.444-.991 2.929-1.96 4.413-2.879z" fill="#fff"/><g fill="#3c122c"><path d="m255.732 304.504c49.033 0 88.923-35.206 88.923-78.48 0-43.273-39.891-78.479-88.923-78.479-49.033 0-88.923 35.206-88.923 78.479 0 43.274 39.89 78.48 88.923 78.48zm0-144.909c42.388 0 76.873 29.8 76.873 66.429s-34.485 66.43-76.873 66.43-76.873-29.801-76.873-66.43c0-36.63 34.485-66.429 76.873-66.429z"/><path d="m329.715 307.099c-6.623-2.186-13.7-1.66-19.929 1.478-36.374 18.328-71.737 18.326-108.11 0-12.857-6.474-28.589-1.287-35.064 11.569-6.477 12.856-1.288 28.586 11.569 35.066 25.563 12.879 51.654 19.409 77.55 19.409s51.988-6.53 77.552-19.409c12.857-6.477 18.047-22.208 11.57-35.065-3.139-6.23-8.515-10.864-15.138-13.048zm-128.044 45.292c-6.041-2.271-12.067-4.918-18.067-7.941-6.924-3.489-9.718-11.959-6.23-18.882 2.468-4.9 7.432-7.731 12.578-7.731 2.124 0 4.28.483 6.303 1.501 4.466 2.251 8.918 4.236 13.36 5.984zm48.036 10.036c-12.174-.516-24.403-2.593-36.6-6.208l7.909-26.954c9.591 2.856 19.144 4.531 28.691 5.027zm12.05 0v-28.135c9.546-.497 19.1-2.173 28.69-5.028l7.909 26.954c-12.197 3.615-24.425 5.693-36.599 6.209zm66.103-17.978c-6.001 3.023-12.027 5.67-18.068 7.941l-7.943-27.07c4.442-1.748 8.893-3.733 13.359-5.983 3.354-1.691 7.166-1.972 10.731-.796 3.566 1.177 6.461 3.672 8.15 7.026 3.489 6.924.694 15.394-6.229 18.882z"/><path d="m255.732 283.552c31.721 0 57.528-25.807 57.528-57.528s-25.807-57.527-57.528-57.527-57.528 25.806-57.528 57.527 25.807 57.528 57.528 57.528zm0-103.005c25.076 0 45.477 20.401 45.477 45.477 0 25.077-20.401 45.478-45.477 45.478s-45.478-20.401-45.478-45.478c0-25.076 20.402-45.477 45.478-45.477z"/><path d="m379.515 287.943c-3.327 0-6.025 2.698-6.025 6.025v11.378c0 3.327 2.698 6.025 6.025 6.025s6.025-2.698 6.025-6.025v-11.378c.001-3.327-2.697-6.025-6.025-6.025z"/><path d="m406.529 349.383c3.327 0 6.025-2.698 6.025-6.025v-11.379c0-3.327-2.698-6.025-6.025-6.025s-6.025 2.698-6.025 6.025v11.379c0 3.327 2.698 6.025 6.025 6.025z"/><path d="m378.947 358.587c-3.327 0-6.025 2.698-6.025 6.025v11.379c0 3.327 2.698 6.025 6.025 6.025s6.025-2.698 6.025-6.025v-11.379c0-3.327-2.698-6.025-6.025-6.025z"/></g></g></g></svg>