<svg id="Capa_1" enable-background="new 0 0 512 512" height="512" viewBox="0 0 512 512" width="512" xmlns="http://www.w3.org/2000/svg"><g><g><path d="m380.87 501.987v-33.558c0-68.555-55.575-124.13-124.13-124.13-68.555 0-124.13 55.575-124.13 124.13v33.558z" fill="#96b4eb"/><path d="m265.435 387.556c23.966 10.779 40.825 36.363 40.825 66.218v7.183c0 11.182-9.065 20.247-20.247 20.247h-112.132v20.463h165.718v-31.707c0-42.825-32.49-78.057-74.164-82.404z" fill="#8286ea"/><path d="m460.073 450.917c-33.978 0-33.978 19.6-67.956 19.6s-33.978-19.6-67.956-19.6c-33.976 0-33.976 19.6-67.953 19.6-33.975 0-33.975-19.6-67.951-19.6-33.974 0-33.974 19.6-67.947 19.6-33.975 0-33.975-19.6-67.95-19.6l-.243-.108v-207.933c0-97.261 74.956-176.107 167.418-176.107h74.408c92.462 0 167.418 78.846 167.418 176.107v207.933" fill="#fff"/><path d="m293.944 66.769h-25.76c82.613 0 149.585 70.447 149.585 157.348l-.882 142.354c-.184 29.752-21.535 55.542-50.907 60.287-2.965.479-6.285.753-10.08.753-30.359 0-30.359-17.513-60.717-17.513-30.357 0-30.357 17.513-60.714 17.513-30.356 0-30.356-17.513-60.713-17.513-30.355 0-30.355 17.513-60.71 17.513-30.356 0-30.356-17.513-60.712-17.513l-.217-.096v40.909l.243.108c33.975 0 33.975 19.601 67.95 19.601 33.974 0 33.974-19.601 67.947-19.601 33.975 0 33.975 19.601 67.951 19.601s33.976-19.601 67.952-19.601c33.978 0 33.978 19.601 67.956 19.601s33.978-19.601 67.956-19.601l1.289-.108v-207.935c.001-97.261-74.955-176.107-167.417-176.107z" fill="#e1bdfc"/><path d="m212.327 314.625c-5.18 27.629-36.031 56.696-63.659 51.516s-41.573-42.647-36.393-70.275c5.18-27.629 31.777-45.827 59.406-40.646 27.628 5.179 45.826 31.776 40.646 59.405z" fill="#efc5b4"/><path d="m300.966 314.625c5.18 27.629 36.031 56.696 63.659 51.516 27.629-5.18 41.573-42.647 36.393-70.275-5.18-27.629-31.777-45.827-59.406-40.646-27.629 5.179-45.826 31.776-40.646 59.405z" fill="#efc5b4"/><path d="m42.644 34.215 8.225 23.127c.352.99 1.049 1.775 1.929 2.171l20.547 9.257c2.903 1.308 2.903 5.933 0 7.241l-20.547 9.257c-.88.396-1.577 1.181-1.929 2.171l-8.225 23.127c-1.162 3.267-5.271 3.267-6.433 0l-8.226-23.126c-.352-.99-1.049-1.775-1.929-2.171l-20.547-9.258c-2.903-1.308-2.903-5.933 0-7.241l20.547-9.257c.88-.396 1.577-1.181 1.929-2.171l8.225-23.127c1.162-3.267 5.272-3.267 6.434 0z" fill="#c1e5ef"/><path d="m415.842 1.818 6.101 17.155c.261.734.778 1.317 1.431 1.611l15.242 6.867c2.153.97 2.153 4.401 0 5.371l-15.242 6.867c-.652.294-1.17.876-1.431 1.611l-6.101 17.155c-.862 2.424-3.91 2.424-4.772 0l-6.101-17.155c-.261-.735-.778-1.316-1.431-1.611l-15.242-6.867c-2.153-.97-2.153-4.401 0-5.371l15.242-6.867c.653-.294 1.17-.876 1.431-1.611l6.101-17.155c.862-2.424 3.911-2.424 4.772 0z" fill="#c1e5ef"/><g fill="#96b4eb"><ellipse cx="490.709" cy="116.59" rx="17.959" ry="17.96" transform="matrix(.924 -.383 .383 .924 -7.264 196.661)"/><circle cx="132.547" cy="25.009" r="7.747"/></g></g><g fill="#3c122c"><path d="m155.132 376.742c-2.814 0-5.59-.251-8.309-.761-15.991-2.998-29.389-14.477-37.727-32.322-7.136-15.274-9.627-33.831-6.663-49.639 2.999-15.991 12.045-29.857 25.473-39.045 13.428-9.189 29.63-12.596 45.62-9.597 15.991 2.999 29.858 12.045 39.045 25.472 9.188 13.428 12.596 29.629 9.598 45.62-2.938 15.668-12.94 32.055-26.757 43.835-12.528 10.681-26.812 16.437-40.28 16.437zm7.082-112.394c-8.158 0-16.121 2.447-23.001 7.154-9.012 6.167-15.085 15.474-17.097 26.208-2.222 11.844-.306 25.853 5.123 37.473 3.204 6.857 10.488 18.719 23.274 21.117 1.586.297 3.198.44 4.819.44 20.647.003 43.248-23.127 47.154-43.96 2.013-10.734-.275-21.609-6.442-30.622s-15.475-15.085-26.208-17.098c-2.541-.476-5.091-.712-7.622-.712z"/><path d="m358.161 376.742c-13.469 0-27.751-5.755-40.28-16.437-13.816-11.78-23.818-28.167-26.757-43.835-6.19-33.01 15.631-64.903 48.642-71.092 15.991-2.999 32.193.409 45.621 9.597s22.474 23.054 25.472 39.045c2.964 15.808.473 34.365-6.663 49.639-8.337 17.846-21.735 29.325-37.726 32.323-2.717.509-5.496.76-8.309.76zm-7.083-112.394c-2.531 0-5.08.236-7.621.712-22.157 4.155-36.804 25.561-32.649 47.719 4.211 22.468 30.194 47.6 51.972 43.52 12.786-2.398 20.069-14.259 23.273-21.117 5.429-11.62 7.344-25.628 5.123-37.473-2.012-10.734-8.084-20.041-17.097-26.208-6.879-4.706-14.843-7.153-23.001-7.153z"/><ellipse cx="162.697" cy="303.95" rx="17.597" ry="17.597" transform="matrix(.29 -.957 .957 .29 -175.359 371.586)"/><ellipse cx="350.783" cy="303.95" rx="17.597" ry="17.597" transform="matrix(.189 -.982 .982 .189 -14.018 590.925)"/><path d="m488.203 294.906c0-14.994-6.509-28.477-16.828-37.834v-14.196c0-102.627-79.595-186.12-177.43-186.12h-74.408c-97.835 0-177.431 83.493-177.431 186.12v14.175c-10.325 9.357-16.828 22.856-16.828 37.855s6.503 28.498 16.828 37.855v118.048c0 3.954 2.326 7.537 5.937 9.146l.243.108c1.283.572 2.671.867 4.076.867 14.306 0 21.102 3.921 28.971 8.46 9.052 5.221 19.31 11.14 38.978 11.14.785 0 1.531-.025 2.287-.043v21.5c0 5.53 4.483 10.013 10.013 10.013s10.013-4.483 10.013-10.013v-24.694c6.706-2.175 11.863-5.133 16.665-7.903 2.918-1.683 5.69-3.281 8.75-4.625-.099 1.705-.165 3.418-.165 5.147v35.874c0 3.318 2.69 6.008 6.008 6.008s6.008-2.69 6.008-6.008v-35.874c0-2.879.171-5.717.484-8.513 2.368-.299 4.964-.47 7.886-.47 14.306 0 21.102 3.921 28.971 8.46 9.051 5.221 19.31 11.14 38.979 11.14s29.928-5.918 38.979-11.14c7.869-4.54 14.666-8.46 28.973-8.46 3.363 0 6.3.223 8.945.614.306 2.75.485 5.538.485 8.368v35.874c0 3.318 2.69 6.008 6.008 6.008s6.008-2.69 6.008-6.008v-35.874c0-1.559-.046-3.108-.127-4.648 2.635 1.234 5.09 2.645 7.656 4.125 5.054 2.915 10.488 6.045 17.722 8.244v24.353c0 5.53 4.483 10.013 10.013 10.013s10.013-4.483 10.013-10.013v-21.48c.415.005.81.023 1.234.023 19.669 0 29.93-5.918 38.981-11.14 7.869-4.54 14.666-8.46 28.974-8.46.507 0 1.003-.038 1.489-.11 5.438-.107 9.812-4.548 9.812-10.011v-118.067c10.318-9.357 16.828-22.84 16.828-37.834zm-36.854 146.423c-14.187 1.445-22.648 6.326-30.257 10.715-7.869 4.54-14.666 8.46-28.974 8.46s-21.105-3.921-28.974-8.46c-9.052-5.221-19.312-11.14-38.981-11.14-19.67 0-29.929 5.918-38.98 11.14-7.869 4.54-14.665 8.46-28.972 8.46s-21.103-3.921-28.973-8.46c-9.051-5.221-19.31-11.14-38.978-11.14s-29.927 5.918-38.977 11.14c-7.869 4.54-14.665 8.46-28.97 8.46-14.306 0-21.102-3.921-28.971-8.46-7.42-4.28-15.649-9.028-29.208-10.601v-198.567c0-91.585 70.611-166.094 157.405-166.094h74.408c86.793 0 157.404 74.509 157.404 166.094v198.453z"/><path d="m327.195 157.424c-3.318 0-6.008-2.69-6.008-6.008v-11.033c0-3.318 2.69-6.008 6.008-6.008s6.008 2.69 6.008 6.008v11.033c-.001 3.318-2.69 6.008-6.008 6.008z"/><path d="m371.367 170.342c-3.318 0-6.008-2.69-6.008-6.008v-11.033c0-3.318 2.69-6.008 6.008-6.008s6.008 2.69 6.008 6.008v11.033c0 3.318-2.69 6.008-6.008 6.008z"/><path d="m352.981 205.035c-3.318 0-6.008-2.69-6.008-6.008v-11.034c0-3.318 2.69-6.008 6.008-6.008s6.008 2.69 6.008 6.008v11.034c-.001 3.318-2.691 6.008-6.008 6.008z"/></g></g></svg>