<svg id="Capa_1" enable-background="new 0 0 512 512" height="512" viewBox="0 0 512 512" width="512" xmlns="http://www.w3.org/2000/svg"><g><g><path d="m431.159 429.452h-350.57c-17.571 0-31.816-14.244-31.816-31.816v-147.178c0-98.512 79.86-178.372 178.371-178.372h57.457c98.512 0 178.371 79.86 178.371 178.372v147.179c.002 17.571-14.242 31.815-31.813 31.815z" fill="#e8a284"/><path d="m379.957 501.17v-33.546c0-68.529-55.554-124.083-124.083-124.083-68.529 0-124.083 55.554-124.083 124.083v33.546z" fill="#9781dd"/><path d="m200.715 411.241 23.302 28.815 31.576-39.766 31.16 39.766 23.607-28.599v-32.472h-109.535s-.11 31.857-.11 32.256z" fill="#c2b2eb"/><path d="m447.595 254.705c.568-5.442.865-10.964.865-16.557 0-3.17-.105-6.315-.289-9.439h-384.594c-.185 3.123-.289 6.269-.289 9.439 0 5.592.296 11.115.864 16.557-17.121 4.959-29.643 20.744-29.643 39.463 0 22.694 18.397 41.092 41.092 41.092 6.467 0 12.582-1.498 18.025-4.16 28.666 39.172 74.974 64.618 127.233 64.618h70.032c52.259 0 98.567-25.447 127.233-64.618 5.443 2.661 11.558 4.159 18.025 4.159 22.694 0 41.092-18.397 41.092-41.092-.002-18.719-12.524-34.504-29.646-39.462z" fill="#ccf3e2"/><path d="m311.25 407.929c-3.795 5.74-7.373 11.116-11.545 16.404 3.632 8.866 5.67 18.668 5.67 28.993v7.18c0 11.178-9.061 20.239-20.239 20.239h-112.089v20.455h165.655v-31.695c0-24.45-10.6-46.418-27.452-61.576z" fill="#8962de"/><path d="m283.815 401.03c7.361 6.881 11.895 13.552 15.89 23.303 4.173-5.288 7.75-10.664 11.545-16.404-3.122-2.808-21.154-6.59-27.435-6.899z" fill="#ae85ea"/><path d="m447.999 226.409h-49.755c-3.555 67.37-59.305 120.903-127.56 120.903h-79.652c-67.515 0-122.79-52.379-127.422-118.716-.205 3.291-.322 6.606-.322 9.95 0 87.023 70.546 157.57 157.57 157.57h58.177c.284.232 13.248-.035 15.161-.042 85.496-1.761 154.264-71.61 154.264-157.528 0-4.084-.155-8.131-.461-12.137z" fill="#b1b6e1"/><path d="m468.741 162.373h-23.315c-12.927-22.575-91.511-152.364-189.552-152.364s-176.625 129.789-189.552 152.364h-23.315c-18.133 0-32.832 14.7-32.832 32.832 0 18.133 14.699 32.832 32.832 32.832h425.734c18.133 0 32.832-14.699 32.832-32.832 0-18.132-14.699-32.832-32.832-32.832z" fill="#9781dd"/><path d="m410.79 111.434h-310.482l-36.29 50.403h380.039z" fill="#c2b2eb"/><path d="m361.661 160.478v-45.133c0-10.222-8.287-18.509-18.509-18.509h-74.035c-10.222 0-18.509 8.287-18.509 18.509v45.133zm-86.255-37.413c0-1.597 1.294-2.891 2.891-2.891h55.675c1.596 0 2.891 1.294 2.891 2.891v30.431c0 1.597-1.294 2.891-2.891 2.891h-55.675c-1.597 0-2.891-1.294-2.891-2.891z" fill="#f6e06e"/><path d="m379.337 502.521 25.26-92.546 30.813 8.23-22.338 83.635" fill="#c49a8b"/><path d="m489.347 349.554c9.575 2.557 14.877 12.802 11.437 22.097-19.238 51.978-49.486 87.545-89.942 76.74-40.456-10.806-48.942-56.718-39.7-111.366 1.652-9.772 11.357-16.008 20.932-13.451z" fill="#f6e06e"/><path d="m489.347 349.554-26.358-7.04c7.352 1.964 11.423 9.83 8.781 16.966-14.771 39.911-37.997 67.22-69.061 58.923-30.906-8.255-37.507-43.195-30.585-84.874-.443 1.103-.777 2.271-.984 3.494-9.242 54.648-.756 100.561 39.7 111.366 40.456 10.806 70.704-24.761 89.942-76.739 3.442-9.294-1.86-19.539-11.435-22.096z" fill="#dda86a"/><path d="m340.621 73.006c9.415 10.941 9.875 24.987 4.274 35.996h64.475c-34.621-44.507-89.974-98.993-153.496-98.993-10.101 0-19.995 1.379-29.632 3.875 4.017-.593 8.084-.923 12.201-.923 40.701 0 76.82 30.576 102.178 60.045z" fill="#8962de"/><path d="m344.091 110.493c-5.444 9.487-15.533 16.374-28.309 16.374h-217.382s3.507-6.493 9.91-16.374h-7.084c-23.199 30.072-36.773 55.21-36.773 55.21h382.841s-13.571-25.138-36.769-55.21z" fill="#ae85ea"/><path d="m361.661 160.478v-45.133c0-8.424-5.632-15.52-13.333-17.761-1.001 8.997-5.726 17.421-13.067 22.906.946.475 1.601 1.443 1.601 2.574v30.431c0 1.597-1.294 2.891-2.891 2.891h-55.675c-1.597 0-2.891-1.294-2.891-2.891v-26.629h-24.798v33.611h111.054z" fill="#dda86a"/><path d="m40.486 3.425 8.222 23.118c.352.99 1.049 1.774 1.928 2.17l20.54 9.254c2.902 1.307 2.902 5.931 0 7.238l-20.54 9.254c-.879.396-1.576 1.181-1.928 2.17l-8.222 23.118c-1.162 3.266-5.269 3.266-6.431 0l-8.222-23.117c-.352-.99-1.049-1.774-1.928-2.17l-20.54-9.255c-2.902-1.307-2.902-5.931 0-7.238l20.539-9.254c.88-.396 1.576-1.181 1.928-2.17l8.222-23.118c1.162-3.266 5.27-3.266 6.432 0z" fill="#c2b2eb"/><path d="m482.363 49.901 6.099 17.149c.261.734.778 1.316 1.43 1.61l15.236 6.864c2.152.97 2.152 4.399 0 5.369l-15.236 6.864c-.652.294-1.169.876-1.43 1.61l-6.099 17.149c-.862 2.423-3.909 2.423-4.77 0l-6.099-17.149c-.261-.734-.778-1.316-1.43-1.61l-15.236-6.864c-2.152-.97-2.152-4.399 0-5.369l15.236-6.864c.652-.294 1.169-.876 1.43-1.61l6.099-17.149c.861-2.423 3.908-2.423 4.77 0z" fill="#c2b2eb"/><ellipse cx="440.312" cy="22.598" fill="#9781dd" rx="7.744" ry="7.744" transform="matrix(.16 -.987 .987 .16 347.476 453.605)"/></g><g><g fill="#3c122c"><path d="m178.848 254.793c-.785-.4-7.928-3.913-16.981-3.913s-16.196 3.513-16.981 3.914c-2.944 1.503-4.107 5.096-2.618 8.047 1.491 2.952 5.101 4.136 8.054 2.663.053-.026 5.311-2.613 11.544-2.613s11.493 2.587 11.521 2.6c.874.446 1.806.658 2.725.658 2.185 0 4.292-1.197 5.353-3.277 1.509-2.954.336-6.571-2.617-8.079z"/><path d="m366.862 254.794c-.785-.401-7.928-3.914-16.981-3.914-9.054 0-16.197 3.513-16.982 3.914-2.944 1.503-4.107 5.096-2.618 8.047 1.491 2.952 5.1 4.136 8.054 2.663.053-.026 5.311-2.613 11.546-2.613 6.233 0 11.492 2.586 11.519 2.6.875.447 1.807.658 2.726.658 2.184 0 4.292-1.197 5.353-3.276 1.509-2.954.337-6.572-2.617-8.079z"/><path d="m273.464 297.203c-3.316 0-6.005 2.689-6.005 6.005 0 6.388-5.197 11.585-11.584 11.585-6.389 0-11.585-5.197-11.585-11.585 0-3.316-2.689-6.005-6.005-6.005s-6.005 2.689-6.005 6.005c0 13.011 10.586 23.596 23.596 23.596s23.595-10.585 23.595-23.596c-.002-3.316-2.691-6.005-6.007-6.005z"/><path d="m508.835 353.474c-3.464-6.693-9.626-11.646-16.906-13.59l-18.947-5.061v-5.293c8.826-9.185 14.265-21.647 14.265-35.362s-5.439-26.178-14.265-35.366v-8.344c0-4.232-.154-8.428-.434-12.59 21.844-1.934 39.033-20.324 39.033-42.663 0-23.622-19.218-42.841-42.841-42.841h-17.562c-8.217-13.823-26.334-42.317-51.831-71.14-20.613-23.302-41.775-41.92-62.897-55.337-27.042-17.177-54.152-25.887-80.576-25.887s-53.534 8.71-80.577 25.888c-21.122 13.417-42.284 32.035-62.897 55.337-25.497 28.822-43.615 57.316-51.831 71.14h-17.562c-23.623 0-42.841 19.218-42.841 42.841 0 22.339 17.188 40.728 39.033 42.663-.28 4.162-.434 8.358-.434 12.59v8.349c-8.825 9.185-14.265 21.646-14.265 35.362 0 13.714 5.441 26.174 14.265 35.362v68.106c0 23.062 18.763 41.824 41.824 41.824h44.174c-1.95 9.084-2.981 18.505-2.981 28.163v33.545c0 5.528 4.482 10.009 10.009 10.009s10.009-4.481 10.009-10.009v-33.545c0-26.783 9.288-51.432 24.8-70.917 9.056 3.108 18.459 5.459 28.134 6.98-.001.356-.002.709-.003 1.047-17.043 16.196-27.69 39.062-27.69 64.373v35.86c0 3.316 2.689 6.005 6.005 6.005s6.005-2.689 6.005-6.005v-35.86c0-19.576 7.37-37.451 19.471-51.026l20.824 25.751c1.14 1.41 2.856 2.229 4.669 2.229h.026c1.823-.008 3.543-.844 4.677-2.271l26.84-33.804 26.465 33.774c1.122 1.431 2.832 2.278 4.651 2.301 1.795.029 3.549-.78 4.707-2.182l21.555-26.114c12.27 13.613 19.758 31.614 19.758 51.342v35.86c0 3.316 2.689 6.005 6.005 6.005s6.005-2.689 6.005-6.005v-35.86c0-25.636-10.916-48.768-28.343-64.998v-.327c9.903-1.519 19.519-3.916 28.777-7.095 15.519 19.487 24.806 44.147 24.806 70.937v30.76l-.262.954c-1.463 5.331 1.672 10.838 7.002 12.301.888.244 1.778.36 2.656.36 3.328 0 6.444-1.674 8.292-4.415 1.453-1.737 2.33-3.973 2.33-6.415v-.085l12.334-44.928c1.932.704 3.907 1.354 5.96 1.902 1.947.52 3.881.944 5.802 1.288l-10.659 39.91c-1.427 5.341 1.747 10.827 7.087 12.253 5.346 1.429 10.826-1.747 12.252-7.087l11.966-44.8c30.531-4.91 56.751-33.939 75.464-84.499 2.618-7.065 2.131-14.956-1.333-21.65zm-147.563-18.12c-2.068 12.229-3.208 23.655-3.469 34.258-20.097 10.277-42.833 16.097-66.914 16.097h-70.031c-81.366 0-147.562-66.196-147.562-147.562 0-.034.001-.068.001-.102h365.151c0 .034.001.068.001.102 0 29.882-8.939 57.709-24.269 80.97l-19.525-5.215c-7.281-1.945-15.092-.722-21.43 3.351-6.338 4.075-10.696 10.672-11.953 18.101zm-316.754-41.186c0-9.847 4.614-18.623 11.781-24.32 3.828 19.909 11.18 38.58 21.396 55.325-.693.047-1.39.079-2.095.079-17.139-.001-31.082-13.945-31.082-31.084zm389.908 30.357c10.016-16.58 17.243-35.022 21.025-54.677 7.166 5.698 11.78 14.474 11.78 24.32 0 16.834-13.454 30.576-30.173 31.06zm-78.77-172.161h-12.788v-29.3c0-4.905-3.991-8.896-8.897-8.896h-55.674c-4.906 0-8.897 3.991-8.897 8.896v29.3h-12.788v-37.019c0-6.894 5.609-12.503 12.504-12.503h74.036c6.895 0 12.503 5.609 12.503 12.503v37.019zm-74.245-1.983v-24.202h49.446v24.202zm86.256 1.983v-35.842h34.764c10.526 13.631 19.059 26.243 25.176 35.842zm-111.793-132.346c54.454 0 103.454 44.061 136.955 84.494h-27.694c-4.007-8.097-12.353-13.681-21.983-13.681h-74.036c-9.63 0-17.977 5.584-21.984 13.681h-128.213c33.501-40.434 82.501-84.494 136.955-84.494zm-146.557 96.505h135.285v35.842h-160.46c6.117-9.599 14.649-22.211 25.175-35.842zm-89.133 78.682c0-12.585 10.239-22.823 22.823-22.823h425.734c12.584 0 22.823 10.238 22.823 22.823s-10.239 22.823-22.823 22.823h-425.734c-12.585 0-22.823-10.238-22.823-22.823zm110.554 224.238h-50.149c-12.024 0-21.806-9.782-21.806-21.806v-55.225c5.271 1.843 10.927 2.857 16.818 2.857 5.114 0 10.045-.777 14.707-2.183 15.401 19.123 34.905 34.806 57.168 45.695-6.84 9.378-12.491 19.673-16.738 30.662zm93.236 11.01-16.754-20.719c1.809-1.484 3.686-2.886 5.627-4.202 2.656.126 5.326.195 8.012.195h22.747zm62.9.022-19.392-24.748h23.408c2.681 0 5.342-.084 7.993-.209 1.833 1.244 3.614 2.56 5.33 3.952zm204.524-62.299c-9.577 25.876-21.494 45.957-34.461 58.075-13.492 12.608-27.729 16.685-43.512 12.469-15.786-4.217-26.09-14.849-31.499-32.504-5.199-16.969-5.516-40.319-.915-67.523.437-2.583 2.091-3.99 3.037-4.598.712-.457 1.998-1.09 3.667-1.09.552 0 1.147.069 1.777.238l25.709 6.866-5.993 22.258c-.862 3.203 1.035 6.498 4.238 7.36.523.141 1.048.208 1.565.208 2.648 0 5.074-1.766 5.795-4.445l6-22.281 25.985 6.94-11.578 42.996c-.862 3.203 1.035 6.498 4.237 7.36.524.141 1.049.208 1.566.208 2.648 0 5.073-1.766 5.795-4.445l11.585-43.02 22.371 5.975c2.53.676 3.776 2.453 4.293 3.453.515 1 1.247 3.044.338 5.5z"/><path d="m403.561 379.537c-3.214-.799-6.475 1.163-7.274 4.382l-2.656 10.704c-.799 3.219 1.163 6.476 4.383 7.274.485.121.972.178 1.451.178 2.695 0 5.145-1.827 5.824-4.561l2.656-10.704c.797-3.217-1.164-6.474-4.384-7.273z"/><path d="m422.844 402.935c-3.218-.799-6.477 1.163-7.275 4.382l-2.657 10.704c-.799 3.219 1.163 6.476 4.382 7.275.486.121.973.178 1.452.178 2.695 0 5.145-1.827 5.823-4.56l2.657-10.704c.798-3.219-1.164-6.476-4.382-7.275z"/></g><path d="m140.119 204.178c-8.773 0-17.574-.03-26.531-.089-5.527-.037-9.979-4.548-9.942-10.075.038-5.527 4.506-9.953 10.075-9.943 17.825.119 35.037.119 52.621 0h.068c5.497 0 9.971 4.437 10.008 9.941.037 5.527-4.414 10.039-9.941 10.076-8.838.06-17.583.09-26.358.09z" fill="#fff"/><path d="m73.984 204.088h-15.886c-5.527 0-10.009-4.481-10.009-10.009s4.482-10.009 10.009-10.009h15.885c5.527 0 10.009 4.481 10.009 10.009.001 5.528-4.481 10.009-10.008 10.009z" fill="#fff"/><ellipse cx="161.867" cy="303.209" fill="#3c122c" rx="17.59" ry="17.59" transform="matrix(.707 -.707 .707 .707 -166.991 203.265)"/><ellipse cx="349.881" cy="303.209" fill="#3c122c" rx="17.59" ry="17.59" transform="matrix(.383 -.924 .924 .383 -64.141 510.423)"/></g></g></svg>