<svg id="Capa_1" enable-background="new 0 0 512 512" height="512" viewBox="0 0 512 512" width="512" xmlns="http://www.w3.org/2000/svg"><g><g><path d="m393.123 501.845v-34.037c0-69.534-56.368-125.902-125.902-125.902-69.534 0-125.903 56.368-125.903 125.902v34.037z" fill="#96b4eb"/><path d="m276.04 386.105c24.309 10.933 41.408 36.882 41.408 67.163v7.286c0 11.342-9.194 20.536-20.536 20.536h-113.733v20.755h168.084v-32.16c0-43.437-32.954-79.171-75.223-83.58z" fill="#8286ea"/><path d="m461.754 251.765c.577-5.522.877-11.126.877-16.8 0-88.3-71.581-159.882-159.881-159.882h-71.059c-88.3 0-159.881 71.582-159.881 159.882 0 5.674.3 11.277.877 16.8-17.372 5.031-30.078 21.047-30.078 40.042 0 23.028 18.667 41.695 41.694 41.695 6.562 0 12.767-1.52 18.289-4.221 29.086 39.746 76.074 65.566 129.099 65.566h71.059c53.025 0 100.012-25.82 129.099-65.566 5.523 2.701 11.728 4.221 18.289 4.221 23.027 0 41.694-18.667 41.694-41.695 0-18.995-12.705-35.011-30.078-40.042z" fill="#efc5b4"/><path d="m108.895 251.186h-33.463c-8.214 0-14.873-6.659-14.873-14.873v-13.385c0-8.214 6.659-14.873 14.873-14.873h33.463c8.214 0 14.873 6.659 14.873 14.873v13.385c0 8.215-6.659 14.873-14.873 14.873z" fill="#f6e06e"/><path d="m461.632 251.186h-33.463c-8.214 0-14.873-6.659-14.873-14.873v-13.385c0-8.214 6.659-14.873 14.873-14.873h33.463c8.214 0 14.873 6.659 14.873 14.873v13.385c0 8.215-6.659 14.873-14.873 14.873z" fill="#f6e06e"/><path d="m307.572 393.937h-80.702c-66.727 0-120.819-54.093-120.819-120.819v-76.305c0-66.727 54.093-120.819 120.819-120.819h80.702c66.727 0 120.819 54.093 120.819 120.819v76.305c0 66.726-54.093 120.819-120.819 120.819z" fill="#fff"/><path d="m307.572 75.994h-33.852c55.518 0 100.524 45.005 100.524 100.524v63.487c0 55.518-45.006 100.525-100.524 100.525h-67.146c-55.518 0-100.524-45.006-100.524-100.525v33.113c0 66.726 54.093 120.819 120.819 120.819h80.702c66.727 0 120.819-54.093 120.819-120.819v-76.305c.001-66.727-54.092-120.819-120.818-120.819z" fill="#e1bdfc"/><path d="m283.952 89.03h-33.463c-8.214 0-14.873-6.659-14.873-14.873v-13.385c0-8.214 6.659-14.873 14.873-14.873h33.463c8.214 0 14.873 6.659 14.873 14.873v13.385c0 8.214-6.659 14.873-14.873 14.873z" fill="#f6e06e"/><path d="m184.218 504.915c-42.886-60.474-80.118-124.408-152.573-147.524-8.969-2.861-17.044 7.465-11.708 14.989l93.554 131.849" fill="#c1e5ef"/><path d="m155.997 475.428s-28.908 5.681-40.916-11.363-5.499-20.457-15.121-31.903c-8.45-10.052-16.011-6.118-33.8-21.414-17.79-15.296-10.229-43.266-10.229-43.266s69.824 45.014 99.177 106.634" fill="#d789b9"/><path d="m470.588 16.252 8.342 23.457c.357 1.004 1.064 1.8 1.957 2.202l20.841 9.389c2.944 1.327 2.944 6.018 0 7.344l-20.841 9.39c-.892.402-1.599 1.198-1.957 2.202l-8.342 23.457c-1.179 3.314-5.347 3.314-6.525 0l-8.342-23.457c-.357-1.004-1.064-1.8-1.957-2.202l-20.841-9.39c-2.944-1.326-2.944-6.018 0-7.344l20.841-9.389c.892-.402 1.599-1.198 1.957-2.202l8.342-23.457c1.178-3.314 5.346-3.314 6.525 0z" fill="#faf1a9"/><path d="m39.722 78.584 6.188 17.4c.265.745.79 1.335 1.451 1.634l15.459 6.965c2.184.984 2.184 4.464 0 5.448l-15.459 6.965c-.662.298-1.186.889-1.451 1.634l-6.188 17.4c-.874 2.458-3.966 2.458-4.84 0l-6.188-17.4c-.265-.745-.789-1.335-1.451-1.634l-15.459-6.965c-2.184-.984-2.184-4.464 0-5.448l15.459-6.965c.662-.298 1.186-.889 1.451-1.634l6.188-17.4c.874-2.458 3.966-2.458 4.84 0z" fill="#faf1a9"/><ellipse cx="35.81" cy="18.216" fill="#f6e06e" rx="18.216" ry="18.216" transform="matrix(.232 -.973 .973 .232 9.797 48.835)"/><circle cx="135.561" cy="43.942" fill="#f6e06e" r="7.858"/><path d="m471.808 391.594 6.188 17.4c.265.745.79 1.335 1.451 1.634l15.459 6.965c2.184.984 2.184 4.464 0 5.448l-15.459 6.965c-.662.298-1.186.889-1.451 1.634l-6.188 17.4c-.874 2.458-3.966 2.458-4.84 0l-6.188-17.4c-.265-.745-.789-1.335-1.451-1.634l-15.459-6.965c-2.184-.984-2.184-4.464 0-5.448l15.459-6.965c.662-.298 1.186-.889 1.451-1.634l6.188-17.4c.874-2.458 3.966-2.458 4.84 0z" fill="#faf1a9"/></g><g fill="#3c122c"><circle cx="171.835" cy="300.98" r="17.848"/><circle cx="362.607" cy="300.98" r="17.848"/><path d="m257.065 288.224c0 3.365-2.728 6.093-6.093 6.093s-6.093-2.728-6.093-6.093 2.728-6.093 6.093-6.093 6.093 2.728 6.093 6.093z"/><circle cx="283.47" cy="288.224" r="6.093"/><path d="m257.065 350.738c0 3.365-2.728 6.093-6.093 6.093s-6.093-2.728-6.093-6.093 2.728-6.093 6.093-6.093 6.093 2.728 6.093 6.093z"/><path d="m289.563 350.738c0 3.365-2.728 6.093-6.093 6.093s-6.093-2.728-6.093-6.093 2.728-6.093 6.093-6.093 6.093 2.728 6.093 6.093z"/><path d="m305.812 307.585c0 3.365-2.728 6.094-6.093 6.094s-6.093-2.728-6.093-6.094 2.728-6.093 6.093-6.093c3.365-.001 6.093 2.727 6.093 6.093z"/><path d="m273.314 307.585c0 3.365-2.728 6.094-6.093 6.094s-6.093-2.728-6.093-6.094 2.728-6.093 6.093-6.093c3.365-.001 6.093 2.727 6.093 6.093z"/><path d="m240.816 307.585c0 3.365-2.728 6.094-6.094 6.094-3.365 0-6.093-2.728-6.093-6.094s2.728-6.093 6.093-6.093c3.366-.001 6.094 2.727 6.094 6.093z"/><circle cx="299.719" cy="331.88" r="6.093"/><circle cx="267.221" cy="331.88" r="6.093"/><path d="m240.816 331.88c0 3.365-2.728 6.093-6.094 6.093-3.365 0-6.093-2.728-6.093-6.093s2.728-6.093 6.093-6.093c3.366 0 6.094 2.728 6.094 6.093z"/><path d="m267.221 238.337c-5.299 0-10.262-2.082-13.976-5.861l-56.474-57.473c-2.359-2.4-2.325-6.258.076-8.617 2.4-2.36 6.258-2.325 8.617.075l56.474 57.473c1.404 1.428 3.28 2.216 5.283 2.216s3.879-.788 5.283-2.216l56.474-57.473c2.359-2.4 6.217-2.435 8.617-.075 2.401 2.358 2.434 6.216.076 8.617l-56.474 57.473c-3.714 3.779-8.678 5.861-13.976 5.861z"/><path d="m257.065 154.082c0 3.365-2.728 6.093-6.093 6.093s-6.093-2.728-6.093-6.093 2.728-6.093 6.093-6.093 6.093 2.728 6.093 6.093z"/><circle cx="283.47" cy="154.082" r="6.093"/><path d="m257.065 134.786c0 3.365-2.728 6.093-6.093 6.093s-6.093-2.728-6.093-6.093 2.728-6.093 6.093-6.093 6.093 2.728 6.093 6.093z"/><circle cx="283.47" cy="134.786" r="6.093"/><circle cx="202.298" cy="236.33" r="6.093"/><path d="m185.841 213.78c0 3.365-2.728 6.093-6.093 6.093s-6.093-2.728-6.093-6.093 2.728-6.094 6.093-6.094c3.365.001 6.093 2.729 6.093 6.094z"/><path d="m326.05 236.33c0 3.365 2.728 6.093 6.093 6.093s6.093-2.728 6.093-6.093-2.728-6.093-6.093-6.093c-3.364 0-6.093 2.728-6.093 6.093z"/><path d="m348.6 213.78c0 3.365 2.728 6.093 6.093 6.093s6.093-2.728 6.093-6.093-2.728-6.094-6.093-6.094-6.093 2.729-6.093 6.094z"/><path d="m481.947 250.907c2.962-4.112 4.714-9.15 4.714-14.593v-13.386c0-11.258-7.473-20.801-17.718-23.936-16.127-74.577-81.313-131.093-159.961-133.941v-4.28c0-13.8-11.228-25.028-25.029-25.028h-33.463c-13.801 0-25.029 11.228-25.029 25.028v4.281c-79.024 2.862-144.458 59.906-160.189 135.012-8.75 3.904-14.868 12.681-14.868 22.864v13.386c0 4.88 1.41 9.437 3.836 13.291-13.174 9.41-21.785 24.814-21.785 42.202 0 28.591 23.26 51.851 51.85 51.851 5.192 0 10.205-.774 14.938-2.203 15.625 19.398 35.411 35.305 57.995 46.352-7.942 10.89-14.305 22.998-18.758 35.986-27.036-33.439-58.157-61.532-103.746-76.077-8.334-2.662-17.463.377-22.713 7.557-5.139 7.027-5.283 16.047-.356 22.995l91.151 128.072c3.253 4.569 9.593 5.638 14.162 2.385 4.57-3.253 5.638-9.593 2.385-14.163l-55.171-77.518c9.009 7.356 15.72 10.187 20.71 12.289 4.558 1.92 7.308 3.078 10.394 6.75 3.724 4.428 4.349 7.006 5.297 10.909 1.17 4.819 2.627 10.816 9.507 20.582 8.745 12.412 24.194 14.858 35.01 14.857 4.823 0 8.715-.485 10.691-.79 1.247 1.791 2.494 3.586 3.745 5.385 4.541 6.535 9.236 13.292 13.984 19.987 1.73 2.441 4.34 3.885 7.093 4.211.778.36 1.642.567 2.556.567 2.191 0 4.106-1.16 5.18-2.896 3.999-3.367 4.819-9.29 1.74-13.631-.276-.39-.551-.781-.827-1.171v-24.781c0-26.804 13.611-50.474 34.274-64.504 2.699.128 5.415.193 8.145.193h71.059c2.73 0 5.445-.066 8.144-.194 20.664 14.03 34.275 37.699 34.275 64.504v36.386c0 3.365 2.728 6.093 6.093 6.093s6.093-2.728 6.093-6.093v-36.386c0-26.164-11.208-49.755-29.072-66.235 10.163-1.537 20.034-3.976 29.528-7.234 15.739 19.771 25.155 44.788 25.155 71.964v34.038c0 5.608 4.547 10.156 10.156 10.156s10.156-4.547 10.156-10.156v-34.038c0-29.875-9.691-57.525-26.08-79.992 22.586-11.047 42.376-26.957 58.002-46.357 4.731 1.43 9.745 2.2 14.937 2.2 28.59 0 51.85-23.26 51.85-51.851.001-16.607-7.854-31.407-20.04-40.899zm-15.598-14.593c0 2.6-2.116 4.717-4.717 4.717h-23.085v-22.82h23.085c2.601 0 4.717 2.116 4.717 4.717zm-27.802-38.414v-2.341c0-10.749-1.323-21.193-3.799-31.187 5.634 10.493 10.049 21.733 13.065 33.528zm-132.633-111.75h2.911c60.329 0 109.41 49.081 109.41 109.41v78.812c0 60.329-49.081 109.41-109.41 109.41h-83.209c-60.329 0-109.41-49.081-109.41-109.41v-78.812c0-60.329 49.081-109.41 109.41-109.41h2.911c4.255 7.762 12.503 13.036 21.962 13.036h33.463c9.459 0 17.707-5.275 21.962-13.036zm-210.02 109.41v2.341h-9.267c3.016-11.797 7.432-23.04 13.068-33.536-2.477 9.997-3.801 20.443-3.801 31.195zm-25.18 27.368c0-2.6 2.116-4.717 4.717-4.717h20.463v22.82h-20.462c-2.601 0-4.717-2.116-4.717-4.717v-13.386zm25.18 38.415v13.029c0 10.767 1.327 21.229 3.812 31.238-7.327-13.634-12.6-28.529-15.409-44.267zm338.847 44.245c2.481-10.004 3.806-20.457 3.806-31.217v-13.029h11.599c-2.807 15.731-8.083 30.616-15.405 44.246zm-188.969-244.817c0-2.6 2.116-4.717 4.717-4.717h33.463c2.601 0 4.717 2.116 4.717 4.717v13.386c0 2.6-2.116 4.717-4.717 4.717h-33.463c-2.601 0-4.717-2.117-4.717-4.717zm-161.468 262.575c-17.391 0-31.539-14.148-31.539-31.539 0-9.991 4.681-18.896 11.953-24.677 3.884 20.204 11.361 39.143 21.728 56.135-.709.048-1.422.081-2.142.081zm-55.664 43.747c6.98 2.23 13.588 4.859 19.901 7.812-.596 6.229-.568 14.875 2.294 23.373zm91.422 93.462c-5.547-7.873-6.604-12.227-7.627-16.439-1.105-4.551-2.248-9.258-7.811-15.874-4.976-5.921-9.841-7.97-14.992-10.139-5.119-2.157-10.922-4.601-19.5-11.977-7.928-6.815-9.714-17.075-9.684-25.077 36.459 20.786 62.192 53.54 87.323 89.128-8.181.376-21.349-.594-27.709-9.622zm57.023 8.757v7.36c-.286-.411-.575-.827-.86-1.237-7.418-10.674-14.757-21.229-22.269-31.47 3.764-17.901 11.676-34.291 22.683-48.117 9.491 3.257 19.358 5.692 29.518 7.229-17.864 16.48-29.072 40.071-29.072 66.235zm273.053-145.966c-.721 0-1.433-.033-2.142-.081 10.37-16.998 17.839-35.948 21.722-56.16 7.28 5.781 11.959 14.704 11.959 24.702 0 17.39-14.148 31.539-31.539 31.539z"/><path d="m276.062 450.837c-3.365 0-6.093-2.728-6.093-6.093v-11.507c0-3.365 2.728-6.093 6.093-6.093s6.093 2.728 6.093 6.093v11.507c0 3.364-2.728 6.093-6.093 6.093z"/><path d="m314.872 461.703c-3.365 0-6.094-2.728-6.094-6.093v-11.508c0-3.365 2.728-6.093 6.094-6.093 3.365 0 6.093 2.728 6.093 6.093v11.508c.001 3.365-2.728 6.093-6.093 6.093z"/><path d="m291.586 485.61c-3.365 0-6.093-2.728-6.093-6.094v-11.506c0-3.365 2.728-6.093 6.093-6.093s6.093 2.728 6.093 6.093v11.507c0 3.365-2.728 6.093-6.093 6.093z"/></g></g></svg>