<svg id="Capa_1" enable-background="new 0 0 512 512" height="512" viewBox="0 0 512 512" width="512" xmlns="http://www.w3.org/2000/svg"><g><g><path d="m383.65 111.323 20.396-49.763c10.645-.978 19.99-8.549 22.701-19.51 3.424-13.842-5.022-27.839-18.863-31.263-13.842-3.424-27.839 5.021-31.263 18.863-2.032 8.213.116 16.48 5.09 22.562l-18.939 46.208c-21.6-11.116-46.098-17.394-72.063-17.394h-70.092c-25.965 0-50.463 6.278-72.064 17.394l-18.939-46.208c4.974-6.081 7.121-14.348 5.09-22.562-3.424-13.842-17.421-22.287-31.263-18.863-13.843 3.424-22.288 17.421-18.864 31.263 2.711 10.962 12.056 18.532 22.701 19.51l20.396 49.763c-39.257 28.686-64.765 75.065-64.765 127.409v.001c0 66.803 41.537 123.902 100.192 146.886-19.665 21.972-31.629 50.981-31.629 82.789v33.575h248.381v-33.575c0-31.808-11.964-60.817-31.629-82.789 58.655-22.985 100.192-80.083 100.192-146.886v-.001c-.001-52.344-25.51-98.723-64.766-127.409z" fill="#a1e8c3"/><path d="m290.708 81.3h-20.223c70.612 0 127.855 57.242 127.855 127.854v10.858c0 70.612-57.243 127.855-127.855 127.855h-79.721c-67.574 0-122.896-52.424-127.533-118.819-.205 3.294-.322 6.612-.322 9.958v.001c0 87.099 70.608 157.707 157.707 157.707h58.227c16.011 13.088 26.362 33.862 26.362 57.26v7.187c0 11.187-9.069 20.256-20.257 20.256h-112.186v20.473h165.799v-31.723c0-31.942-18.072-59.653-44.544-73.495 85.57-1.762 154.398-71.673 154.398-157.665v-.001c0-87.099-70.608-157.706-157.707-157.706z" fill="#85adc2"/><path d="m473.769 431.178 8.229 23.138c.352.991 1.05 1.776 1.93 2.172l20.557 9.262c2.904 1.309 2.904 5.936 0 7.244l-20.557 9.262c-.88.396-1.578 1.181-1.93 2.172l-8.229 23.138c-1.163 3.269-5.274 3.269-6.436 0l-8.229-23.138c-.352-.991-1.05-1.776-1.93-2.172l-20.557-9.262c-2.904-1.309-2.904-5.936 0-7.244l20.557-9.262c.88-.397 1.578-1.182 1.93-2.172l8.229-23.138c1.162-3.269 5.273-3.269 6.436 0z" fill="#ccf3e2"/><path d="m30.475 424.571 6.104 17.163c.261.735.779 1.317 1.432 1.612l15.249 6.87c2.154.971 2.154 4.403 0 5.374l-15.249 6.87c-.653.294-1.17.876-1.432 1.611l-6.104 17.164c-.862 2.425-3.912 2.425-4.774 0l-6.104-17.164c-.261-.735-.779-1.317-1.432-1.611l-15.249-6.87c-2.154-.971-2.154-4.403 0-5.374l15.249-6.87c.653-.294 1.17-.877 1.432-1.612l6.104-17.163c.862-2.425 3.912-2.425 4.774 0z" fill="#ccf3e2"/><g fill="#a1e8c3"><ellipse cx="82.224" cy="408.321" rx="17.968" ry="17.968" transform="matrix(.526 -.851 .851 .526 -308.342 263.599)"/><path d="m411.119 416.808c0-4.281 3.47-7.751 7.751-7.751s7.751 3.47 7.751 7.751-3.47 7.751-7.751 7.751c-4.28 0-7.751-3.471-7.751-7.751"/><ellipse cx="492.732" cy="344.292" rx="17.968" ry="17.968" transform="matrix(.526 -.851 .851 .526 -59.185 582.431)"/><path d="m27.197 340.753c0-4.281 3.47-7.751 7.751-7.751s7.751 3.47 7.751 7.751-3.47 7.751-7.751 7.751-7.751-3.47-7.751-7.751"/></g></g><g><g fill="#3c122c"><path d="m458.432 238.732c0-54.225-25.874-102.514-65.916-133.194l14.012-34.186c14.11-1.944 26.32-12.25 29.942-26.897 4.746-19.182-7-38.648-26.182-43.393-9.29-2.298-18.923-.841-27.119 4.104s-13.976 12.786-16.274 22.078c-2.691 10.877-.076 21.842 6.188 30.166l-11.938 29.127c-21.43-9.957-45.294-15.53-70.438-15.53h-70.092c-25.144 0-49.008 5.572-70.438 15.53l-11.937-29.127c6.263-8.324 8.878-19.289 6.188-30.165-4.745-19.182-24.214-30.926-43.393-26.182-19.182 4.745-30.928 24.21-26.183 43.393 2.298 9.292 8.078 17.133 16.274 22.078 4.256 2.568 8.899 4.194 13.68 4.843l14.002 34.162c-40.042 30.68-65.916 78.969-65.916 133.194 0 66.157 38.506 123.484 94.28 150.764-16.165 22.163-25.717 49.441-25.717 78.911v33.575c0 5.533 4.485 10.018 10.018 10.018s10.018-4.485 10.018-10.018v-33.575c0-26.806 9.292-51.48 24.817-70.98 9.364 3.213 19.099 5.622 29.123 7.138-17.619 16.256-28.677 39.521-28.677 65.327v35.891c0 3.319 2.691 6.011 6.011 6.011 3.319 0 6.011-2.691 6.011-6.011v-35.891c0-26.445 13.433-49.793 33.822-63.632 2.659.126 5.332.196 8.021.196h70.092c2.69 0 5.365-.07 8.024-.196 20.387 13.839 33.818 37.188 33.818 63.632v35.891c0 3.319 2.691 6.011 6.011 6.011s6.01-2.691 6.01-6.011v-35.891c0-25.803-11.05-49.072-28.664-65.328 10.018-1.516 19.747-3.923 29.106-7.135 15.526 19.501 24.822 44.172 24.822 70.979v33.575c0 5.533 4.486 10.018 10.018 10.018s10.018-4.485 10.018-10.018v-33.575c0-29.47-9.556-56.746-25.722-78.908 55.772-27.281 94.28-84.609 94.28-150.769zm-72.087-206.676c1.014-4.097 3.562-7.554 7.176-9.734 3.613-2.18 7.858-2.823 11.957-1.81 8.457 2.092 13.636 10.675 11.545 19.133-2.092 8.458-10.676 13.638-19.133 11.544-8.458-2.092-13.637-10.675-11.545-19.133zm-3.837 34.059c3.177 2.017 6.721 3.57 10.571 4.523.23.057.46.096.69.149l-11.316 27.609c-3.435-2.253-6.956-4.383-10.559-6.385zm-288.207-26.471c-2.092-8.458 3.086-17.041 11.544-19.133 1.269-.314 2.541-.464 3.793-.464 7.093 0 13.561 4.82 15.34 12.008 1.014 4.097.371 8.344-1.81 11.958-2.18 3.613-5.637 6.162-9.735 7.175s-8.343.37-11.957-1.809c-3.613-2.18-6.161-5.638-7.175-9.735zm23.254 31.142c.23-.052.46-.092.69-.149 3.85-.952 7.393-2.506 10.571-4.523l10.614 25.896c-3.603 2.001-7.124 4.132-10.559 6.385zm173.153 315.636h-70.092c-81.436 0-147.689-66.253-147.689-147.69 0-81.436 66.253-147.689 147.689-147.689h70.092c81.436 0 147.689 66.253 147.689 147.689 0 81.437-66.253 147.69-147.689 147.69z"/><ellipse cx="175.157" cy="305.945" rx="19.361" ry="34.282" transform="matrix(.707 -.707 .707 .707 -165.033 213.462)"/><path d="m343.627 279.123c-14.813 4.12-30.161 19.468-34.281 34.281s4.548 23.482 19.361 19.362 30.162-19.469 34.282-34.282c4.119-14.813-4.549-23.481-19.362-19.361z"/><path d="m161.573 254.491c6.238 0 11.502 2.589 11.53 2.603.875.447 1.808.658 2.728.658 2.187 0 4.296-1.198 5.359-3.279 1.509-2.957.336-6.577-2.621-8.086-.785-.401-7.935-3.917-16.996-3.917s-16.21 3.516-16.996 3.917c-2.947 1.505-4.111 5.101-2.62 8.055 1.49 2.954 5.099 4.142 8.062 2.665.052-.027 5.316-2.616 11.554-2.616z"/><path d="m366.746 246.387c-.785-.401-7.935-3.917-16.996-3.917s-16.21 3.516-16.996 3.917c-2.947 1.504-4.111 5.1-2.62 8.054s5.104 4.14 8.061 2.665c.053-.026 5.316-2.615 11.555-2.615 6.238 0 11.503 2.589 11.531 2.603.875.447 1.808.658 2.728.658 2.186 0 4.296-1.198 5.358-3.28 1.509-2.956.335-6.576-2.621-8.085z"/><path d="m273.267 297.839c-3.319 0-6.011 2.691-6.011 6.011 0 6.393-5.202 11.595-11.595 11.595-6.394 0-11.595-5.202-11.595-11.595 0-3.319-2.691-6.011-6.011-6.011-3.319 0-6.01 2.691-6.01 6.011 0 13.022 10.594 23.616 23.616 23.616s23.616-10.594 23.616-23.616c.001-3.32-2.69-6.011-6.01-6.011z"/><path d="m157.376 337.7c-3.3.107-5.874 2.855-5.792 6.156s2.833 5.895 6.136 5.86c.807-.016 19.88-.087 29.499 22.358.977 2.279 3.195 3.644 5.527 3.644.79 0 1.593-.157 2.365-.488 3.051-1.307 4.464-4.841 3.156-7.892-12.936-30.186-39.765-29.674-40.891-29.638z"/><path d="m353.947 337.7c-1.13-.036-27.951-.557-40.892 29.638-1.308 3.051.106 6.585 3.157 7.892.772.331 1.575.488 2.365.488 2.332 0 4.551-1.365 5.527-3.644 9.591-22.379 28.575-22.368 29.492-22.358 3.286.106 6.059-2.509 6.165-5.815.106-3.317-2.496-6.094-5.814-6.201z"/></g><path d="m165.507 144.561c-3.237 0-6.414-1.566-8.344-4.462-3.069-4.603-1.825-10.823 2.778-13.892 1.696-1.131 6.932-4.404 10.739-5.951 5.123-2.083 10.968.383 13.052 5.509 2.083 5.126-.383 10.969-5.509 13.052-1.555.632-5.13 2.702-7.168 4.06-1.708 1.139-3.639 1.684-5.548 1.684z" fill="#fff"/><path d="m117.97 189.125c-1.834 0-3.69-.503-5.353-1.557-4.673-2.962-6.06-9.151-3.099-13.824 9.105-14.367 19.661-24.566 26.913-30.594 4.256-3.535 10.57-2.953 14.107 1.302 3.536 4.255 2.954 10.571-1.302 14.107-6.145 5.107-15.088 13.747-22.796 25.91-1.906 3.008-5.152 4.656-8.47 4.656z" fill="#fff"/></g></g></svg>