<svg id="Capa_1" enable-background="new 0 0 512 512" height="512" viewBox="0 0 512 512" width="512" xmlns="http://www.w3.org/2000/svg"><g><g><path d="m375.179 501.859v-33.988c0-69.432-56.286-125.718-125.718-125.718-69.432 0-125.718 56.286-125.718 125.718v33.988z" fill="#faf1a9"/><path d="m165.25 389.578h168.653v112.281h-168.653z" fill="#96b4eb"/><path d="m322.949 393.376c-7.815 1.547-15.619 3.375-23.33 5.273-.001.113-.005.22-.005.336v62.445c0 11.325-9.181 20.506-20.506 20.506h-113.567v20.725h167.839v-32.113c0-34.628 7.873-64.352-10.431-77.172z" fill="#8286ea"/><path d="m443.709 252.146c.576-5.514.876-11.109.876-16.775 0-88.171-71.477-159.648-159.647-159.648h-70.955c-88.171 0-159.647 71.477-159.647 159.648 0 5.666.3 11.261.876 16.775-17.347 5.024-30.034 21.017-30.034 39.983 0 22.993 18.64 41.634 41.633 41.634 6.552 0 12.748-1.518 18.262-4.215 28.559 39.026 74.405 64.595 126.268 65.436-1.574.805-3.12 1.655-4.635 2.554v15.948c0 24.069 19.512 43.58 43.58 43.58 24.068 0 43.58-19.511 43.58-43.58v-14.939c-2.044-1.277-4.154-2.46-6.311-3.562 51.873-.835 97.728-26.406 126.292-65.437 5.514 2.697 11.71 4.215 18.262 4.215 22.993 0 41.633-18.641 41.633-41.634.001-18.967-12.686-34.96-30.033-39.983z" fill="#f3d4d2"/><path d="m88.377 330.155c7.906-6.669 18.119-10.688 29.272-10.688 25.087 0 45.424 20.337 45.424 45.424 0 7.125-1.64 13.866-4.564 19.867" fill="#d789b9"/><path d="m341.102 386.566c-3.504-6.442-5.495-13.826-5.495-21.675 0-25.087 20.337-45.424 45.423-45.424 12.344 0 23.538 4.924 31.725 12.915" fill="#d789b9"/><path d="m284.938 76.201h-20.472c71.481 0 129.428 57.947 129.428 129.428v10.992c0 71.481-57.947 129.428-129.428 129.428h-80.702c-68.405 0-124.409-53.069-129.102-120.281-.208 3.335-.326 6.694-.326 10.081 0 88.171 71.477 159.647 159.647 159.647h70.955c88.171 0 159.647-71.477 159.647-159.647 0-88.172-71.476-159.648-159.647-159.648z" fill="#da9fd0"/><path d="m88.377 330.156 70.132 54.602c2.923-6.001 4.564-12.742 4.564-19.867 0-7.771-1.955-15.084-5.395-21.48-18.715-3.831-35.959-11.694-50.779-22.653-6.93 1.681-13.243 4.944-18.522 9.398z" fill="#c668b9"/><path d="m411.175 333.577c.4-.517.798-1.034 1.192-1.556-8.152-7.773-19.184-12.554-31.338-12.554-25.087 0-45.423 20.337-45.423 45.423 0 7.434 1.803 14.44 4.969 20.635 1.309-.486 2.609-.992 3.902-1.512z" fill="#c668b9"/><path d="m299.055 343.865v-18.172c0-5.554-4.502-10.057-10.056-10.057h-79.077c-5.554 0-10.056 4.503-10.056 10.057v18.172z" fill="#9781dd"/><path d="m32.213 257.296c-3.456-10.603-3.777-32.187-3.777-32.187 2.096-98.076 82.247-176.938 180.826-176.938h80.39c98.578 0 178.73 78.863 180.826 176.938 0 0 .449 19.026-6.007 29.784l-20.998-16.322c-41.885 13.49-95.965 2.22-140.094-33.42-25.639-20.707-43.94-46.431-53.922-72.94-9.982 26.509-28.282 52.233-53.922 72.94-44.153 35.66-98.267 46.922-140.161 33.398" fill="#9781dd"/><path d="m473.301 16.332 8.33 23.423c.357 1.003 1.063 1.798 1.954 2.199l20.81 9.376c2.94 1.325 2.94 6.009 0 7.333l-20.81 9.376c-.891.401-1.597 1.196-1.954 2.199l-8.33 23.423c-1.177 3.309-5.339 3.309-6.516 0l-8.33-23.423c-.357-1.003-1.063-1.798-1.954-2.199l-20.81-9.376c-2.94-1.325-2.94-6.009 0-7.333l20.81-9.376c.891-.401 1.597-1.196 1.954-2.199l8.33-23.423c1.178-3.309 5.34-3.309 6.516 0z" fill="#c1e5ef"/><path d="m54.635 418.82 6.179 17.375c.264.744.788 1.333 1.449 1.631l15.437 6.955c2.181.983 2.181 4.457 0 5.44l-15.437 6.955c-.661.298-1.185.887-1.449 1.631l-6.179 17.375c-.873 2.455-3.96 2.455-4.833 0l-6.179-17.375c-.265-.744-.788-1.333-1.449-1.631l-15.437-6.955c-2.181-.983-2.181-4.457 0-5.44l15.437-6.955c.661-.298 1.185-.887 1.449-1.631l6.179-17.375c.873-2.454 3.96-2.454 4.833 0z" fill="#c1e5ef"/><circle cx="23.589" cy="380.253" fill="#96b4eb" r="18.189"/><circle cx="389.384" cy="7.846" fill="#96b4eb" r="7.846"/><path d="m448.246 384.052 6.179 17.375c.265.744.788 1.333 1.449 1.631l15.437 6.955c2.181.983 2.181 4.457 0 5.44l-15.437 6.955c-.661.298-1.185.887-1.449 1.631l-6.179 17.375c-.873 2.455-3.96 2.455-4.833 0l-6.179-17.375c-.264-.744-.788-1.333-1.449-1.631l-15.437-6.955c-2.181-.983-2.181-4.457 0-5.44l15.437-6.955c.661-.298 1.185-.887 1.449-1.631l6.179-17.375c.872-2.455 3.96-2.455 4.833 0z" fill="#c1e5ef"/></g><g><path d="m176.725 270.019c-1.726 0-3.439-.73-4.643-2.149-.021-.023-3.929-4.494-9.757-6.926s-11.754-2.067-11.815-2.062c-3.331.246-6.251-2.292-6.492-5.633-.241-3.34 2.249-6.246 5.588-6.502.891-.065 8.941-.566 17.405 2.967 8.465 3.532 13.774 9.604 14.351 10.285 2.174 2.562 1.858 6.401-.704 8.575-1.144.97-2.543 1.445-3.933 1.445z" fill="#3c122c"/><path d="m322.199 270.003c-1.399 0-2.804-.478-3.948-1.459-2.544-2.178-2.858-5.991-.692-8.545.577-.681 5.886-6.753 14.351-10.285 8.464-3.533 16.514-3.035 17.405-2.967 3.35.257 5.858 3.182 5.601 6.532-.257 3.342-3.17 5.833-6.507 5.603-.158-.011-6.034-.351-11.812 2.062-5.828 2.432-9.737 6.904-9.775 6.948-1.207 1.394-2.911 2.111-4.623 2.111z" fill="#3c122c"/><path d="m472.965 260.41c.066-.101.14-.195.202-.299 7.744-12.905 7.502-32.992 7.45-35.219-1.072-50.148-21.411-97.123-57.272-132.273-35.916-35.203-83.396-54.589-133.693-54.589h-80.39c-50.298 0-97.777 19.386-133.692 54.589-35.861 35.149-56.2 82.125-57.272 132.273-.003.123-.003.246-.002.367.035 2.367.454 23.456 4.275 35.178.322.986.802 1.892 1.388 2.717-5.617 8.275-8.923 18.24-8.923 28.974 0 28.549 23.225 51.775 51.774 51.775 5.182 0 10.179-.784 14.901-2.21 15.605 19.377 35.369 35.272 57.929 46.305-16.363 22.436-26.04 50.042-26.04 79.873v33.988c0 5.6 4.54 10.141 10.141 10.141s10.141-4.541 10.141-10.141v-33.988c0-27.138 9.408-52.113 25.127-71.854.227.077.455.152.682.23v109.424c0 3.36 2.724 6.085 6.084 6.085s6.085-2.724 6.085-6.085v-105.813c9.306 2.385 18.916 4.001 28.761 4.771v8.857c0 27.385 22.279 49.664 49.664 49.664s49.664-22.279 49.664-49.664v-8.998c9.329-.821 18.443-2.397 27.281-4.672v105.835c0 3.36 2.724 6.085 6.085 6.085 3.36 0 6.085-2.724 6.085-6.085v-109.464c.168-.056.337-.114.505-.171 15.72 19.741 25.132 44.717 25.132 71.855v33.988c0 5.6 4.54 10.141 10.141 10.141s10.141-4.541 10.141-10.141v-33.988c0-29.832-9.677-57.44-26.042-79.876 22.556-11.031 42.318-26.919 57.922-46.291 4.723 1.426 9.727 2.199 14.91 2.199 28.548 0 51.774-23.226 51.774-51.775.002-11.95-4.089-22.949-10.918-31.718zm-65.379 60.34c-7.943-4.794-17.063-7.367-26.556-7.367-28.402 0-51.508 23.106-51.508 51.507 0 4.288.538 8.554 1.585 12.687-8.359 2.72-17.04 4.718-25.968 5.929v-57.814c0-8.9-7.241-16.141-16.14-16.141h-79.077c-8.9 0-16.141 7.241-16.141 16.141v57.814c-9.008-1.222-17.765-3.242-26.193-6 1.031-4.09 1.569-8.303 1.569-12.616 0-28.401-23.107-51.507-51.508-51.507-9.333 0-18.453 2.553-26.384 7.282-13.947-20.01-23.127-43.578-25.892-69.042 44.066 8.994 95.165-5.171 136.534-38.583 19.93-16.095 36.089-35.348 47.551-56.506 11.461 21.157 27.621 40.411 47.55 56.506 41.364 33.407 92.473 47.578 136.539 38.583-2.771 25.502-11.977 49.098-25.961 69.127zm-122.648 64.127h-70.955c-2.695 0-5.372-.078-8.032-.22v-34.625h87.02v34.625c-2.661.143-5.338.22-8.033.22zm8.032-47.014h-87.02v-12.171c0-2.191 1.782-3.972 3.972-3.972h79.077c2.19 0 3.971 1.782 3.971 3.972zm-83.708-279.551h80.39c92.149 0 168.719 74.923 170.688 167.036.054 2.312-.114 7.464-.961 12.743l-9.683-7.526c-2.646-2.056-6.138-2.674-9.332-1.646-40.313 12.984-90.36.854-130.613-31.656-23.466-18.952-41.034-42.682-50.803-68.625-1.488-3.95-5.268-6.567-9.49-6.567s-8.002 2.616-9.49 6.567c-9.769 25.943-27.336 49.673-50.803 68.625-40.28 32.53-90.352 44.653-130.674 31.637-3.26-1.051-6.832-.387-9.495 1.768l-9.69 7.843c-.473-5.425-.677-10.589-.725-13.371 2.064-92.009 78.593-166.828 170.681-166.828zm-142.452 265.31c-17.365 0-31.492-14.128-31.492-31.493 0-9.979 4.668-18.886 11.933-24.66 3.876 20.177 11.335 39.094 21.686 56.063-.704.047-1.41.09-2.127.09zm31.883 6.808c5.77-3.172 12.292-4.878 18.956-4.878 21.692 0 39.339 17.647 39.339 39.338 0 2.833-.304 5.608-.886 8.316-22.444-9.461-42.11-24.25-57.409-42.776zm189.089 83.056c0 20.675-16.821 37.495-37.495 37.495s-37.495-16.821-37.495-37.495v-8.342c.398.003.793.015 1.192.015h70.955c.951 0 1.897-.019 2.844-.035v8.362zm54.834-40.193c-.6-2.752-.925-5.568-.925-8.403 0-21.691 17.647-39.338 39.339-39.338 6.799 0 13.345 1.731 19.137 4.965-15.336 18.544-35.055 33.332-57.551 42.776zm89.494-49.671c-.719 0-1.431-.032-2.138-.079 10.354-16.969 17.813-35.886 21.69-56.065 7.265 5.773 11.94 14.672 11.94 24.651.001 17.365-14.127 31.493-31.492 31.493z" fill="#3c122c"/><path d="m145.003 118.63c-3.546 0-6.988-1.863-8.849-5.173-2.744-4.882-1.011-11.065 3.871-13.809 3.485-1.96 7.119-3.824 10.802-5.541 5.074-2.363 11.11-.169 13.476 4.906 2.367 5.075.171 11.109-4.905 13.476-3.22 1.501-6.395 3.129-9.435 4.838-1.572.883-3.278 1.303-4.96 1.303z" fill="#fff"/><path d="m92.98 172.372c-1.478 0-2.978-.324-4.399-1.009-5.044-2.433-7.16-8.496-4.727-13.54 7.037-14.585 17.044-27.797 29.745-39.267 4.155-3.752 10.569-3.429 14.322.73 3.754 4.156 3.428 10.569-.729 14.323-10.744 9.703-19.179 20.814-25.07 33.026-1.749 3.624-5.371 5.737-9.142 5.737z" fill="#fff"/><g fill="#3c122c"><path d="m352.833 182.367c-3.36 0-6.084-2.724-6.084-6.085v-11.491c0-3.36 2.724-6.084 6.084-6.084s6.085 2.724 6.085 6.084v11.491c-.001 3.36-2.725 6.085-6.085 6.085z"/><path d="m387.217 208.549c-3.36 0-6.085-2.724-6.085-6.085v-11.49c0-3.36 2.724-6.084 6.085-6.084 3.36 0 6.085 2.724 6.085 6.084v11.49c-.001 3.36-2.725 6.085-6.085 6.085z"/><path d="m398.573 165.647c-3.36 0-6.085-2.724-6.085-6.085v-11.49c0-3.36 2.724-6.085 6.085-6.085 3.36 0 6.085 2.724 6.085 6.085v11.49c-.001 3.361-2.725 6.085-6.085 6.085z"/><ellipse cx="154.214" cy="301.289" rx="17.822" ry="17.822" transform="matrix(.381 -.925 .925 .381 -183.094 329.221)"/><ellipse cx="344.707" cy="301.289" rx="17.822" ry="17.822" transform="matrix(.383 -.924 .924 .383 -65.562 504.458)"/></g></g></g></svg>