<svg id="Capa_1" enable-background="new 0 0 512 512" height="512" viewBox="0 0 512 512" width="512" xmlns="http://www.w3.org/2000/svg"><g><g><path d="m447.86 252.936c.572-5.473.87-11.028.87-16.653 0-87.53-70.957-158.487-158.487-158.487h-70.439c-87.53 0-158.487 70.957-158.487 158.487 0 5.624.298 11.18.869 16.653-17.221 4.988-29.816 20.865-29.816 39.693 0 22.827 18.504 41.331 41.331 41.331 6.504 0 12.655-1.507 18.13-4.184 17.645 24.112 41.943 43.038 70.185 54.107-19.77 22.082-31.797 51.24-31.797 83.211v33.741h249.609v-33.741c0-31.972-12.027-61.129-31.797-83.211 28.241-11.069 52.54-29.996 70.185-54.107 5.474 2.677 11.625 4.184 18.13 4.184 22.826 0 41.331-18.504 41.331-41.331-.001-18.828-12.596-34.705-29.817-39.693z" fill="#d789b9"/><path d="m296.05 396.068c-4.071 1.339-8.157 2.606-12.288 3.662 12.95 13.145 21.05 31.824 21.05 52.563v7.222c0 11.243-9.114 20.357-20.357 20.357h-112.741v20.574h166.619v-31.88c0-31.09-17.041-58.185-42.283-72.498z" fill="#c668b9"/><path d="m290.243 77.776h-20.324c70.962 0 128.487 57.526 128.487 128.487v10.912c0 70.962-57.526 128.488-128.487 128.488h-80.115c-67.908 0-123.504-52.684-128.164-119.407-.206 3.31-.324 6.645-.324 10.008v.001c0 87.53 70.957 158.487 158.487 158.487h70.439c87.53 0 158.487-70.957 158.487-158.487v-.001c.001-87.531-70.956-158.488-158.486-158.488z" fill="#c668b9"/><path d="m68.898 16.164c.016-4.486 5.468-6.691 8.597-3.476l39.337 40.417 47.891 49.206-48.132 19.458-42.028 75.361z" fill="#f6e06e"/><path d="m441.148 16.164c-.016-4.486-5.468-6.691-8.597-3.476l-39.337 40.417-47.891 49.206 48.132 19.458 42.028 75.361z" fill="#f6e06e"/><path d="m190.806 179.235c23.067 0 44.867 19.629 64.217 25.687 19.35-6.058 41.15-25.687 64.217-25.687 55.515 0 103.717 53.52 127.969 82.468.994-7.176 1.521-48.29 1.521-55.74v-.001c0-87.53-70.957-158.487-158.487-158.487h-70.439c-87.53 0-158.487 70.957-158.487 158.487v.001c0 7.45.526 48.564 1.52 55.74 24.252-28.949 72.454-82.468 127.969-82.468z" fill="#9781dd"/><path d="m267.439 437.454 22.522-67.276c3.001-8.965-2.629-18.452-11.914-20.234-13.533-2.597-32.96-2.575-46.392.067-9.136 1.797-14.525 11.334-11.569 20.163l22.523 67.28c3.988 11.915 20.841 11.915 24.83 0z" fill="#9781dd"/><path d="m39.525 365.404 8.27 23.253c.354.996 1.055 1.785 1.939 2.183l20.659 9.308c2.919 1.315 2.919 5.965 0 7.28l-20.659 9.308c-.884.398-1.585 1.188-1.939 2.183l-8.27 23.253c-1.168 3.285-5.3 3.285-6.468 0l-8.27-23.253c-.354-.996-1.055-1.785-1.94-2.183l-20.659-9.308c-2.919-1.315-2.919-5.965 0-7.28l20.659-9.308c.885-.399 1.586-1.188 1.94-2.183l8.27-23.253c1.169-3.285 5.3-3.285 6.468 0z" fill="#e8c2d8"/><path d="m487.479 436.312 6.134 17.248c.263.738.783 1.324 1.439 1.619l15.325 6.904c2.165.975 2.165 4.425 0 5.4l-15.325 6.904c-.656.296-1.176.881-1.439 1.619l-6.134 17.248c-.867 2.437-3.931 2.437-4.798 0l-6.134-17.248c-.263-.738-.783-1.324-1.439-1.619l-15.325-6.904c-2.165-.975-2.165-4.425 0-5.4l15.325-6.904c.656-.296 1.176-.881 1.439-1.619l6.134-17.248c.866-2.437 3.931-2.437 4.798 0z" fill="#e8c2d8"/><g fill="#d789b9"><ellipse cx="81.82" cy="466.697" rx="7.789" ry="7.789" transform="matrix(.902 -.433 .433 .902 -193.909 81.374)"/><path d="m454.159 388.451c0 4.302-3.487 7.789-7.789 7.789s-7.789-3.487-7.789-7.789 3.487-7.789 7.789-7.789c4.302-.001 7.789 3.487 7.789 7.789z"/></g></g><g><g fill="#3c122c"><path d="m458.11 246.092c.499-16.221.688-37.629.688-40.13 0-21.668-4.113-42.394-11.595-61.44l4.008-128.044c.004-.117.005-.234.005-.351-.022-6.152-3.721-11.617-9.425-13.923-5.704-2.307-12.162-.948-16.454 3.462l-52.166 53.598c-24.5-13.904-52.801-21.857-82.928-21.857h-70.439c-30.127 0-58.428 7.953-82.928 21.857l-52.166-53.597c-4.291-4.409-10.748-5.769-16.454-3.462-5.704 2.306-9.404 7.771-9.425 13.923 0 .117.002.233.005.351l4.008 128.044c-7.481 19.046-11.594 39.771-11.594 61.44 0 2.5.189 23.908.687 40.128-17.488 8.209-29.634 25.975-29.634 46.538 0 28.341 23.057 51.398 51.397 51.398 5.145 0 10.11-.772 14.798-2.188 15.492 19.234 35.11 35.008 57.502 45.961-16.245 22.272-25.849 49.681-25.849 79.296v33.741c0 5.56 4.507 10.067 10.067 10.067s10.067-4.507 10.067-10.067v-33.741c0-26.941 9.342-51.735 24.946-71.334 9.412 3.23 19.196 5.648 29.271 7.171-17.711 16.336-28.829 39.718-28.829 65.655v36.069c0 3.336 2.704 6.04 6.04 6.04s6.04-2.705 6.04-6.04v-36.069c0-26.571 13.489-50.037 33.973-63.943 2.677.127 5.369.194 8.076.194h5.516l11.561 34.534c2.656 7.933 9.778 13.059 18.143 13.059s15.487-5.126 18.142-13.059l11.561-34.534h5.516c2.708 0 5.4-.066 8.077-.194 20.484 13.906 33.973 37.372 33.973 63.943v36.069c0 3.336 2.705 6.04 6.04 6.04s6.04-2.705 6.04-6.04v-36.069c0-25.937-11.118-49.319-28.829-65.655 10.075-1.523 19.859-3.941 29.271-7.17 15.604 19.598 24.946 44.393 24.946 71.334v33.741c0 5.56 4.507 10.067 10.067 10.067s10.067-4.507 10.067-10.067v-33.741c0-29.615-9.606-57.021-25.851-79.293 22.393-10.951 42.012-26.726 57.504-45.958 4.688 1.415 9.654 2.182 14.798 2.182 28.341 0 51.398-23.057 51.398-51.398.002-20.564-12.144-38.329-29.632-46.538zm-27.437-217.04-2.508 80.131c-10.445-14.841-23.22-27.927-37.792-38.724zm-140.43 28.491c81.839 0 148.42 66.581 148.42 148.421 0 5.37-.164 18.258-.437 30.222-30.298-32.8-71.42-67.018-118.986-67.018-16.992 0-32.561 8.567-46.299 16.127-6.346 3.492-12.396 6.821-17.918 8.962-5.523-2.141-11.573-5.469-17.919-8.962-13.737-7.559-29.306-16.127-46.299-16.127-47.562 0-88.688 34.219-118.985 67.017-.273-11.965-.437-24.852-.437-30.222 0-81.839 66.581-148.42 148.42-148.42zm-210.869-28.491 40.3 41.407c-14.572 10.796-27.347 23.882-37.792 38.724zm-5.673 294.841c-17.238 0-31.263-14.025-31.263-31.264 0-9.904 4.643-18.729 11.852-24.459 3.851 20.028 11.255 38.806 21.533 55.649-.701.048-1.409.074-2.122.074zm188.01 111.643c-1.495 4.466-5.497 4.813-6.687 4.813s-5.192-.347-6.688-4.813l-22.523-67.28c-.875-2.616-.582-5.485.806-7.872 1.367-2.35 3.569-3.929 6.201-4.447 6.411-1.261 14.305-1.892 22.204-1.892 7.759 0 15.522.609 21.884 1.831 2.744.526 5.12 2.202 6.52 4.597 1.398 2.392 1.684 5.158.804 7.788zm29.761-50.847 4.216-12.594c1.974-5.896 1.307-12.355-1.83-17.72-3.158-5.403-8.506-9.18-14.673-10.363-14.402-2.764-34.427-2.734-48.697.073-6.002 1.181-11.219 4.908-14.312 10.227-3.135 5.389-3.797 11.87-1.819 17.78l4.217 12.597c-71.799-.587-131.6-52.409-144.569-120.625 19.129-22.596 66.009-74.762 116.8-74.762 11.818 0 24.412 6.93 36.592 13.632 8.428 4.638 16.39 9.019 24.618 11.595 1.958.612 4.057.613 6.016 0 8.228-2.576 16.189-6.957 24.617-11.595 12.179-6.702 24.774-13.632 36.592-13.632 50.794 0 97.675 52.17 116.803 74.764-12.971 68.216-72.773 120.037-144.571 120.623zm144.874-60.796c-.711 0-1.414-.033-2.114-.08 10.275-16.84 17.678-35.614 21.528-55.637 7.206 5.73 11.849 14.551 11.849 24.453.001 17.239-14.024 31.264-31.263 31.264z"/><path d="m173.173 250.027c-8.403-3.507-16.394-3.013-17.278-2.945-3.315.255-5.787 3.139-5.548 6.456.239 3.316 3.138 5.821 6.445 5.592.061-.004 5.943-.367 11.729 2.047 5.786 2.415 9.666 6.853 9.687 6.876 1.194 1.409 2.896 2.133 4.609 2.133 1.381 0 2.769-.471 3.905-1.434 2.544-2.158 2.857-5.969.699-8.513-.575-.678-5.845-6.705-14.248-10.212z"/><path d="m341.526 261.176c5.736-2.394 11.57-2.059 11.726-2.047 3.313.239 6.205-2.245 6.46-5.562.255-3.326-2.234-6.229-5.56-6.485-.884-.069-8.876-.561-17.278 2.945-8.403 3.507-13.673 9.534-14.246 10.21-2.151 2.535-1.839 6.321.686 8.484 1.135.973 2.531 1.448 3.92 1.448 1.7 0 3.391-.712 4.588-2.096.038-.044 3.918-4.483 9.704-6.897z"/><path d="m272.716 295.682c-3.336 0-6.04 2.704-6.04 6.04 0 6.425-5.227 11.652-11.653 11.652-6.425 0-11.652-5.227-11.652-11.652 0-3.336-2.705-6.04-6.04-6.04-3.336 0-6.04 2.704-6.04 6.04 0 13.086 10.647 23.733 23.733 23.733 13.087 0 23.734-10.647 23.734-23.733-.001-3.335-2.706-6.04-6.042-6.04z"/><path d="m394.619 168.713c3.336 0 6.04-2.704 6.04-6.04v-11.094c0-3.336-2.705-6.04-6.04-6.04s-6.04 2.705-6.04 6.04v11.094c-.001 3.335 2.704 6.04 6.04 6.04z"/><path d="m356.19 150.118c3.336 0 6.04-2.705 6.04-6.04v-11.093c0-3.336-2.705-6.04-6.04-6.04s-6.04 2.705-6.04 6.04v11.093c-.001 3.336 2.704 6.04 6.04 6.04z"/><path d="m160.469 284.03c-9.771 0-17.693 7.921-17.693 17.693s7.921 17.693 17.693 17.693c9.771 0 17.693-7.921 17.693-17.693s-7.921-17.693-17.693-17.693z"/><ellipse cx="349.578" cy="301.723" rx="17.693" ry="17.693" transform="matrix(.383 -.924 .924 .383 -62.956 509.226)"/></g><path d="m166.35 109.442c-3.253 0-6.446-1.574-8.385-4.484-3.084-4.626-1.834-10.876 2.792-13.96 1.704-1.136 6.966-4.426 10.792-5.981 5.149-2.094 11.023.385 13.116 5.536s-.385 11.023-5.537 13.116c-1.562.635-5.155 2.715-7.204 4.08-1.716 1.145-3.656 1.693-5.574 1.693z" fill="#fff"/><path d="m118.578 154.226c-1.843 0-3.707-.506-5.38-1.565-4.696-2.976-6.09-9.196-3.114-13.892 9.15-14.439 19.759-24.69 27.047-30.746 4.275-3.554 10.624-2.969 14.177 1.309 3.553 4.276 2.968 10.623-1.308 14.177-6.175 5.131-15.162 13.814-22.909 26.039-1.917 3.022-5.179 4.678-8.513 4.678z" fill="#fff"/></g></g></svg>