<svg id="Capa_1" enable-background="new 0 0 512 512" height="512" viewBox="0 0 512 512" width="512" xmlns="http://www.w3.org/2000/svg"><g><g><path d="m380.272 501.276v-33.558c0-68.554-55.574-124.129-124.129-124.129-68.554 0-124.128 55.574-124.128 124.129v33.558z" fill="#96b4eb"/><path d="m282.214 501.129h-48.088l-14.18-106.04h70.899z" fill="#d789b9"/><path d="m264.838 386.706c23.966 10.779 40.824 36.362 40.824 66.217v7.183c0 11.182-9.065 20.247-20.247 20.247h-112.13v20.462h165.716v-31.707c0-42.824-32.489-78.055-74.163-82.402z" fill="#8286ea"/><path d="m285.999 480.324c-.195.006-.386.029-.583.029h-55.565c1.328 6.843 2.851 13.645 4.301 20.462h47.583c1.665-6.791 3.319-13.581 4.264-20.491z" fill="#c668b9"/><g fill="#96b4eb"><path d="m32.398 175.945h73.168v34.372h-73.168z"/><path d="m29.79 228.294h-9.175c-5.856 0-10.603-4.747-10.603-10.603v-49.119c0-5.856 4.747-10.603 10.603-10.603h9.175c5.856 0 10.603 4.747 10.603 10.603v49.119c0 5.856-4.747 10.603-10.603 10.603z"/><path d="m406.433 175.945h73.168v34.372h-73.168z" transform="matrix(-1 0 0 -1 886.034 386.263)"/><path d="m482.21 228.294h9.175c5.856 0 10.603-4.747 10.603-10.603v-49.119c0-5.856-4.747-10.603-10.603-10.603h-9.175c-5.856 0-10.603 4.747-10.603 10.603v49.119c-.001 5.856 4.747 10.603 10.603 10.603z"/></g><path d="m447.976 252.986v-163.193c0-43.669-35.4-79.069-79.069-79.069h-225.359c-43.669 0-79.069 35.4-79.069 79.069v163.193" fill="#9781dd"/><path d="m447.936 254.72c.568-5.444.865-10.968.865-16.563 0-87.056-70.573-157.628-157.629-157.628h-70.058c-87.056 0-157.629 70.573-157.629 157.628 0 5.594.296 11.119.865 16.563-17.128 4.961-29.654 20.751-29.654 39.478 0 22.703 18.404 41.107 41.107 41.107 6.469 0 12.587-1.499 18.031-4.161 28.677 39.186 75.002 64.642 127.28 64.642h70.058c52.278 0 98.603-25.456 127.28-64.642 5.445 2.662 11.562 4.161 18.031 4.161 22.703 0 41.107-18.404 41.107-41.107 0-18.727-12.526-34.518-29.654-39.478z" fill="#ccf3e2"/><path d="m291.172 80.434h-20.214c70.577 0 127.791 57.214 127.791 127.791v10.852c0 70.577-57.214 127.791-127.791 127.791h-79.681c-67.54 0-122.835-52.398-127.469-118.76-.205 3.292-.322 6.609-.322 9.953v.001c0 87.056 70.573 157.628 157.629 157.628h70.057c87.056 0 157.629-70.573 157.629-157.628v-.001c0-87.054-70.573-157.627-157.629-157.627z" fill="#b1b6e1"/><path d="m474.794 386.35 8.225 23.127c.352.99 1.049 1.775 1.929 2.171l20.547 9.257c2.903 1.308 2.903 5.933 0 7.241l-20.547 9.257c-.88.396-1.577 1.181-1.929 2.171l-8.225 23.127c-1.162 3.267-5.271 3.267-6.433 0l-8.225-23.127c-.352-.99-1.049-1.775-1.929-2.171l-20.547-9.257c-2.903-1.308-2.903-5.933 0-7.241l20.547-9.257c.88-.396 1.577-1.181 1.929-2.171l8.225-23.127c1.161-3.267 5.271-3.267 6.433 0z" fill="#ccf3e2"/><path d="m33.367 427.987 6.101 17.155c.261.734.778 1.316 1.431 1.611l15.242 6.867c2.153.97 2.153 4.401 0 5.371l-15.242 6.867c-.653.294-1.17.876-1.431 1.611l-6.101 17.155c-.862 2.424-3.91 2.424-4.772 0l-6.101-17.155c-.261-.734-.778-1.317-1.431-1.611l-15.242-6.867c-2.153-.97-2.153-4.401 0-5.371l15.242-6.867c.653-.294 1.17-.876 1.431-1.611l6.101-17.155c.862-2.424 3.91-2.424 4.772 0z" fill="#ccf3e2"/><circle cx="76.284" cy="414.855" fill="#a1e8c3" r="7.747"/></g><g><path d="m99.871 102.727c-5.53 0-10.013-4.483-10.013-10.013 0-14.826 5.074-27.957 14.673-37.974 3.825-3.992 10.164-4.128 14.156-.301 3.992 3.826 4.127 10.164.301 14.156-6.042 6.305-9.106 14.42-9.106 24.118.001 5.531-4.481 10.014-10.011 10.014z" fill="#fff"/><path d="m139.701 56.38c-5.53 0-10.013-4.483-10.013-10.013 0-5.24 4.026-9.54 9.153-9.976.294-.035.842-.107 1.508-.193 2.412-.312 4.518-.581 5.861-.703 5.498-.501 10.377 3.557 10.879 9.064.501 5.507-3.557 10.377-9.064 10.879-1.074.098-3.597.424-5.105.619-2.206.286-2.489.323-3.219.323zm-.117-20.026c-.14 0-.364.003-.665.031.258-.02.519-.03.783-.03-.029-.001-.068-.001-.118-.001z" fill="#fff"/><g fill="#3c122c"><path d="m491.384 147.956h-9.175c-10.472 0-19.125 7.854-20.427 17.976h-3.794v-76.14c0-49.119-39.962-89.081-89.082-89.081h-225.358c-49.119 0-89.081 39.962-89.081 89.081v76.14h-4.249c-1.302-10.123-9.956-17.976-20.427-17.976h-9.175c-11.368 0-20.616 9.248-20.616 20.616v49.119c0 11.368 9.248 20.616 20.616 20.616h9.175c10.472 0 19.125-7.853 20.427-17.976h4.204c-.622 5.859-.949 11.805-.949 17.827 0 3.337.109 6.648.303 9.938-17.189 8.242-29.092 25.801-29.092 46.103 0 28.187 22.932 51.12 51.119 51.12 5.116 0 10.05-.776 14.713-2.182 15.408 19.13 34.923 34.816 57.193 45.71-16.159 22.152-25.707 49.417-25.707 78.874v33.558c0 5.53 4.483 10.013 10.013 10.013s10.013-4.483 10.013-10.013v-33.558c0-26.797 9.289-51.462 24.81-70.956 9.468 3.249 19.311 5.683 29.454 7.195-17.814 16.26-29.013 39.648-29.013 65.611v35.579c0 3.318 2.689 6.008 6.008 6.008 3.318 0 6.008-2.69 6.008-6.008v-35.579c0-26.65 13.642-50.162 34.306-63.947 1.025.045 2.049.09 3.078.117l12.101 100.21c.368 3.05 2.96 5.288 5.957 5.288.24 0 .483-.014.728-.044 3.294-.397 5.642-3.391 5.244-6.684l-11.92-98.71h58.362l-11.92 98.71c-.398 3.294 1.95 6.287 5.244 6.684.244.03.487.044.728.044 2.996 0 5.589-2.239 5.957-5.288l12.069-99.945c20.36 13.828 33.768 37.149 33.768 63.565v35.579c0 3.318 2.69 6.008 6.008 6.008s6.008-2.69 6.008-6.008v-35.579c0-25.963-11.2-49.351-29.015-65.611 10.141-1.512 19.983-3.945 29.449-7.193 15.523 19.493 24.816 44.156 24.816 70.954v33.558c0 5.53 4.483 10.013 10.013 10.013s10.013-4.483 10.013-10.013v-33.558c0-29.456-9.546-56.723-25.704-78.875 22.271-10.895 41.787-26.582 57.194-45.714 4.662 1.407 9.593 2.188 14.708 2.188 28.188 0 51.12-22.932 51.12-51.12 0-20.302-11.903-37.863-29.092-46.104.193-3.289.303-6.6.303-9.936 0-5.615-.283-11.165-.825-16.641v-1.186h3.794c1.302 10.123 9.956 17.976 20.427 17.976h9.175c11.368 0 20.616-9.248 20.616-20.616v-49.119c-.005-11.37-9.253-20.618-20.621-20.618zm-461.003 69.735c0 .326-.265.591-.591.591h-9.175c-.326 0-.591-.265-.591-.591v-49.119c0-.326.265-.59.591-.59h9.175c.326 0 .591.264.591.59zm44.111-127.898c0-38.078 30.979-69.056 69.056-69.056h225.359c38.078 0 69.056 30.978 69.056 69.056v67.474c-28.591-51.677-83.669-86.751-146.791-86.751h-70.058c-63 0-117.985 34.938-146.623 86.45v-67.173zm-24.086 110.512v-14.347h4.06v14.347zm25.397 124.987c-17.145 0-31.094-13.949-31.094-31.094 0-9.85 4.618-18.627 11.787-24.328 3.829 19.916 11.184 38.593 21.403 55.343-.693.047-1.391.079-2.096.079zm215.369 60.481h-70.058c-81.396 0-147.616-66.22-147.616-147.616s66.22-147.616 147.616-147.616h70.058c81.396 0 147.616 66.22 147.616 147.616s-66.22 147.616-147.616 147.616zm176.406-91.575c0 17.146-13.949 31.094-31.094 31.094-.705 0-1.402-.032-2.096-.079 10.219-16.749 17.573-35.424 21.403-55.339 7.168 5.7 11.787 14.474 11.787 24.324zm-5.984-93.893h-3.605v-14.347h3.605zm30.381 17.386c0 .326-.265.591-.591.591h-9.175c-.326 0-.591-.265-.591-.591v-49.119c0-.326.265-.59.591-.59h9.175c.326 0 .591.264.591.59z"/><circle cx="162.101" cy="303.242" r="17.597"/><circle cx="350.185" cy="303.242" r="17.597"/><path d="m176.352 257.168c-.919 0-1.851-.212-2.727-.658-.028-.014-5.289-2.601-11.525-2.601-6.235 0-11.496 2.588-11.549 2.614-2.96 1.476-6.568.289-8.057-2.663-1.49-2.952-.326-6.547 2.619-8.051.785-.4 7.931-3.915 16.987-3.915 9.057 0 16.203 3.514 16.988 3.915 2.955 1.509 4.128 5.127 2.62 8.082-1.062 2.079-3.17 3.276-5.356 3.277z"/><path d="m364.436 257.168c-.919 0-1.852-.212-2.727-.658-.028-.014-5.289-2.601-11.524-2.601s-11.496 2.588-11.549 2.614c-2.961 1.476-6.568.289-8.058-2.663s-.326-6.547 2.619-8.051c.785-.4 7.931-3.915 16.987-3.915s16.202 3.514 16.987 3.915c2.955 1.509 4.128 5.127 2.62 8.082-1.061 2.079-3.169 3.276-5.355 3.277z"/><path d="m256.143 326.846c-13.016 0-23.605-10.589-23.605-23.604 0-3.318 2.69-6.008 6.007-6.008s6.008 2.69 6.008 6.008c0 6.39 5.199 11.589 11.59 11.589 6.39 0 11.589-5.199 11.589-11.589 0-3.318 2.69-6.008 6.008-6.008s6.008 2.69 6.008 6.008c0 13.015-10.589 23.604-23.605 23.604z"/><path d="m410.941 187.124h-28.638v-11.363c0-3.318-2.69-6.008-6.008-6.008s-6.008 2.69-6.008 6.008v11.363h-48.061v-11.363c0-3.318-2.69-6.008-6.008-6.008s-6.007 2.69-6.007 6.008v11.363h-48.061v-11.363c0-3.318-2.69-6.008-6.008-6.008s-6.008 2.69-6.008 6.008v11.363h-48.061v-11.363c0-3.318-2.69-6.008-6.008-6.008s-6.008 2.69-6.008 6.008v11.363h-48.057v-11.363c0-3.318-2.69-6.008-6.008-6.008s-6.007 2.69-6.007 6.008v11.363h-28.639c-3.318 0-6.008 2.69-6.008 6.007 0 3.318 2.69 6.008 6.008 6.008h28.639v11.362c0 3.318 2.69 6.008 6.007 6.008 3.318 0 6.008-2.69 6.008-6.008v-11.362h48.061v11.362c0 3.318 2.69 6.008 6.008 6.008s6.008-2.69 6.008-6.008v-11.362h48.061v11.362c0 3.318 2.69 6.008 6.008 6.008s6.008-2.69 6.008-6.008v-11.362h48.061v11.362c0 3.318 2.69 6.008 6.007 6.008 3.318 0 6.008-2.69 6.008-6.008v-11.362h48.061v11.362c0 3.318 2.69 6.008 6.008 6.008s6.008-2.69 6.008-6.008v-11.362h28.638c3.318 0 6.008-2.69 6.008-6.008-.005-3.317-2.694-6.007-6.012-6.007z"/><path d="m349.731 65.7c-3.318 0-6.007-2.69-6.007-6.008v-12.114c0-3.318 2.69-6.008 6.007-6.008 3.318 0 6.008 2.69 6.008 6.008v12.115c0 3.317-2.69 6.007-6.008 6.007z"/><path d="m389.821 86.157c-3.318 0-6.008-2.69-6.008-6.008v-12.114c0-3.317 2.69-6.007 6.008-6.007s6.007 2.69 6.007 6.007v12.115c.001 3.317-2.689 6.007-6.007 6.007z"/></g></g></g></svg>