<svg id="Capa_1" enable-background="new 0 0 512 512" height="512" viewBox="0 0 512 512" width="512" xmlns="http://www.w3.org/2000/svg"><g><g><path d="m434.114 462.24h-372.6c-17.598 0-31.864-14.266-31.864-31.864v-224.84c0-98.662 79.982-178.644 178.644-178.644h79.04c98.662 0 178.644 79.981 178.644 178.644v224.84c0 17.598-14.266 31.864-31.864 31.864z" fill="#fff"/><path d="m373.241 500.405v-33.597c0-68.633-55.638-124.272-124.272-124.272-68.633 0-124.272 55.638-124.272 124.272v33.597h41.404l83.5-3.733 83.5 3.733z" fill="#96b4eb"/><path d="m177.78 426.072c-7.465 12.45-11.765 27.016-11.765 42.589v31.744h165.907v-31.744c0-15.573-4.3-30.139-11.765-42.589-28.196-6.045-51.59.005-71.024 16.034-23.953-17.633-47.73-22.381-71.353-16.034z" fill="#fff"/><path d="m257.673 385.336c23.994 10.792 40.872 36.404 40.872 66.293v7.192c0 11.195-9.075 20.27-20.27 20.27h-112.26v20.486h165.907v-31.744c0-42.874-32.527-78.145-74.249-82.497z" fill="#8286ea"/><path d="m293.439 423.994c3.283 8.507 5.106 17.839 5.106 27.636v7.191c0 11.195-9.075 20.27-20.27 20.27h-112.26v20.486h165.907v-30.916c0-15.573-4.3-30.138-11.765-42.589-9.434-2.023-18.328-2.685-26.718-2.078z" fill="#e1bdfc"/><path d="m440.983 253.564c.569-5.45.866-10.981.866-16.582 0-87.156-70.654-157.811-157.81-157.811h-70.139c-87.156 0-157.81 70.654-157.81 157.811 0 5.601.297 11.132.866 16.582-17.148 4.966-29.689 20.775-29.689 39.524 0 22.729 18.426 41.154 41.154 41.154 6.477 0 12.601-1.501 18.052-4.166 28.71 39.231 75.088 64.717 127.427 64.717h70.138c52.338 0 98.717-25.486 127.427-64.717 5.451 2.665 11.576 4.166 18.052 4.166 22.729 0 41.154-18.426 41.154-41.154 0-18.749-12.541-34.558-29.688-39.524z" fill="#96b4eb"/><path d="m284.038 78.711h-20.237c70.659 0 127.939 57.28 127.939 127.939v10.865c0 70.659-57.28 127.939-127.939 127.939h-79.773c-67.618 0-122.977-52.459-127.617-118.897-.206 3.296-.322 6.617-.322 9.965v.001c0 87.156 70.654 157.81 157.811 157.81h70.138c87.156 0 157.81-70.654 157.81-157.81v-.001c0-87.157-70.654-157.811-157.81-157.811z" fill="#8286ea"/><path d="m420.887 299.256c18.089-10.479 32.179-25.505 35.566-54.191v-16.632c0-92.11-79.794-166.78-178.224-166.78h-58.52c-98.431 0-178.224 74.67-178.224 166.78v16.632c4.58 29.538 19.92 44.786 33.127 54.997 78.549-33.472 176.233-87.769 248.945-151 25.706 58.42 55.084 103.781 97.33 150.194z" fill="#9781dd"/><path d="m161.117 352.718v-51.768c0-3.322-2.693-6.014-6.014-6.014-3.322 0-6.015 2.693-6.015 6.014v50.785c4.112-.353 8.131-.055 12.029.983z" fill="#d789b9"/><ellipse cx="154.818" cy="385.756" fill="#fff" rx="34.416" ry="34.416" transform="matrix(.159 -.987 .987 .159 -250.677 477.134)"/><path d="m155.19 351.349c9.706 3.403 16.668 12.64 16.668 23.507 0 13.758-11.153 24.911-24.91 24.911-13.632 0-24.699-10.951-24.901-24.535-1.065 3.318-1.645 6.852-1.645 10.524 0 19.008 15.409 34.417 34.416 34.417 19.008 0 34.416-15.409 34.416-34.417 0-18.884-15.208-34.207-34.044-34.407z" fill="#af30fa" opacity=".3"/><path d="m503.581 174.533-14.603-19.527c.47-1.361.824-2.783 1.037-4.261 1.82-12.616-6.931-24.318-19.547-26.139-1.478-.213-2.942-.276-4.381-.21l-13.521-18.081-17.557 13.13c-.002 0-.004-.001-.007-.002l-2.976-15.124c.597-.694 1.164-1.426 1.687-2.205 7.103-10.584 4.282-24.922-6.302-32.025-.779-.523-1.581-.986-2.397-1.402l-4.641-23.582-23.924 4.708c-1.023-1.013-2.152-1.947-3.392-2.78-10.584-7.104-24.922-4.282-32.025 6.302-.832 1.24-1.523 2.532-2.086 3.858l-22.153 4.359 4.233 21.511c-.956.984-1.842 2.061-2.633 3.24-7.103 10.584-4.282 24.922 6.302 32.025 1.179.792 2.407 1.453 3.665 2.001l4.881 24.802 24.378-4.797c.461.364.934.717 1.43 1.05 7.941 5.329 17.996 5.072 25.522.141.002.224.013.445.022.668l-20.244 15.139 14.879 19.897c-.128.574-.242 1.153-.327 1.744-1.82 12.616 6.931 24.318 19.547 26.139.591.085 1.179.14 1.765.18l15.15 20.258 19.887-14.872c.884.237 1.789.431 2.718.565 12.616 1.82 24.319-6.931 26.139-19.547.134-.929.204-1.852.226-2.768z" fill="#c1e5ef"/><path d="m44.153 3.391 6.108 17.175c.261.735.779 1.318 1.433 1.613l15.259 6.875c2.156.971 2.156 4.406 0 5.377l-15.259 6.875c-.653.295-1.171.877-1.433 1.613l-6.108 17.175c-.863 2.426-3.915 2.426-4.778 0l-6.108-17.175c-.261-.735-.779-1.318-1.432-1.613l-15.259-6.876c-2.156-.971-2.156-4.406 0-5.377l15.259-6.875c.653-.294 1.171-.877 1.432-1.613l6.108-17.175c.863-2.426 3.915-2.426 4.778.001z" fill="#c2b2eb"/><circle cx="7.756" cy="95.989" fill="#9781dd" r="7.756"/></g><g><g fill="#3c122c"><path d="m171.825 297.839c-.786-.401-7.94-3.92-17.007-3.92s-16.221 3.518-17.007 3.92c-2.949 1.505-4.114 5.103-2.623 8.059 1.491 2.954 5.102 4.144 8.066 2.667.052-.026 5.321-2.617 11.563-2.617 6.243 0 11.51 2.59 11.538 2.604.876.447 1.81.659 2.73.659 2.188 0 4.298-1.198 5.362-3.281 1.511-2.958.337-6.581-2.622-8.091z"/><path d="m360.126 244.642c-.786-.401-7.94-3.92-17.007-3.92s-16.221 3.518-17.007 3.92c-2.948 1.505-4.113 5.104-2.622 8.06 1.491 2.955 5.102 4.144 8.067 2.667.052-.026 5.319-2.617 11.562-2.617 6.242 0 11.51 2.59 11.537 2.604.876.447 1.81.659 2.73.659 2.188 0 4.298-1.198 5.362-3.281 1.51-2.96.336-6.583-2.622-8.092z"/><path d="m266.586 296.127c-3.322 0-6.014 2.693-6.014 6.014 0 6.398-5.205 11.603-11.603 11.603s-11.603-5.205-11.603-11.603c0-3.322-2.693-6.014-6.014-6.014s-6.014 2.693-6.014 6.014c0 13.031 10.601 23.632 23.632 23.632 13.03 0 23.632-10.602 23.632-23.632-.002-3.321-2.694-6.014-6.016-6.014z"/><path d="m495.565 153.77c.158-.715.298-1.435.404-2.167 1.11-7.691-.842-15.354-5.496-21.578-4.654-6.223-11.453-10.262-19.145-11.371-.732-.106-1.462-.175-2.192-.225l-15.354-20.532-7.731 5.782c-1.225-1.898-2.485-3.771-3.776-5.621 3.807-12.007-.536-25.597-11.511-32.964-.121-.081-.248-.147-.37-.227l-5.279-26.826-26.927 5.299c-.576-.452-1.164-.89-1.778-1.302-6.927-4.648-15.148-5.909-22.703-4.181-25.894-13.399-55.259-20.988-86.373-20.988h-79.04c-104.032 0-188.668 84.636-188.668 188.668v72.155c-1.543 4.861-2.384 10.03-2.384 15.397 0 5.378.839 10.562 2.384 15.436v121.852c0 23.097 18.791 41.888 41.888 41.888h53.158v28.141c0 5.536 4.488 10.024 10.024 10.024s10.024-4.488 10.024-10.024v-33.597c0-14.982 2.906-29.296 8.174-42.418 3.771 1.166 7.775 1.796 11.923 1.796 6.605 0 12.838-1.602 18.35-4.422-1.604 2.603-3.07 5.298-4.404 8.069-.17.289-.314.589-.433.9-5.341 11.417-8.331 24.145-8.331 37.56v35.915c0 3.321 2.692 6.014 6.014 6.014 3.321 0 6.014-2.693 6.014-6.014v-35.915c0-11.146 2.392-21.741 6.674-31.312 7.58-4.621 16.258-7.056 25.208-7.056 13.908 0 27.169 5.988 36.381 16.429 2.199 2.493 5.361 3.922 8.675 3.922h.001c3.314 0 6.477-1.429 8.676-3.922 9.213-10.442 22.473-16.43 36.381-16.43 8.947 0 17.636 2.444 25.218 7.068 4.28 9.566 6.664 20.159 6.664 31.3v35.915c0 3.321 2.693 6.014 6.014 6.014 3.322 0 6.014-2.693 6.014-6.014v-35.915c0-25.822-11.06-49.107-28.688-65.373 10.026-1.517 19.766-3.92 29.132-7.134 15.534 19.514 24.836 44.199 24.836 71.022v33.597c0 5.536 4.488 10.024 10.024 10.024s10.024-4.488 10.024-10.024v-28.141h50.849c23.097 0 41.888-18.791 41.888-41.888v-115.918c3.004-6.509 4.693-13.745 4.693-21.371 0-7.627-1.687-14.864-4.693-21.372v-58.249c7.351-4.331 12.749-11.833 14.059-20.914.021-.145.027-.288.045-.432l21.898-16.373zm-39.777-33.104c-1.788.764-3.507 1.715-5.138 2.842-1.38-1.783-2.934-3.386-4.642-4.779l5.343-3.996zm-241.889 264.103c-6.342 0-12.581-.436-18.713-1.219-1.15-21.271-18.815-38.225-40.368-38.225-10.758 0-20.54 4.232-27.791 11.108-17.357-12.66-31.859-28.998-42.353-47.868 86.054-37.276 172.2-88.898 234.588-140.411 24.795 53.066 53.119 95.334 92.902 139.041.386.424.802.805 1.234 1.161-25.215 45.52-73.741 76.413-129.361 76.413zm-179.295-118.785c.025.07.049.142.074.212-.055-.037-.11-.073-.165-.11.03-.034.06-.068.091-.102zm2.686 27.104c0-4.975 1.181-9.676 3.267-13.85 5.509 9.971 12.271 17.555 18.997 23.627 3.161 7.379 6.841 14.483 10.985 21.275-.7.048-1.406.078-2.118.078-17.166-.001-31.131-13.965-31.131-31.13zm314.175-222.352c-2.173.465-4.293 1.177-6.315 2.126l-1.293-6.571 7.269-1.43c-.086 1.946.027 3.912.339 5.875zm1.064 12.169c-2.187 6.105-2.698 12.708-1.413 19.236 1.014 5.154 3.089 9.922 6.049 14.076-3.227-.068-6.373-1.043-9.117-2.885-3.785-2.539-6.354-6.402-7.234-10.874-.88-4.473.034-9.021 2.575-12.805 2.262-3.371 5.533-5.642 9.14-6.748zm48.299 69.612c.95 2.264 2.176 4.393 3.649 6.339-.051.038-.105.071-.156.11-2.485 1.859-4.615 4.064-6.356 6.527l-5.197-6.949zm4.027 27.312c.416-2.886 1.542-5.552 3.25-7.817 1.924 11.301 9.139 21.1 19.327 26.312-2.524.904-5.288 1.242-8.123.834-9.314-1.345-15.798-10.015-14.454-19.329zm15.013-17.375c.698-4.834 2.795-9.119 5.8-12.541l1.005 12.932-4.794 13.299c-1.921-4.136-2.709-8.85-2.011-13.69zm-7.731-14.125c-1.306-2.864-1.856-6.108-1.374-9.45.651-4.511 3.02-8.499 6.67-11.229 2.981-2.23 6.526-3.402 10.183-3.402.82 0 1.646.059 2.473.178 3.928.567 7.457 2.438 10.106 5.321-11.864 1.235-22.349 8.282-28.058 18.582zm-5.113-39.644c-2.668 3.975-6.364 7.001-10.672 8.827l5.29-13.013 9.514-9.041c-.056 4.681-1.462 9.25-4.132 13.227zm-5.412 19.645c-1.365 2.743-2.305 5.712-2.755 8.833-.032.22-.045.438-.071.659-1.136.504-2.33.895-3.58 1.141-4.472.88-9.02-.034-12.805-2.575-2.413-1.619-4.309-3.787-5.606-6.299 3.225.927 6.561 1.415 9.938 1.415 2.358 0 4.734-.23 7.099-.696 2.715-.533 5.313-1.38 7.78-2.478zm-10.137-30.764-2.829 6.959-5.344-5.435-5.332-2.069 4.511-4.043 2.504-6.642 5.008 5.561 5.531 1.821zm-5.007 21.899c-4.681-.056-9.25-1.461-13.228-4.132-3.976-2.668-7.001-6.364-8.827-10.671l12.125 4.708zm-19.973 16.927-8.513 1.675-1.939-9.855c.485.024.969.054 1.455.054 1.886 0 3.786-.184 5.678-.557.055-.011.108-.027.163-.039.01.055.015.111.026.166.599 3.046 1.664 5.92 3.13 8.556zm5.769-50.409-9.803 8.786c.058-4.678 1.463-9.244 4.132-13.219 2.668-3.975 6.363-7.001 10.67-8.826zm-38.434-3.626c-.142.199-.292.388-.43.592-4.331 6.453-5.89 14.206-4.389 21.831 1.5 7.626 5.88 14.21 12.333 18.54.55.369 1.112.712 1.68 1.041l5.477 27.832 27.764-5.464c2.39 1.527 4.947 2.679 7.602 3.449l-7.938 5.936 16.941 22.654c-1.871 15.407 8.758 29.621 24.067 32.183l17.211 23.015 10.466-7.827c.014.764.044 1.526.044 2.293v15.917c-2.195 17.498-8.859 29.76-21.758 39.482-37.89-42.952-64.648-85.203-88.549-139.52-1.509-3.431-4.56-5.94-8.219-6.759-3.657-.816-7.487.15-10.316 2.61-61.047 53.088-150.067 107.447-239.283 146.233-10.108-8.852-19.778-21.187-23.255-42.267v-15.695c0-85.46 74.66-154.986 166.431-154.986h58.52c19.492 0 38.205 3.148 55.601 8.91zm97.268 127.443c2.552-.872 4.958-2.091 7.157-3.61 1.628 2.107 3.503 3.955 5.58 5.513l-7.255 5.426zm8.042 91.277c7.726-6.176 13.866-13.212 18.522-21.262 1.91 4.028 2.985 8.526 2.985 13.273 0 17.165-13.965 31.13-31.13 31.13-.711 0-1.414-.033-2.114-.08 4.477-7.339 8.411-15.043 11.737-23.061zm1.349-111.047c-4.839-.699-9.139-2.788-12.563-5.799l14.005-.865 12.249 4.654c-4.135 1.919-8.851 2.709-13.691 2.01zm-2.066-31.24 5.597 2.316 7.071-.62-2.845 6.922.753 5.774-5.221-1.983-7.498.463 2.585-7.171zm7.478-9.924-12.136-5.02c3.13-1.452 6.588-2.264 10.185-2.264 1.153 0 2.319.082 3.492.252 4.741.684 9.073 2.701 12.585 5.796zm-17.181-50.105c-1.724 2.569-4.066 4.557-6.787 5.852 1.445-5.324 1.664-10.948.568-16.519-1.165-5.92-3.72-11.336-7.42-15.889 3.103.09 6.217 1.022 8.979 2.876 7.813 5.245 9.904 15.867 4.66 23.68zm-13.086-46.595 1.6 8.131c-2.839-.257-5.689-.09-8.462.473-.012-.064-.017-.128-.03-.192-.456-2.32-1.183-4.54-2.149-6.633zm-15.258 22.735c3.971 2.664 6.993 6.354 8.819 10.656l-12.403-4.085-9.633-10.698c4.678.058 9.243 1.46 13.217 4.127zm-10.669-22.875c2.915 1.955 5.099 4.701 6.355 7.9-5.253-1.385-10.791-1.579-16.277-.501-6.231 1.227-11.9 3.999-16.596 8.02-.286-3.794.685-7.551 2.838-10.76 5.244-7.814 15.867-9.904 23.68-4.659zm-181.413-15.11h79.04c24.162 0 47.139 5.129 67.93 14.328-.123.207-.259.408-.378.616l-24.559 4.833c-16.563-4.444-34.038-6.835-52.099-6.835h-58.52c-74.725 0-139.503 40.752-170.521 99.842 23.096-65.617 85.692-112.784 159.107-112.784zm-168.619 393.46v-94.97c8.2 5.588 18.097 8.86 28.746 8.86 5.122 0 10.065-.766 14.733-2.177 9.575 11.888 20.735 22.447 33.157 31.355-1.245 3.884-1.923 8.019-1.923 12.311 0 10.833 4.29 20.676 11.251 27.942-5.205 12.036-8.692 24.978-10.164 38.518h-53.961c-12.042.001-21.839-9.797-21.839-21.839zm86.741-44.621c0-15.661 12.741-28.401 28.402-28.401s28.402 12.741 28.402 28.401-12.741 28.402-28.402 28.402c-15.66.001-28.402-12.741-28.402-28.402zm182.095 33.898c-4.707-1.156-9.565-1.755-14.485-1.755-17.186 0-33.577 7.324-45.057 20.114-11.48-12.79-27.871-20.114-45.057-20.114-4.93 0-9.792.601-14.503 1.76 4.722-5.771 10.265-10.842 16.449-15.041 2.665.128 5.345.201 8.042.201h70.139c2.691 0 5.366-.071 8.026-.197 6.182 4.195 11.722 9.265 16.446 15.032zm125.603 32.563h-51.637c-2.593-23.88-11.476-45.899-24.948-64.369 22.291-10.905 41.821-26.608 57.243-45.755 4.671 1.412 9.62 2.174 14.745 2.174 9.667 0 18.716-2.696 26.437-7.373v93.483c0 12.042-9.797 21.84-21.84 21.84zm44.041-261.381c-1.344 9.312-10.01 15.796-19.327 14.453-3.064-.442-5.871-1.697-8.22-3.591 11.419-2.131 21.239-9.677 26.231-20.204 1.268 2.837 1.792 6.044 1.316 9.342zm-17.568-21.811 5.476-13.322c1.974 4.242 2.684 8.966 2 13.705-.698 4.835-2.783 9.131-5.789 12.553zm23.476-19.138c-.501 3.472-2.033 6.622-4.371 9.138-1.026-5.331-3.249-10.402-6.595-14.878-3.803-5.085-8.757-8.994-14.415-11.487 2.584-1.49 5.479-2.278 8.454-2.278.821 0 1.647.059 2.474.178h.001c4.511.651 8.499 3.02 11.229 6.67 2.729 3.65 3.874 8.145 3.223 12.657zm4.455 28.4c-.997-2.67-2.375-5.168-4.083-7.423.053-.039.109-.075.162-.115 1.893-1.415 3.58-3.032 5.048-4.809l5.517 7.378z"/></g><path d="m99.474 204.555c-.991 0-1.997-.148-2.993-.459-5.284-1.651-8.229-7.273-6.578-12.558 4.679-14.974 12.743-28.972 23.97-41.605 3.678-4.139 10.015-4.512 14.152-.834 4.138 3.677 4.512 10.013.835 14.151-9.326 10.495-15.995 22.024-19.82 34.267-1.342 4.289-5.298 7.038-9.566 7.038z" fill="#fff"/><path d="m142.884 147.292c-3.102 0-6.16-1.435-8.121-4.137-3.251-4.48-2.256-10.749 2.225-14.001 2.508-1.821 5.132-3.61 7.799-5.318 4.662-2.985 10.862-1.629 13.848 3.035 2.986 4.662 1.628 10.861-3.034 13.848-2.342 1.5-4.642 3.068-6.837 4.661-1.779 1.29-3.839 1.912-5.88 1.912z" fill="#fff"/><ellipse cx="147.608" cy="385.756" fill="#3c122c" rx="15.323" ry="15.323" transform="matrix(.634 -.773 .773 .634 -244.218 255.112)"/><ellipse cx="343.119" cy="302.142" fill="#3c122c" rx="17.617" ry="17.617" transform="matrix(.159 -.987 .987 .159 -9.826 592.746)"/></g></g></svg>