<svg id="Capa_1" enable-background="new 0 0 512 512" height="512" viewBox="0 0 512 512" width="512" xmlns="http://www.w3.org/2000/svg"><g><g><path d="m434.616 384.262c-13.031-3.378-31.024-25.908-39.123-36.839 2.441-2.56 4.808-5.192 7.076-7.912h-314.598c16.837 20.189 38.594 36.122 63.423 45.987-19.402 22.032-31.177 50.942-31.177 82.607v33.808h250.107v-33.808c0-31.665-11.775-60.575-31.177-82.607 11.351-4.51 22.065-10.28 31.954-17.156 7.371 18.526 20.432 45.746 35.021 50.435 20.989 6.746 21.335 36.335 23.414 36.975 10.654 3.278 39.52-15.163 40.34-26.636z" fill="#9781dd"/><path d="m204.382 397.22c-2.066 1.166-4.085 2.407-6.037 3.738l51.573 51.573h6.086c3.586-4.665 7.212-9.301 10.863-13.917 6.657-8.414 13.482-16.648 19.469-25.561 2.458-3.66 4.924-7.346 7.585-10.871-2.49-1.792-5.084-3.446-7.768-4.961h-81.771z" fill="#c2b2eb"/><path d="m161.794 480.897h166.951v21.015h-166.951z" fill="#e8a284"/><path d="m296.488 404.065c-3.566 4.133-7.253 8.165-11.02 12.118 6.143 10.926 9.69 23.752 9.69 37.48v7.237c0 11.265-9.132 20.397-20.397 20.397h-112.967v20.615h166.951v-31.943c0-26.795-12.631-50.632-32.257-65.904z" fill="#8962de"/><path d="m283.948 479.094c-2.763 1.398-5.878 2.204-9.187 2.204h-112.967v20.615h166.951v-22.818h-44.797z" fill="#d57b84"/><path d="m446.686 256.893h-402.832c-12.911 7.01-21.681 20.674-21.681 36.398 0 22.872 18.541 41.413 41.413 41.413 6.517 0 12.681-1.51 18.166-4.193 2.272 3.104 4.666 6.112 7.151 9.039h312.734c2.486-2.927 4.88-5.935 7.151-9.039 5.485 2.682 11.648 4.193 18.166 4.193 22.872 0 41.413-18.542 41.413-41.413 0-15.725-8.771-29.389-21.681-36.398z" fill="#efc5b4"/><path d="m262.998 302.402c0 9.791-7.937 17.728-17.728 17.728s-17.728-7.937-17.728-17.728" style="fill:none;stroke:#3c122c;stroke-width:12;stroke-linecap:round;stroke-linejoin:round;stroke-miterlimit:10"/><path d="m450.328 254.126v-18.906c0-98.361-76.233-178.098-170.271-178.098h-69.575c-94.038 0-170.271 79.737-170.271 178.098v18.906z" fill="#9781dd"/><path d="m286.966 59.089h-20.364c71.103 0 128.744 57.64 128.744 128.743v10.934c0 71.103-64.047 148.034-135.15 148.034h-80.275c-68.044 0-123.751-52.789-128.419-119.645-.207 3.317-.324 6.658-.324 10.028v.001c0 87.704 71.099 158.803 158.803 158.803h70.579c87.705 0 165.21-90.389 165.21-178.093v19.29c0-87.706-71.099-178.095-158.804-178.095z" fill="#8962de"/><path d="m397.433 338.267c21.38-24.158 37.131-53.788 44.198-84.69h-58.121c-15.875 37.201-46.256 69.829-82.057 84.69z" fill="#d994b3"/><path d="m133.752 338.267c-37.437-14.391-66.448-45.765-77.597-84.69h-4.14c3.282 32.004 16.076 61.186 35.497 84.69z" fill="#d994b3"/><path d="m162.338 116.764c-3.915 0-7.639-2.292-9.277-6.119-2.193-5.121.18-11.051 5.302-13.243 3.732-1.599 7.657-3.022 11.663-4.232 5.33-1.613 10.961 1.408 12.572 6.742 1.61 5.333-1.409 10.962-6.742 12.572-3.291.994-6.505 2.159-9.551 3.464-1.296.553-2.643.816-3.967.816z" fill="#fff"/><path d="m208.041 107.363c-5.333 0-9.788-4.182-10.066-9.569-.286-5.564 3.993-10.306 9.556-10.592 10.838-.558 21.697-.415 32.202-.277 8.313.11 16.908.223 25.25-.026 5.517-.173 10.215 4.216 10.382 9.785.164 5.569-4.216 10.216-9.785 10.382-8.774.259-17.589.144-26.111.031-10.183-.134-20.715-.272-30.901.252-.176.01-.352.014-.527.014z" fill="#fff"/><path d="m466.792 2.469 8.286 23.299c.355.998 1.057 1.788 1.943 2.187l20.7 9.326c2.924 1.318 2.924 5.977 0 7.295l-20.7 9.326c-.886.399-1.589 1.19-1.943 2.187l-8.286 23.299c-1.171 3.292-5.311 3.292-6.481 0l-8.286-23.299c-.355-.998-1.057-1.788-1.943-2.187l-20.7-9.326c-2.924-1.318-2.924-5.977 0-7.295l20.7-9.326c.886-.399 1.589-1.19 1.943-2.187l8.286-23.299c1.17-3.292 5.31-3.292 6.481 0z" fill="#c2b2eb"/><path d="m47.598 390.728 6.146 17.283c.263.74.784 1.326 1.442 1.623l15.355 6.918c2.169.977 2.169 4.434 0 5.411l-15.355 6.918c-.657.296-1.178.883-1.442 1.623l-6.146 17.283c-.868 2.442-3.939 2.442-4.808 0l-6.146-17.283c-.263-.74-.784-1.326-1.442-1.623l-15.355-6.918c-2.169-.978-2.169-4.434 0-5.411l15.355-6.918c.658-.296 1.178-.883 1.442-1.623l6.146-17.283c.869-2.442 3.94-2.442 4.808 0z" fill="#c2b2eb"/><g fill="#9781dd"><ellipse cx="35.872" cy="55.885" rx="18.093" ry="18.093" transform="matrix(.383 -.924 .924 .383 -29.487 67.64)"/><circle cx="488.369" cy="131.639" r="7.805"/></g></g><g fill="#3c122c"><path d="m437.148 374.497c-6.981-1.81-19.251-14.769-29.018-27.114 1.364-1.572 2.694-3.174 4-4.796 4.698 1.421 9.669 2.204 14.824 2.204 28.397 0 51.5-23.103 51.5-51.501 0-15.633-7.009-29.652-18.042-39.103 0-.021.003-.041.003-.062v-18.905c0-103.766-80.909-188.186-180.359-188.186h-69.574c-99.45 0-180.358 84.419-180.358 188.186v18.906c0 .021.003.041.003.062-11.033 9.451-18.042 23.47-18.042 39.102 0 28.398 23.103 51.501 51.501 51.501 5.157 0 10.136-.77 14.837-2.189 15.518 19.267 35.171 35.066 57.601 46.039-16.278 22.317-25.895 49.787-25.895 79.463v33.808c0 5.571 4.517 10.087 10.087 10.087 5.571 0 10.087-4.517 10.087-10.087v-33.808c0-26.991 9.351-51.837 24.981-71.474 9.434 3.238 19.244 5.656 29.343 7.183-17.745 16.369-28.885 39.797-28.885 65.785v36.141c0 3.342 2.71 6.052 6.052 6.052s6.052-2.71 6.052-6.052v-20.857h154.846v20.857c0 3.342 2.71 6.052 6.052 6.052s6.052-2.71 6.052-6.052v-36.141c0-25.988-11.14-49.416-28.885-65.785 10.099-1.527 19.909-3.945 29.343-7.184 15.63 19.637 24.98 44.484 24.98 71.474v33.808c0 5.571 4.517 10.087 10.087 10.087 5.571 0 10.087-4.517 10.087-10.087v-33.808c0-29.676-9.617-57.146-25.896-79.463 3.946-1.93 7.806-4.009 11.572-6.231.586 1.313 1.18 2.634 1.805 3.969 11.379 24.319 22.874 38.057 35.142 42 10.436 3.354 13.499 17.304 15.145 24.798 1.063 4.844 2.269 10.332 8.39 12.215 1.844.567 3.784.815 5.769.815 11.3 0 24.025-8.025 28.139-10.843 6.925-4.743 18.662-14.366 19.46-25.53.73-10.177-16.454-48.509-42.786-55.336zm-156.588 11.051h-70.58c-39.352 0-75.178-15.368-101.804-40.413h274.189c-26.626 25.045-62.453 40.413-101.805 40.413zm-28.292 59.331-41.459-39.156h69.751c1.517 0 3.03-.025 4.538-.065zm-177.062-299.541 256.6 24.26-279.705 40.416c3.385-23.497 11.428-45.411 23.105-64.676zm318.67 187.692h-297.212c-16.434-19.33-28.015-42.901-32.859-68.818h362.93c-4.844 25.917-16.425 49.489-32.859 68.818zm33.078-8.413c-.718 0-1.429-.028-2.135-.075 10.298-16.878 17.723-35.691 21.582-55.76 7.225 5.741 11.879 14.584 11.879 24.509 0 17.273-14.053 31.326-31.326 31.326zm13.287-80.579h-389.943v-8.818c0-4.3.156-8.562.46-12.781l376.125-54.347c8.582 20.571 13.357 43.275 13.357 67.128v8.818zm-229.759-176.83h69.574c61.27 0 114.606 36.274 141.539 89.416l-38.922 5.624-299.878-28.352c29.275-40.486 75.616-66.688 127.687-66.688zm-146.896 257.409c-17.273 0-31.326-14.053-31.326-31.327 0-9.928 4.647-18.784 11.877-24.525 3.857 20.073 11.282 38.889 21.582 55.771-.706.048-1.416.081-2.133.081zm104.261 144.982c0-24.397 11.351-46.178 29.041-60.374l47.596 44.952-15.569 18.6h-61.068zm154.846 0v3.179h-77.992l51.445-61.46c16.254 14.197 26.547 35.053 26.547 58.281zm125.1-30.025c-4.314 2.799-8.025 4.5-10.779 5.452-2.648-11.011-8.775-29.737-27.807-35.854-8.226-2.643-18.355-20.199-26.138-38.208 3.728-2.856 7.329-5.868 10.803-9.018 10.133 12.633 25.141 28.692 38.211 32.08 14.058 3.645 25.829 27.232 27.568 34.554-.926 1.847-4.558 6.258-11.858 10.994z"/><path d="m150.527 284.674c-9.791 0-17.728 7.937-17.728 17.728s7.937 17.728 17.728 17.728 17.728-7.937 17.728-17.728-7.937-17.728-17.728-17.728z"/><circle cx="340.013" cy="302.402" r="17.728"/><path d="m351.614 206.185c-3.342 0-6.052 2.71-6.052 6.052v11.43c0 3.342 2.71 6.052 6.052 6.052s6.052-2.71 6.052-6.052v-11.43c0-3.342-2.71-6.052-6.052-6.052z"/><path d="m389.008 190.76c-3.342 0-6.052 2.71-6.052 6.052v11.429c0 3.342 2.71 6.052 6.052 6.052s6.052-2.71 6.052-6.052v-11.429c0-3.342-2.71-6.052-6.052-6.052z"/></g></g></svg>