<svg id="Capa_1" enable-background="new 0 0 512 512" height="512" viewBox="0 0 512 512" width="512" xmlns="http://www.w3.org/2000/svg"><g><g><path d="m444.323 368.867h-106.89c-21.236-16.499-47.912-26.328-76.886-26.328-28.974 0-55.65 9.829-76.887 26.328h-106.889l58.351 98.489c-.001.205-.008.409-.008.615v33.911h250.866v-33.911c0-1.97-.051-3.928-.141-5.875z" fill="#9781dd"/><path d="m214.538 401.126h92.018v100.756h-92.018z" fill="#d789b9"/><path d="m260.538 385.035-28.109 48.686c-6.58 11.397-1.232 25.984 11.165 30.398 10.573 3.764 24.091 3.684 34.539-.238 12.057-4.527 16.958-18.996 10.519-30.149z" fill="#fff"/><path d="m288.653 433.731-28.114-48.696-3.087 5.348 19.417 33.631c5.154 8.928 1.231 20.51-8.42 24.133-8.363 3.14-19.184 3.203-27.646.191-5.059-1.801-8.64-5.723-10.248-10.341-3.295 10.519 2.152 22.245 13.042 26.122 10.573 3.764 24.091 3.684 34.539-.238 12.054-4.527 16.956-18.997 10.517-30.15z" fill="#e1bdfc"/><path d="m492.697 254.785c-6.932-10.432-22.192-12.279-37.729-9.75.167-2.992.261-6.004.261-9.037v-.001c0-87.971-71.314-159.285-159.285-159.285h-70.794c-87.971 0-159.285 71.314-159.285 159.285v.001c0 3.007.091 5.993.256 8.96-15.373-2.415-30.394-.498-37.256 9.827-12.697 19.107 7.349 59.741 26.456 72.438 12.722 8.454 28.399 8.967 41.207 2.732 28.977 39.601 75.792 65.328 128.622 65.328h70.794c52.906 0 99.779-25.801 128.747-65.499 12.87 6.413 28.714 5.969 41.55-2.561 19.107-12.697 39.154-53.33 26.456-72.438z" fill="#f3d4d2"/><path d="m295.944 77.013h-20.426c71.319 0 129.134 57.815 129.134 129.134v10.967c0 71.319-57.815 129.134-129.134 129.134h-80.518c-68.25 0-124.126-52.949-128.809-120.008-.207 3.327-.325 6.679-.325 10.058v.001c0 87.97 71.314 159.285 159.285 159.285h70.794c87.971 0 159.285-71.315 159.285-159.285v-.001c-.001-87.971-71.315-159.285-159.286-159.285z" fill="#da9fd0"/><path d="m231.359 343.767 18.856-17.624-26.904-8.191 5.835 25.142c.233 1 1.462 1.375 2.213.673z" fill="#fff"/><path d="m289.796 343.767-18.856-17.624 26.904-8.191-5.835 25.142c-.232 1-1.462 1.375-2.213.673z" fill="#fff"/><path d="m196.007 165.458c23.183 0 45.093 19.727 64.54 25.816 19.447-6.089 41.358-25.816 64.54-25.816 55.794 0 104.239 53.789 128.613 82.883.999-7.212 1.528-48.533 1.528-56.02v-.001c0-87.971-71.314-159.285-159.285-159.285h-70.793c-87.971 0-159.285 71.314-159.285 159.285v.001c0 7.487.529 48.808 1.528 56.02 24.375-29.094 72.819-82.883 128.614-82.883z" fill="#9781dd"/><path d="m305.64 399.223v26.835c3.184 8.442 4.947 17.675 4.947 27.358v7.259c0 11.3-9.16 20.459-20.46 20.459h-113.309v20.677h167.458v-32.04c0-29.637-15.403-55.67-38.636-70.548z" fill="#8962de"/><path d="m290.127 481.134h-73.464v20.677h87.436v-26.22c-3.658 3.429-8.563 5.543-13.972 5.543z" fill="#c668b9"/><path d="m457.303 1.837 6.165 17.335c.264.742.787 1.33 1.446 1.628l15.402 6.939c2.176.98 2.176 4.447 0 5.428l-15.402 6.939c-.659.297-1.182.885-1.446 1.628l-6.165 17.335c-.871 2.449-3.951 2.449-4.822 0l-6.165-17.335c-.264-.742-.786-1.33-1.446-1.628l-15.402-6.939c-2.176-.98-2.176-4.447 0-5.428l15.402-6.939c.659-.297 1.182-.885 1.446-1.628l6.165-17.335c.87-2.449 3.951-2.449 4.822 0z" fill="#e8c2d8"/><path d="m34.986 35.681 6.165 17.335c.264.742.787 1.33 1.446 1.628l15.402 6.939c2.176.98 2.176 4.447 0 5.428l-15.402 6.939c-.659.297-1.182.885-1.446 1.628l-6.165 17.335c-.871 2.449-3.951 2.449-4.822 0l-6.165-17.335c-.264-.742-.787-1.33-1.446-1.628l-15.402-6.94c-2.176-.98-2.176-4.447 0-5.428l15.402-6.939c.659-.297 1.182-.885 1.446-1.628l6.165-17.335c.871-2.448 3.951-2.448 4.822.001z" fill="#e8c2d8"/><circle cx="497.18" cy="105.198" fill="#d789b9" r="7.829"/></g><g><g fill="#3c122c"><circle cx="165.517" cy="301.767" r="17.782"/><circle cx="355.577" cy="301.767" r="17.782"/><path d="m179.918 255.208c-.929 0-1.871-.214-2.755-.665-.028-.014-5.344-2.629-11.645-2.629s-11.617 2.615-11.67 2.641c-2.992 1.491-6.637.291-8.142-2.691-1.505-2.984-.33-6.616 2.647-8.135.793-.405 8.014-3.956 17.166-3.956 9.151 0 16.372 3.551 17.166 3.956 2.986 1.525 4.171 5.181 2.647 8.167-1.076 2.102-3.206 3.312-5.414 3.312z"/><path d="m369.978 255.208c-.929 0-1.871-.214-2.755-.665-.029-.014-5.345-2.629-11.646-2.629s-11.617 2.614-11.67 2.641c-2.987 1.49-6.636.292-8.142-2.691-1.506-2.984-.33-6.616 2.646-8.135.793-.405 8.014-3.956 17.166-3.956 9.151 0 16.372 3.551 17.166 3.956 2.986 1.525 4.172 5.181 2.647 8.167-1.073 2.102-3.203 3.312-5.412 3.312z"/><path d="m258.432 327.33c-7.835 0-28.417-.832-36.784-9.199-2.371-2.371-2.371-6.215 0-8.585 2.37-2.37 6.215-2.37 8.585 0 4.209 4.209 20.496 5.846 30.173 5.621.076-.002.156-.001.234-.001 9.804.141 26.148-1.546 30.223-5.62 2.369-2.37 6.215-2.37 8.584 0 2.371 2.371 2.371 6.214 0 8.585-9.089 9.09-33.701 9.25-38.875 9.177-.524.011-1.25.022-2.14.022z"/><path d="m499.16 247.168c-7.093-8.893-18.909-13.456-33.85-13.32-.043-3.408-.175-6.794-.418-10.151.326-14.329.455-29.306.455-31.376 0-93.409-75.993-169.403-169.403-169.403h-70.794c-93.409 0-169.403 75.994-169.403 169.404 0 2.07.129 17.05.455 31.38-.244 3.353-.389 6.733-.433 10.138-14.716-.035-26.35 4.53-33.368 13.329-8.753 10.975-9.689 27.651-2.634 46.956 5.69 15.57 15.781 30.471 26.334 38.889 9.24 7.369 20.462 11.279 32.11 11.279 1.95 0 3.914-.11 5.881-.331 3.117-.351 6.156-.986 9.098-1.867 4.741 5.885 9.86 11.454 15.333 16.656h-31.752c-3.635 0-6.991 1.95-8.791 5.108s-1.767 7.04.086 10.167l56.93 96.091v31.767c0 5.588 4.53 10.118 10.118 10.118s10.118-4.53 10.118-10.118v-33.911c0-27.075 9.387-51.993 25.068-71.69 9.457 3.245 19.288 5.678 29.412 7.209-17.795 16.419-28.964 39.917-28.964 65.98v36.25c0 3.353 2.718 6.071 6.071 6.071s6.071-2.718 6.071-6.071v-36.25c0-23.215 10.245-44.073 26.445-58.313v94.66c0 3.352 2.718 6.071 6.071 6.071s6.071-2.718 6.071-6.071v-100.465c1.222.026 2.446.047 3.675.047h16.62l-14.598 25.285c-4.044 7.004-4.761 15.375-1.967 22.965 2.789 7.58 8.75 13.48 16.354 16.186 5.882 2.094 12.435 3.139 18.983 3.139 6.838 0 13.671-1.139 19.725-3.412 7.318-2.747 13.039-8.579 15.698-16 2.713-7.572 1.964-15.907-2.054-22.868l-14.604-25.295h16.638c1.228 0 2.452-.021 3.675-.047v100.464c0 3.352 2.718 6.071 6.071 6.071s6.071-2.718 6.071-6.071v-94.659c16.2 14.239 26.445 35.098 26.445 58.312v36.25c0 3.353 2.718 6.071 6.071 6.071s6.071-2.718 6.071-6.071v-36.25c0-26.064-11.169-49.561-28.964-65.98 10.124-1.531 19.955-3.964 29.413-7.21 15.68 19.697 25.067 44.616 25.067 71.69v33.911c0 5.588 4.53 10.118 10.118 10.118 5.587 0 10.118-4.53 10.118-10.118v-33.911c0-1.047-.014-2.09-.037-3.131l56.834-90.597c1.956-3.118 2.065-7.053.283-10.274-1.781-3.221-5.172-5.22-8.853-5.22h-31.753c5.506-5.234 10.655-10.839 15.421-16.765 3.06.94 6.228 1.61 9.479 1.976 1.967.221 3.93.331 5.881.331 11.645 0 22.87-3.91 32.109-11.279 10.553-8.417 20.644-23.319 26.333-38.889 7.049-19.305 6.114-35.98-2.64-46.955zm-274.01-204.015h70.794c82.251 0 149.167 66.917 149.167 149.168 0 5.392-.165 18.328-.439 30.344-10.639-11.524-23.126-23.734-37.313-34.685-28.058-21.658-55.738-32.64-82.272-32.64-17.077 0-32.725 8.61-46.53 16.207-6.379 3.51-12.46 6.856-18.01 9.007-5.551-2.151-11.631-5.497-18.009-9.007-13.806-7.597-29.454-16.208-46.532-16.208-47.805 0-89.134 34.39-119.585 67.355-.274-12.025-.439-24.977-.439-30.375.001-82.25 66.917-149.166 149.168-149.166zm-166.431 274.039c-15.629-12.466-29.584-46.014-20.498-57.407 2.981-3.737 9.223-5.734 17.393-5.734.359 0 .732.014 1.099.022 2.705 25.383 11.033 49.109 23.72 69.901-7.852.542-15.518-1.84-21.714-6.782zm69.947 119.418-34.141-57.626h39.879c5.328 3.393 10.859 6.495 16.568 9.288-10.406 14.268-18.095 30.636-22.306 48.338zm154.73.156c2.232 3.865 2.647 8.495 1.139 12.702-1.474 4.116-4.506 7.216-8.536 8.729-9.147 3.434-21.068 3.514-30.368.203-4.199-1.495-7.491-4.754-9.031-8.942-1.545-4.198-1.149-8.828 1.088-12.702l18.103-31.356h9.496zm142.636-57.781-34.329 54.724c-4.338-16.59-11.743-31.952-21.579-45.437 5.708-2.792 11.239-5.893 16.566-9.287zm-130.088 6.18h-70.794c-76.599 0-139.884-58.039-148.221-132.448 18.027-21.446 66.463-77.141 119.077-77.141 11.878 0 24.535 6.965 36.776 13.701 8.471 4.661 16.472 9.064 24.741 11.653 1.968.617 4.077.617 6.046 0 8.27-2.589 16.272-6.992 24.742-11.653 12.24-6.736 24.898-13.701 36.775-13.701 52.621 0 101.059 55.704 119.081 77.146-8.339 74.407-71.626 132.443-148.223 132.443zm166.899-67.973c-6.311 5.034-14.144 7.403-22.157 6.743 12.672-20.781 20.99-44.491 23.694-69.854.529-.017 1.054-.029 1.567-.029 8.169 0 14.413 1.997 17.393 5.734 9.087 11.392-4.868 44.94-20.497 57.406z"/><path d="m354.12 121.731c-3.353 0-6.071-2.718-6.071-6.071v-11.149c0-3.352 2.718-6.071 6.071-6.071s6.071 2.718 6.071 6.071v11.149c-.001 3.353-2.719 6.071-6.071 6.071z"/><path d="m386.373 148.435c-3.353 0-6.071-2.718-6.071-6.071v-11.149c0-3.353 2.718-6.071 6.071-6.071 3.352 0 6.071 2.718 6.071 6.071v11.149c0 3.353-2.718 6.071-6.071 6.071z"/></g><path d="m171.427 95.313c-3.27 0-6.478-1.582-8.428-4.507-3.1-4.649-1.843-10.931 2.806-14.031 1.713-1.142 7.001-4.448 10.847-6.011 5.175-2.104 11.079.386 13.182 5.564 2.104 5.177-.387 11.079-5.564 13.182-1.57.638-5.181 2.729-7.24 4.101-1.725 1.152-3.675 1.702-5.603 1.702z" fill="#fff"/><path d="m123.415 140.323c-1.852 0-3.727-.508-5.406-1.573-4.72-2.991-6.122-9.242-3.131-13.962 9.196-14.512 19.858-24.814 27.183-30.901 4.296-3.572 10.677-2.984 14.248 1.315 3.571 4.298 2.983 10.677-1.315 14.248-6.206 5.158-15.239 13.884-23.024 26.17-1.926 3.039-5.205 4.703-8.555 4.703z" fill="#fff"/></g></g></svg>