<svg id="Capa_1" enable-background="new 0 0 512 512" height="512" viewBox="0 0 512 512" width="512" xmlns="http://www.w3.org/2000/svg"><g><g><path d="m69.423 335.183c6.5 0 12.646-1.506 18.117-4.181 2.597 3.549 5.344 6.982 8.221 10.299h309.71c2.877-3.317 5.624-6.749 8.221-10.299 5.47 2.675 11.617 4.181 18.117 4.181 22.81 0 41.301-18.491 41.301-41.301 0-18.815-12.586-34.68-29.795-39.665.101-.969.183-1.944.267-2.918h-385.933c.084.974.166 1.949.267 2.918-17.209 4.984-29.794 20.85-29.794 39.665 0 22.81 18.491 41.301 41.301 41.301z" fill="#f3d4d2"/><path d="m407.49 338.943h-313.748c16.945 20.318 38.886 36.316 63.93 46.131-19.753 22.066-31.771 51.202-31.771 83.149v33.717h249.431v-33.717c0-31.947-12.018-61.083-31.771-83.149 25.043-9.815 46.985-25.813 63.929-46.131z" fill="#96b4eb"/><path d="m285.81 78.518h-20.309c70.911 0 128.396 57.484 128.396 128.395v10.904c0 70.911-57.485 128.396-128.396 128.396h-80.058c-67.86 0-123.416-52.646-128.072-119.322-.206 3.308-.323 6.641-.323 10.001 0 87.468 70.906 158.374 158.374 158.374h58.471c16.079 13.143 26.477 34.003 26.477 57.502v7.217c0 11.235-9.108 20.342-20.342 20.342h-112.662v20.559h166.5v-31.857c0-32.084-18.16-59.909-44.754-73.805 85.943-1.758 155.073-71.969 155.073-158.332-.001-87.468-70.907-158.374-158.375-158.374z" fill="#af30fa" opacity=".3"/><path d="m406.05 339.946c21.494-25.056 35.3-56.901 37.738-91.883h-53.483c-10.483 43.41-43.021 78.211-85.09 91.883z" fill="#da9fd0"/><path d="m145.73 339.946c-42.069-13.673-74.608-48.474-85.09-91.883h-3.195c2.438 34.98 16.239 66.827 37.73 91.883z" fill="#da9fd0"/><path d="m453.86 176.461h-8.169c-23.114-69.366-86.185-119.144-160.382-119.144h-69.387c-74.197 0-137.268 49.778-160.382 119.144h-10.062c-9.05 0-16.386 7.336-16.386 16.386v43.695c0 9.05 7.336 16.386 16.386 16.386h408.382c9.05 0 16.386-7.336 16.386-16.386v-43.695c0-9.05-7.336-16.386-16.386-16.386z" fill="#96b4eb"/><path d="m453.86 176.461h-8.168c-23.114-69.366-86.186-119.144-160.382-119.144h-44.805c59.706 0 110.555 26.391 129.785 63.328 7.779 14.942-3.033 32.831-19.878 32.984l-286.749 2.603c-3.357 7.093-6.265 14.457-8.707 22.046h309.958c3.236 2.061 5.389 5.671 5.389 9.792v26.416c0 6.412-5.198 11.61-11.61 11.61h-317.99c-6.412 0-11.61-5.199-11.61-11.61v22.055c0 9.05 7.336 16.386 16.386 16.386h408.381c9.05 0 16.386-7.336 16.386-16.386v-43.695c0-9.049-7.336-16.385-16.386-16.385z" fill="#8286ea"/><path d="m55.854 2.462 8.264 23.236c.354.995 1.054 1.783 1.938 2.181l20.644 9.302c2.917 1.314 2.917 5.961 0 7.275l-20.644 9.301c-.884.398-1.584 1.187-1.938 2.181l-8.264 23.236c-1.167 3.283-5.296 3.283-6.464 0l-8.264-23.236c-.354-.995-1.054-1.783-1.938-2.181l-20.644-9.301c-2.917-1.314-2.917-5.961 0-7.275l20.644-9.301c.884-.398 1.584-1.187 1.938-2.181l8.264-23.237c1.167-3.283 5.296-3.283 6.464 0z" fill="#c1e5ef"/><path d="m471.14 65.933 6.13 17.236c.263.738.782 1.323 1.438 1.618l15.314 6.899c2.164.975 2.164 4.422 0 5.397l-15.314 6.899c-.656.295-1.175.88-1.438 1.618l-6.13 17.236c-.866 2.435-3.928 2.435-4.795 0l-6.13-17.236c-.262-.738-.782-1.323-1.438-1.618l-15.314-6.899c-2.163-.975-2.163-4.422 0-5.397l15.314-6.899c.656-.296 1.175-.88 1.438-1.618l6.13-17.236c.866-2.435 3.929-2.435 4.795 0z" fill="#c1e5ef"/><g fill="#96b4eb"><ellipse cx="459.745" cy="437.548" rx="18.044" ry="18.044" transform="matrix(.383 -.924 .924 .383 -120.433 694.854)"/><circle cx="410.262" cy="42.474" r="7.784"/></g></g><g><path d="m468.824 258.33c6.928-4.773 11.481-12.758 11.481-21.789v-43.695c0-14.582-11.864-26.446-26.446-26.446h-1.114c-26.29-69.686-91.425-119.143-167.436-119.143h-69.386c-76.011 0-141.146 49.457-167.437 119.144h-3.008c-14.582 0-26.445 11.864-26.445 26.446v43.695c0 9.537 5.076 17.911 12.667 22.563-8.451 9.155-13.638 21.364-13.638 34.777 0 28.321 23.041 51.361 51.362 51.361 5.141 0 10.105-.767 14.789-2.182 15.478 19.218 35.081 34.981 57.454 45.925-16.232 22.255-25.826 49.645-25.826 79.237v33.717c0 5.556 4.504 10.06 10.06 10.06s10.06-4.504 10.06-10.06v-33.717c0-26.921 9.331-51.7 24.921-71.285 9.405 3.228 19.183 5.647 29.251 7.17-17.695 16.325-28.803 39.689-28.803 65.606v36.043c0 3.333 2.703 6.036 6.036 6.036s6.036-2.703 6.036-6.036v-36.043c0-26.553 13.483-50.002 33.955-63.897 2.673.126 5.361.193 8.064.193h70.389c2.703 0 5.392-.067 8.064-.193 20.472 13.895 33.955 37.344 33.955 63.897v36.043c0 3.333 2.703 6.036 6.036 6.036s6.036-2.703 6.036-6.036v-36.043c0-25.917-11.108-49.281-28.803-65.606 10.066-1.522 19.84-3.94 29.243-7.167 15.593 19.585 24.929 44.361 24.929 71.282v33.717c0 5.556 4.504 10.06 10.06 10.06s10.06-4.504 10.06-10.06v-33.717c0-29.593-9.599-56.98-25.832-79.234 22.378-10.945 41.983-26.711 57.463-45.932 4.686 1.414 9.646 2.187 14.786 2.187 28.32 0 51.361-23.041 51.361-51.361.002-13.791-5.467-26.321-14.344-35.553zm-69.135 74.15h-298.145c-16.325-19.557-27.722-43.361-32.252-69.493h362.649c-4.531 26.132-15.927 49.937-32.252 69.493zm-11.263 12.072c-26.662 25.587-62.832 41.338-102.616 41.338h-70.389c-39.784 0-75.953-15.752-102.615-41.338zm-214.266-158.031v56.347h-58.348v-56.347zm152.911 56.346v-56.347h58.348v56.347zm-12.071 0h-58.348v-56.347h58.348zm-70.42 0h-58.348v-56.347h58.348zm215.605-50.02v43.695c0 3.488-2.838 6.326-6.326 6.326h-56.368v-56.347h56.368c3.488 0 6.326 2.837 6.326 6.326zm-244.262-125.47h69.386c64.821 0 120.743 40.706 145.765 99.024h-360.916c25.021-58.318 80.944-99.024 145.765-99.024zm-176.77 125.47c0-3.488 2.837-6.326 6.325-6.326h58.262v56.347h-58.262c-3.488 0-6.325-2.838-6.325-6.326zm30.27 132.276c-17.227 0-31.242-14.015-31.242-31.241 0-9.897 4.639-18.717 11.843-24.444 3.847 20.012 11.251 38.772 21.519 55.602-.702.048-1.406.083-2.12.083zm362.386 0c-.714 0-1.419-.033-2.121-.081 10.272-16.837 17.679-35.604 21.524-55.625 7.207 5.728 11.838 14.564 11.838 24.464 0 17.228-14.014 31.242-31.241 31.242z" fill="#3c122c"/><path d="m191.091 94.948c-10.796 2.162-21.37 5.797-31.427 10.806-4.973 2.477-6.997 8.516-4.52 13.49 1.76 3.533 5.317 5.578 9.013 5.578 1.507 0 3.037-.34 4.477-1.058 8.467-4.216 17.352-7.274 26.408-9.088 5.448-1.09 8.979-6.392 7.889-11.839-1.091-5.448-6.386-8.982-11.84-7.889z" fill="#fff"/><path d="m128.723 127.33c-1.518 1.431-3.02 2.919-4.465 4.422-3.851 4.005-3.726 10.373.279 14.225 1.951 1.876 4.462 2.808 6.971 2.808 2.641 0 5.277-1.034 7.252-3.087 1.219-1.268 2.486-2.522 3.766-3.729 4.043-3.812 4.229-10.179.417-14.221-3.811-4.042-10.176-4.231-14.22-.418z" fill="#fff"/><g fill="#3c122c"><ellipse cx="156.129" cy="302.969" rx="17.68" ry="17.68" transform="matrix(.707 -.707 .707 .707 -168.502 199.138)"/><ellipse cx="345.103" cy="302.969" rx="17.68" ry="17.68" transform="matrix(.23 -.973 .973 .23 -29.05 569.232)"/><path d="m265.068 424.927c-3.333 0-6.036 2.703-6.036 6.036v11.398c0 3.333 2.703 6.036 6.036 6.036s6.036-2.703 6.036-6.036v-11.398c0-3.333-2.703-6.036-6.036-6.036z"/><path d="m299.335 440.27c-3.333 0-6.036 2.703-6.036 6.036v11.399c0 3.333 2.703 6.036 6.036 6.036s6.036-2.703 6.036-6.036v-11.399c0-3.333-2.703-6.036-6.036-6.036z"/><path d="m279.671 460.392c-3.333 0-6.036 2.703-6.036 6.036v11.398c0 3.333 2.703 6.036 6.036 6.036s6.036-2.703 6.036-6.036v-11.398c0-3.334-2.703-6.036-6.036-6.036z"/></g></g></g></svg>