<svg id="Capa_1" enable-background="new 0 0 512 512" height="512" viewBox="0 0 512 512" width="512" xmlns="http://www.w3.org/2000/svg"><g><g><path d="m476.344 219.281c0-102.845-83.373-186.218-186.218-186.218h-61.144c-102.845 0-186.218 83.372-186.218 186.218v18.571c.428 10.624 2.794 19.624 6.256 27.338v115.724c0 17.313 14.035 31.348 31.348 31.348h358.372c17.313 0 31.348-14.035 31.348-31.348v-116.521c3.349-7.611 5.576-16.375 6.257-26.542v-18.57z" fill="#e8a284"/><path d="m447.482 373.54h-119.502-96.469-159.884c-18.476 0-33.454 14.978-33.454 33.454 0 18.477 14.978 33.454 33.454 33.454h26.382c-14.064 0-25.465 11.401-25.465 25.465s11.401 25.465 25.465 25.465h134.196 38.171 150.724c14.064 0 25.465-11.401 25.465-25.465s-11.401-25.465-25.465-25.465h26.382c18.476 0 33.454-14.977 33.454-33.454-.001-18.477-14.978-33.454-33.454-33.454z" fill="#fff"/><path d="m469.689 264.726c-5.543 7.745-11.933 15.009-17.302 22.734-1.988 2.861-6.874 3.641-8.681 0-11.386-22.942-20.391-46.941-29.33-70.907-4.012-10.758-9.136-22.081-12.756-33.651h-8.888c-1.979 3.276-4.114 6.441-6.848 9.193-6.069 6.11-14.6 9.122-23.103 7.246-9.317-2.056-16.215-8.725-22.063-16.439h-46.405c-9.862 11.257-22.061 20.396-36.826 19.924-14.06-.45-22.184-9.82-29.802-19.924h-36.452c-2.554 3.495-5.564 6.639-8.48 9.249-8.496 7.604-18.551 13.165-30.232 11.415-12.907-1.934-23.543-10.258-32.087-20.664h-5.763c-3.18 9.686-6.682 19.268-10.387 28.773-3.09 7.926-6.306 15.804-9.555 23.667-2.756 6.669-6.312 13.424-8.191 20.394-2.323 8.618-3.293 20.464-10.355 26.787-7.263 6.503-16.775-.292-22.743-5.175-2.813-2.302-5.663-4.841-8.361-7.565-4.951 6.805-7.878 15.177-7.878 24.238 0 22.796 18.48 41.275 41.275 41.275 6.496 0 12.638-1.505 18.105-4.179 17.621 24.079 41.874 42.995 70.079 54.048-19.736 22.051-31.743 51.164-31.743 83.087v33.695h249.274v-33.695c0-31.922-12.007-61.036-31.743-83.087 28.205-11.053 52.458-29.969 70.079-54.048 5.467 2.673 11.61 4.179 18.105 4.179 22.796 0 41.275-18.48 41.275-41.275.002-11.461-4.676-21.82-12.218-29.295z" fill="#efc5b4"/><path d="m342.752 501.947v-31.837c0-45.949-37.249-83.198-83.197-83.198-45.949 0-83.197 37.249-83.197 83.198v31.837z" fill="#c1e5ef"/><path d="m301.857 398.841h-16.607c14.676 13.2 24.027 33.099 24.027 55.373v7.213c0 11.228-9.102 20.33-20.329 20.33h-112.59v20.546h166.395v-31.838c-.001-30.498-16.423-57.142-40.896-71.624z" fill="#a6aaed"/><path d="m210.247 396.117h98.611c63.959-5.661 116.981-49.363 136.299-108.336-7.978-16.799-16.23-33.468-24.841-49.951-5.66-10.835-10.315-22.127-15.687-33.101-.701-1.431-1.415-2.868-2.145-4.3.166 2.674.261 5.368.261 8.085v10.897c0 70.866-57.448 128.315-128.315 128.315h-80.008c-47.947 0-89.743-26.303-111.766-65.262-2.219 3.77-4.406 7.562-6.594 11.351 20.868 55.903 72.429 96.836 134.185 102.302z" fill="#d994b3"/><path d="m259.554 11.829c-82.103 0-148.662 26.026-148.662 58.131s66.558 58.131 148.662 58.131 148.662-26.026 148.662-58.131-66.558-58.131-148.662-58.131zm0 91.032c-64.045 0-115.963-14.73-115.963-32.901s51.919-32.902 115.963-32.902 115.964 14.731 115.964 32.902-51.919 32.901-115.964 32.901z" fill="#f6e06e"/><path d="m34.393 35.337 6.126 17.225c.262.737.782 1.322 1.437 1.617l15.304 6.895c2.162.974 2.162 4.419 0 5.393l-15.304 6.895c-.655.295-1.174.88-1.437 1.617l-6.126 17.225c-.865 2.433-3.926 2.433-4.792 0l-6.126-17.225c-.262-.738-.782-1.322-1.437-1.617l-15.303-6.895c-2.162-.974-2.162-4.419 0-5.393l15.304-6.895c.655-.295 1.174-.88 1.437-1.617l6.126-17.225c.865-2.434 3.926-2.434 4.791 0z" fill="#faf1a9"/><g fill="#f6e06e"><ellipse cx="472.696" cy="24.23" rx="18.033" ry="18.033" transform="matrix(.529 -.849 .849 .529 202.152 412.604)"/><circle cx="499.108" cy="113.116" r="7.779"/></g></g><g fill="#3c122c"><path d="m480.141 326.75c7.378-8.891 11.821-20.3 11.821-32.73 0-10.907-3.432-21.019-9.257-29.34 2.999-8.038 4.818-16.724 5.441-26.038.018-.262.027-.526.027-.789v-18.571c0-59.53-26.419-112.987-68.128-149.321v-.001c0-20.735-18.135-39.245-51.063-52.121-29.418-11.503-68.28-17.839-109.428-17.839-41.147 0-80.009 6.336-109.427 17.838-32.928 12.875-51.063 31.386-51.063 52.121v.003c-41.71 36.332-68.128 89.79-68.128 149.319v18.571c0 .159.003.317.01.476.405 10.051 2.367 18.886 5.257 26.649-5.701 8.265-9.057 18.264-9.057 29.043 0 12.43 4.443 23.839 11.821 32.73v51.546c-6.744 7.666-10.848 17.709-10.848 28.698 0 22.148 16.64 40.471 38.072 43.156-2.365 4.753-3.702 10.104-3.702 15.763 0 19.585 15.934 35.519 35.519 35.519h26.855v.516c0 5.552 4.501 10.054 10.054 10.054s10.054-4.502 10.054-10.054v-33.695c0-26.904 9.33-51.664 24.913-71.236 9.396 3.224 19.164 5.638 29.221 7.16-17.684 16.314-28.781 39.666-28.781 65.566v36.02c0 3.331 2.7 6.032 6.032 6.032 3.331 0 6.032-2.701 6.032-6.032v-36.02c0-26.538 13.475-49.975 33.936-63.862 2.671.127 5.356.198 8.057.198h70.344c2.702 0 5.387-.072 8.058-.198 20.458 13.889 33.935 37.325 33.935 63.862v36.02c0 3.331 2.701 6.032 6.032 6.032s6.032-2.701 6.032-6.032v-36.02c0-25.901-11.103-49.25-28.788-65.564 10.065-1.522 19.842-3.932 29.244-7.16 15.577 19.572 24.898 44.334 24.898 71.234v33.695c0 5.552 4.501 10.054 10.054 10.054s10.054-4.502 10.054-10.054v-.516h26.856c19.585 0 35.519-15.934 35.519-35.519 0-5.659-1.337-11.01-3.702-15.763 21.433-2.685 38.072-21.008 38.072-43.156 0-10.989-4.103-21.032-10.847-28.698v-51.546zm-32.66 36.736h-40.973c6.995-6.227 13.47-13.027 19.348-20.327 4.682 1.415 9.639 2.19 14.777 2.19 6.863 0 13.411-1.364 19.401-3.819v23.81c-3.977-1.201-8.189-1.854-12.553-1.854zm-369.005-18.137c5.14 0 10.103-.767 14.788-2.181 5.876 7.295 12.343 14.094 19.335 20.317h-40.971c-4.363 0-8.576.653-12.553 1.854v-23.81c5.989 2.456 12.537 3.82 19.401 3.82zm11.205-45.783 31.908-101.518 31.552 22.127c4.209 2.952 9.844 2.847 13.94-.26l41.789-31.7 43.678 32.11c4.238 3.115 10.026 3.058 14.202-.142l45.621-34.967 46.91 35.307c4.561 3.432 10.924 3.118 15.125-.748l22.712-20.91 30.731 102.88c.065.219.155.426.232.639-24.055 49.432-74.784 83.588-133.354 83.588h-70.344c-59.679-.002-111.228-35.456-134.702-86.406zm382.174-5.546c0 17.216-14.006 31.222-31.222 31.222-.713 0-1.418-.032-2.12-.08 3.646-5.976 6.931-12.195 9.822-18.628 8.991-5.955 16.482-12.801 22.462-20.508.68 2.554 1.058 5.229 1.058 7.994zm-212.301-270.363c84.777 0 136.833 26.968 136.833 46.302 0 19.335-52.056 46.303-136.833 46.303s-136.833-26.968-136.833-46.303c0-19.334 52.056-46.302 136.833-46.302zm-204.961 195.624c0-49.148 20.445-93.602 53.267-125.331 8.426 10.883 22.747 20.497 42.267 28.131 29.418 11.503 68.28 17.838 109.427 17.838s80.009-6.336 109.428-17.838c19.519-7.632 33.838-17.245 42.265-28.127 32.822 31.728 53.269 76.18 53.269 125.327v18.162c-1.212 16.97-7.288 30.376-18.863 41.245l-31.286-104.734c-1.167-3.909-4.266-6.939-8.199-8.02-1.035-.285-2.088-.423-3.134-.423-2.931 0-5.801 1.091-8.013 3.126l-29.389 27.056-46.213-34.783c-4.242-3.193-10.094-3.169-14.309.063l-45.704 35.031-43.641-32.082c-4.221-3.105-9.982-3.059-14.155.106l-41.952 31.823-37.716-26.451c-3.088-2.166-7.024-2.729-10.595-1.516s-6.35 4.056-7.481 7.653l-32.175 102.367c-9.028-9.828-16.318-22.334-17.098-40.299zm15.252 89.098c.779.643 1.628 1.173 2.523 1.591 2.489 5.219 5.238 10.291 8.232 15.198-.702.047-1.41.075-2.124.075-17.216 0-31.222-14.006-31.222-31.222 0-2.544.316-5.014.894-7.382 7.602 10.091 16.064 17.087 21.697 21.74zm28.164 172.945c-8.498 0-15.411-6.914-15.411-15.411s6.913-15.411 15.411-15.411h28.028c-.769 5.81-1.173 11.733-1.173 17.75v13.073h-26.855zm32.28-50.93h-32.28-26.381c-12.903 0-23.4-10.497-23.4-23.4s10.497-23.4 23.4-23.4h68.793c3.349 1.936 6.77 3.759 10.258 5.466-9.017 12.359-15.979 26.305-20.39 41.334zm290.811 50.93h-26.855v-13.073c0-6.016-.4-11.941-1.168-17.75h28.023c8.498 0 15.411 6.914 15.411 15.411 0 8.498-6.913 15.412-15.411 15.412zm26.381-50.93h-26.381-32.275c-4.41-15.029-11.373-28.978-20.389-41.339 3.487-1.706 6.907-3.526 10.254-5.461h68.791c12.903 0 23.4 10.497 23.4 23.4s-10.497 23.4-23.4 23.4z"/><path d="m182.184 245.432c-.788-.402-7.963-3.931-17.057-3.931s-16.269 3.529-17.057 3.931c-2.958 1.509-4.126 5.118-2.63 8.083 1.495 2.963 5.117 4.157 8.09 2.674.052-.026 5.336-2.624 11.597-2.624s11.543 2.598 11.571 2.612c.879.449 1.815.661 2.738.661 2.195 0 4.311-1.202 5.378-3.291 1.515-2.967.337-6.601-2.63-8.115z"/><path d="m342.386 256.19c.052-.026 5.335-2.624 11.596-2.624s11.544 2.598 11.572 2.612c.879.449 1.815.661 2.738.661 2.195 0 4.311-1.202 5.378-3.291 1.514-2.967.337-6.601-2.63-8.115-.788-.402-7.963-3.931-17.057-3.931-9.093 0-16.268 3.529-17.057 3.931-2.957 1.509-4.125 5.119-2.63 8.083 1.494 2.964 5.117 4.156 8.09 2.674z"/><path d="m259.554 326.802c13.069 0 23.701-10.632 23.701-23.701 0-3.331-2.701-6.032-6.032-6.032s-6.032 2.701-6.032 6.032c0 6.416-5.22 11.636-11.637 11.636-6.416 0-11.637-5.22-11.637-11.636 0-3.331-2.701-6.032-6.032-6.032s-6.032 2.701-6.032 6.032c0 13.069 10.633 23.701 23.701 23.701z"/><path d="m178.505 94.262c21.718 5.021 50.502 7.787 81.049 7.787s59.331-2.766 81.049-7.787c25.356-5.862 37.682-13.812 37.682-24.303 0-10.49-12.326-18.439-37.682-24.302-21.719-5.021-50.502-7.787-81.049-7.787s-59.331 2.766-81.049 7.787c-25.356 5.862-37.682 13.812-37.682 24.302 0 10.491 12.326 18.44 37.682 24.303zm2.718-36.85c20.854-4.822 48.672-7.477 78.331-7.477s57.478 2.655 78.332 7.477c23.293 5.385 28.335 11.357 28.335 12.547s-5.042 7.162-28.335 12.548c-20.854 4.821-48.672 7.477-78.332 7.477-29.659 0-57.478-2.656-78.331-7.477-23.294-5.386-28.336-11.358-28.336-12.548s5.042-7.162 28.336-12.547z"/><path d="m269.968 425.832c-3.331 0-6.032 2.701-6.032 6.032v11.392c0 3.331 2.701 6.032 6.032 6.032s6.032-2.701 6.032-6.032v-11.392c.001-3.331-2.7-6.032-6.032-6.032z"/><path d="m309.105 450.773c-3.331 0-6.032 2.701-6.032 6.032v11.391c0 3.331 2.701 6.032 6.032 6.032s6.032-2.701 6.032-6.032v-11.391c0-3.331-2.701-6.032-6.032-6.032z"/><path d="m285.66 466.179c-3.331 0-6.032 2.701-6.032 6.032v11.392c0 3.331 2.701 6.032 6.032 6.032s6.032-2.701 6.032-6.032v-11.392c0-3.331-2.701-6.032-6.032-6.032z"/><ellipse cx="165.127" cy="303.101" rx="17.669" ry="17.669" transform="matrix(.082 -.997 .997 .082 -150.527 442.742)"/><ellipse cx="353.982" cy="303.101" rx="17.669" ry="17.669" transform="matrix(.159 -.987 .987 .159 -1.64 604.277)"/></g></g></svg>