<svg id="Capa_1" enable-background="new 0 0 512 512" height="512" viewBox="0 0 512 512" width="512" xmlns="http://www.w3.org/2000/svg"><g><g><path d="m380.288 496.465v-33.729c0-68.903-55.857-124.76-124.76-124.76-68.903 0-124.76 55.857-124.76 124.76v33.729z" fill="#9781dd"/><path d="m333.316 433.731-155.439.582-6.986 33.766h165.336z" fill="#fff"/><path d="m448.296 248.654c.571-5.471.869-11.024.869-16.647v-.001c0-87.499-70.932-158.43-158.431-158.43h-70.414c-87.498 0-158.43 70.931-158.43 158.43v.001c0 5.622.298 11.176.869 16.647-17.215 4.986-29.806 20.857-29.806 39.679 0 22.819 18.498 41.316 41.316 41.316 6.502 0 12.651-1.506 18.123-4.182 28.823 39.385 75.383 64.971 127.927 64.971h70.414c52.544 0 99.105-25.586 127.927-64.971 5.473 2.676 11.621 4.182 18.123 4.182 22.818 0 41.316-18.498 41.316-41.316.002-18.822-12.589-34.693-29.803-39.679z" fill="#f3d4d2"/><path d="m305.439 359.396h-99.824c-60.287 0-109.16-48.872-109.16-109.16 0-60.287 48.873-109.16 109.16-109.16h99.824c60.287 0 109.16 48.872 109.16 109.16 0 60.288-48.872 109.16-109.16 109.16z" fill="#fff"/><path d="m363.461 250.228 26.891 37.602c4.103 5.737 4.103 13.448 0 19.185l-26.891 37.602c-6.577 9.197-20.249 9.197-26.827 0l-26.891-37.602c-4.103-5.737-4.103-13.448 0-19.185l26.891-37.602c6.578-9.197 20.25-9.197 26.827 0z" fill="#9781dd"/><path d="m174.42 250.228 26.891 37.602c4.103 5.737 4.103 13.448 0 19.185l-26.891 37.602c-6.577 9.197-20.249 9.197-26.826 0l-26.891-37.602c-4.103-5.737-4.103-13.448 0-19.185l26.891-37.602c6.577-9.197 20.249-9.197 26.826 0z" fill="#9781dd"/><path d="m404.869 227.45c-2.257-6.034-4.333-12.189-6.01-18.43v4.341c0 22.963-6.032 44.515-16.589 63.168l8.082 11.301c4.103 5.737 4.103 13.448 0 19.185l-26.891 37.602c-6.577 9.197-20.249 9.197-26.826 0l-10.936-15.292c-16.744 7.996-35.488 12.477-55.281 12.477h-80.087c-4.526 0-8.994-.241-13.399-.698l-2.512 3.512c-6.577 9.197-20.249 9.197-26.826 0l-10.138-14.176c-41.945-18.975-71.878-59.825-75.242-108.003-.206 3.309-.324 6.643-.324 10.004 0 84.264 65.786 153.151 148.799 158.131h89.538c57.107-3.376 106.065-36.999 131.102-85.07-10.127-25.609-19.608-51.477-26.46-78.052z" fill="#da9fd0"/><path d="m398.524 193.199c.218 3.057.335 6.142.335 9.255v10.908c0 22.963-6.032 44.515-16.589 63.168l8.082 11.301c4.103 5.737 4.103 13.448 0 19.185l-24.348 34.046c29.298-19.576 48.595-52.945 48.595-90.825 0-20.908-5.882-40.439-16.075-57.038z" fill="#e1bdfc"/><path d="m336.635 344.617-10.936-15.292c-16.744 7.996-35.488 12.477-55.281 12.477h-80.087c-4.526 0-8.996-.238-13.401-.695l-2.51 3.509c-2.621 3.664-6.371 5.844-10.347 6.588 12.806 5.276 26.832 8.191 41.542 8.191h99.824c14.71 0 28.736-2.917 41.543-8.191-3.976-.743-7.727-2.922-10.347-6.587z" fill="#e1bdfc"/><path d="m390.352 307.015c4.103-5.737 4.103-13.448 0-19.185l-8.082-11.301c-12.956 22.892-32.731 41.412-56.571 52.797l10.936 15.292c2.621 3.664 6.371 5.844 10.347 6.588 6.702-2.76 13.069-6.166 19.022-10.144z" fill="#8962de"/><path d="m176.93 341.108c-13.951-1.448-27.232-5.14-39.492-10.691l7.6 10.627c5.958 3.983 12.328 7.398 19.036 10.162 3.976-.744 7.726-2.923 10.347-6.588z" fill="#8962de"/><path d="m305.298 455.616c0 4.858-1.708 9.315-4.549 12.814h38.058v-3.767c0-10.023-1.771-19.631-5.018-28.53h-29.457c.632 3.986.967 8.082.967 12.263v7.22z" fill="#e1bdfc"/><path d="m299.758 469.544c-3.712 3.945-8.965 6.422-14.809 6.422h-112.701v20.566h166.559v-26.988z" fill="#8962de"/><path d="m303.928 433.906h29c-6.648-16.701-18.538-30.745-33.647-40.093h-17.109c10.935 10.204 18.753 24.197 21.756 40.093z" fill="#8962de"/><path d="m148.996 188.01c23.391-.228 51.698 24.834 107.76 24.834s76.314-25.272 99.703-25.678c65.797-1.142 49.842 84.388 69.826 114.015 2.855 4.232 22.295-35.193 25.37-31.576 1.009-7.174 1.542-48.273 1.542-55.72v-.001c0-87.499-71.958-158.431-160.724-158.431h-71.433c-88.765 0-160.724 70.932-160.724 158.431v.001c0 7.447.534 48.546 1.542 55.72 3.44-4.047 19.103 42.961 22.013 38.194 17.89-29.312-2.686-119.127 65.125-119.789z" fill="#a07575"/><path d="m314.594 84.489c-8.396-33.282-67.373-56.856-133.328-42.575l-4.541-20.51c-1.587-7.17-8.934-11.478-15.967-9.363l-7.624 2.293c-7.032 2.115-10.783 9.762-8.151 16.618l7.514 19.572c-56.319 21.698-93.607 66.066-85.921 96.534 8.666 34.351 71.212 38.022 139.7 20.744 68.489-17.277 116.984-48.962 108.318-83.313z" fill="#9781dd"/><path d="m314.594 84.489c-8.263-32.754-65.516-56.105-130.196-43.225v3.303c41.337-1.599 74.369 13.957 79.664 34.946 6.654 26.374-32.993 51.31-88.688 65.36-50.191 12.662-96.282 12.159-109.771-7.366-.107 3.298.203 6.495.974 9.55 8.666 34.351 71.212 38.022 139.7 20.744 68.488-17.277 116.983-48.962 108.317-83.312z" fill="#8962de"/><path d="m478.955 25.085 8.267 23.244c.354.995 1.055 1.784 1.939 2.182l20.652 9.304c2.918 1.314 2.918 5.963 0 7.278l-20.652 9.304c-.884.398-1.585 1.187-1.939 2.182l-8.267 23.244c-1.168 3.284-5.298 3.284-6.466 0l-8.267-23.244c-.354-.995-1.055-1.784-1.939-2.182l-20.652-9.304c-2.918-1.314-2.918-5.963 0-7.278l20.652-9.304c.884-.398 1.585-1.187 1.939-2.182l8.267-23.244c1.167-3.284 5.298-3.284 6.466 0z" fill="#c2b2eb"/><path d="m29.309 18.907 6.132 17.242c.263.738.782 1.323 1.438 1.619l15.319 6.902c2.164.975 2.164 4.423 0 5.398l-15.319 6.902c-.656.296-1.176.881-1.438 1.619l-6.132 17.242c-.866 2.436-3.93 2.436-4.796 0l-6.133-17.242c-.263-.738-.782-1.323-1.438-1.619l-15.319-6.902c-2.164-.975-2.164-4.423 0-5.398l15.319-6.902c.656-.296 1.176-.881 1.438-1.619l6.132-17.242c.867-2.436 3.93-2.436 4.797 0z" fill="#c2b2eb"/><g fill="#9781dd"><circle cx="448.461" cy="415.053" r="18.051"/><circle cx="393.479" cy="25.002" r="7.787"/></g></g><g><g fill="#3c122c"><path d="m463.247 244.327c.114-7.355.086-16.296.036-25.203-.013-2.204-.023-4.017-.023-5.239 0-92.477-75.908-167.782-169.481-168.479-6.903-4.078-14.782-7.587-23.519-10.399-25.629-8.248-55.477-9.601-85.24-4.072l-2.399-10.838c-1.119-5.051-4.32-9.449-8.784-12.066-4.462-2.616-9.865-3.265-14.818-1.772l-7.622 2.293c-4.955 1.49-9.104 5.009-11.382 9.655-2.279 4.645-2.523 10.079-.668 14.91l3.94 10.263c-22.452 9.382-42.656 22.507-58.573 38.309-22.874 22.708-33.041 47.431-27.894 67.832.682 2.704 1.686 5.541 3.129 8.398-6.275 17.519-9.696 36.355-9.696 55.967 0 2.441-.548 8.789-1.08 14.927-.51 5.901-.94 11.044-1.23 15.439-14.99 8.982-25.052 25.371-25.052 44.082 0 28.33 23.049 51.379 51.379 51.379 5.14 0 10.097-.781 14.781-2.196 15.488 19.232 35.106 35.002 57.495 45.952-16.24 22.264-25.842 49.662-25.842 79.268v33.729c0 5.558 4.506 10.064 10.063 10.064 5.558 0 10.064-4.506 10.064-10.064v-33.729c0-26.929 9.333-51.717 24.93-71.308 9.404 3.228 19.179 5.649 29.245 7.173-17.695 16.331-28.796 39.705-28.796 65.626v36.056c0 3.335 2.704 6.038 6.038 6.038s6.038-2.704 6.038-6.038v-26.757c.058.002.115.009.173.009h152.529c.62 0 1.218-.094 1.782-.268v27.016c0 3.335 2.704 6.038 6.038 6.038 3.335 0 6.038-2.704 6.038-6.038v-36.056c0-25.923-11.103-49.299-28.8-65.629 10.065-1.523 19.843-3.935 29.245-7.163 15.596 19.591 24.934 44.372 24.934 71.301v33.729c0 5.558 4.506 10.064 10.064 10.064s10.064-4.506 10.064-10.064v-33.729c0-29.605-9.597-57.008-25.837-79.272 22.379-10.948 41.986-26.714 57.469-45.938 4.688 1.418 9.655 2.186 14.801 2.186 28.331 0 51.38-23.049 51.38-51.379-.001-18.656-10.004-35.007-24.919-44.007zm-20.114-30.442c0 1.249.01 3.1.023 5.351.051 9.082.166 29.834-.473 36.196-2.059 6.157-7.857 18.754-12.934 28.432-1.846-6.884-3.313-14.957-4.825-23.278-3.27-17.989-6.975-38.378-16.067-54.348-11.013-19.345-28.217-29.145-51.152-29.145-.471 0-.944.004-1.419.013-11.153.193-20.835 4.581-32.045 9.662-15.743 7.135-35.335 16.014-67.483 16.014-32.02 0-54.561-8.695-72.672-15.681-2.588-.998-5.102-1.966-7.562-2.879 10.446-1.672 21.24-3.891 32.216-6.66 81.023-20.442 125.323-57.048 115.614-95.534-1.263-5.007-3.402-9.813-6.331-14.356 70.946 11.985 125.11 72.979 125.11 146.213zm-359.822 51.593c-.819 6.896-1.618 13.619-2.661 19.599-4.843-10.01-10.265-22.427-12.972-29.731-.219-4.37.875-17.022 1.547-24.8.646-7.459 1.155-13.352 1.155-16.661 0-13.489 1.851-26.558 5.295-38.987 8.471 5.474 20.383 9.864 37.113 11.884.952.115 1.937.204 2.911.302-8.011 5.239-14.475 12.718-19.342 22.407-8.38 16.686-10.859 37.565-13.046 55.987zm67.545-241.953c1.357-3.777 8.495-4.463 11.642-5.701 3.529-1.159 7.616 1.23 8.332 4.886l11.586 52.333c.742 3.349-1.251 6.747-4.536 7.735-3.289.984-6.82-.747-8.05-3.949l-19.21-50.04c-.664-1.73-.58-3.6.236-5.264zm-51.964 72.448c13.745-13.645 31.785-25.33 51.629-33.746l8.035 20.929c2.822 7.35 9.931 11.969 17.478 11.969 1.767 0 3.561-.254 5.326-.785 9.305-2.799 14.948-12.423 12.848-21.909l-4.838-21.851c10.49-1.914 20.957-2.887 31.169-2.887 15.369 0 30.156 2.161 43.556 6.475 22.129 7.121 37.36 19.377 40.742 32.783 3.832 15.187-9.533 28.766-21.419 37.482-18.137 13.301-46.406 25.237-79.602 33.613-67.599 17.054-121.212 11.399-127.48-13.448-3.315-13.136 5.118-31.313 22.556-48.625zm-24.623 223.612c-17.233 0-31.252-14.019-31.252-31.252 0-7.933 2.981-15.177 7.87-20.693 2.654 6.546 6.499 15.401 10.369 23.557 3.385 7.133 6.105 12.394 8.449 16.282 2.066 4.107 4.291 8.121 6.674 12.028-.697.047-1.4.078-2.11.078zm104.189 141.874c-.041 0-.081.005-.121.006.237-6.707 1.337-13.198 3.187-19.367h148.007c1.873 6.246 2.973 12.821 3.192 19.618-.55-.165-1.131-.256-1.735-.256h-152.53zm146.296-31.438h-138.453c5.959-12.001 14.946-22.242 25.961-29.717 2.671.126 5.357.198 8.059.198h70.413c2.702 0 5.388-.071 8.06-.198 11.014 7.475 20 17.716 25.96 29.717zm-34.02-49.647h-70.413c-53.239 0-99.994-28.202-126.173-70.437 5.442-10.984 7.254-26.126 9.15-42.088 4.979-41.928 10.856-69.437 45.797-69.777.074-.001.147-.002.222-.002 7.285 0 16.23 3.451 27.525 7.807 18.631 7.187 44.148 17.029 79.915 17.029 36.495 0 59.207-10.294 75.791-17.809 9.552-4.329 17.099-7.749 24.087-7.871 33.632-.58 41.066 26.132 48.486 66.957 3.064 16.854 5.975 32.8 12.877 43.983-25.962 43.219-73.283 72.208-127.264 72.208zm146.05-60.789c-.714 0-1.419-.033-2.121-.081 5.275-8.646 9.791-17.804 13.461-27.378.501-.966 1.014-1.964 1.546-3.016 3.912-7.728 7.602-15.798 10.076-21.931 5.138 5.569 8.291 12.996 8.291 21.153.001 17.234-14.02 31.253-31.253 31.253z"/><path d="m368.372 246.716c-4.283-5.989-10.962-9.424-18.324-9.424-7.363 0-14.042 3.435-18.326 9.424l-26.891 37.602c-5.606 7.839-5.606 18.372 0 26.211l26.892 37.602c4.283 5.989 10.962 9.424 18.325 9.424 7.362 0 14.041-3.435 18.324-9.424l26.892-37.603c5.604-7.838 5.604-18.371-.001-26.21zm17.07 56.787-26.892 37.602c-1.987 2.778-5.087 4.372-8.502 4.372-3.416 0-6.516-1.594-8.502-4.372l-26.891-37.602c-2.601-3.637-2.601-8.524 0-12.161l26.889-37.602c1.987-2.778 5.087-4.372 8.503-4.372 3.415 0 6.515 1.594 8.502 4.372l26.891 37.601c2.601 3.637 2.601 8.526.002 12.162z"/><path d="m179.332 246.716c-.001 0-.001 0 0 0-4.284-5.989-10.963-9.424-18.325-9.424-7.363 0-14.042 3.435-18.326 9.424l-26.891 37.602c-5.606 7.839-5.606 18.372 0 26.211l26.893 37.602c4.283 5.989 10.962 9.424 18.325 9.424 7.362 0 14.041-3.435 18.325-9.424l26.891-37.602c5.606-7.839 5.606-18.372 0-26.211zm17.067 56.787-26.89 37.602c-1.987 2.778-5.087 4.372-8.502 4.372-3.416 0-6.516-1.594-8.503-4.372l-26.89-37.602c-2.601-3.637-2.601-8.524-.001-12.161l26.891-37.602c1.987-2.778 5.087-4.372 8.503-4.372 3.415 0 6.515 1.594 8.501 4.372l26.891 37.602c2.601 3.637 2.601 8.524 0 12.161z"/><path d="m161.007 279.736c-9.768 0-17.686 7.919-17.686 17.686 0 9.768 7.918 17.686 17.686 17.686s17.687-7.918 17.687-17.686c-.001-9.767-7.919-17.686-17.687-17.686z"/><ellipse cx="350.048" cy="297.423" rx="17.686" ry="17.686" transform="matrix(.383 -.924 .924 .383 -58.693 507.006)"/><path d="m273.213 291.384c-3.335 0-6.038 2.704-6.038 6.038 0 6.423-5.225 11.649-11.648 11.649s-11.649-5.225-11.649-11.649c0-3.335-2.704-6.038-6.038-6.038s-6.038 2.704-6.038 6.038c0 13.082 10.643 23.725 23.725 23.725s23.724-10.643 23.724-23.725c0-3.334-2.703-6.038-6.038-6.038z"/><path d="m220.872 131.996c3.335 0 6.038-2.704 6.038-6.038v-11.402c0-3.335-2.704-6.038-6.038-6.038s-6.038 2.704-6.038 6.038v11.402c0 3.334 2.703 6.038 6.038 6.038z"/><path d="m252.782 107.521c3.335 0 6.038-2.704 6.038-6.038v-11.402c0-3.335-2.704-6.038-6.038-6.038-3.335 0-6.038 2.704-6.038 6.038v11.402c0 3.334 2.704 6.038 6.038 6.038z"/></g><path d="m107.053 130.257c-1.495 0-3.011-.334-4.443-1.04-4.985-2.458-7.033-8.491-4.575-13.477 6.019-12.205 17.707-19.376 27.101-25.138l.221-.136c4.736-2.907 10.933-1.423 13.84 3.315 2.907 4.737 1.422 10.934-3.315 13.84l-.222.137c-7.928 4.864-16.126 9.894-19.574 16.884-1.751 3.554-5.321 5.615-9.033 5.615z" fill="#fff"/></g></g></svg>