<svg id="Capa_1" enable-background="new 0 0 512 512" height="512" viewBox="0 0 512 512" width="512" xmlns="http://www.w3.org/2000/svg"><g><g><path d="m447.285 157.317c-18.488-37.338-104.061-147.277-199.427-147.277-94.836 0-183.372 111.027-200.772 150.013-73.938 165.662 83.375 263.338 83.375 263.338l1.297.004c-5.395 13.935-8.36 29.079-8.36 44.918v33.648h72.312l51.118-6.723 53.998 6.723h71.494v-33.648c0-15.772-2.941-30.855-8.292-44.74 12.354-8.095 156.501-106.924 83.257-266.256z" fill="#d789b9"/><path d="m295.904 501.886c-7.324-14.648-29.796-59.212-46.643-94.124-16.755 30.929-32.711 62.305-47.548 94.198z" fill="#c1e5ef"/><path d="m440.164 254.744c.57-5.458.867-10.998.867-16.607 0-87.289-70.761-129.06-158.05-129.06h-70.245c-87.289 0-158.05 41.771-158.05 129.06 0 5.609.297 11.149.867 16.607-17.173 4.974-29.734 20.807-29.734 39.584 0 22.763 18.453 41.217 41.217 41.217 6.487 0 12.62-1.503 18.08-4.173 28.753 39.291 75.203 64.815 127.62 64.815h70.245c52.418 0 98.867-25.525 127.62-64.815 5.459 2.67 11.593 4.173 18.08 4.173 22.763 0 41.217-18.454 41.217-41.217 0-18.777-12.561-34.61-29.734-39.584z" fill="#efc5b4"/><path d="m410.219 144.486c-6.366-4.409-12.905-8.555-19.528-12.464-13.375-7.896-28.128-15.827-43.517-20.052 26.762 23.484 43.672 57.923 43.672 96.326v10.881c0 70.766-57.367 128.134-128.133 128.134h-79.894c-67.721 0-123.164-52.539-127.811-119.079-.206 3.302-.323 6.627-.323 9.98v.001c0 87.289 70.761 158.051 158.05 158.051h70.245c5.138 0 10.215-.253 15.226-.735 4.965-1.135 9.979-2.002 14.884-2.761 1.423-.22 2.848-.425 4.273-.624 7.874-2.077 15.779-4.058 23.581-6.41-.096-.108-.186-.222-.283-.33 58.761-23.046 100.369-80.258 100.369-147.191v-.001c.001-35.095-11.455-67.504-30.811-93.726z" fill="#d994b3"/><path d="m200.939 491.629c-1.59 3.482-3.247 6.932-4.988 10.332h103.07c-4.493-6.755-8.832-13.6-12.525-20.775h-79.222c-2.052 3.516-4.189 6.981-6.335 10.443z" fill="#a6aaed"/><path d="m206.233 481.185h-82.835v20.775h71.982c3.585-6.943 7.147-13.898 10.853-20.775z" fill="#c668b9"/><path d="m342.732 387.783h-2.83c-2.341 1.139-4.694 2.253-7.077 3.31-6.907 3.063-14.391 6.204-22.053 8.021 8.133 15.626 12.794 33.641 12.794 52.845v4.226c0 13.807-11.193 25-25.001 25h-12.958c1.464 3.171 2.914 6.349 4.351 9.532.439.724.886 1.443 1.323 2.169 2.129 3.004 4.226 6.029 6.292 9.074h74.744v-33.648c.002-30.717-11.138-58.824-29.585-80.529z" fill="#c668b9"/><path d="m427.143 289.216c8.242-8.242 11.538-19.231 14.246-35.405v-14.788c0-81.895-74.567-129.349-166.551-129.349h-54.687c-91.983 0-166.551 47.454-166.551 129.349v14.788c1.568 12.878 7.062 32.108 10.908 33.207 73.404-29.76 189.741-74.549 257.69-130.768 24.023 51.941 65.467 91.701 104.945 132.966z" fill="#a07575"/><path d="m469.215 23.436 8.247 23.189c.353.993 1.052 1.78 1.934 2.177l20.602 9.282c2.911 1.311 2.911 5.949 0 7.26l-20.602 9.282c-.882.397-1.581 1.184-1.934 2.177l-8.247 23.189c-1.165 3.276-5.285 3.276-6.45 0l-8.247-23.189c-.353-.993-1.052-1.779-1.934-2.177l-20.602-9.282c-2.911-1.311-2.911-5.949 0-7.26l20.602-9.282c.882-.397 1.581-1.184 1.934-2.177l8.247-23.189c1.164-3.276 5.284-3.276 6.45 0z" fill="#e8c2d8"/><path d="m39.058 13.511 6.117 17.201c.262.736.78 1.32 1.435 1.615l15.282 6.885c2.159.973 2.159 4.413 0 5.386l-15.282 6.884c-.654.295-1.173.879-1.435 1.615l-6.117 17.201c-.864 2.43-3.921 2.43-4.785 0l-6.117-17.201c-.262-.736-.78-1.32-1.435-1.615l-15.282-6.885c-2.159-.973-2.159-4.413 0-5.386l15.282-6.885c.654-.295 1.173-.878 1.435-1.615l6.117-17.201c.864-2.429 3.921-2.429 4.785.001z" fill="#e8c2d8"/><g fill="#d789b9"><ellipse cx="45.175" cy="447.738" rx="18.007" ry="18.007" transform="matrix(.23 -.973 .973 .23 -400.965 388.836)"/><circle cx="378.064" cy="10.326" r="7.768"/></g></g><g><path d="m479.938 294.327c0-7.125-1.468-13.911-4.107-20.082.19-1.246.373-2.493.536-3.743 5.003-38.19-1.712-77.682-19.96-117.379-.04-.088-.082-.174-.125-.262-10.613-21.434-38.032-58.939-73.155-90.638-31.452-28.386-80.451-62.223-135.269-62.223-54.846 0-104.311 34.245-136.15 62.973-37.14 33.511-64.285 71.694-73.79 92.987-17.635 39.514-24.01 78.697-18.948 116.461.132.986.298 1.967.447 2.951-2.345 5.866-3.638 12.262-3.638 18.956 0 18.317 9.664 34.411 24.155 43.477 3.787 7.312 8.034 14.521 12.759 21.609 24.47 36.703 54.481 60.024 66.803 68.697-3.988 12.7-6.138 26.204-6.138 40.203v33.648c0 5.544 4.495 10.039 10.039 10.039s10.039-4.495 10.039-10.039v-33.648c0-26.864 9.311-51.592 24.869-71.136 17.079 5.861 35.388 9.05 54.43 9.05h26.359l-50.222 96.621c-1.534 2.952-.385 6.589 2.567 8.124.888.461 1.837.68 2.773.68 2.176 0 4.277-1.182 5.35-3.246l48.296-92.916 48.295 92.916c1.074 2.064 3.175 3.246 5.35 3.246.936 0 1.885-.219 2.774-.68 2.951-1.534 4.101-5.172 2.567-8.124l-50.222-96.621h26.359c19.039 0 37.347-3.188 54.424-9.048 15.56 19.543 24.875 44.269 24.875 71.134v33.648c0 5.544 4.495 10.039 10.039 10.039s10.039-4.495 10.039-10.039v-33.648c0-14.23-2.222-27.95-6.337-40.832 13.48-9.754 42.489-33.142 66.251-68.802 4.357-6.539 8.306-13.176 11.871-19.895 15.397-8.854 25.795-25.459 25.795-44.458zm-423.684-130.184c7.236-16.213 31.558-52.566 68.905-86.263 29.224-26.368 74.233-57.801 122.699-57.801 85.576 0 169.61 99.788 190.366 141.564 14.198 30.93 20.728 61.186 19.641 90.589-2.243-1.56-4.614-2.947-7.098-4.138.194-3.296.303-6.613.303-9.957 0-44.313-17.402-80.728-50.324-105.308-29.61-22.107-70.333-33.792-117.765-33.792h-70.245c-47.433 0-88.155 11.685-117.765 33.792-32.923 24.58-50.325 60.995-50.325 105.308 0 3.343.11 6.661.303 9.957-2.658 1.274-5.189 2.771-7.571 4.466-.89-28.632 5.371-58.157 18.876-88.417zm278.275-16.934c-1.581-3.12-4.464-5.378-7.872-6.167-3.403-.791-6.989-.028-9.78 2.08-63.118 47.65-155.44 96.447-247.715 131.019-2.893-11.531-4.437-23.59-4.437-36.005 0-87.754 76.458-119.021 148.011-119.021h70.245c71.553 0 148.011 31.267 148.011 119.021 0 11.924-1.427 23.519-4.102 34.634-39.729-38.745-67.565-76.641-92.361-125.561zm-298.671 147.118c0-9.878 4.626-18.685 11.817-24.399 3.839 19.972 11.214 38.702 21.463 55.499-.695.047-1.395.078-2.102.078-17.192 0-31.178-13.986-31.178-31.178zm91.363 114.564c-12.776-9.511-37.537-30.191-57.821-60.616-.601-.901-1.186-1.804-1.77-2.708 4.918-.057 9.667-.811 14.162-2.167 15.45 19.181 35.015 34.912 57.348 45.834-4.507 6.177-8.502 12.749-11.919 19.657zm85.515-22.743c-60.887 0-113.298-36.96-135.995-89.618 89.228-33.362 178.739-79.908 243.159-126.291 25.527 47.531 54.666 85.331 95.623 124.394.998.952 2.123 1.681 3.313 2.216-22.771 52.488-75.091 89.298-135.855 89.298h-70.245zm155.438 22.101c-3.345-6.673-7.224-13.034-11.59-19.018 22.328-10.921 41.889-26.649 57.337-45.825 4.118 1.245 8.452 1.987 12.933 2.146-.309.475-.601.953-.915 1.428-19.832 29.959-44.222 50.934-57.765 61.269zm60.507-82.744c-.707 0-1.406-.032-2.101-.079 10.25-16.799 17.625-35.531 21.464-55.505 7.193 5.714 11.816 14.527 11.816 24.406-.001 17.192-13.988 31.178-31.179 31.178z" fill="#3c122c"/><path d="m160.717 147.329c-1.957.623-3.923 1.288-5.842 1.979-5.217 1.878-7.924 7.63-6.046 12.846 1.473 4.094 5.332 6.642 9.447 6.642 1.128 0 2.277-.192 3.4-.596 1.685-.607 3.41-1.191 5.13-1.738 5.283-1.68 8.204-7.327 6.523-12.61-1.683-5.284-7.329-8.204-12.612-6.523z" fill="#fff"/><path d="m123.548 165.226c-13.873 9.738-24.516 22.119-30.78 35.808-2.307 5.042-.09 10.999 4.952 13.307 1.354.619 2.773.912 4.171.912 3.807 0 7.448-2.177 9.135-5.864 4.781-10.449 13.1-20.038 24.057-27.727 4.538-3.185 5.635-9.447 2.45-13.986-3.185-4.538-9.445-5.635-13.985-2.45z" fill="#fff"/><g fill="#3c122c"><path d="m359.184 245.809c-.787-.402-7.952-3.925-17.033-3.925s-16.245 3.524-17.033 3.925c-2.953 1.508-4.12 5.112-2.626 8.072 1.494 2.961 5.115 4.15 8.079 2.671.053-.026 5.328-2.621 11.58-2.621s11.528 2.594 11.556 2.608c.876.448 1.812.66 2.733.66 2.191 0 4.305-1.2 5.37-3.286 1.514-2.964.337-6.593-2.626-8.104z"/><path d="m265.502 297.372c-3.327 0-6.024 2.697-6.024 6.024 0 6.407-5.213 11.62-11.62 11.62s-11.62-5.213-11.62-11.62c0-3.327-2.697-6.024-6.024-6.024s-6.024 2.697-6.024 6.024c0 13.05 10.617 23.667 23.668 23.667s23.668-10.617 23.668-23.667c0-3.327-2.697-6.024-6.024-6.024z"/><path d="m304.83 422.998c-3.327 0-6.024 2.697-6.024 6.024v11.376c0 3.327 2.697 6.024 6.024 6.024 3.326 0 6.024-2.697 6.024-6.024v-11.376c0-3.327-2.697-6.024-6.024-6.024z"/><path d="m338.362 439.921c-3.327 0-6.024 2.697-6.024 6.024v11.375c0 3.327 2.697 6.024 6.024 6.024s6.024-2.697 6.024-6.024v-11.375c0-3.327-2.697-6.024-6.024-6.024z"/><path d="m176.402 433c-3.327 0-6.024 2.697-6.024 6.024v11.375c0 3.327 2.697 6.024 6.024 6.024s6.024-2.697 6.024-6.024v-11.375c0-3.326-2.697-6.024-6.024-6.024z"/><path d="m153.565 285.752c-9.744 0-17.644 7.9-17.644 17.644s7.899 17.644 17.644 17.644 17.644-7.9 17.644-17.644c0-9.745-7.9-17.644-17.644-17.644z"/><path d="m342.152 285.752c-9.744 0-17.644 7.9-17.644 17.644s7.9 17.644 17.644 17.644c9.745 0 17.644-7.9 17.644-17.644 0-9.745-7.899-17.644-17.644-17.644z"/></g></g></g></svg>