<svg id="Capa_1" enable-background="new 0 0 512 512" height="512" viewBox="0 0 512 512" width="512" xmlns="http://www.w3.org/2000/svg"><g><g><path d="m429.209 393.893h-368.162c-17.786 0-32.204-14.418-32.204-32.204v-132.597c0-99.716 80.836-180.552 180.551-180.552h71.468c99.716 0 180.551 80.836 180.551 180.552v132.597c0 17.786-14.418 32.204-32.204 32.204z" fill="#f6e06e"/><path d="m463.36 500.682c2.762-4.581 3.311-17.174-.831-21.876l-104.943-119.145h-59.642l-5.568 140.926" fill="#96b4eb"/><path d="m373.17 501.672v-34.616c0-70.716-57.327-128.042-128.043-128.042-70.716 0-128.042 57.327-128.042 128.042v34.616z" fill="#efc5b4"/><path d="m161.98 449.2c-1.503 6.347-2.323 12.958-2.323 19.765v32.707h170.941v-32.707c0-6.807-.819-13.418-2.323-19.765z" fill="#d789b9"/><path d="m245.118 472.328c-5.379-.001-10.471-2.38-13.973-6.529-7.745-9.177-18.838-14.441-30.433-14.441-7.923 0-15.603 2.407-22.208 6.958-5.87 4.046-13.909 2.566-17.957-3.305-4.046-5.871-2.566-13.91 3.305-17.956 10.934-7.534 23.68-11.518 36.86-11.518 16.472 0 32.258 6.321 44.406 17.574 12.148-11.253 27.933-17.574 44.405-17.574 12.963 0 25.533 3.863 36.351 11.172 5.908 3.991 7.463 12.017 3.472 17.924-3.992 5.908-12.02 7.46-17.925 3.472-6.533-4.414-14.105-6.747-21.897-6.747-11.595 0-22.688 5.264-30.433 14.441-3.501 4.149-8.595 6.529-13.973 6.529z" fill="#96b4eb"/><path d="m254.097 384.241c24.722 11.119 42.112 37.509 42.112 68.305v7.41c0 11.534-9.35 20.885-20.885 20.885h-115.667v21.108h170.941v-32.707c0-44.176-33.513-80.518-76.501-85.001z" fill="#d994b3"/><path d="m323.534 435.203c-9.704-5.98-20.682-9.283-32.018-9.63 2.964 8.184 4.614 17.079 4.681 26.384 5.402.944 10.578 3.007 15.223 6.146 5.9 3.984 13.918 2.438 17.914-3.456-1.168-6.788-3.13-13.303-5.8-19.444z" fill="#8286ea"/><path d="m310.796 460.061c-4.781-1.585-9.637-3.018-14.588-3.851v3.745c0 11.534-9.35 20.885-20.885 20.885h-115.666v20.832h170.941v-32.437c0-.664-.014-1.326-.03-1.987-6.408-2.727-13.199-5.007-19.772-7.187z" fill="#c668b9"/><path d="m442.968 247.342c.171-1.633.31-3.276.432-4.923-13.022 2.278-26.335 2.694-39.504 1.188-12.936-1.48-25.588-4.583-37.802-8.956-8.264-1.41-16.371-3.321-24.013-6.489-6.018-1.599-11.919-3.639-17.645-6.261-12.007-5.497-22.503-13.926-32.513-22.43-13.429-11.409-29.541-26.442-36.442-44.018-1.926-3.396-9.748-13.111-11.194-16.729-9.293 14.429-18.334 30.933-30.669 42.485-6.267 5.87-11.881 12.37-18.25 18.144-6.223 5.64-12.867 10.862-19.839 15.545-13.141 8.826-27.68 15.64-42.862 20.123-28.009 8.27-57.513 8.223-86.071 3.156.149 3.078.376 6.135.693 9.165-17.668 5.117-30.59 21.405-30.59 40.723 0 23.418 18.985 42.403 42.403 42.403 6.673 0 12.984-1.546 18.6-4.293 29.581 40.422 77.367 66.68 131.293 66.68h72.267c53.926 0 101.712-26.259 131.293-66.68 5.616 2.746 11.927 4.293 18.6 4.293 23.418 0 42.403-18.985 42.403-42.403-.001-19.318-12.923-35.607-30.59-40.723z" fill="#efc5b4"/><path d="m327.753 350.48c-19.037-5.163-48.844-8.179-82.625-8.179-33.001 0-61.7 2.721-80.79 7.681 0 0-13.07 3.333-19.452 3.333-30.683 0-55.556-24.873-55.556-55.556s24.873-55.557 55.556-55.557c16.189 0 36.262 13.442 36.262 13.442 1.957 1.698 41.544 11.43 63.98 11.43 21.429 0 62.983-10.549 64.033-11.452 9.725-8.364 22.377-13.42 36.21-13.42 30.683 0 55.556 24.873 55.556 55.557 0 30.683-24.873 55.556-55.556 55.556" fill="#d789b9"/><path d="m281.261 68.312h-20.851c72.803 0 131.821 59.018 131.821 131.82v11.195c0 72.803-59.018 131.821-131.821 131.821h-82.194c-69.67 0-126.708-54.05-131.489-122.505-.212 3.396-.332 6.817-.332 10.267v.001c0 89.801 72.798 162.599 162.599 162.599h72.267c89.801 0 162.599-72.798 162.599-162.599v-.001c0-89.8-72.798-162.598-162.599-162.598z" fill="#d994b3"/><path d="m383.835 257.695c-17.769 47.275-61.914 81.632-114.509 85.146 23.647 1.082 44.091 3.752 58.426 7.639l17.617 2.836c30.683 0 55.556-24.873 55.556-55.556.001-15.749-6.562-29.955-17.09-40.065z" fill="#c668b9"/><path d="m178.217 343.148c-33.604 0-64.268-12.578-87.548-33.278 5.529 24.857 27.695 43.446 54.217 43.446 6.382 0 19.452-3.333 19.452-3.333 12.9-3.352 30.2-5.677 50.24-6.835z" fill="#c668b9"/><path d="m23.864 258.755c-3.52-10.799-3.847-32.782-3.847-32.782 2.135-99.889 83.768-180.209 184.169-180.209h81.876c100.401 0 182.034 80.32 184.169 180.209 0 0 .457 19.377-6.118 30.335l-21.386-16.624c-42.659 13.74-97.739 2.262-142.684-34.038-26.113-21.09-44.752-47.289-54.919-74.288-10.166 26.999-28.805 53.198-54.919 74.288-44.969 36.319-100.083 47.79-142.752 34.016" fill="#f6e06e"/><path d="m473.864 12.56 8.484 23.856c.363 1.021 1.082 1.831 1.99 2.24l21.195 9.549c2.994 1.349 2.994 6.12 0 7.469l-21.195 9.549c-.908.409-1.627 1.218-1.99 2.24l-8.484 23.856c-1.199 3.37-5.438 3.37-6.636 0l-8.484-23.856c-.363-1.021-1.082-1.831-1.99-2.24l-21.195-9.549c-2.994-1.349-2.994-6.12 0-7.469l21.195-9.549c.908-.409 1.627-1.218 1.99-2.24l8.484-23.856c1.199-3.371 5.438-3.371 6.636 0z" fill="#e8c2d8"/><path d="m34.301 427.484 6.293 17.696c.27.758.803 1.358 1.476 1.661l15.722 7.083c2.221 1.001 2.221 4.54 0 5.54l-15.722 7.083c-.673.303-1.207.904-1.476 1.661l-6.293 17.696c-.889 2.5-4.033 2.5-4.923 0l-6.293-17.696c-.269-.758-.803-1.358-1.476-1.661l-15.722-7.083c-2.221-1.001-2.221-4.54 0-5.54l15.722-7.083c.673-.303 1.207-.904 1.476-1.661l6.293-17.696c.89-2.5 4.034-2.5 4.923 0z" fill="#e8c2d8"/><g fill="#d789b9"><ellipse cx="55.031" cy="23.327" rx="18.526" ry="18.526" transform="matrix(.526 -.851 .851 .526 6.256 57.875)"/><path d="m405.919 7.991c0 4.413-3.578 7.991-7.991 7.991-4.414 0-7.991-3.578-7.991-7.991 0-4.414 3.578-7.991 7.991-7.991 4.414 0 7.991 3.578 7.991 7.991z"/></g></g><g><ellipse cx="148.12" cy="297.393" fill="#3c122c" rx="18.152" ry="18.152" transform="matrix(.987 -.16 .16 .987 -45.725 27.567)"/><ellipse cx="342.135" cy="297.393" fill="#3c122c" rx="18.152" ry="18.152" transform="matrix(.993 -.122 .122 .993 -33.773 44.032)"/><path d="m245.128 321.742c-13.426 0-24.349-10.922-24.349-24.348 0-3.422 2.775-6.197 6.197-6.197s6.197 2.775 6.197 6.197c0 6.591 5.363 11.954 11.955 11.954s11.955-5.363 11.955-11.954c0-3.422 2.775-6.197 6.197-6.197s6.197 2.775 6.197 6.197c-.001 13.425-10.923 24.348-24.349 24.348z" fill="#3c122c"/><path d="m131.832 118.987c-3.613 0-7.119-1.898-9.015-5.272-2.793-4.973-1.026-11.269 3.947-14.063 3.565-2.002 7.267-3.9 11.002-5.641 5.17-2.41 11.315-.171 13.724 5 2.41 5.17.171 11.315-4.999 13.724-3.264 1.521-6.498 3.179-9.61 4.927-1.6.898-3.336 1.325-5.049 1.325z" fill="#fff"/><path d="m78.848 173.723c-1.505 0-3.033-.33-4.48-1.028-5.137-2.479-7.293-8.653-4.814-13.791 7.168-14.857 17.361-28.312 30.295-39.992 4.233-3.822 10.765-3.491 14.588.743 3.823 4.233 3.49 10.765-.743 14.588-10.942 9.88-19.533 21.198-25.535 33.638-1.781 3.691-5.47 5.842-9.311 5.842z" fill="#fff"/><g fill="#3c122c"><path d="m410.598 404.221h18.611c23.453 0 42.533-19.08 42.533-42.533v-40.001c7.58-9.134 12.144-20.855 12.144-33.624 0-11.008-3.408-21.224-9.202-29.686 6.129-13.023 5.922-30.538 5.873-32.626-1.092-51.075-21.808-98.919-58.332-134.718-36.579-35.854-84.936-55.598-136.163-55.598h-81.876c-51.228 0-99.585 19.745-136.164 55.598-36.524 35.799-57.239 83.643-58.33 134.718-.003.125-.003.249-.001.374.035 2.357.446 22.955 4.106 35.028-4.705 7.884-7.427 17.08-7.427 26.91 0 12.769 4.564 24.491 12.144 33.624v40.001c0 23.453 19.08 42.533 42.533 42.533h60.827c-9.659 18.866-15.117 40.223-15.117 62.834v34.616c0 5.704 4.624 10.328 10.328 10.328s10.328-4.625 10.328-10.328v-34.616c0-27.637 9.575-53.079 25.581-73.186 9.658 3.315 19.7 5.794 30.039 7.357-18.169 16.76-29.572 40.75-29.572 67.359v37.004c0 3.422 2.774 6.197 6.197 6.197 3.422 0 6.197-2.775 6.197-6.197v-31.645c.172-.091.342-.19.508-.299 8.1-5.339 22.412-10.861 32.341-10.861 10.755 0 20.999 3.364 29.624 9.726 5.024 3.707 10.912 5.56 16.8 5.56s11.776-1.853 16.8-5.56c8.626-6.362 18.869-9.726 29.624-9.726 10.267 0 23.699 5.1 31.124 9.898.547.353 1.129.608 1.725.772v32.136c0 3.422 2.775 6.197 6.197 6.197s6.197-2.775 6.197-6.197v-37.004c0-26.609-11.403-50.599-29.57-67.36 10.334-1.562 20.371-4.041 30.025-7.353 16.008 20.108 25.592 45.544 25.592 73.182v34.616c0 5.704 4.625 10.328 10.328 10.328 5.704 0 10.328-4.625 10.328-10.328v-34.616c0-30.384-9.851-58.506-26.518-81.355 2.268-1.109 4.508-2.267 6.72-3.472l91.078 103.402c1.219 1.386.598 2.785.274 3.321-2.944 4.886-1.372 11.233 3.513 14.178 1.668 1.006 3.507 1.485 5.323 1.485 3.501 0 6.916-1.781 8.856-4.998 5.316-8.82 4.327-19.926-2.464-27.638zm-129.337-21.694h-72.266c-32.406 0-62.475-10.181-87.188-27.505 7.135 2.887 14.922 4.491 23.079 4.491 6.958 0 19.568-3.164 21.01-3.531 18.569-4.825 46.708-7.483 79.231-7.483 32.819 0 62.344 2.903 81.003 7.963.055.015.111.029.167.042 1.275.309 12.645 3.009 19.071 3.009 8.158 0 15.944-1.605 23.079-4.491-24.713 17.323-54.781 27.505-87.186 27.505zm-254.234-94.463c0-10.162 4.755-19.228 12.152-25.107 3.949 20.551 11.549 39.818 22.095 57.101-.719.048-1.442.081-2.173.081-17.686 0-32.074-14.389-32.074-32.075zm31.438-34.909c13.536 2.669 27.712 3.2 42.061 1.707-10.756 11.119-17.394 26.244-17.394 42.898 0 9.262 2.063 18.047 5.732 25.94-15.671-20.107-26.413-44.231-30.399-70.545zm286.904 93.964c-4.167 0-12.94-1.889-16.083-2.643-19.675-5.32-50.34-8.372-84.159-8.372-33.545 0-62.79 2.799-82.321 7.873-4.762 1.214-13.838 3.141-17.921 3.141-27.217 0-49.36-22.142-49.36-49.359 0-27.218 22.142-49.36 49.36-49.36 10.189 0 14.621 2.144 22.666 6.038 3.393 1.642 7.238 3.503 12.209 5.551 20.187 8.317 44.623 13.283 65.367 13.283 21.58 0 49.246-6.596 65.817-12.725 5.271-1.95 9.689-4.063 13.585-5.927 7.551-3.611 13.005-6.22 20.839-6.22 27.217 0 49.36 22.142 49.36 49.36.002 27.218-22.142 49.36-49.359 49.36zm-26.187-103.68c-3.835 1.834-7.8 3.731-12.536 5.482-16.065 5.942-42.355 11.956-61.519 11.956-19.208 0-41.879-4.616-60.645-12.349-4.628-1.906-8.296-3.681-11.532-5.248-4.835-2.34-8.931-4.317-13.835-5.618 13.057-6.387 25.713-14.399 37.579-23.983 20.297-16.391 36.756-36.004 48.429-57.55 11.673 21.548 28.131 41.158 48.429 57.55 12.12 9.789 25.066 17.942 38.422 24.394-4.484 1.401-8.578 3.351-12.792 5.366zm70.545 11.42c14.358 1.494 28.542.963 42.085-1.71-3.987 26.33-14.746 50.465-30.434 70.579 3.678-7.9 5.745-16.695 5.745-25.968.001-16.656-6.639-31.781-17.396-42.901zm61.347 8.103c7.397 5.879 12.155 14.941 12.155 25.102 0 17.686-14.389 32.075-32.075 32.075-.731 0-1.454-.033-2.173-.082 10.545-17.282 18.143-36.546 22.093-57.095zm-246.887-206.87h81.876c93.853 0 171.839 76.308 173.843 170.11.069 3.293-.205 8.189-.986 12.986l-9.853-7.659c-2.697-2.096-6.258-2.724-9.504-1.676-41.055 13.223-92.031.869-133.029-32.242-23.9-19.302-41.792-43.471-51.743-69.894-1.515-4.024-5.366-6.688-9.666-6.688s-8.151 2.665-9.666 6.689c-9.949 26.421-27.84 50.59-51.742 69.893-41.024 33.131-92.021 45.479-133.091 32.222-3.319-1.07-6.958-.394-9.671 1.8l-9.869 7.988c-.481-5.525-.689-10.783-.738-13.618 2.105-93.708 80.048-169.911 173.839-169.911zm-165.017 305.597v-24.816c6.153 2.522 12.88 3.924 19.931 3.924 5.277 0 10.367-.798 15.176-2.25 14.911 18.513 33.545 33.908 54.764 45.019h-67.995c-12.062-.001-21.876-9.815-21.876-21.877zm252.382 88.703c-13.422 0-26.21 4.2-36.981 12.147-5.646 4.166-13.237 4.167-18.885 0-10.772-7.947-23.56-12.147-36.982-12.147-10.189 0-22.705 4.083-32.309 8.969.877-7.527 2.809-14.737 5.651-21.473 7.971-5.039 17.165-7.705 26.658-7.705 14.33 0 27.992 6.171 37.485 16.929 2.266 2.569 5.524 4.042 8.939 4.042s6.673-1.473 8.939-4.041c9.493-10.759 23.156-16.93 37.486-16.93 9.479 0 18.679 2.664 26.649 7.696 2.809 6.659 4.741 13.775 5.633 21.208-9.006-4.608-21.391-8.695-32.283-8.695zm16.076-30.499c-5.208-1.385-10.604-2.103-16.076-2.103-17.706 0-34.595 7.547-46.424 20.725-11.829-13.178-28.719-20.725-46.424-20.725-5.472 0-10.865.714-16.068 2.097 5.103-6.529 11.207-12.236 18.077-16.9 2.745.13 5.506.197 8.282.197h72.266c2.782 0 5.548-.067 8.297-.198 6.868 4.666 12.969 10.376 18.07 16.907zm108.351-81.348c4.809 1.453 9.898 2.251 15.175 2.251 7.051 0 13.778-1.401 19.931-3.924v24.816c0 12.062-9.814 21.876-21.876 21.876h-36.806l-10.957-12.44c12.948-9.235 24.571-20.211 34.533-32.579z"/><path d="m363.36 192.967c-3.422 0-6.197-2.775-6.197-6.197v-11.703c0-3.422 2.775-6.197 6.197-6.197s6.197 2.775 6.197 6.197v11.703c0 3.422-2.774 6.197-6.197 6.197z"/><path d="m393.231 169.976c-3.422 0-6.197-2.775-6.197-6.197v-11.703c0-3.422 2.775-6.197 6.197-6.197s6.197 2.775 6.197 6.197v11.703c0 3.422-2.775 6.197-6.197 6.197z"/><path d="m419.663 211.511c-3.422 0-6.197-2.775-6.197-6.197v-11.703c0-3.422 2.775-6.197 6.197-6.197s6.197 2.775 6.197 6.197v11.703c0 3.422-2.775 6.197-6.197 6.197z"/></g></g></g></svg>