<svg id="Capa_1" enable-background="new 0 0 512 512" height="512" viewBox="0 0 512 512" width="512" xmlns="http://www.w3.org/2000/svg"><g><g><path d="m381.603 501.445v-33.624c0-68.69-55.684-124.374-124.374-124.374-68.69 0-124.374 55.684-124.374 124.374v33.624z" fill="#c1e5ef"/><path d="m278.31 434.742v-13.807c0-7.829-6.347-14.177-14.177-14.177h-13.807c-7.83 0-14.177 6.348-14.177 14.177v13.807c0 6.266 4.07 11.573 9.708 13.447l-8.185 26.998c-.997 8.29.212 16.698 3.505 24.372l.806 1.877h30.996l1.034-2.772c2.664-7.144 3.567-14.825 2.632-22.393l-8.633-27.902c5.94-1.689 10.298-7.143 10.298-13.627z" fill="#96b4eb"/><path d="m265.941 387.11c24.014 10.801 40.905 36.434 40.905 66.348v7.197c0 11.204-9.083 20.287-20.287 20.287h-112.352v20.503h166.044v-31.77c0-42.909-32.554-78.209-74.31-82.565z" fill="#a6aaed"/><path d="m233.639 480.942c1.466 6.944 3.463 13.79 5.886 20.502h31.025c2.332-6.689 4.292-13.457 5.088-20.502z" fill="#8286ea"/><path d="m202.223 414.606 23.356 28.883 31.65-39.86 31.233 39.86 23.663-28.666v-32.548h-109.792s-.11 31.932-.11 32.331z" fill="#fff"/><path d="m449.4 254.401c.57-5.454.867-10.99.867-16.595v-.001c0-87.227-70.712-157.94-157.94-157.94h-70.196c-87.228 0-157.94 70.712-157.94 157.94v.001c0 5.605.297 11.141.866 16.595-17.162 4.971-29.713 20.793-29.713 39.556 0 22.748 18.441 41.188 41.188 41.188 6.482 0 12.612-1.501 18.067-4.169 28.733 39.263 75.15 64.77 127.531 64.77h70.196c52.381 0 98.798-25.506 127.531-64.77 5.455 2.668 11.585 4.169 18.067 4.169 22.747 0 41.188-18.44 41.188-41.188.001-18.763-12.55-34.585-29.712-39.556z" fill="#efc5b4"/><path d="m292.327 80.717h-20.253c70.717 0 128.044 57.327 128.044 128.044v10.874c0 70.717-57.327 128.044-128.044 128.044h-79.839c-67.674 0-123.078-52.502-127.721-118.995-.206 3.299-.323 6.622-.323 9.973v.001c0 87.228 70.712 157.94 157.94 157.94h70.196c87.228 0 157.94-70.712 157.94-157.94v-.001c0-87.228-70.712-157.94-157.94-157.94z" fill="#d994b3"/><path d="m81.207 173.876s-37.232 74.327 7.228 144.986l27.766.154c2.387-7.802 5.383-99.386 5.527-122.63.224-36.338-40.521-22.51-40.521-22.51z" fill="#e8a284"/><path d="m435.531 173.656s38.399 73.731-4.942 145.082l-27.76.592c-2.509-7.763-6.949-99.289-7.459-122.528-.797-36.331 40.161-23.146 40.161-23.146z" fill="#e8a284"/><path d="m429.027 169.18c0 35.058-76.917 63.478-171.798 63.478s-171.799-28.42-171.799-63.478l-2.415-49.501-5.895-36.741c-3.931-24.496 12.858-47.501 37.387-51.226 0 0 106.144-21.679 142.722-21.679s139.862 21.659 139.862 21.659c24.243 3.754 40.919 26.362 37.347 50.632l-5.497 37.355z" fill="#96b4eb"/><path d="m421.895 166.269h-331.833c-6.465 0-11.706-5.241-11.706-11.706v-29.001c0-6.465 5.241-11.706 11.706-11.706h331.833c6.465 0 11.706 5.241 11.706 11.706v29.001c0 6.465-5.241 11.706-11.706 11.706z" fill="#c1e5ef"/><path d="m421.895 113.855h-40.761c4.546 0 8.231 3.685 8.231 8.231v13.139c0 4.546-3.685 8.231-8.231 8.231h-294.546c-4.546 0-8.231-3.685-8.231-8.231v19.337c0 6.465 5.241 11.706 11.706 11.706h331.833c6.465 0 11.706-5.241 11.706-11.706v-29.001c-.001-6.465-5.242-11.706-11.707-11.706z" fill="#a6aaed"/><path d="m287.646 122.772-19.753 16.931c-6.137 5.26-15.192 5.26-21.329 0l-19.753-16.931c-3.632-3.113-5.722-7.658-5.722-12.442v-43.193c0-9.05 7.337-16.387 16.387-16.387h39.506c9.05 0 16.387 7.337 16.387 16.387v43.193c-.001 4.784-2.091 9.329-5.723 12.442z" fill="#f6e06e"/><path d="m276.982 50.751h-12.026c7.103 0 12.861 5.758 12.861 12.861v33.9c0 3.754-1.641 7.322-4.491 9.765l-15.503 13.288c-4.816 4.128-11.923 4.128-16.74 0l-15.503-13.288c-2.851-2.443-4.491-6.011-4.491-9.765v12.819c0 4.784 2.09 9.328 5.722 12.441l19.753 16.931c6.137 5.26 15.192 5.26 21.329 0l19.753-16.931c3.632-3.113 5.722-7.658 5.722-12.441v-43.193c0-9.051-7.336-16.387-16.386-16.387z" fill="#dda86a"/><path d="m133.557 470.837-7.009-1.73c-5.549-1.369-8.937-6.977-7.567-12.526l10.493-42.523c1.369-5.549 6.977-8.937 12.526-7.568l7.009 1.729c5.549 1.369 8.937 6.977 7.568 12.526l-10.493 42.523c-1.371 5.55-6.979 8.938-12.527 7.569z" fill="#96b4eb"/><path d="m380.901 470.837 7.009-1.73c5.549-1.369 8.937-6.977 7.568-12.526l-10.493-42.523c-1.369-5.549-6.977-8.937-12.526-7.568l-7.009 1.729c-5.549 1.369-8.937 6.977-7.568 12.526l10.493 42.523c1.369 5.55 6.977 8.938 12.526 7.569z" fill="#96b4eb"/><path d="m40.512 381.113 8.241 23.173c.353.992 1.051 1.778 1.933 2.175l20.588 9.276c2.909 1.31 2.909 5.945 0 7.255l-20.588 9.276c-.881.397-1.58 1.183-1.933 2.175l-8.241 23.172c-1.164 3.274-5.282 3.274-6.446 0l-8.241-23.172c-.353-.992-1.051-1.778-1.933-2.175l-20.588-9.276c-2.909-1.31-2.909-5.945 0-7.255l20.588-9.276c.882-.397 1.58-1.183 1.933-2.175l8.241-23.173c1.164-3.273 5.282-3.273 6.446 0z" fill="#c1e5ef"/><path d="m486.44 355.878 6.113 17.189c.262.736.78 1.319 1.434 1.614l15.272 6.88c2.158.972 2.158 4.41 0 5.382l-15.272 6.88c-.654.295-1.172.878-1.434 1.614l-6.113 17.189c-.863 2.428-3.918 2.428-4.781 0l-6.113-17.189c-.262-.736-.78-1.319-1.434-1.614l-15.272-6.88c-2.157-.972-2.157-4.41 0-5.382l15.272-6.88c.654-.295 1.172-.878 1.434-1.614l6.113-17.189c.864-2.429 3.918-2.429 4.781 0z" fill="#c1e5ef"/><path d="m456.902 448.552c0 4.287-3.475 7.763-7.762 7.763s-7.763-3.475-7.763-7.763c0-4.287 3.475-7.762 7.763-7.762 4.287 0 7.762 3.475 7.762 7.762z" fill="#96b4eb"/></g><g><g fill="#3c122c"><path d="m459.996 247.766c.194-3.297.304-6.616.304-9.96 0-27.195-6.521-52.887-18.044-75.633.889-2.37 1.378-4.934 1.378-7.61v-29.001c0-4.448-1.345-8.586-3.646-12.034l4.377-29.743c4.343-29.518-16.036-57.254-45.464-61.964-6.952-1.454-105.028-21.821-141.672-21.821-36.651 0-137.509 20.412-144.492 21.833-14.419 2.26-27.09 9.991-35.7 21.789-8.663 11.869-12.151 26.397-9.823 40.905l4.674 29.128c-2.25 3.423-3.564 7.513-3.564 11.907v29.001c0 3.698.931 7.182 2.567 10.235-10.709 22.09-16.733 46.856-16.733 73.009 0 3.343.11 6.661.303 9.956-17.221 8.26-29.15 25.854-29.15 46.195 0 28.244 22.978 51.221 51.221 51.221 5.126 0 10.071-.775 14.743-2.185 15.439 19.168 34.989 34.888 57.306 45.803-2.687 3.686-5.186 7.515-7.494 11.47-7.947-.77-15.491 4.375-17.46 12.351l-10.492 42.523c-1.967 7.968 2.307 16.023 9.686 19.046v27.258c0 5.54 4.492 10.032 10.032 10.032 5.541 0 10.032-4.492 10.032-10.032v-25.798c.548-.254 1.088-.531 1.613-.848 3.742-2.26 6.379-5.843 7.426-10.087l10.493-42.523c1.047-4.244.379-8.643-1.882-12.385-.294-.486-.612-.951-.948-1.399 2.481-4.063 5.209-7.957 8.161-11.667 9.167 3.146 18.689 5.52 28.489 7.043-.001.242-.001.481-.002.719-17.256 16.249-28.049 39.289-28.049 64.806v35.944c0 3.324 2.695 6.02 6.019 6.02s6.019-2.695 6.019-6.02v-35.944c0-18.945 6.882-36.309 18.273-49.733l22.399 27.699c1.143 1.414 2.863 2.235 4.681 2.235h.027c1.827-.008 3.551-.846 4.687-2.276l2.301-2.898c1.476 2.725 3.552 5.075 6.06 6.864l-6.743 22.241c-.102.336-.174.68-.216 1.028-1.122 9.331.243 18.827 3.95 27.465l2.755 6.42c1.312 3.055 4.851 4.468 7.906 3.158 3.055-1.311 4.469-4.851 3.158-7.905l-2.755-6.42c-2.804-6.536-3.88-13.707-3.118-20.773l6.513-21.483c.075.001.148.01.223.01h13.417l6.987 22.584c.711 6.417-.101 12.988-2.358 19.038l-2.728 7.315c-1.162 3.115.421 6.582 3.536 7.744.693.259 1.404.381 2.103.381 2.441-.001 4.738-1.496 5.641-3.918l2.728-7.315c2.99-8.017 4.016-16.742 2.966-25.235-.044-.353-.118-.701-.223-1.04l-7.1-22.949c2.645-1.766 4.844-4.138 6.411-6.919l2.019 2.576c1.124 1.435 2.838 2.284 4.662 2.307h.076c1.795 0 3.498-.802 4.642-2.188l22.88-27.717c11.376 13.421 18.248 30.772 18.248 49.704v35.944c0 3.324 2.695 6.02 6.019 6.02s6.019-2.695 6.019-6.02v-35.944c0-25.555-10.826-48.625-28.127-64.878v-.636c9.825-1.522 19.37-3.901 28.56-7.053 2.952 3.709 5.691 7.595 8.172 11.657-.339.45-.659.917-.954 1.406-2.261 3.742-2.929 8.141-1.882 12.385l10.493 42.523c1.047 4.244 3.684 7.827 7.426 10.088.524.317 1.065.594 1.613.848v25.797c0 5.54 4.491 10.032 10.032 10.032s10.032-4.492 10.032-10.032v-27.258c7.379-3.023 11.653-11.078 9.686-19.046l-10.492-42.523c-1.968-7.977-9.514-13.12-17.465-12.35-2.308-3.955-4.812-7.78-7.499-11.466 22.319-10.915 41.872-26.634 57.313-45.804 4.672 1.412 9.62 2.181 14.747 2.181 28.243 0 51.221-22.978 51.221-51.221 0-20.34-11.928-37.932-29.15-46.19zm-309.265 171.538-10.493 42.523c-.277 1.123-.975 2.07-1.964 2.668s-2.152.774-3.274.498c0 0 0 0-.001 0l-7.008-1.729c-2.318-.572-3.738-2.922-3.166-5.24l10.492-42.523c.486-1.97 2.259-3.292 4.203-3.292.342 0 .69.041 1.036.126l7.01 1.73c1.122.277 2.07.975 2.667 1.964.598.989.775 2.153.498 3.275zm228.41-3.803 10.492 42.523c.572 2.317-.848 4.668-3.165 5.24l-7.009 1.729s0 0-.001 0c-1.122.276-2.285.1-3.275-.498s-1.687-1.545-1.964-2.668l-10.493-42.523c-.277-1.122-.1-2.286.498-3.274.598-.99 1.545-1.687 2.668-1.964l7.008-1.73c.347-.085.694-.126 1.036-.126 1.946-.001 3.719 1.321 4.205 3.291zm42.859-106.615-10.521.224c-1.847-18.99-4.417-67.062-5.559-96.467 11.953-6.773 20.839-14.404 26.383-22.633 5.137 15 7.931 31.077 7.931 47.796 0 25.746-6.618 49.973-18.234 71.08zm-328.001-.246c-.458.169-.918.351-1.376.542-11.718-21.176-18.4-45.509-18.4-71.376 0-16.718 2.797-32.793 7.933-47.792 5.976 8.867 15.834 17.04 29.228 24.194-.709 29.544-2.479 76.091-3.995 94.726l-13.268-.074c-.042-.072-.08-.146-.122-.22zm125.639-184.752c.952 1.252 2.039 2.412 3.256 3.454l19.753 16.931c4.225 3.621 9.402 5.432 14.582 5.432 5.178 0 10.358-1.81 14.582-5.432l19.753-16.931c1.216-1.043 2.304-2.203 3.256-3.454h127.076c.923 0 1.673.751 1.673 1.673v29.001c0 .923-.751 1.673-1.673 1.673h-331.834c-.923 0-1.673-.75-1.673-1.673v-29.001c0-.923.75-1.673 1.673-1.673zm67.711-13.558c0 3.03-1.32 5.9-3.621 7.872l-19.753 16.931c-3.909 3.351-9.585 3.351-13.494 0l-19.753-16.931c-2.301-1.972-3.621-4.842-3.621-7.872v-43.192c0-5.717 4.651-10.368 10.368-10.368h39.506c5.717 0 10.367 4.651 10.367 10.368v43.192zm-190.079 65.971h319.917c-4.947 9.985-19.857 20.19-41.956 28.355-31.363 11.588-73.27 17.97-118.003 17.97s-86.64-6.382-118.003-17.97c-22.098-8.166-37.008-18.37-41.955-28.355zm-4.026-120.85c5.485-7.514 13.571-12.423 22.769-13.82.168-.025.335-.056.501-.089 1.052-.215 105.557-21.477 140.715-21.477 35.121 0 136.781 21.231 137.803 21.445.173.036.348.069.524.095 18.725 2.9 31.716 20.512 28.957 39.258l-3.379 22.961h-121.746v-36.686c0-12.355-10.051-22.406-22.406-22.406h-39.506c-12.355 0-22.406 10.051-22.406 22.406v36.686h-124.438l-3.607-22.476c-1.474-9.185.735-18.383 6.219-25.897zm-16.712 269.662c-17.18 0-31.156-13.977-31.156-31.156 0-9.87 4.624-18.669 11.809-24.38 3.837 19.96 11.208 38.677 21.451 55.463-.695.047-1.396.073-2.104.073zm149.004 108.75-17.287-21.379c.002-.705.005-1.566.008-2.537 1.871-1.546 3.818-2.999 5.831-4.366 2.666.126 5.346.196 8.043.196h25.705zm46.754.879c0 4.499-3.66 8.158-8.158 8.158h-13.807c-4.498 0-8.158-3.659-8.158-8.158v-2.464l15.03-18.928 15.093 19.26zm16.293-.857-22.024-28.107h25.768c2.697 0 5.377-.07 8.043-.196 1.978 1.343 3.894 2.768 5.734 4.284v2.794zm3.744-48.172h-70.196c-47.185 0-89.279-22.209-116.38-56.723l10.393.058h.056c4.407 0 8.302-2.878 9.593-7.097 2.357-7.706 4.413-63.848 5.38-98.892.368.139.727.28 1.099.417 33.534 12.391 77.911 19.214 124.957 19.214s91.423-6.824 124.957-19.214c1.388-.513 2.745-1.037 4.086-1.566 1.496 34.875 4.491 92.708 7.011 100.504 1.341 4.148 5.202 6.947 9.544 6.947.072 0 .144-.001.216-.002l5.463-.117c-27.108 34.37-69.11 56.471-116.179 56.471zm145.598-60.6c-.706 0-1.405-.032-2.1-.079 10.242-16.787 17.612-35.505 21.448-55.466 7.187 5.71 11.807 14.517 11.807 24.389.001 17.18-13.975 31.156-31.155 31.156z"/><path d="m180.022 245.472c-.787-.402-7.947-3.923-17.021-3.923s-16.235 3.521-17.021 3.923c-2.951 1.506-4.117 5.107-2.625 8.066 1.492 2.957 5.106 4.148 8.073 2.669.052-.026 5.325-2.619 11.572-2.619s11.519 2.592 11.547 2.606c.877.448 1.811.659 2.732.659 2.19 0 4.302-1.199 5.367-3.284 1.512-2.96.337-6.586-2.624-8.097z"/><path d="m368.478 245.472c-.787-.402-7.947-3.923-17.021-3.923s-16.234 3.521-17.021 3.923c-2.951 1.506-4.117 5.108-2.624 8.066 1.492 2.959 5.107 4.148 8.074 2.669.052-.026 5.324-2.619 11.572-2.619s11.52 2.592 11.548 2.606c.877.448 1.811.659 2.732.659 2.19 0 4.302-1.199 5.367-3.284 1.509-2.96.333-6.586-2.627-8.097z"/><path d="m274.86 297c-3.324 0-6.019 2.695-6.019 6.019 0 6.402-5.209 11.612-11.612 11.612s-11.612-5.209-11.612-11.612c0-3.324-2.695-6.019-6.019-6.019s-6.02 2.695-6.02 6.019c0 13.041 10.61 23.651 23.651 23.651s23.651-10.609 23.651-23.651c0-3.324-2.695-6.019-6.02-6.019z"/><path d="m386.75 93.005c3.324 0 6.019-2.695 6.019-6.019v-11.368c0-3.324-2.695-6.019-6.019-6.019s-6.019 2.695-6.019 6.019v11.368c-.001 3.324 2.694 6.019 6.019 6.019z"/><path d="m357.135 74.112c3.324 0 6.019-2.695 6.019-6.019v-11.367c0-3.324-2.695-6.019-6.019-6.019s-6.019 2.695-6.019 6.019v11.367c0 3.324 2.695 6.019 6.019 6.019z"/><circle cx="163.001" cy="303.019" r="17.632"/><circle cx="351.457" cy="303.019" r="17.632"/></g><path d="m154.175 68.584c-4.615 0-8.77-3.205-9.792-7.899-1.18-5.413 2.252-10.758 7.666-11.938 6.889-1.501 13.784-2.428 20.453-3.324 2.825-.38 5.746-.773 8.571-1.198 5.484-.826 10.59 2.948 11.415 8.427.825 5.48-2.948 10.59-8.427 11.415-2.983.449-5.984.852-8.887 1.242-6.561.882-12.759 1.715-18.853 3.043-.72.156-1.438.232-2.146.232z" fill="#fff"/><path d="m125.128 81.667c-2.861 0-5.701-1.217-7.686-3.578-3.565-4.241-3.016-10.57 1.225-14.135 1.158-.974 2.388-1.929 3.653-2.84 4.498-3.234 10.767-2.214 14.003 2.284 3.236 4.497 2.214 10.766-2.283 14.003-.859.618-1.688 1.262-2.463 1.913-1.88 1.581-4.171 2.353-6.449 2.353z" fill="#fff"/></g></g></svg>